<svg width="1175" height="223" viewBox="0 0 1175 223" fill="none" xmlns="http://www.w3.org/2000/svg">
<g clip-path="url(#clip0_249_155)">
<path fill-rule="evenodd" clip-rule="evenodd" d="M89 0H171V8H357V0H439V8H1175V223H0V8H89V0Z" fill="url(#paint0_linear_249_155)"/>
<line x1="213" y1="112" x2="226.029" y2="112" stroke="#EDEDED" stroke-width="4" stroke-linecap="round"/>
<line x1="345" y1="112" x2="358.029" y2="112" stroke="#EDEDED" stroke-width="4" stroke-linecap="round"/>
<g clip-path="url(#clip1_249_155)">
<path fill-rule="evenodd" clip-rule="evenodd" d="M260.574 99.2844C259.132 100.728 259.132 103.068 260.574 104.512L281.756 125.713C283.199 127.157 285.537 127.157 286.979 125.713L308.162 104.512C309.604 103.068 309.604 100.728 308.162 99.2844L286.979 78.0826C285.537 76.6391 283.199 76.6391 281.756 78.0826L260.574 99.2844ZM290.727 101.879C290.727 105.468 287.832 108.306 284.349 108.306C281.138 108.306 278.426 105.893 278.023 102.703V101.055C278.426 97.8653 281.138 95.4527 284.349 95.4527C287.832 95.4527 290.727 98.29 290.727 101.879ZM278.023 110.064V121.959L274.011 117.946V101.96C274.011 101.952 274.011 101.945 274.011 101.938C274.011 101.918 274.011 101.899 274.011 101.879C274.011 96.1641 278.639 91.5311 284.349 91.5311C290.059 91.5311 294.688 96.1641 294.688 101.879C294.688 107.594 290.059 112.227 284.349 112.227C281.966 112.227 279.771 111.42 278.023 110.064Z" fill="white"/>
<path fill-rule="evenodd" clip-rule="evenodd" d="M260.507 104.512C259.065 103.069 259.065 100.729 260.507 99.2851L272.693 87.0886C276.495 86.3556 280.421 85.9717 284.437 85.9717C288.335 85.9717 292.149 86.3333 295.846 87.0249L308.095 99.2851C309.537 100.729 309.537 103.069 308.095 104.512L286.912 125.714C285.47 127.158 283.132 127.158 281.69 125.714L260.507 104.512ZM290.727 101.88C290.727 105.469 287.831 108.306 284.349 108.306C281.137 108.306 278.425 105.894 278.022 102.704V101.056C278.425 97.866 281.137 95.4534 284.349 95.4534C287.831 95.4534 290.727 98.2907 290.727 101.88ZM278.022 110.065V121.96L274.01 117.946V101.961C274.01 101.957 274.01 101.953 274.01 101.95C274.01 101.946 274.01 101.942 274.01 101.938C274.01 101.919 274.01 101.899 274.01 101.88C274.01 96.1648 278.639 91.5319 284.349 91.5319C290.058 91.5319 294.687 96.1648 294.687 101.88C294.687 107.595 290.058 112.228 284.349 112.228C281.965 112.228 279.771 111.421 278.022 110.065Z" fill="#F4F5F6"/>
<path fill-rule="evenodd" clip-rule="evenodd" d="M290.727 101.879C290.727 105.468 287.831 108.306 284.349 108.306C280.867 108.306 277.972 105.47 277.97 101.882V101.879V101.877C277.972 98.2887 280.867 95.4527 284.349 95.4527C287.831 95.4527 290.727 98.29 290.727 101.879ZM277.97 110.024V121.907L274.01 117.946V101.96C274.01 101.952 274.01 101.945 274.01 101.938C274.01 101.918 274.01 101.899 274.01 101.879C274.01 98.7984 275.355 96.0322 277.489 94.1365C271.468 94.9106 265.756 96.6773 260.524 99.2674L260.507 99.2843C259.065 100.728 259.065 103.068 260.507 104.511L281.69 125.713C283.132 127.157 285.47 127.157 286.912 125.713L308.095 104.511C309.537 103.068 309.537 100.728 308.095 99.2843L307.82 99.0084C302.673 96.5304 297.073 94.845 291.178 94.1104C293.33 96.0067 294.687 98.7842 294.687 101.879C294.687 107.594 290.058 112.227 284.349 112.227C281.942 112.227 279.727 111.404 277.97 110.024Z" fill="#E9E8E7"/>
<path fill-rule="evenodd" clip-rule="evenodd" d="M290.728 101.879C290.728 105.468 287.832 108.306 284.349 108.306C280.868 108.306 277.972 105.47 277.971 101.882V101.881C280.122 101.575 282.32 101.416 284.556 101.416C286.648 101.416 288.708 101.555 290.727 101.824C290.728 101.842 290.728 101.861 290.728 101.879ZM294.668 102.525C294.335 107.939 289.843 112.227 284.349 112.227C281.943 112.227 279.728 111.404 277.971 110.024V121.872L281.809 125.714C283.251 127.157 285.589 127.157 287.031 125.714L306.033 106.694C302.491 104.834 298.678 103.419 294.668 102.525ZM274.011 117.908L262.9 106.788C266.366 104.949 270.093 103.537 274.011 102.624V117.908Z" fill="#D9D8D7"/>
<path fill-rule="evenodd" clip-rule="evenodd" d="M277.971 121.868L281.812 125.713C283.254 127.156 285.592 127.156 287.034 125.713L300.476 112.259C297.623 110.964 294.584 110.006 291.411 109.437C289.563 111.167 287.079 112.227 284.349 112.227C281.942 112.227 279.727 111.404 277.971 110.024V121.868ZM274.01 110.29V117.904L268.455 112.344C270.238 111.523 272.094 110.835 274.01 110.29Z" fill="#C9C8C7"/>
<path fill-rule="evenodd" clip-rule="evenodd" d="M278.022 117.233V121.959L274.332 118.268C274.327 118.269 274.323 118.271 274.318 118.272L281.753 125.714C283.195 127.157 285.533 127.157 286.975 125.714L294.479 118.202C291.349 117.132 287.992 116.552 284.5 116.552C282.278 116.552 280.111 116.787 278.022 117.233Z" fill="#B1B2B3"/>
</g>
<path d="M237.134 152H240.825V146.341H243.927C247.941 146.341 250.276 143.946 250.276 140.46C250.276 136.991 247.984 134.545 244.021 134.545H237.134V152ZM240.825 143.384V137.562H243.313C245.444 137.562 246.475 138.722 246.475 140.46C246.475 142.19 245.444 143.384 243.33 143.384H240.825ZM256.236 144.432C256.244 142.744 257.276 141.756 258.759 141.756C260.233 141.756 261.102 142.702 261.094 144.312V152H264.724V143.665C264.733 140.597 262.926 138.739 260.199 138.739C258.213 138.739 256.884 139.676 256.287 141.219H256.134V134.545H252.605V152H256.236V144.432ZM271.315 152.247C273.249 152.247 274.502 151.403 275.141 150.185H275.244V152H278.687V143.17C278.687 140.051 276.045 138.739 273.13 138.739C269.994 138.739 267.931 140.239 267.428 142.625L270.786 142.898C271.033 142.028 271.809 141.389 273.113 141.389C274.349 141.389 275.056 142.011 275.056 143.085V143.136C275.056 143.98 274.161 144.091 271.886 144.312C269.295 144.551 266.968 145.42 266.968 148.344C266.968 150.935 268.817 152.247 271.315 152.247ZM272.354 149.741C271.238 149.741 270.437 149.222 270.437 148.224C270.437 147.202 271.281 146.699 272.559 146.52C273.352 146.409 274.647 146.222 275.082 145.932V147.321C275.082 148.693 273.948 149.741 272.354 149.741ZM287.469 152.256C290.708 152.256 292.89 150.679 293.401 148.25L290.043 148.028C289.677 149.026 288.739 149.545 287.529 149.545C285.714 149.545 284.563 148.344 284.563 146.392V146.384H293.478V145.386C293.478 140.938 290.785 138.739 287.325 138.739C283.472 138.739 280.975 141.474 280.975 145.514C280.975 149.665 283.438 152.256 287.469 152.256ZM284.563 144.134C284.64 142.642 285.773 141.449 287.384 141.449C288.961 141.449 290.052 142.574 290.06 144.134H284.563ZM302.81 138.909H300.347V135.773H296.717V138.909H294.927V141.636H296.717V148.455C296.7 151.02 298.447 152.29 301.08 152.179C302.018 152.145 302.683 151.957 303.049 151.838L302.478 149.136C302.299 149.17 301.915 149.256 301.575 149.256C300.85 149.256 300.347 148.983 300.347 147.977V141.636H302.81V138.909ZM310.95 152.256C314.921 152.256 317.393 149.537 317.393 145.506C317.393 141.449 314.921 138.739 310.95 138.739C306.978 138.739 304.506 141.449 304.506 145.506C304.506 149.537 306.978 152.256 310.95 152.256ZM310.967 149.443C309.134 149.443 308.197 147.764 308.197 145.48C308.197 143.196 309.134 141.509 310.967 141.509C312.765 141.509 313.702 143.196 313.702 145.48C313.702 147.764 312.765 149.443 310.967 149.443ZM323.384 144.432C323.393 142.744 324.398 141.756 325.864 141.756C327.322 141.756 328.2 142.71 328.191 144.312V152H331.822V143.665C331.822 140.614 330.032 138.739 327.305 138.739C325.362 138.739 323.955 139.693 323.367 141.219H323.214V138.909H319.754V152H323.384V144.432Z" fill="#EDEDED"/>
<path fill-rule="evenodd" clip-rule="evenodd" d="M146.172 113.385C144.609 114.947 144.609 117.48 146.172 119.042L167.385 140.255C168.947 141.817 171.48 141.817 173.042 140.255L194.255 119.042C195.817 117.48 195.817 114.947 194.255 113.385L173.042 92.1716C171.48 90.6095 168.947 90.6095 167.385 92.1716L146.172 113.385ZM164.785 124.773L165.162 122.936L162.223 122.35C162.02 122.309 161.889 122.11 161.931 121.908L162.232 120.438C162.252 120.341 162.31 120.255 162.393 120.2C162.476 120.146 162.578 120.126 162.675 120.146L163.778 120.355C164.07 120.415 164.374 120.357 164.623 120.193C164.872 120.028 165.046 119.772 165.106 119.48L166.765 111.39C166.825 111.099 166.767 110.797 166.604 110.548C166.442 110.3 166.187 110.125 165.897 110.064L164.786 109.844C164.583 109.802 164.455 109.603 164.497 109.402L164.795 107.948C164.815 107.851 164.873 107.765 164.956 107.711C165.039 107.656 165.14 107.636 165.237 107.656L168.177 108.242L168.553 106.406C168.573 106.308 168.631 106.223 168.714 106.168C168.797 106.113 168.899 106.094 168.996 106.114L170.358 106.393C170.456 106.413 170.541 106.471 170.596 106.554C170.651 106.637 170.67 106.738 170.65 106.836L170.273 108.673L171.115 108.845L171.492 107.009C171.512 106.911 171.57 106.826 171.653 106.771C171.736 106.716 171.837 106.697 171.935 106.717L173.404 107.018C173.502 107.038 173.587 107.096 173.642 107.179C173.697 107.262 173.716 107.363 173.696 107.461L173.319 109.297L173.455 109.325C176.033 109.854 177.443 111.567 176.981 113.819C176.615 115.605 175.346 116.466 173.848 116.529L173.821 116.659C175.519 117.186 176.751 118.696 176.298 120.903C175.759 123.529 173.356 124.617 170.428 124.017L170.305 123.991L169.928 125.828C169.908 125.926 169.85 126.011 169.767 126.066C169.684 126.121 169.583 126.14 169.486 126.12L168.016 125.819C167.813 125.777 167.683 125.579 167.724 125.376L168.101 123.539L167.366 123.389L166.989 125.225C166.969 125.323 166.912 125.408 166.829 125.463C166.746 125.518 166.644 125.537 166.547 125.517L165.077 125.216C164.875 125.174 164.744 124.976 164.785 124.773ZM172.351 111.376L169.825 110.858L169.019 114.787L170.9 115.173C172.813 115.565 173.806 115.017 174.069 113.737C174.314 112.541 173.682 111.649 172.351 111.376ZM171.308 117.365L168.604 116.81L168.604 116.812L167.708 121.18L169.821 121.614C172.072 122.075 173.141 121.534 173.429 120.133C173.713 118.746 172.978 117.708 171.308 117.365Z" fill="#EDEDED"/>
<path fill-rule="evenodd" clip-rule="evenodd" d="M374.597 113.385C373.035 114.947 373.035 117.48 374.597 119.042L395.811 140.255C397.373 141.817 399.905 141.817 401.467 140.255L422.681 119.042C424.243 117.48 424.243 114.947 422.681 113.385L401.467 92.1716C399.905 90.6095 397.373 90.6095 395.811 92.1716L374.597 113.385ZM396.651 126.343H400.291C400.519 126.343 400.74 126.265 400.918 126.122C401.095 125.979 401.219 125.78 401.267 125.557L401.68 123.678C402.223 123.441 402.738 123.143 403.214 122.792L405.051 123.377C405.269 123.446 405.503 123.439 405.716 123.357C405.929 123.274 406.107 123.122 406.221 122.924L408.041 119.771C408.273 119.364 408.193 118.85 407.848 118.532L406.423 117.232C406.488 116.643 406.488 116.049 406.423 115.46L407.848 114.16C408.193 113.843 408.273 113.328 408.041 112.921L406.221 109.768C406.107 109.571 405.929 109.418 405.717 109.336C405.504 109.253 405.27 109.246 405.052 109.315L403.214 109.9C402.984 109.731 402.745 109.574 402.498 109.431C402.233 109.276 401.959 109.137 401.679 109.013L401.267 107.13C401.219 106.907 401.096 106.708 400.918 106.565C400.741 106.421 400.519 106.343 400.291 106.343H396.651C396.423 106.343 396.202 106.421 396.025 106.565C395.847 106.708 395.724 106.907 395.675 107.13L395.267 109.012C395.001 109.127 394.741 109.256 394.488 109.398C394.226 109.55 393.972 109.718 393.728 109.898L391.891 109.313C391.674 109.244 391.439 109.251 391.227 109.333C391.014 109.416 390.835 109.568 390.721 109.766L388.901 112.919C388.788 113.117 388.746 113.348 388.781 113.573C388.816 113.798 388.927 114.005 389.094 114.159L390.519 115.456C390.455 116.045 390.455 116.639 390.519 117.228L389.094 118.528C388.927 118.682 388.816 118.889 388.781 119.114C388.746 119.339 388.789 119.569 388.901 119.767L390.725 122.918C390.839 123.116 391.018 123.268 391.231 123.351C391.443 123.433 391.678 123.44 391.895 123.371L393.732 122.786C394.21 123.138 394.725 123.435 395.267 123.673L395.674 125.557C395.723 125.78 395.847 125.979 396.024 126.122C396.202 126.265 396.423 126.343 396.651 126.343ZM395.639 113.515C396.389 112.765 397.407 112.343 398.467 112.343C399.528 112.343 400.546 112.765 401.296 113.515C402.046 114.265 402.467 115.282 402.467 116.343C402.467 117.404 402.046 118.421 401.296 119.172C400.546 119.922 399.528 120.343 398.467 120.343C397.407 120.343 396.389 119.922 395.639 119.172C394.889 118.421 394.467 117.404 394.467 116.343C394.467 115.282 394.889 114.265 395.639 113.515Z" fill="#EDEDED"/>
<path d="M106 109L98 117L106 125" stroke="#EDEDED" stroke-width="2" stroke-linecap="round" stroke-linejoin="round"/>
<path d="M462.852 125L470.852 117L462.852 109" stroke="#EDEDED" stroke-width="2" stroke-linecap="round" stroke-linejoin="round"/>
<rect x="619" y="219.711" width="100" height="100" rx="10" transform="rotate(-45 619 219.711)" fill="white" fill-opacity="0.05"/>
<rect x="733" y="167.711" width="100" height="100" rx="10" transform="rotate(-45 733 167.711)" fill="white" fill-opacity="0.05"/>
<rect x="853" y="210.711" width="100" height="100" rx="10" transform="rotate(-45 853 210.711)" fill="white" fill-opacity="0.05"/>
<rect x="936" y="127.711" width="100" height="100" rx="10" transform="rotate(-45 936 127.711)" fill="white" fill-opacity="0.05"/>
<rect x="998" y="231.711" width="100" height="100" rx="10" transform="rotate(-45 998 231.711)" fill="white" fill-opacity="0.05"/>
<rect x="1084" y="148.711" width="100" height="100" rx="10" transform="rotate(-45 1084 148.711)" fill="white" fill-opacity="0.05"/>
<rect x="1018" y="41.7109" width="100" height="100" rx="10" transform="rotate(-45 1018 41.7109)" fill="white" fill-opacity="0.05"/>
<g filter="url(#filter0_b_249_155)">
<rect x="634" y="117.853" width="120" height="120" rx="10" transform="rotate(-45 634 117.853)" fill="white" fill-opacity="0.05"/>
<rect x="635.414" y="117.853" width="118" height="118" rx="9" transform="rotate(-45 635.414 117.853)" stroke="white" stroke-width="2"/>
</g>
<path d="M845.764 140H877.724V134.141H852.369V85.4545H845.764V140ZM904.251 140.852C912.561 140.852 918.633 136.697 920.551 130.518L914.478 128.814C912.88 133.075 909.178 135.206 904.251 135.206C896.874 135.206 891.787 130.439 891.494 121.676H921.19V119.013C921.19 103.778 912.135 98.5582 903.612 98.5582C892.532 98.5582 885.181 107.294 885.181 119.865C885.181 132.436 892.426 140.852 904.251 140.852ZM891.494 116.243C891.92 109.877 896.421 104.205 903.612 104.205C910.43 104.205 914.798 109.318 914.798 116.243H891.494ZM946.199 140.852C954.082 140.852 956.746 135.952 958.131 133.714H958.876V140H964.949V85.4545H958.663V105.589H958.131C956.746 103.459 954.295 98.5582 946.305 98.5582C935.972 98.5582 928.834 106.761 928.834 119.652C928.834 132.649 935.972 140.852 946.199 140.852ZM947.051 135.206C939.168 135.206 935.119 128.281 935.119 119.545C935.119 110.916 939.061 104.205 947.051 104.205C954.722 104.205 958.77 110.384 958.77 119.545C958.77 128.814 954.615 135.206 947.051 135.206ZM993.846 156.193C1003.65 156.193 1011.53 151.719 1011.53 141.172V99.0909H1005.46V105.589H1004.82C1003.43 103.459 1000.88 98.5582 992.887 98.5582C982.554 98.5582 975.416 106.761 975.416 119.332C975.416 132.116 982.873 139.361 992.781 139.361C1000.77 139.361 1003.33 134.673 1004.71 132.436H1005.25V140.746C1005.25 147.564 1000.45 150.653 993.846 150.653C986.415 150.653 983.805 146.738 982.127 144.474L977.12 147.99C979.677 152.278 984.711 156.193 993.846 156.193ZM993.633 133.714C985.75 133.714 981.701 127.749 981.701 119.226C981.701 110.916 985.643 104.205 993.633 104.205C1001.3 104.205 1005.35 110.384 1005.35 119.226C1005.35 128.281 1001.2 133.714 993.633 133.714ZM1040.19 140.852C1048.5 140.852 1054.57 136.697 1056.49 130.518L1050.42 128.814C1048.82 133.075 1045.12 135.206 1040.19 135.206C1032.81 135.206 1027.72 130.439 1027.43 121.676H1057.13V119.013C1057.13 103.778 1048.07 98.5582 1039.55 98.5582C1028.47 98.5582 1021.12 107.294 1021.12 119.865C1021.12 132.436 1028.36 140.852 1040.19 140.852ZM1027.43 116.243C1027.86 109.877 1032.36 104.205 1039.55 104.205C1046.37 104.205 1050.74 109.318 1050.74 116.243H1027.43ZM1066.69 140H1072.97V114.112C1072.97 108.572 1077.34 104.524 1083.31 104.524C1084.99 104.524 1086.72 104.844 1087.14 104.95V98.5582C1086.42 98.505 1084.77 98.4517 1083.84 98.4517C1078.94 98.4517 1074.68 101.222 1073.19 105.27H1072.76V99.0909H1066.69V140Z" fill="#EDEDED"/>
<path fill-rule="evenodd" clip-rule="evenodd" d="M670.172 115.172C668.609 116.734 668.609 119.267 670.172 120.829L678.925 129.582L690.094 117.928L678.627 106.716L670.172 115.172ZM682.163 103.181L693.553 114.318L708.155 99.0817L696.975 88.3679L682.163 103.181ZM700.512 84.8316L711.622 95.4792L729.57 76.9128L721.828 69.1716C720.266 67.6095 717.734 67.6095 716.172 69.1716L700.512 84.8316ZM733.106 80.4489L713.495 100.736L713.487 100.744L697.129 117.814L714.17 134.477L714.18 134.487L714.19 134.497L734.175 154.482L767.829 120.829C769.391 119.267 769.391 116.734 767.829 115.172L733.106 80.4489ZM730.64 158.018L712.46 139.838L701.068 151.725L716.172 166.829C717.734 168.391 720.266 168.391 721.828 166.829L730.64 158.018ZM697.532 148.189L708.905 136.322L693.669 121.424L682.462 133.119L697.532 148.189Z" fill="#EDEDED"/>
</g>
<defs>
<filter id="filter0_b_249_155" x="618.143" y="17.1416" width="201.422" height="201.422" filterUnits="userSpaceOnUse" color-interpolation-filters="sRGB">
<feFlood flood-opacity="0" result="BackgroundImageFix"/>
<feGaussianBlur in="BackgroundImage" stdDeviation="10"/>
<feComposite in2="SourceAlpha" operator="in" result="effect1_backgroundBlur_249_155"/>
<feBlend mode="normal" in="SourceGraphic" in2="effect1_backgroundBlur_249_155" result="shape"/>
</filter>
<linearGradient id="paint0_linear_249_155" x1="587.5" y1="0" x2="587.5" y2="223" gradientUnits="userSpaceOnUse">
<stop stop-color="#3B0E2A"/>
<stop offset="1" stop-color="#710A3C"/>
</linearGradient>
<clipPath id="clip0_249_155">
<rect width="1175" height="223" fill="white"/>
</clipPath>
<clipPath id="clip1_249_155">
<rect width="50" height="50" fill="white" transform="translate(259.426 77)"/>
</clipPath>
</defs>
</svg>
