<svg width="202" height="204" viewBox="0 0 202 204" fill="none" xmlns="http://www.w3.org/2000/svg">
<path fill-rule="evenodd" clip-rule="evenodd" d="M4.63553 90.9204C-1.19074 96.8097 -1.19075 106.358 4.63553 112.247L90.2134 198.751C96.0397 204.64 105.486 204.64 111.312 198.751L196.89 112.247C202.716 106.358 202.716 96.8097 196.89 90.9204L111.312 4.41697C105.486 -1.47232 96.0397 -1.47232 90.2134 4.41696L4.63553 90.9204ZM126.456 101.507C126.456 116.15 114.758 127.727 100.688 127.727C87.7144 127.727 76.7567 117.883 75.1285 104.868V98.1451C76.7567 85.1303 87.7144 75.287 100.688 75.287C114.758 75.287 126.456 86.8633 126.456 101.507ZM75.1285 134.901V183.433L58.9201 167.058V101.836C58.9201 101.806 58.9203 101.776 58.9207 101.746C58.9203 101.666 58.9201 101.587 58.9201 101.507C58.9201 78.1895 77.6202 59.287 100.688 59.287C123.756 59.287 142.456 78.1895 142.456 101.507C142.456 124.824 123.756 143.727 100.688 143.727C91.06 143.727 82.1928 140.434 75.1285 134.901Z" fill="white"/>
<path fill-rule="evenodd" clip-rule="evenodd" d="M4.36972 112.249C-1.45655 106.36 -1.45655 96.8117 4.36972 90.9224L53.5991 41.1606C68.9595 38.1697 84.8216 36.6035 101.046 36.6035C116.793 36.6035 132.2 38.0791 147.138 40.9008L196.624 90.9224C202.451 96.8117 202.451 106.36 196.624 112.249L111.046 198.753C105.22 204.642 95.7738 204.642 89.9476 198.753L4.36972 112.249ZM126.456 101.509C126.456 116.152 114.758 127.729 100.688 127.729C87.7144 127.729 76.7567 117.885 75.1286 104.871V98.1472C76.7567 85.1323 87.7144 75.2891 100.688 75.2891C114.758 75.2891 126.456 86.8653 126.456 101.509ZM75.1286 134.903V183.435L58.9201 167.06V101.838C58.9201 101.823 58.9201 101.809 58.9202 101.795C58.9203 101.779 58.9205 101.764 58.9207 101.748C58.9203 101.668 58.9201 101.589 58.9201 101.509C58.9201 78.1915 77.6202 59.2891 100.688 59.2891C123.756 59.2891 142.456 78.1915 142.456 101.509C142.456 124.826 123.756 143.729 100.688 143.729C91.06 143.729 82.1928 140.436 75.1286 134.903Z" fill="#F4F5F6"/>
<path fill-rule="evenodd" clip-rule="evenodd" d="M126.456 101.507C126.456 116.15 114.758 127.727 100.688 127.727C86.6219 127.727 74.9255 116.156 74.9201 101.517V101.507V101.497C74.9255 86.858 86.6219 75.2871 100.688 75.2871C114.758 75.2871 126.456 86.8634 126.456 101.507ZM74.9201 134.737V183.222L58.9201 167.058V101.836C58.9201 101.806 58.9203 101.776 58.9207 101.746C58.9203 101.666 58.9201 101.587 58.9201 101.507C58.9201 88.9378 64.3538 77.6515 72.9763 69.9172C48.6486 73.0754 25.5749 80.2835 4.43809 90.8511L4.36971 90.9202C-1.45657 96.8095 -1.45657 106.358 4.3697 112.247L89.9476 198.751C95.7738 204.64 105.22 204.64 111.046 198.751L196.624 112.247C202.45 106.358 202.451 96.8095 196.624 90.9202L195.511 89.7947C174.717 79.6843 152.095 72.8078 128.28 69.8105C136.972 77.5475 142.456 88.8798 142.456 101.507C142.456 124.824 123.756 143.727 100.688 143.727C90.965 143.727 82.0179 140.368 74.9201 134.737Z" fill="#E9E8E7"/>
<path fill-rule="evenodd" clip-rule="evenodd" d="M126.456 101.507C126.456 116.15 114.758 127.727 100.688 127.727C86.6219 127.727 74.9255 116.156 74.92 101.517V101.515C83.6094 100.264 92.4912 99.6172 101.523 99.6172C109.976 99.6172 118.299 100.184 126.455 101.282C126.456 101.357 126.456 101.432 126.456 101.507ZM142.376 104.141C141.031 126.231 122.881 143.727 100.688 143.727C90.965 143.727 82.0179 140.368 74.92 134.737V183.079L90.4245 198.751C96.2507 204.64 105.697 204.64 111.523 198.751L188.292 121.152C173.979 113.561 158.574 107.789 142.376 104.141ZM58.92 166.906L14.0344 121.535C28.0352 114.031 43.0916 108.271 58.92 104.544V166.906Z" fill="#D9D8D7"/>
<path fill-rule="evenodd" clip-rule="evenodd" d="M74.9201 183.061L90.4389 198.748C96.2652 204.637 105.711 204.637 111.538 198.748L165.843 143.855C154.316 138.571 142.04 134.663 129.22 132.34C121.754 139.402 111.72 143.726 100.688 143.726C90.965 143.726 82.0179 140.367 74.9201 134.736V183.061ZM58.9201 135.824V166.888L36.4777 144.203C43.6795 140.854 51.1771 138.044 58.9201 135.824Z" fill="#C9C8C7"/>
<path fill-rule="evenodd" clip-rule="evenodd" d="M75.1285 164.152V183.433L60.22 168.372C60.202 168.378 60.184 168.384 60.166 168.391L90.2013 198.751C96.0275 204.64 105.474 204.64 111.3 198.751L141.617 168.106C128.971 163.74 115.409 161.371 101.299 161.371C92.3226 161.371 83.5674 162.33 75.1285 164.152Z" fill="#B1B2B3"/>
</svg>
