<svg width="1024" height="1024" viewBox="0 0 1024 1024" fill="none" xmlns="http://www.w3.org/2000/svg">
<path d="M512.422 1024H512.424C794.959 1024 1024 794.959 1024 512.424V512.422C1024 229.886 794.959 0.845215 512.424 0.845215H512.422C229.886 0.845215 0.845215 229.886 0.845215 512.422V512.424C0.845215 794.959 229.886 1024 512.422 1024Z" fill="url(#paint0_linear_138_113)"/>
<path d="M690.485 371.715C700.801 361.399 700.801 344.674 690.485 334.358C680.169 324.043 663.445 324.043 653.129 334.358L690.485 371.715ZM326.622 671.807C326.622 686.396 338.448 698.222 353.036 698.222H590.768C605.357 698.222 617.182 686.396 617.182 671.807C617.182 657.219 605.357 645.392 590.768 645.392H379.451V434.075C379.451 419.488 367.625 407.661 353.036 407.661C338.448 407.661 326.622 419.488 326.622 434.075V671.807ZM653.129 334.358L334.358 653.129L371.715 690.485L690.485 371.715L653.129 334.358Z" fill="white"/>
<defs>
<linearGradient id="paint0_linear_138_113" x1="512.423" y1="1024" x2="512.423" y2="0.845215" gradientUnits="userSpaceOnUse">
<stop stop-color="#710A3C"/>
<stop offset="1" stop-color="#3B0E2A"/>
</linearGradient>
</defs>
</svg>
