<svg width="1024" height="1024" viewBox="0 0 1024 1024" fill="none" xmlns="http://www.w3.org/2000/svg">
<path d="M511.578 0H511.576C229.041 0 0 229.041 0 511.576V511.578C0 794.114 229.041 1023.15 511.576 1023.15H511.578C794.114 1023.15 1023.15 794.114 1023.15 511.578V511.576C1023.15 229.041 794.114 0 511.578 0Z" fill="url(#paint0_linear_138_49)"/>
<path d="M333.515 652.285C323.199 662.601 323.199 679.326 333.515 689.642C343.831 699.957 360.555 699.957 370.871 689.642L333.515 652.285ZM697.378 352.193C697.378 337.604 685.552 325.778 670.964 325.778H433.232C418.643 325.778 406.818 337.604 406.818 352.193C406.818 366.781 418.643 378.608 433.232 378.608H644.549V589.925C644.549 604.512 656.375 616.339 670.964 616.339C685.552 616.339 697.378 604.512 697.378 589.925V352.193ZM370.871 689.642L689.642 370.871L652.285 333.515L333.515 652.285L370.871 689.642Z" fill="white"/>
<defs>
<linearGradient id="paint0_linear_138_49" x1="511.577" y1="0" x2="511.577" y2="1023.15" gradientUnits="userSpaceOnUse">
<stop stop-color="#3B0E2A"/>
<stop offset="1" stop-color="#710A3C"/>
</linearGradient>
</defs>
</svg>
