<svg width="239" height="291" viewBox="0 0 239 291" fill="none" xmlns="http://www.w3.org/2000/svg">
<g clip-path="url(#clip0_372_23)">
<mask id="mask0_372_23" style="mask-type:alpha" maskUnits="userSpaceOnUse" x="0" y="144" width="239" height="147">
<path d="M119.504 144.403L238.9 213.324V221.15L119.504 290.071L0.10791 221.15V213.324L119.504 144.403Z" fill="white"/>
</mask>
<g mask="url(#mask0_372_23)">
<path d="M119.504 144.403L238.9 213.324V221.15L119.504 290.071L0.10791 221.15V213.324L119.504 144.403Z" fill="url(#paint0_linear_372_23)" fill-opacity="0.7"/>
<g opacity="0.268" filter="url(#filter0_f_372_23)">
<path fill-rule="evenodd" clip-rule="evenodd" d="M119.75 141.161L231.452 209.305L119.75 273.785L8.04883 209.305L119.75 141.161Z" fill="#440926"/>
</g>
<path d="M119.504 283.199L238.9 213.607V221.428L119.504 290.308L0.10791 221.428V213.607L119.504 283.199Z" fill="url(#paint1_linear_372_23)"/>
</g>
<path d="M119.504 120.148L238.9 189.032V196.854L119.504 265.738L0.10791 196.854V189.032L119.504 120.148Z" fill="url(#paint2_linear_372_23)"/>
<path d="M119.504 120.148L238.9 189.032V196.854L119.504 265.738L0.10791 196.854V189.032L119.504 120.148Z" fill="url(#paint3_linear_372_23)"/>
<path d="M119.504 258.711L238.9 189.114V196.936L119.504 265.82L0.10791 196.936V189.114L119.504 258.711Z" fill="url(#paint4_linear_372_23)" fill-opacity="0.15"/>
<path d="M119.504 258.711L238.9 189.114V196.936L119.504 265.82L0.10791 196.936V189.114L119.504 258.711Z" fill="url(#paint5_linear_372_23)" fill-opacity="0.2"/>
<g filter="url(#filter1_f_372_23)">
<path fill-rule="evenodd" clip-rule="evenodd" d="M120.287 116.618L231.988 184.726L120.287 249.171L8.58496 184.726L120.287 116.618Z" fill="url(#paint6_linear_372_23)" fill-opacity="0.33"/>
</g>
<path d="M120.008 95.3931L239.371 164.235V172.051L120.008 240.893L0.64502 172.051V164.235L120.008 95.3931Z" fill="url(#paint7_linear_372_23)"/>
<path d="M120.008 95.3931L239.371 164.235V172.051L120.008 240.893L0.64502 172.051V164.235L120.008 95.3931Z" fill="url(#paint8_linear_372_23)" fill-opacity="0.9"/>
<path opacity="0.57" d="M120.008 233.778L239.371 164.116V171.945L120.008 240.893L0.64502 171.945V164.116L120.008 233.778Z" fill="url(#paint9_linear_372_23)" fill-opacity="0.8"/>
<path opacity="0.39" fill-rule="evenodd" clip-rule="evenodd" d="M0 0H239.113V164.081L119.9 233.721L0 164.081V0Z" fill="url(#paint10_linear_372_23)"/>
</g>
<defs>
<filter id="filter0_f_372_23" x="-9.72717" y="123.385" width="258.955" height="168.176" filterUnits="userSpaceOnUse" color-interpolation-filters="sRGB">
<feFlood flood-opacity="0" result="BackgroundImageFix"/>
<feBlend mode="normal" in="SourceGraphic" in2="BackgroundImageFix" result="shape"/>
<feGaussianBlur stdDeviation="8.888" result="effect1_foregroundBlur_372_23"/>
</filter>
<filter id="filter1_f_372_23" x="-6.71704" y="101.316" width="254.007" height="163.157" filterUnits="userSpaceOnUse" color-interpolation-filters="sRGB">
<feFlood flood-opacity="0" result="BackgroundImageFix"/>
<feBlend mode="normal" in="SourceGraphic" in2="BackgroundImageFix" result="shape"/>
<feGaussianBlur stdDeviation="7.651" result="effect1_foregroundBlur_372_23"/>
</filter>
<linearGradient id="paint0_linear_372_23" x1="-18.3221" y1="394.614" x2="168.854" y2="77.1803" gradientUnits="userSpaceOnUse">
<stop stop-color="#710A3C"/>
<stop offset="1" stop-color="#DD3C3C"/>
</linearGradient>
<linearGradient id="paint1_linear_372_23" x1="-145.367" y1="29.8007" x2="-113.663" y2="334.61" gradientUnits="userSpaceOnUse">
<stop stop-color="#32081C" stop-opacity="0.58"/>
<stop offset="1" stop-color="#710A3C" stop-opacity="0"/>
</linearGradient>
<linearGradient id="paint2_linear_372_23" x1="119.504" y1="121.329" x2="147.452" y2="240.374" gradientUnits="userSpaceOnUse">
<stop stop-color="#710A3C"/>
<stop offset="1" stop-color="#710A3C"/>
</linearGradient>
<linearGradient id="paint3_linear_372_23" x1="157.555" y1="240.622" x2="62.3049" y2="142.948" gradientUnits="userSpaceOnUse">
<stop stop-color="white"/>
<stop offset="1" stop-color="#FFC8C8"/>
</linearGradient>
<linearGradient id="paint4_linear_372_23" x1="-125.272" y1="181.79" x2="-28.9407" y2="387.468" gradientUnits="userSpaceOnUse">
<stop stop-color="#FF5C5C"/>
<stop offset="1" stop-color="#FF5C5C" stop-opacity="0.08"/>
</linearGradient>
<linearGradient id="paint5_linear_372_23" x1="137.898" y1="227.467" x2="86.7079" y2="305.811" gradientUnits="userSpaceOnUse">
<stop stop-color="#FF5C5C" stop-opacity="0"/>
<stop offset="0.40262" stop-color="#FF5C5C" stop-opacity="0"/>
<stop offset="1" stop-color="#FF5C5C"/>
</linearGradient>
<linearGradient id="paint6_linear_372_23" x1="-1.24923" y1="110.729" x2="123.08" y2="310.416" gradientUnits="userSpaceOnUse">
<stop stop-color="#710A3C"/>
<stop offset="1" stop-color="#880C48"/>
</linearGradient>
<linearGradient id="paint7_linear_372_23" x1="-9.86369" y1="88.9285" x2="128.196" y2="304.792" gradientUnits="userSpaceOnUse">
<stop stop-color="#880C48"/>
<stop offset="1" stop-color="#710A3C"/>
</linearGradient>
<linearGradient id="paint8_linear_372_23" x1="-27.5628" y1="147.873" x2="321.192" y2="147.873" gradientUnits="userSpaceOnUse">
<stop stop-color="#3B0E2A"/>
<stop offset="1" stop-color="#FF7D7D"/>
</linearGradient>
<linearGradient id="paint9_linear_372_23" x1="120.008" y1="284.385" x2="120.008" y2="96.2807" gradientUnits="userSpaceOnUse">
<stop stop-color="#880C48" stop-opacity="0"/>
<stop offset="1" stop-color="#FF7D7D"/>
</linearGradient>
<linearGradient id="paint10_linear_372_23" x1="119.557" y1="0" x2="119.557" y2="192.004" gradientUnits="userSpaceOnUse">
<stop stop-color="#710A3C" stop-opacity="0"/>
<stop offset="1" stop-color="#710A3C"/>
</linearGradient>
<clipPath id="clip0_372_23">
<rect width="239" height="291" fill="white"/>
</clipPath>
</defs>
</svg>
