<svg width="224" height="181" viewBox="0 0 224 181" fill="none" xmlns="http://www.w3.org/2000/svg">
<g clip-path="url(#clip0_381_32)">
<mask id="mask0_381_32" style="mask-type:alpha" maskUnits="userSpaceOnUse" x="0" y="65" width="157" height="116">
<path d="M78.47 65.4209L156.677 110.486L156.665 135.923L78.458 180.988L0.250977 135.923L0.262977 110.486L78.47 65.4209Z" fill="white"/>
</mask>
<g mask="url(#mask0_381_32)">
<path d="M78.47 65.4209L156.677 110.486L156.665 135.923L78.458 180.988L0.250977 135.923L0.262977 110.486L78.47 65.4209Z" fill="url(#paint0_linear_381_32)"/>
<path d="M78.47 65.4209L156.677 110.486L156.665 135.923L78.458 180.988L0.250977 135.923L0.262977 110.486L78.47 65.4209Z" fill="url(#paint1_linear_381_32)"/>
<path style="mix-blend-mode:soft-light" opacity="0.631" fill-rule="evenodd" clip-rule="evenodd" d="M0.263184 199.977V110.486L77.7892 65.4209V155.436L0.263184 199.977Z" fill="url(#paint2_linear_381_32)"/>
<path fill-rule="evenodd" clip-rule="evenodd" d="M78.458 180.944V155.795L156.483 110.486V136.049L78.458 180.944Z" fill="url(#paint3_linear_381_32)"/>
<path style="mix-blend-mode:soft-light" opacity="0.701" fill-rule="evenodd" clip-rule="evenodd" d="M78.47 154.8L78.458 180.83L0.250977 135.765L0.262977 111.022L78.47 154.8Z" fill="url(#paint4_linear_381_32)"/>
</g>
<path d="M78.207 32.7119L156.413 77.7769V103.555L78.207 148.62L0 102.482V77.7769L78.207 32.7119Z" fill="url(#paint5_linear_381_32)"/>
<path d="M78.207 32.7119L156.413 77.7769V103.555L78.207 148.62L0 102.482V77.7769L78.207 32.7119Z" fill="url(#paint6_linear_381_32)"/>
<g opacity="0.379">
<path opacity="0.379" d="M78.207 123.915V148.62L0 102.482V77.7769L78.207 123.915Z" fill="url(#paint7_linear_381_32)"/>
<path opacity="0.379" d="M78.207 123.915V148.62L0 102.482V77.7769L78.207 123.915Z" fill="url(#paint8_linear_381_32)"/>
</g>
<path fill-rule="evenodd" clip-rule="evenodd" d="M78.189 148.599V123.881L156.22 77.8667V103.44L78.189 148.599Z" fill="url(#paint9_linear_381_32)" fill-opacity="0.52"/>
<path d="M78.2651 0.434082L156.472 45.4991V71.8131L78.2651 116.878L0.059082 70.7411V45.4991L78.2651 0.434082Z" fill="url(#paint10_linear_381_32)"/>
<path d="M78.2651 0.434082L156.472 45.4991V71.8131L78.2651 116.878L0.059082 70.7411V45.4991L78.2651 0.434082Z" fill="url(#paint11_linear_381_32)" fill-opacity="0.9"/>
<path opacity="0.39" fill-rule="evenodd" clip-rule="evenodd" d="M0.101074 45.6261L78.4581 0.369141L230 88.5571V206.555L0.101074 70.7731V45.6261Z" fill="url(#paint12_linear_381_32)"/>
<path opacity="0.39" fill-rule="evenodd" clip-rule="evenodd" d="M156.444 45.5801L230 88.0201V182.458L78.458 92.6361L156.444 45.5801Z" fill="url(#paint13_linear_381_32)"/>
<path fill-rule="evenodd" clip-rule="evenodd" d="M78.6372 92.5444V116.82L0.0761719 70.7434V45.4844L78.6372 92.5444Z" fill="url(#paint14_linear_381_32)" fill-opacity="0.52"/>
<path fill-rule="evenodd" clip-rule="evenodd" d="M78.144 117.002V92.5731L156.279 45.6191V72.2351L78.144 117.002Z" fill="url(#paint15_linear_381_32)" fill-opacity="0.52"/>
<path fill-rule="evenodd" clip-rule="evenodd" d="M187.805 117.75L177.977 123.409V134.079L99.416 88.0019V76.5519L109.243 70.6899L187.805 117.75Z" fill="url(#paint16_linear_381_32)" fill-opacity="0.52"/>
<path fill-rule="evenodd" clip-rule="evenodd" d="M187.805 117.75L177.977 123.409V134.079L99.416 88.0019V76.5519L109.243 70.6899L187.805 117.75Z" fill="url(#paint17_linear_381_32)" fill-opacity="0.2"/>
<mask id="mask1_381_32" style="mask-type:alpha" maskUnits="userSpaceOnUse" x="177" y="117" width="21" height="23">
<path d="M187.817 117.509L197.659 123.109V134.308L187.817 139.908L177.975 134.308V123.109L187.817 117.509Z" fill="white"/>
</mask>
<g mask="url(#mask1_381_32)">
<path d="M187.817 117.509L197.659 123.109V134.308L187.817 139.908L177.975 134.308V123.109L187.817 117.509Z" fill="url(#paint18_linear_381_32)"/>
<path d="M187.817 117.509L197.659 123.109V134.308L187.817 139.908L177.975 134.308V123.109L187.817 117.509Z" fill="url(#paint19_linear_381_32)"/>
<path style="mix-blend-mode:soft-light" opacity="0.631" fill-rule="evenodd" clip-rule="evenodd" d="M177.975 134.229V123.109L187.731 117.509V128.694L177.975 134.229Z" fill="url(#paint20_linear_381_32)"/>
<path d="M187.879 139.829V128.709L197.635 123.109V134.294L187.879 139.829Z" fill="url(#paint21_linear_381_32)" fill-opacity="0.15"/>
<path d="M187.879 139.829V128.709L197.635 123.109V134.294L187.879 139.829Z" fill="url(#paint22_linear_381_32)" fill-opacity="0.2"/>
<path d="M187.817 128.549V139.908L177.975 134.308V123.109L187.817 128.549Z" fill="url(#paint23_linear_381_32)" fill-opacity="0.15"/>
<path d="M187.817 128.549V139.908L177.975 134.308V123.109L187.817 128.549Z" fill="url(#paint24_linear_381_32)" fill-opacity="0.2"/>
</g>
</g>
<defs>
<linearGradient id="paint0_linear_381_32" x1="-81.8821" y1="54.3866" x2="106.524" y2="229.29" gradientUnits="userSpaceOnUse">
<stop stop-color="#710A3C"/>
<stop offset="1" stop-color="#3B0E2A"/>
</linearGradient>
<linearGradient id="paint1_linear_381_32" x1="0.250977" y1="180.988" x2="110.717" y2="31.466" gradientUnits="userSpaceOnUse">
<stop stop-color="#710A3C" stop-opacity="0"/>
<stop offset="1" stop-color="#FF5C5C"/>
</linearGradient>
<linearGradient id="paint2_linear_381_32" x1="0.263184" y1="107.205" x2="42.5754" y2="116.443" gradientUnits="userSpaceOnUse">
<stop stop-color="white"/>
<stop offset="1" stop-color="white" stop-opacity="0"/>
</linearGradient>
<linearGradient id="paint3_linear_381_32" x1="156.483" y1="158.597" x2="65.3121" y2="125.276" gradientUnits="userSpaceOnUse">
<stop stop-color="#710A3C" stop-opacity="0"/>
<stop offset="1" stop-color="#880C48"/>
</linearGradient>
<linearGradient id="paint4_linear_381_32" x1="20.7256" y1="116.928" x2="80.4819" y2="143.53" gradientUnits="userSpaceOnUse">
<stop stop-color="white"/>
<stop offset="1" stop-color="white" stop-opacity="0"/>
</linearGradient>
<linearGradient id="paint5_linear_381_32" x1="-82.1262" y1="21.645" x2="106.792" y2="196.494" gradientUnits="userSpaceOnUse">
<stop stop-color="#710A3C"/>
<stop offset="1" stop-color="#3B0E2A"/>
</linearGradient>
<linearGradient id="paint6_linear_381_32" x1="-1.16537e-06" y1="148.62" x2="73.2045" y2="11.5841" gradientUnits="userSpaceOnUse">
<stop stop-color="#021755" stop-opacity="0"/>
<stop offset="0.0001" stop-color="#710A3C" stop-opacity="0"/>
<stop offset="1" stop-color="#FF5C5C"/>
</linearGradient>
<linearGradient id="paint7_linear_381_32" x1="71.9027" y1="94.8663" x2="8.07135" y2="118.49" gradientUnits="userSpaceOnUse">
<stop stop-color="#FF8F8F" stop-opacity="0"/>
<stop offset="1" stop-color="#FF8F8F"/>
</linearGradient>
<linearGradient id="paint8_linear_381_32" x1="153.61" y1="137.312" x2="4.93352" y2="84.5481" gradientUnits="userSpaceOnUse">
<stop stop-color="#FF8F8F" stop-opacity="0"/>
<stop offset="1" stop-color="#FF8F8F"/>
</linearGradient>
<linearGradient id="paint9_linear_381_32" x1="208.894" y1="141.953" x2="81.1352" y2="93.3552" gradientUnits="userSpaceOnUse">
<stop stop-color="#710A3C" stop-opacity="0"/>
<stop offset="1" stop-color="#FF5C5C"/>
</linearGradient>
<linearGradient id="paint10_linear_381_32" x1="-6.82621" y1="-4.73953" x2="111.267" y2="146.427" gradientUnits="userSpaceOnUse">
<stop stop-color="#380820"/>
<stop offset="1" stop-color="#880C48"/>
</linearGradient>
<linearGradient id="paint11_linear_381_32" x1="-18.4227" y1="42.4343" x2="210.081" y2="42.4343" gradientUnits="userSpaceOnUse">
<stop stop-color="#DD3C3C"/>
<stop offset="1" stop-color="#FFA1A1"/>
</linearGradient>
<linearGradient id="paint12_linear_381_32" x1="182.487" y1="61.7177" x2="0.101074" y2="61.7177" gradientUnits="userSpaceOnUse">
<stop stop-color="#FF7D7D" stop-opacity="0"/>
<stop offset="1" stop-color="#FF7D7D"/>
</linearGradient>
<linearGradient id="paint13_linear_381_32" x1="203.323" y1="118.372" x2="109.579" y2="45.8863" gradientUnits="userSpaceOnUse">
<stop stop-color="#FF8F8F" stop-opacity="0"/>
<stop offset="1" stop-color="#FF8F8F"/>
</linearGradient>
<linearGradient id="paint14_linear_381_32" x1="121.4" y1="71.878" x2="34.5052" y2="115.544" gradientUnits="userSpaceOnUse">
<stop stop-color="#FF5C5C" stop-opacity="0"/>
<stop offset="1" stop-color="#FF5C5C"/>
</linearGradient>
<linearGradient id="paint15_linear_381_32" x1="183.848" y1="95.907" x2="79.6248" y2="64.1998" gradientUnits="userSpaceOnUse">
<stop stop-color="#FF5C5C" stop-opacity="0"/>
<stop offset="1" stop-color="#FF5C5C"/>
</linearGradient>
<linearGradient id="paint16_linear_381_32" x1="123.208" y1="79.7413" x2="159.878" y2="128.242" gradientUnits="userSpaceOnUse">
<stop stop-color="#710A3C" stop-opacity="0"/>
<stop offset="1" stop-color="#FF5C5C"/>
</linearGradient>
<linearGradient id="paint17_linear_381_32" x1="164.663" y1="91.3782" x2="164.663" y2="116.451" gradientUnits="userSpaceOnUse">
<stop stop-color="#710A3C" stop-opacity="0"/>
<stop offset="1" stop-color="#FF5C5C"/>
</linearGradient>
<linearGradient id="paint18_linear_381_32" x1="187.817" y1="117.69" x2="194.921" y2="133.902" gradientUnits="userSpaceOnUse">
<stop stop-color="#3A051F"/>
<stop offset="1" stop-color="#450625"/>
</linearGradient>
<linearGradient id="paint19_linear_381_32" x1="190.954" y1="136.044" x2="178.581" y2="129.246" gradientUnits="userSpaceOnUse">
<stop stop-color="white"/>
<stop offset="1" stop-color="#FF8F8F"/>
</linearGradient>
<linearGradient id="paint20_linear_381_32" x1="177.975" y1="122.701" x2="183.294" y2="123.877" gradientUnits="userSpaceOnUse">
<stop stop-color="white"/>
<stop offset="1" stop-color="white" stop-opacity="0"/>
</linearGradient>
<linearGradient id="paint21_linear_381_32" x1="182.756" y1="121.512" x2="201.614" y2="129.059" gradientUnits="userSpaceOnUse">
<stop stop-color="#DD3C3C"/>
<stop offset="1" stop-color="#DD3C3C" stop-opacity="0"/>
</linearGradient>
<linearGradient id="paint22_linear_381_32" x1="193.508" y1="131.469" x2="187.05" y2="133.322" gradientUnits="userSpaceOnUse">
<stop stop-color="#710A3C" stop-opacity="0"/>
<stop offset="0.40262" stop-color="#710A3C" stop-opacity="0.05"/>
<stop offset="1" stop-color="#FF8F8F"/>
</linearGradient>
<linearGradient id="paint23_linear_381_32" x1="172.807" y1="121.505" x2="191.809" y2="129.14" gradientUnits="userSpaceOnUse">
<stop stop-color="#DD3C3C"/>
<stop offset="1" stop-color="#DD3C3C" stop-opacity="0.09"/>
</linearGradient>
<linearGradient id="paint24_linear_381_32" x1="183.654" y1="131.508" x2="177.143" y2="133.384" gradientUnits="userSpaceOnUse">
<stop stop-color="#FF5C5C" stop-opacity="0"/>
<stop offset="0.40262" stop-color="#FF5C5C" stop-opacity="0.08"/>
<stop offset="1" stop-color="#FF5C5C"/>
</linearGradient>
<clipPath id="clip0_381_32">
<rect width="224" height="181" fill="white"/>
</clipPath>
</defs>
</svg>
