<svg width="171" height="171" viewBox="0 0 171 171" fill="none" xmlns="http://www.w3.org/2000/svg">
<path d="M85.5 0L171 50.2201V120.78L85.5 171L0 120.78V50.2201L85.5 0Z" fill="url(#paint0_linear_373_43)"/>
<path d="M85.5 0L171 50.2201V120.78L85.5 171L0 120.78V50.2201L85.5 0Z" fill="url(#paint1_linear_373_43)"/>
<path opacity="0.379" fill-rule="evenodd" clip-rule="evenodd" d="M86 103.822L85.5 171L0 120.812V50.229L86 103.822Z" fill="url(#paint2_linear_373_43)"/>
<path fill-rule="evenodd" clip-rule="evenodd" d="M85.5 171L86 103.821L171 50.2227V120.331L85.5 171Z" fill="url(#paint3_linear_373_43)" fill-opacity="0.52"/>
<defs>
<linearGradient id="paint0_linear_373_43" x1="-89.7853" y1="-16.3271" x2="171" y2="162.532" gradientUnits="userSpaceOnUse">
<stop stop-color="#8D4F5F"/>
<stop offset="1" stop-color="#710A3C"/>
</linearGradient>
<linearGradient id="paint1_linear_373_43" x1="-1.27405e-06" y1="171" x2="123.27" y2="2.29822e-06" gradientUnits="userSpaceOnUse">
<stop stop-color="#C1365B" stop-opacity="0"/>
<stop offset="1" stop-color="#710A3C"/>
</linearGradient>
<linearGradient id="paint2_linear_373_43" x1="-18.9312" y1="148.559" x2="144.235" y2="109.937" gradientUnits="userSpaceOnUse">
<stop stop-color="#C1365B" stop-opacity="0"/>
<stop offset="1" stop-color="#C1365B"/>
</linearGradient>
<linearGradient id="paint3_linear_373_43" x1="228.378" y1="158.888" x2="78.3188" y2="121.639" gradientUnits="userSpaceOnUse">
<stop stop-color="#710A3C" stop-opacity="0"/>
<stop offset="1" stop-color="#B50D5E"/>
</linearGradient>
</defs>
</svg>
