<svg width="157" height="181" viewBox="0 0 157 181" fill="none" xmlns="http://www.w3.org/2000/svg">
<mask id="mask0_381_70" style="mask-type:alpha" maskUnits="userSpaceOnUse" x="0" y="65" width="157" height="116">
<path d="M78.47 65.4209L156.677 110.486L156.665 135.923L78.458 180.988L0.250977 135.923L0.262977 110.486L78.47 65.4209Z" fill="white"/>
</mask>
<g mask="url(#mask0_381_70)">
<path d="M78.47 65.4209L156.677 110.486L156.665 135.923L78.458 180.988L0.250977 135.923L0.262977 110.486L78.47 65.4209Z" fill="url(#paint0_linear_381_70)"/>
<path d="M78.47 65.4209L156.677 110.486L156.665 135.923L78.458 180.988L0.250977 135.923L0.262977 110.486L78.47 65.4209Z" fill="url(#paint1_linear_381_70)"/>
<path style="mix-blend-mode:soft-light" opacity="0.631" fill-rule="evenodd" clip-rule="evenodd" d="M0.263184 199.977V110.486L77.7892 65.4209V155.436L0.263184 199.977Z" fill="url(#paint2_linear_381_70)"/>
<path fill-rule="evenodd" clip-rule="evenodd" d="M78.458 180.944V155.795L156.483 110.486V136.049L78.458 180.944Z" fill="url(#paint3_linear_381_70)"/>
<path style="mix-blend-mode:soft-light" opacity="0.701" fill-rule="evenodd" clip-rule="evenodd" d="M78.47 154.8L78.458 180.83L0.250977 135.765L0.262977 111.022L78.47 154.8Z" fill="url(#paint4_linear_381_70)"/>
</g>
<path d="M78.207 32.7119L156.413 77.7769V103.555L78.207 148.62L0 102.482V77.7769L78.207 32.7119Z" fill="url(#paint5_linear_381_70)"/>
<path d="M78.207 32.7119L156.413 77.7769V103.555L78.207 148.62L0 102.482V77.7769L78.207 32.7119Z" fill="url(#paint6_linear_381_70)"/>
<g opacity="0.379">
<path opacity="0.379" d="M78.207 123.915V148.62L0 102.482V77.7769L78.207 123.915Z" fill="url(#paint7_linear_381_70)"/>
<path opacity="0.379" d="M78.207 123.915V148.62L0 102.482V77.7769L78.207 123.915Z" fill="url(#paint8_linear_381_70)"/>
</g>
<path fill-rule="evenodd" clip-rule="evenodd" d="M78.189 148.599V123.881L156.22 77.8667V103.44L78.189 148.599Z" fill="url(#paint9_linear_381_70)" fill-opacity="0.52"/>
<path d="M78.2651 0.434082L156.472 45.4991V71.8131L78.2651 116.878L0.059082 70.7411V45.4991L78.2651 0.434082Z" fill="url(#paint10_linear_381_70)"/>
<path d="M78.2651 0.434082L156.472 45.4991V71.8131L78.2651 116.878L0.059082 70.7411V45.4991L78.2651 0.434082Z" fill="url(#paint11_linear_381_70)" fill-opacity="0.9"/>
<path fill-rule="evenodd" clip-rule="evenodd" d="M78.561 92.06V116.336L0 70.259V45L78.561 92.06Z" fill="url(#paint12_linear_381_70)" fill-opacity="0.52"/>
<path fill-rule="evenodd" clip-rule="evenodd" d="M78.0679 116.518V92.0893L156.203 45.1353V71.7513L78.0679 116.518Z" fill="url(#paint13_linear_381_70)" fill-opacity="0.52"/>
<defs>
<linearGradient id="paint0_linear_381_70" x1="-81.8821" y1="54.3866" x2="106.524" y2="229.29" gradientUnits="userSpaceOnUse">
<stop stop-color="#710A3C"/>
<stop offset="1" stop-color="#3B0E2A"/>
</linearGradient>
<linearGradient id="paint1_linear_381_70" x1="0.250977" y1="180.988" x2="110.717" y2="31.466" gradientUnits="userSpaceOnUse">
<stop stop-color="#710A3C" stop-opacity="0"/>
<stop offset="1" stop-color="#3B0E2A"/>
</linearGradient>
<linearGradient id="paint2_linear_381_70" x1="0.263184" y1="107.205" x2="42.5754" y2="116.443" gradientUnits="userSpaceOnUse">
<stop stop-color="white"/>
<stop offset="1" stop-color="white" stop-opacity="0"/>
</linearGradient>
<linearGradient id="paint3_linear_381_70" x1="156.483" y1="158.597" x2="65.3121" y2="125.276" gradientUnits="userSpaceOnUse">
<stop stop-color="#3B0E2A"/>
<stop offset="1" stop-color="#880C48"/>
</linearGradient>
<linearGradient id="paint4_linear_381_70" x1="20.7256" y1="116.928" x2="80.4819" y2="143.53" gradientUnits="userSpaceOnUse">
<stop stop-color="white"/>
<stop offset="1" stop-color="white" stop-opacity="0"/>
</linearGradient>
<linearGradient id="paint5_linear_381_70" x1="-82.1262" y1="21.645" x2="106.792" y2="196.494" gradientUnits="userSpaceOnUse">
<stop stop-color="#710A3C"/>
<stop offset="1" stop-color="#3B0E2A"/>
</linearGradient>
<linearGradient id="paint6_linear_381_70" x1="-1.16537e-06" y1="148.62" x2="73.2045" y2="11.5841" gradientUnits="userSpaceOnUse">
<stop stop-color="#021755" stop-opacity="0"/>
<stop offset="0.0001" stop-color="#710A3C" stop-opacity="0"/>
<stop offset="1" stop-color="#C1365B"/>
</linearGradient>
<linearGradient id="paint7_linear_381_70" x1="71.9027" y1="94.8663" x2="8.07135" y2="118.49" gradientUnits="userSpaceOnUse">
<stop stop-color="#FF8F8F" stop-opacity="0"/>
<stop offset="1" stop-color="#FF8F8F"/>
</linearGradient>
<linearGradient id="paint8_linear_381_70" x1="153.61" y1="137.312" x2="4.93352" y2="84.5481" gradientUnits="userSpaceOnUse">
<stop stop-color="#FF8F8F" stop-opacity="0"/>
<stop offset="1" stop-color="#FF8F8F"/>
</linearGradient>
<linearGradient id="paint9_linear_381_70" x1="208.894" y1="141.953" x2="81.1352" y2="93.3552" gradientUnits="userSpaceOnUse">
<stop stop-color="#710A3C" stop-opacity="0"/>
<stop offset="1" stop-color="#C1365B"/>
</linearGradient>
<linearGradient id="paint10_linear_381_70" x1="-6.82621" y1="-4.73953" x2="111.267" y2="146.427" gradientUnits="userSpaceOnUse">
<stop stop-color="#380820"/>
<stop offset="1" stop-color="#880C48"/>
</linearGradient>
<linearGradient id="paint11_linear_381_70" x1="-18.4227" y1="42.4343" x2="210.081" y2="42.4343" gradientUnits="userSpaceOnUse">
<stop stop-color="#C1365B"/>
<stop offset="1" stop-color="#860024"/>
</linearGradient>
<linearGradient id="paint12_linear_381_70" x1="121.324" y1="71.3936" x2="34.4291" y2="115.06" gradientUnits="userSpaceOnUse">
<stop stop-color="#C1365B" stop-opacity="0"/>
<stop offset="1" stop-color="#C1365B"/>
</linearGradient>
<linearGradient id="paint13_linear_381_70" x1="183.772" y1="95.4231" x2="79.5486" y2="63.716" gradientUnits="userSpaceOnUse">
<stop stop-color="#C1365B" stop-opacity="0"/>
<stop offset="1" stop-color="#C1365B"/>
</linearGradient>
</defs>
</svg>
