<svg width="279" height="197" viewBox="0 0 279 197" fill="none" xmlns="http://www.w3.org/2000/svg">
<g clip-path="url(#clip0_377_2)">
<path d="M138.615 6.45215L216.643 51.6381V142.009L138.615 187.195L60.5864 142.009V51.6381L138.615 6.45215Z" fill="url(#paint0_linear_377_2)"/>
<path d="M138.615 6.45215L216.643 51.6381V142.009L138.615 187.195L60.5864 142.009V51.6381L138.615 6.45215Z" fill="url(#paint1_linear_377_2)" fill-opacity="0.9"/>
<path opacity="0.57" fill-rule="evenodd" clip-rule="evenodd" d="M138.615 99.4062V187.195L60.5864 142.009V51.6382L138.615 99.4062Z" fill="url(#paint2_linear_377_2)" fill-opacity="0.8"/>
<path opacity="0.39" fill-rule="evenodd" clip-rule="evenodd" d="M139.103 186.554V98.8372L216.452 52.9292V141.894L139.103 186.554Z" fill="url(#paint3_linear_377_2)"/>
<path fill-rule="evenodd" clip-rule="evenodd" d="M58.4414 143.623L60.8814 145.088V148.407L100.8 124.659V121.23L97.9054 119.831L58.4414 143.623Z" fill="url(#paint4_linear_377_2)"/>
<path d="M33.3882 128.626L61.0012 144.623V176.418L33.3882 192.415L6.07324 176.418V144.623L33.3882 128.626Z" fill="url(#paint5_linear_377_2)"/>
<path d="M33.3882 128.626L61.0012 144.623V176.418L33.3882 192.415L6.07324 176.418V144.623L33.3882 128.626Z" fill="url(#paint6_linear_377_2)"/>
<path fill-rule="evenodd" clip-rule="evenodd" d="M33.3882 192.416V160.422L61.0012 144.624V176.419L33.3882 192.416Z" fill="url(#paint7_linear_377_2)" fill-opacity="0.52"/>
<path opacity="0.14" fill-rule="evenodd" clip-rule="evenodd" d="M33.3882 160.437L6.07324 144.623L33.3882 128.626L61.0072 144.623L33.3882 160.437Z" fill="url(#paint8_linear_377_2)"/>
<path fill-rule="evenodd" clip-rule="evenodd" d="M183.287 123.485L180.692 125.018V128.01L207.235 144.105V140.961L209.639 139.524L183.287 123.485Z" fill="url(#paint9_linear_377_2)"/>
<path fill-rule="evenodd" clip-rule="evenodd" d="M239.252 122.194L271.691 140.879L271.69 178.018L239.252 196.703L207.164 178.018V140.879L239.252 122.194Z" fill="url(#paint10_linear_377_2)"/>
<path fill-rule="evenodd" clip-rule="evenodd" d="M239.252 196.703V159.332L271.69 140.879V178.018L239.252 196.703Z" fill="url(#paint11_linear_377_2)" fill-opacity="0.2"/>
<path fill-rule="evenodd" clip-rule="evenodd" d="M239.253 159.332L207.164 140.879L239.252 122.194L271.691 140.879L239.253 159.332Z" fill="url(#paint12_linear_377_2)"/>
<path fill-rule="evenodd" clip-rule="evenodd" d="M24.8212 2.25439L49.7532 16.6374V45.2264L25 59.5L0.158203 45.2264V16.6374L24.8212 2.25439Z" fill="url(#paint13_linear_377_2)" fill-opacity="0.7"/>
<path fill-rule="evenodd" clip-rule="evenodd" d="M25 59.5V31L49.7533 16.6372V45.2262L25 59.5Z" fill="url(#paint14_linear_377_2)"/>
<path opacity="0.14" fill-rule="evenodd" clip-rule="evenodd" d="M0 16V45.2729L25 59.5V31L0 16Z" fill="url(#paint15_linear_377_2)"/>
<path fill-rule="evenodd" clip-rule="evenodd" d="M63.123 50.2165L60.649 51.6995V55.0575L35.386 41.4495V37.9795L38.322 36.5645L63.123 50.2165Z" fill="url(#paint16_linear_377_2)"/>
<path d="M251.069 0.115234L278.682 16.1122V47.9072L251.069 63.9042L223.754 47.9072V16.1122L251.069 0.115234Z" fill="url(#paint17_linear_377_2)"/>
<path d="M251.069 0.115234L278.682 16.1122V47.9072L251.069 63.9042L223.754 47.9072V16.1122L251.069 0.115234Z" fill="url(#paint18_linear_377_2)" fill-opacity="0.32"/>
<path style="mix-blend-mode:soft-light" d="M251.069 0.115234L278.682 16.1122V47.9072L251.069 63.9042L223.754 47.9072V16.1122L251.069 0.115234Z" fill="url(#paint19_linear_377_2)"/>
<path opacity="0.25" fill-rule="evenodd" clip-rule="evenodd" d="M251.069 63.9043V31.9103L278.682 16.1123V47.9073L251.069 63.9043Z" fill="url(#paint20_linear_377_2)"/>
<path opacity="0.057" fill-rule="evenodd" clip-rule="evenodd" d="M223.754 47.9073V16.1123L251.069 31.9103V63.7053L223.754 47.9073Z" fill="url(#paint21_linear_377_2)"/>
<path fill-rule="evenodd" clip-rule="evenodd" d="M235.891 37.4683L238.454 38.9903V41.9593L216.302 54.8463V51.7253L213.928 50.3003L235.891 37.4683Z" fill="url(#paint22_linear_377_2)"/>
</g>
<defs>
<linearGradient id="paint0_linear_377_2" x1="53.7168" y1="-1.57827" x2="239.098" y2="150.954" gradientUnits="userSpaceOnUse">
<stop stop-color="#3B0E2A"/>
<stop offset="1" stop-color="#2B0316"/>
</linearGradient>
<linearGradient id="paint1_linear_377_2" x1="52.7789" y1="121.076" x2="236.836" y2="66.5221" gradientUnits="userSpaceOnUse">
<stop stop-color="#710A3C"/>
<stop offset="1" stop-color="#FF2463"/>
</linearGradient>
<linearGradient id="paint2_linear_377_2" x1="130.17" y1="86.01" x2="35.2205" y2="107.669" gradientUnits="userSpaceOnUse">
<stop stop-color="#FF8F8F" stop-opacity="0"/>
<stop offset="1" stop-color="#FF7D7D"/>
</linearGradient>
<linearGradient id="paint3_linear_377_2" x1="235.806" y1="149.289" x2="133.157" y2="130.934" gradientUnits="userSpaceOnUse">
<stop stop-color="#FF8F8F" stop-opacity="0"/>
<stop offset="1" stop-color="#FF8F8F"/>
</linearGradient>
<linearGradient id="paint4_linear_377_2" x1="51.8821" y1="192.859" x2="120.465" y2="19.7251" gradientUnits="userSpaceOnUse">
<stop stop-color="#710A3C"/>
<stop offset="1" stop-color="#880C48"/>
</linearGradient>
<linearGradient id="paint5_linear_377_2" x1="-22.7673" y1="122.536" x2="68.5539" y2="176.468" gradientUnits="userSpaceOnUse">
<stop stop-color="#C1365B"/>
<stop offset="1" stop-color="#880C48"/>
</linearGradient>
<linearGradient id="paint6_linear_377_2" x1="6.07324" y1="192.415" x2="69.1554" y2="138.096" gradientUnits="userSpaceOnUse">
<stop stop-color="#C1365B" stop-opacity="0"/>
<stop offset="1" stop-color="#C1365B"/>
</linearGradient>
<linearGradient id="paint7_linear_377_2" x1="79.6411" y1="187.925" x2="29.8647" y2="178.009" gradientUnits="userSpaceOnUse">
<stop stop-color="#C1365B" stop-opacity="0"/>
<stop offset="1" stop-color="#C1365B"/>
</linearGradient>
<linearGradient id="paint8_linear_377_2" x1="33.5402" y1="132.653" x2="35.9511" y2="152.972" gradientUnits="userSpaceOnUse">
<stop stop-color="white"/>
<stop offset="1" stop-color="white" stop-opacity="0"/>
</linearGradient>
<linearGradient id="paint9_linear_377_2" x1="235.432" y1="173.099" x2="192.431" y2="75.4429" gradientUnits="userSpaceOnUse">
<stop stop-color="#710A3C"/>
<stop offset="1" stop-color="#C1365B"/>
</linearGradient>
<linearGradient id="paint10_linear_377_2" x1="249.71" y1="183.85" x2="208.877" y2="161.741" gradientUnits="userSpaceOnUse">
<stop stop-color="white"/>
<stop offset="1" stop-color="#C1365B"/>
</linearGradient>
<linearGradient id="paint11_linear_377_2" x1="257.97" y1="168.791" x2="236.482" y2="174.93" gradientUnits="userSpaceOnUse">
<stop stop-color="#C1365B" stop-opacity="0"/>
<stop offset="0.40262" stop-color="#C1365B" stop-opacity="0.09"/>
<stop offset="1" stop-color="#DD3C3C"/>
</linearGradient>
<linearGradient id="paint12_linear_377_2" x1="263.188" y1="159.332" x2="237.144" y2="107.213" gradientUnits="userSpaceOnUse">
<stop stop-color="white"/>
<stop offset="1" stop-color="#C1365B"/>
</linearGradient>
<linearGradient id="paint13_linear_377_2" x1="-3.66954" y1="100.774" x2="80.0327" y2="25.8975" gradientUnits="userSpaceOnUse">
<stop stop-color="#710A3C"/>
<stop offset="1" stop-color="#FF2463"/>
</linearGradient>
<linearGradient id="paint14_linear_377_2" x1="9.63247" y1="-86.3433" x2="83.094" y2="45.2778" gradientUnits="userSpaceOnUse">
<stop stop-color="#710A3C" stop-opacity="0.49"/>
<stop offset="1" stop-color="#710A3C" stop-opacity="0"/>
</linearGradient>
<linearGradient id="paint15_linear_377_2" x1="12.5" y1="54.4309" x2="21.5949" y2="29.2097" gradientUnits="userSpaceOnUse">
<stop stop-color="white" stop-opacity="0"/>
<stop offset="1" stop-color="white"/>
</linearGradient>
<linearGradient id="paint16_linear_377_2" x1="28.2421" y1="45.811" x2="63.232" y2="89.3667" gradientUnits="userSpaceOnUse">
<stop stop-color="#710A3C"/>
<stop offset="1" stop-color="#C1365B"/>
</linearGradient>
<linearGradient id="paint17_linear_377_2" x1="260.201" y1="115.778" x2="248.111" y2="-18.8279" gradientUnits="userSpaceOnUse">
<stop stop-color="#710A3C" stop-opacity="0"/>
<stop offset="1" stop-color="#710A3C"/>
</linearGradient>
<linearGradient id="paint18_linear_377_2" x1="260.201" y1="115.778" x2="248.111" y2="-18.8279" gradientUnits="userSpaceOnUse">
<stop stop-color="#FF2463" stop-opacity="0"/>
<stop offset="1" stop-color="#FF2463"/>
</linearGradient>
<linearGradient id="paint19_linear_377_2" x1="251.218" y1="7.10778" x2="251.218" y2="39.2715" gradientUnits="userSpaceOnUse">
<stop stop-color="white"/>
<stop offset="1" stop-color="white" stop-opacity="0"/>
</linearGradient>
<linearGradient id="paint20_linear_377_2" x1="278.682" y1="45.7347" x2="256.331" y2="40.4432" gradientUnits="userSpaceOnUse">
<stop stop-color="white" stop-opacity="0"/>
<stop offset="1" stop-color="#FF8F8F"/>
</linearGradient>
<linearGradient id="paint21_linear_377_2" x1="262.382" y1="16.1123" x2="223.484" y2="40.008" gradientUnits="userSpaceOnUse">
<stop stop-color="#710A3C" stop-opacity="0"/>
<stop offset="1" stop-color="#710A3C"/>
</linearGradient>
<linearGradient id="paint22_linear_377_2" x1="199.11" y1="81.8232" x2="216.626" y2="29.2794" gradientUnits="userSpaceOnUse">
<stop stop-color="#880C48"/>
<stop offset="1" stop-color="#C1365B"/>
</linearGradient>
<clipPath id="clip0_377_2">
<rect width="279" height="197" fill="white"/>
</clipPath>
</defs>
</svg>
