<svg width="80" height="60" viewBox="0 0 80 60" fill="none" xmlns="http://www.w3.org/2000/svg">
<path d="M39.5 34C46.4036 34 52 28.4036 52 21.5C52 14.5964 46.4036 9 39.5 9C32.5964 9 27 14.5964 27 21.5C27 28.4036 32.5964 34 39.5 34Z" fill="url(#paint0_linear_390_231)"/>
<path opacity="0.8" d="M52.5 34C59.4036 34 65 28.4036 65 21.5C65 14.5964 59.4036 9 52.5 9C45.5964 9 40 14.5964 40 21.5C40 28.4036 45.5964 34 52.5 34Z" fill="url(#paint1_linear_390_231)"/>
<g filter="url(#filter0_i_390_231)">
<path d="M3.23232 11.0001C2.37506 11.0001 1.5529 11.3011 0.946725 11.837C0.340547 12.3728 0 13.0995 0 13.8573C0 14.615 0.340547 15.3417 0.946725 15.8776C1.5529 16.4134 2.37506 16.7144 3.23232 16.7144H10.4081L18.8897 46.7143C19.6105 49.2571 22.1867 51 25.1507 51H65.4578C68.3766 51 70.8558 49.2857 71.6218 46.8L80 19.5715H73.2315L65.4545 45.2857H25.1475L16.6691 15.2858C16.3189 14.0551 15.5115 12.9638 14.3763 12.1867C13.2412 11.4097 11.8438 10.9918 10.4081 11.0001H3.23232Z" fill="url(#paint2_linear_390_231)"/>
</g>
<defs>
<filter id="filter0_i_390_231" x="0" y="7" width="80" height="44" filterUnits="userSpaceOnUse" color-interpolation-filters="sRGB">
<feFlood flood-opacity="0" result="BackgroundImageFix"/>
<feBlend mode="normal" in="SourceGraphic" in2="BackgroundImageFix" result="shape"/>
<feColorMatrix in="SourceAlpha" type="matrix" values="0 0 0 0 0 0 0 0 0 0 0 0 0 0 0 0 0 0 127 0" result="hardAlpha"/>
<feOffset dy="-4"/>
<feGaussianBlur stdDeviation="2"/>
<feComposite in2="hardAlpha" operator="arithmetic" k2="-1" k3="1"/>
<feColorMatrix type="matrix" values="0 0 0 0 0 0 0 0 0 0 0 0 0 0 0 0 0 0 0.25 0"/>
<feBlend mode="normal" in2="shape" result="effect1_innerShadow_390_231"/>
</filter>
<linearGradient id="paint0_linear_390_231" x1="39.5" y1="9" x2="39.5" y2="34" gradientUnits="userSpaceOnUse">
<stop stop-color="#710A3C"/>
<stop offset="1" stop-color="#3B0E2A"/>
</linearGradient>
<linearGradient id="paint1_linear_390_231" x1="52.5" y1="9" x2="52.5" y2="34" gradientUnits="userSpaceOnUse">
<stop stop-color="#3B0E2A"/>
<stop offset="1" stop-color="#710A3C"/>
</linearGradient>
<linearGradient id="paint2_linear_390_231" x1="40" y1="11" x2="40" y2="51" gradientUnits="userSpaceOnUse">
<stop stop-color="#3B0E2A"/>
<stop offset="1" stop-color="#710A3C"/>
</linearGradient>
</defs>
</svg>
