<svg width="80" height="60" viewBox="0 0 80 60" fill="none" xmlns="http://www.w3.org/2000/svg">
<path d="M25.0001 10.0757L45 21.2833V43.6983L25.0001 54.9059L5 43.6983V21.2833L25.0001 10.0757Z" fill="url(#paint0_linear_387_189)"/>
<path d="M25.0001 10.0757L45 21.2833V43.6983L25.0001 54.9059L5 43.6983V21.2833L25.0001 10.0757Z" fill="url(#paint1_linear_387_189)" fill-opacity="0.9"/>
<path opacity="0.57" fill-rule="evenodd" clip-rule="evenodd" d="M25.0001 33.1312V54.9058L5 43.6982V21.2832L25.0001 33.1312Z" fill="url(#paint2_linear_387_189)" fill-opacity="0.8"/>
<path opacity="0.39" fill-rule="evenodd" clip-rule="evenodd" d="M25.125 54.7479V32.9912L44.9508 21.6045V43.6707L25.125 54.7479Z" fill="url(#paint3_linear_387_189)"/>
<g filter="url(#filter0_i_387_189)">
<path d="M69.5575 44.149C68.3866 43.0062 67.247 41.8307 66.14 40.6237C65.21 39.6608 64.65 38.9604 64.65 38.9604L57.65 35.5548C60.4525 32.3164 61.9992 28.1476 62 23.8302C62 14.0007 54.15 6 44.5 6C34.85 6 27 14.0007 27 23.8302C27 33.6597 34.85 41.6604 44.5 41.6604C48.9075 41.6604 52.925 39.9792 56.0075 37.2308L59.35 44.3629C59.35 44.3629 60.0375 44.9335 60.9825 45.881C61.95 46.8057 63.2225 48.0563 64.4425 49.363L67.8375 52.9087L69.3475 54.5541L74.65 49.1516L73.035 47.6131C72.0875 46.6656 70.8225 45.4073 69.5575 44.149ZM44.5 36.566C37.6075 36.566 32 30.8527 32 23.8302C32 16.8076 37.6075 11.0943 44.5 11.0943C51.3925 11.0943 57 16.8076 57 23.8302C57 30.8527 51.3925 36.566 44.5 36.566Z" fill="url(#paint4_linear_387_189)"/>
</g>
<defs>
<filter id="filter0_i_387_189" x="27" y="3" width="47.6499" height="51.5542" filterUnits="userSpaceOnUse" color-interpolation-filters="sRGB">
<feFlood flood-opacity="0" result="BackgroundImageFix"/>
<feBlend mode="normal" in="SourceGraphic" in2="BackgroundImageFix" result="shape"/>
<feColorMatrix in="SourceAlpha" type="matrix" values="0 0 0 0 0 0 0 0 0 0 0 0 0 0 0 0 0 0 127 0" result="hardAlpha"/>
<feOffset dy="-5"/>
<feGaussianBlur stdDeviation="1.5"/>
<feComposite in2="hardAlpha" operator="arithmetic" k2="-1" k3="1"/>
<feColorMatrix type="matrix" values="0 0 0 0 0 0 0 0 0 0 0 0 0 0 0 0 0 0 0.25 0"/>
<feBlend mode="normal" in2="shape" result="effect1_innerShadow_387_189"/>
</filter>
<linearGradient id="paint0_linear_387_189" x1="3.2392" y1="8.08388" x2="49.4876" y2="47.4082" gradientUnits="userSpaceOnUse">
<stop stop-color="#3B0E2A"/>
<stop offset="1" stop-color="#2B0316"/>
</linearGradient>
<linearGradient id="paint1_linear_387_189" x1="2.9988" y1="38.5061" x2="49.9184" y2="24.1349" gradientUnits="userSpaceOnUse">
<stop stop-color="#3B0E2A"/>
<stop offset="1" stop-color="#C1365B"/>
</linearGradient>
<linearGradient id="paint2_linear_387_189" x1="22.8355" y1="29.8085" x2="-1.42023" y2="35.5262" gradientUnits="userSpaceOnUse">
<stop stop-color="#FF2463" stop-opacity="0"/>
<stop offset="1" stop-color="#FF2463"/>
</linearGradient>
<linearGradient id="paint3_linear_387_189" x1="49.9117" y1="45.5048" x2="23.6562" y2="40.6532" gradientUnits="userSpaceOnUse">
<stop stop-color="#FF2463" stop-opacity="0"/>
<stop offset="1" stop-color="#FF2463"/>
</linearGradient>
<linearGradient id="paint4_linear_387_189" x1="73.5" y1="27.9057" x2="26.9998" y2="27.4149" gradientUnits="userSpaceOnUse">
<stop stop-color="#C1365B"/>
<stop offset="1" stop-color="#3B0E2A"/>
</linearGradient>
</defs>
</svg>
