<svg width="100" height="100" viewBox="0 0 100 100" fill="none" xmlns="http://www.w3.org/2000/svg">
<path fill-rule="evenodd" clip-rule="evenodd" d="M47.4339 17.9025L40.5 14L34.0208 17.6965C34.1242 18.0891 34.1792 18.5006 34.1792 18.9246C34.1792 21.6444 31.9156 23.8492 29.1232 23.8492C27.7679 23.8492 26.5371 23.3298 25.6292 22.4841L18 26.8367V33.7969C20.3078 34.2532 22.0448 36.2405 22.0448 38.623C22.0448 41.0055 20.3078 42.9928 18 43.4491V52.1633L24.4928 55.8676C25.4111 54.9509 26.6933 54.3817 28.112 54.3817C30.9044 54.3817 33.168 56.5866 33.168 59.3063C33.168 59.7903 33.0964 60.258 32.9628 60.6999L40.5 65L48.4734 60.451C48.3836 60.0837 48.3361 59.7004 48.3361 59.3063C48.3361 56.5866 50.5997 54.3817 53.3921 54.3817C54.7158 54.3817 55.9206 54.8772 56.8219 55.688L63 52.1633V43.3226C60.948 42.6955 59.4593 40.8286 59.4593 38.623C59.4593 36.4174 60.948 34.5505 63 33.9234V26.6633L55.7596 22.5883C54.8641 23.3722 53.6797 23.8492 52.3809 23.8492C49.5885 23.8492 47.3249 21.6444 47.3249 18.9246C47.3249 18.5741 47.3625 18.2322 47.4339 17.9025ZM40.2465 49.4571C45.8312 49.4571 50.3585 45.0475 50.3585 39.6079C50.3585 34.1684 45.8312 29.7587 40.2465 29.7587C34.6617 29.7587 30.1344 34.1684 30.1344 39.6079C30.1344 45.0475 34.6617 49.4571 40.2465 49.4571Z" fill="url(#paint0_linear_386_176)"/>
<path fill-rule="evenodd" clip-rule="evenodd" d="M66.717 62.913L63.25 61L60.0104 62.812C60.0621 63.0045 60.0896 63.2062 60.0896 63.414C60.0896 64.7472 58.9578 65.828 57.5616 65.828C56.8839 65.828 56.2685 65.5734 55.8146 65.1589L52 67.2925V70.7044C53.1539 70.928 54.0224 71.9022 54.0224 73.0701C54.0224 74.238 53.1539 75.2122 52 75.4358V79.7075L55.2464 81.5233C55.7055 81.074 56.3467 80.795 57.056 80.795C58.4522 80.795 59.584 81.8758 59.584 83.209C59.584 83.4462 59.5482 83.6755 59.4814 83.8921L63.25 86L67.2367 83.7701C67.1918 83.59 67.168 83.4022 67.168 83.209C67.168 81.8758 68.2999 80.795 69.696 80.795C70.3579 80.795 70.9603 81.0378 71.4109 81.4353L74.5 79.7075V75.3738C73.474 75.0664 72.7297 74.1513 72.7297 73.0701C72.7297 71.9889 73.474 71.0738 74.5 70.7664V67.2075L70.8798 65.2099C70.4321 65.5942 69.8398 65.828 69.1904 65.828C67.7943 65.828 66.6624 64.7472 66.6624 63.414C66.6624 63.2422 66.6812 63.0746 66.717 62.913ZM63.1232 78.381C65.9156 78.381 68.1792 76.2194 68.1792 73.5529C68.1792 70.8865 65.9156 68.7249 63.1232 68.7249C60.3309 68.7249 58.0672 70.8865 58.0672 73.5529C58.0672 76.2194 60.3309 78.381 63.1232 78.381Z" fill="url(#paint1_linear_386_176)"/>
<path fill-rule="evenodd" clip-rule="evenodd" d="M77.8302 40.1478L75.75 39L73.8062 40.0872C73.8373 40.2027 73.8538 40.3237 73.8538 40.4484C73.8538 41.2483 73.1747 41.8968 72.337 41.8968C71.9304 41.8968 71.5611 41.744 71.2888 41.4953L69 42.7755V44.8226C69.6923 44.9568 70.2134 45.5413 70.2134 46.2421C70.2134 46.9428 69.6923 47.5273 69 47.6615V50.2245L70.9479 51.314C71.2233 51.0444 71.608 50.877 72.0336 50.877C72.8713 50.877 73.5504 51.5255 73.5504 52.3254C73.5504 52.4677 73.5289 52.6053 73.4888 52.7353L75.75 54L78.142 52.6621C78.1151 52.554 78.1008 52.4413 78.1008 52.3254C78.1008 51.5255 78.7799 50.877 79.6176 50.877C80.0147 50.877 80.3762 51.0227 80.6466 51.2612L82.5 50.2245V47.6243C81.8844 47.4399 81.4378 46.8908 81.4378 46.2421C81.4378 45.5934 81.8844 45.0443 82.5 44.8598V42.7245L80.3279 41.526C80.0592 41.7565 79.7039 41.8968 79.3143 41.8968C78.4766 41.8968 77.7975 41.2483 77.7975 40.4484C77.7975 40.3453 77.8087 40.2448 77.8302 40.1478ZM75.6739 49.4286C77.3494 49.4286 78.7075 48.1316 78.7075 46.5317C78.7075 44.9319 77.3494 43.6349 75.6739 43.6349C73.9985 43.6349 72.6403 44.9319 72.6403 46.5317C72.6403 48.1316 73.9985 49.4286 75.6739 49.4286Z" fill="url(#paint2_linear_386_176)"/>
<defs>
<linearGradient id="paint0_linear_386_176" x1="40.5" y1="14" x2="40.5" y2="65" gradientUnits="userSpaceOnUse">
<stop stop-color="#3B0E2A"/>
<stop offset="1" stop-color="#710A3C"/>
</linearGradient>
<linearGradient id="paint1_linear_386_176" x1="63.25" y1="61" x2="63.25" y2="86" gradientUnits="userSpaceOnUse">
<stop stop-color="#3B0E2A"/>
<stop offset="1" stop-color="#710A3C"/>
</linearGradient>
<linearGradient id="paint2_linear_386_176" x1="75.75" y1="39" x2="75.75" y2="54" gradientUnits="userSpaceOnUse">
<stop stop-color="#3B0E2A"/>
<stop offset="1" stop-color="#710A3C"/>
</linearGradient>
</defs>
</svg>
