<svg width="20" height="20" viewBox="0 0 20 20" fill="none" xmlns="http://www.w3.org/2000/svg">
<path fill-rule="evenodd" clip-rule="evenodd" d="M2.5 4C2.5 2.61929 3.61929 1.5 5 1.5H17.5V13.5H4.5C3.73165 13.5 3.03076 13.7889 2.5 14.2639V4ZM18.5 1V13.5V14V14.4V14.563C18.3402 14.5219 18.1726 14.5 18 14.5C17.8804 14.5 17.7632 14.5105 17.6494 14.5306C17.3212 14.6348 17.0198 14.7989 16.7676 15.0151C16.3081 15.4089 16.05 15.943 16.05 16.5C16.05 17.057 16.3081 17.5911 16.7676 17.9849C17.0198 18.2011 17.3212 18.3652 17.6494 18.4694C17.7632 18.4895 17.8804 18.5 18 18.5C18.1726 18.5 18.3402 18.4781 18.5 18.437V18.6V19V19.5H18H5C3.23676 19.5 1.77806 18.1961 1.53544 16.5H1.5C1.5 16.4191 1.5032 16.339 1.50949 16.2597C1.5032 16.1739 1.5 16.0873 1.5 16V4C1.5 2.067 3.067 0.5 5 0.5H18H18.5V1ZM15.8912 18.5C15.3188 17.9515 15 17.2398 15 16.5C15 15.7602 15.3188 15.0485 15.8912 14.5H4.5C3.47527 14.5 2.63054 15.2707 2.51378 16.264C2.64567 17.5206 3.70846 18.5 5 18.5H15.8912Z" fill="#710A3C"/>
</svg>
