<svg width="20" height="20" viewBox="0 0 20 20" fill="none" xmlns="http://www.w3.org/2000/svg">
<path fill-rule="evenodd" clip-rule="evenodd" d="M10 8.5C11.3807 8.5 12.5 7.38071 12.5 6C12.5 4.61929 11.3807 3.5 10 3.5C8.61929 3.5 7.5 4.61929 7.5 6C7.5 7.38071 8.61929 8.5 10 8.5ZM10 10C12.2091 10 14 8.20914 14 6C14 3.79086 12.2091 2 10 2C7.79086 2 6 3.79086 6 6C6 8.20914 7.79086 10 10 10Z" fill="#C1365B"/>
<path fill-rule="evenodd" clip-rule="evenodd" d="M6 12.75C4.75736 12.75 3.75 13.7574 3.75 15V17C3.75 17.4142 3.41421 17.75 3 17.75C2.58579 17.75 2.25 17.4142 2.25 17V15C2.25 12.9289 3.92893 11.25 6 11.25H14C16.0711 11.25 17.75 12.9289 17.75 15V17C17.75 17.4142 17.4142 17.75 17 17.75C16.5858 17.75 16.25 17.4142 16.25 17V15C16.25 13.7574 15.2426 12.75 14 12.75H6Z" fill="#C1365B"/>
</svg>
