<svg width="22" height="22" viewBox="0 0 22 22" fill="none" xmlns="http://www.w3.org/2000/svg">
<path fill-rule="evenodd" clip-rule="evenodd" d="M11.0016 9.35019C12.5203 9.35019 13.7516 8.11898 13.7516 6.60019C13.7516 5.08141 12.5203 3.85019 11.0016 3.85019C9.48278 3.85019 8.25156 5.08141 8.25156 6.60019C8.25156 8.11898 9.48278 9.35019 11.0016 9.35019ZM11.0016 11.0002C13.4316 11.0002 15.4016 9.03025 15.4016 6.60019C15.4016 4.17014 13.4316 2.2002 11.0016 2.2002C8.57151 2.2002 6.60156 4.17014 6.60156 6.60019C6.60156 9.03025 8.57151 11.0002 11.0016 11.0002Z" fill="#710A3C"/>
<path fill-rule="evenodd" clip-rule="evenodd" d="M6.60156 14.0252C5.23466 14.0252 4.12656 15.1333 4.12656 16.5002V18.7002C4.12656 19.1558 3.7572 19.5252 3.30156 19.5252C2.84593 19.5252 2.47656 19.1558 2.47656 18.7002V16.5002C2.47656 14.222 4.32339 12.3752 6.60156 12.3752H15.4016C17.6797 12.3752 19.5266 14.222 19.5266 16.5002V18.7002C19.5266 19.1558 19.1572 19.5252 18.7016 19.5252C18.2459 19.5252 17.8766 19.1558 17.8766 18.7002V16.5002C17.8766 15.1333 16.7685 14.0252 15.4016 14.0252H6.60156Z" fill="#710A3C"/>
<path d="M19 1V5" stroke="#C1365B" stroke-width="1.2" stroke-linecap="round"/>
<path d="M17 3H21" stroke="#C1365B" stroke-width="1.2" stroke-linecap="round"/>
</svg>
