<svg width="11" height="8" viewBox="0 0 11 8" fill="none" xmlns="http://www.w3.org/2000/svg">
<path fill-rule="evenodd" clip-rule="evenodd" d="M9.23582 3.6501L7.08511 1.37828C6.95222 1.2379 6.95222 1.01031 7.08511 0.869932C7.218 0.729556 7.43346 0.729554 7.56635 0.869928L10.289 3.7459C10.3528 3.81331 10.3887 3.90473 10.3887 4.00007C10.3887 4.0954 10.3528 4.18683 10.289 4.25424L7.56637 7.13027C7.43348 7.27065 7.21803 7.27065 7.08514 7.13028C6.95225 6.9899 6.95224 6.76231 7.08513 6.62193L9.23578 4.3501H0.961572C0.768273 4.3501 0.611572 4.1934 0.611572 4.0001C0.611572 3.8068 0.768273 3.6501 0.961572 3.6501H9.23582Z" fill="#3B0E2A"/>
</svg>
