<svg width="20" height="20" viewBox="0 0 20 20" fill="none" xmlns="http://www.w3.org/2000/svg">
<path d="M2.00003 4.63336L10 1.29999L18 4.63336L10 7.96673L2.00003 4.63336Z" fill="url(#paint0_linear_808_2033)"/>
<path d="M1.35001 5.75998L9.35001 9.09335V18.4268L1.35001 15.0934V5.75998Z" fill="url(#paint1_linear_808_2033)"/>
<path d="M18.6501 5.75998L10.6501 9.09335V18.4268L18.6501 15.0934V5.75998Z" fill="url(#paint2_linear_808_2033)"/>
<path fill-rule="evenodd" clip-rule="evenodd" d="M10.0089 0.175293L19.25 4.52404V15.4759L10.0089 19.8247L0.25 15.4874V4.51259L10.0089 0.175293ZM1.75 6.09638L9.25 9.01304V17.8459L1.75 14.5126V6.09638ZM10.75 17.8182L17.75 14.524V6.11991L10.75 9.00226V17.8182ZM9.99204 7.69218L16.6413 4.95423L9.99109 1.82469L2.95055 4.95382L9.99204 7.69218Z" fill="#3B0E2A"/>
<defs>
<linearGradient id="paint0_linear_808_2033" x1="9.75" y1="0.175293" x2="9.75" y2="19.8247" gradientUnits="userSpaceOnUse">
<stop stop-color="#710A3C"/>
<stop offset="1" stop-color="#3B0E2A"/>
</linearGradient>
<linearGradient id="paint1_linear_808_2033" x1="21.9775" y1="5.97733" x2="6.85601" y2="21.4116" gradientUnits="userSpaceOnUse">
<stop stop-color="#3B0E2A"/>
<stop offset="1" stop-color="#710A3C"/>
</linearGradient>
<linearGradient id="paint2_linear_808_2033" x1="18.8975" y1="0.547956" x2="9.27649" y2="24.4841" gradientUnits="userSpaceOnUse">
<stop stop-color="#3B0E2A"/>
<stop offset="1" stop-color="#710A3C"/>
</linearGradient>
</defs>
</svg>
