<svg width="20" height="20" viewBox="0 0 20 20" fill="none" xmlns="http://www.w3.org/2000/svg">
<path d="M10.8376 9.64863C10.7946 9.57037 10.741 9.49846 10.6782 9.43496L9.9618 8.72832C9.88822 8.65341 9.80132 8.59287 9.70555 8.54981C9.55485 8.48259 9.38733 8.46255 9.22502 8.49232C9.06271 8.52209 8.91321 8.60028 8.79618 8.7166C8.54774 8.96113 8.09305 9.40723 7.27274 10.2178C5.70399 11.7697 2.7911 14.3709 1.47391 15.4803C1.40755 15.5358 1.35344 15.6045 1.31501 15.682C1.27658 15.7596 1.25467 15.8442 1.25067 15.9307C1.24667 16.0171 1.26066 16.1035 1.29176 16.1842C1.32285 16.265 1.37038 16.3384 1.43133 16.3998L2.95477 17.94C3.01612 18.0016 3.08953 18.0498 3.1704 18.0816C3.25127 18.1134 3.33784 18.1281 3.42468 18.1248C3.51151 18.1216 3.59673 18.1004 3.67498 18.0626C3.75323 18.0248 3.82282 17.9712 3.87938 17.9053C5.02157 16.5627 7.6411 13.6475 9.19188 12.115C9.98836 11.3314 10.4348 10.8814 10.6876 10.633C10.8129 10.5055 10.8949 10.3418 10.9218 10.1651C10.9487 9.98836 10.9193 9.80764 10.8376 9.64863V9.64863ZM18.6895 7.85176L17.3493 6.52363C17.3288 6.5032 17.3044 6.48715 17.2776 6.47647C17.2507 6.46579 17.2219 6.4607 17.193 6.46152C17.1642 6.46104 17.1355 6.46628 17.1087 6.47694C17.0819 6.4876 17.0574 6.50347 17.0368 6.52363C16.9886 6.57211 16.9299 6.60885 16.8652 6.631C16.8005 6.65315 16.7316 6.66012 16.6638 6.65137C16.4888 6.63223 16.3024 6.57793 16.1821 6.46152C15.9087 6.19356 16.2247 5.66621 15.9841 5.32871C15.7093 4.95938 15.4079 4.61055 15.0825 4.28496C14.8067 4.01152 13.7227 2.97754 11.897 2.23301C11.3143 1.99431 10.6907 1.87171 10.061 1.87207C9.03172 1.87207 8.24032 2.33145 7.95164 2.59512C7.72196 2.80293 7.48289 3.13301 7.48289 3.13301C7.62094 3.08268 7.76196 3.04094 7.90516 3.00801C8.20378 2.94402 8.5102 2.9244 8.81453 2.94981C9.42235 3.0002 10.1548 3.28535 10.5477 3.59395C11.1809 4.10176 11.4532 4.78106 11.4958 5.65762C11.527 6.30957 10.9009 7.13262 10.3067 7.80371C10.2544 7.86272 10.2269 7.93959 10.2298 8.01836C10.2327 8.09714 10.2659 8.17177 10.3223 8.22676L11.152 9.05606C11.2098 9.11314 11.2876 9.14547 11.3688 9.1462C11.4501 9.14693 11.5284 9.116 11.5872 9.05996C12.1313 8.53223 12.8016 7.94785 13.1817 7.71387C13.5618 7.47988 13.8684 7.41387 14.0157 7.39785C14.3051 7.36983 14.596 7.43293 14.8477 7.57832C14.8921 7.6034 14.9326 7.63471 14.968 7.67129C15.2204 7.92754 15.2052 8.34629 14.9485 8.59863L14.8704 8.67246C14.8501 8.69245 14.8339 8.71629 14.8229 8.74258C14.8119 8.76887 14.8062 8.79708 14.8062 8.82559C14.8062 8.85409 14.8119 8.88231 14.8229 8.9086C14.8339 8.93488 14.8501 8.95872 14.8704 8.97871L16.2106 10.3068C16.2312 10.3271 16.2556 10.343 16.2825 10.3536C16.3093 10.3642 16.338 10.3693 16.3669 10.3686C16.4251 10.3694 16.4812 10.3472 16.5231 10.3068L18.6895 8.16426C18.7295 8.12204 18.7517 8.06613 18.7517 8.00801C18.7517 7.94989 18.7295 7.89398 18.6895 7.85176V7.85176Z" stroke="#C1365B" stroke-linecap="round" stroke-linejoin="round"/>
</svg>
