<svg width="16" height="16" viewBox="0 0 16 16" fill="none" xmlns="http://www.w3.org/2000/svg">
<path d="M14.6654 6.66683H1.33203V12.6668C1.33203 13.1973 1.54274 13.706 1.91782 14.081C2.29289 14.4561 2.8016 14.6668 3.33203 14.6668H12.6654C13.1958 14.6668 13.7045 14.4561 14.0796 14.081C14.4547 13.706 14.6654 13.1973 14.6654 12.6668V6.66683ZM4.66536 5.3335C4.48855 5.3335 4.31898 5.26326 4.19396 5.13823C4.06894 5.01321 3.9987 4.84364 3.9987 4.66683V2.00016C3.9987 1.82335 4.06894 1.65378 4.19396 1.52876C4.31898 1.40373 4.48855 1.3335 4.66536 1.3335C4.84218 1.3335 5.01174 1.40373 5.13677 1.52876C5.26179 1.65378 5.33203 1.82335 5.33203 2.00016V4.66683C5.33203 4.84364 5.26179 5.01321 5.13677 5.13823C5.01174 5.26326 4.84218 5.3335 4.66536 5.3335ZM11.332 5.3335C11.1552 5.3335 10.9857 5.26326 10.8606 5.13823C10.7356 5.01321 10.6654 4.84364 10.6654 4.66683V2.00016C10.6654 1.82335 10.7356 1.65378 10.8606 1.52876C10.9857 1.40373 11.1552 1.3335 11.332 1.3335C11.5088 1.3335 11.6784 1.40373 11.8034 1.52876C11.9285 1.65378 11.9987 1.82335 11.9987 2.00016V4.66683C11.9987 4.84364 11.9285 5.01321 11.8034 5.13823C11.6784 5.26326 11.5088 5.3335 11.332 5.3335Z" fill="url(#paint0_linear_809_2194)"/>
<path d="M12.6654 2.6665H11.9987V4.6665C11.9987 4.84331 11.9285 5.01288 11.8034 5.13791C11.6784 5.26293 11.5088 5.33317 11.332 5.33317C11.1552 5.33317 10.9857 5.26293 10.8606 5.13791C10.7356 5.01288 10.6654 4.84331 10.6654 4.6665V2.6665H5.33203V4.6665C5.33203 4.84331 5.26179 5.01288 5.13677 5.13791C5.01174 5.26293 4.84218 5.33317 4.66536 5.33317C4.48855 5.33317 4.31898 5.26293 4.19396 5.13791C4.06894 5.01288 3.9987 4.84331 3.9987 4.6665V2.6665H3.33203C2.8016 2.6665 2.29289 2.87722 1.91782 3.25229C1.54274 3.62736 1.33203 4.13607 1.33203 4.6665V6.6665H14.6654V4.6665C14.6654 4.13607 14.4547 3.62736 14.0796 3.25229C13.7045 2.87722 13.1958 2.6665 12.6654 2.6665Z" fill="#FF8F8F"/>
<defs>
<linearGradient id="paint0_linear_809_2194" x1="7.9987" y1="1.3335" x2="7.9987" y2="14.6668" gradientUnits="userSpaceOnUse">
<stop stop-color="#710A3C"/>
<stop offset="1" stop-color="#3B0E2A"/>
</linearGradient>
</defs>
</svg>
