<svg width="22" height="22" viewBox="0 0 22 22" fill="none" xmlns="http://www.w3.org/2000/svg">
<path d="M15.3122 11.7271L11.6456 8.06048C11.2876 7.7025 10.7072 7.7025 10.3492 8.06048L6.68255 11.7271C6.32457 12.0851 6.32457 12.6655 6.68255 13.0235C7.04053 13.3815 7.62093 13.3815 7.97891 13.0235L10.9974 10.005L14.0159 13.0235C14.3739 13.3815 14.9543 13.3815 15.3122 13.0235C15.6702 12.6655 15.6702 12.0851 15.3122 11.7271Z" fill="#FF8F8F"/>
<path fill-rule="evenodd" clip-rule="evenodd" d="M10.9974 0.916992C5.42852 0.916992 0.914062 5.43145 0.914062 11.0003C0.914062 16.5692 5.42852 21.0837 10.9974 21.0837C16.5663 21.0837 21.0807 16.5692 21.0807 11.0003C21.0807 5.43145 16.5663 0.916992 10.9974 0.916992ZM2.7474 11.0003C2.7474 6.44398 6.44105 2.75033 10.9974 2.75033C15.5537 2.75033 19.2474 6.44398 19.2474 11.0003C19.2474 15.5567 15.5537 19.2503 10.9974 19.2503C6.44105 19.2503 2.7474 15.5567 2.7474 11.0003Z" fill="#FF8F8F"/>
</svg>
