<svg width="16" height="16" viewBox="0 0 16 16" fill="none" xmlns="http://www.w3.org/2000/svg">
<path d="M6.40156 2.4001C6.18939 2.4001 5.98591 2.48438 5.83588 2.63441C5.68585 2.78444 5.60156 2.98792 5.60156 3.2001V3.6001C5.60156 3.70618 5.55942 3.80793 5.48441 3.88294C5.40939 3.95795 5.30765 4.0001 5.20156 4.0001C5.09548 4.0001 4.99373 3.95795 4.91872 3.88294C4.84371 3.80793 4.80156 3.70618 4.80156 3.6001V3.2001C4.80156 2.77575 4.97013 2.36878 5.27019 2.06873C5.57025 1.76867 5.97722 1.6001 6.40156 1.6001H6.80156C6.90765 1.6001 7.00939 1.64224 7.08441 1.71726C7.15942 1.79227 7.20156 1.89401 7.20156 2.0001C7.20156 2.10618 7.15942 2.20793 7.08441 2.28294C7.00939 2.35795 6.90765 2.4001 6.80156 2.4001H6.40156ZM5.60156 9.6001C5.60156 9.81227 5.68585 10.0158 5.83588 10.1658C5.98591 10.3158 6.18939 10.4001 6.40156 10.4001H6.80156C6.90765 10.4001 7.00939 10.4422 7.08441 10.5173C7.15942 10.5923 7.20156 10.694 7.20156 10.8001C7.20156 10.9062 7.15942 11.0079 7.08441 11.0829C7.00939 11.158 6.90765 11.2001 6.80156 11.2001H6.40156C5.97722 11.2001 5.57025 11.0315 5.27019 10.7315C4.97013 10.4314 4.80156 10.0244 4.80156 9.6001V9.2001C4.80156 9.09401 4.84371 8.99227 4.91872 8.91725C4.99373 8.84224 5.09548 8.8001 5.20156 8.8001C5.30765 8.8001 5.40939 8.84224 5.48441 8.91725C5.55942 8.99227 5.60156 9.09401 5.60156 9.2001V9.6001ZM5.60156 5.2001C5.60156 5.09401 5.55942 4.99227 5.48441 4.91726C5.40939 4.84224 5.30765 4.8001 5.20156 4.8001C5.09548 4.8001 4.99373 4.84224 4.91872 4.91726C4.84371 4.99227 4.80156 5.09401 4.80156 5.2001V7.6001C4.80156 7.70618 4.84371 7.80793 4.91872 7.88294C4.99373 7.95796 5.09548 8.0001 5.20156 8.0001C5.30765 8.0001 5.40939 7.95796 5.48441 7.88294C5.55942 7.80793 5.60156 7.70618 5.60156 7.6001V5.2001ZM12.8016 2.4001C13.0137 2.4001 13.2172 2.48438 13.3672 2.63441C13.5173 2.78444 13.6016 2.98792 13.6016 3.2001V3.6001C13.6016 3.70618 13.6437 3.80793 13.7187 3.88294C13.7937 3.95795 13.8955 4.0001 14.0016 4.0001C14.1076 4.0001 14.2094 3.95795 14.2844 3.88294C14.3594 3.80793 14.4016 3.70618 14.4016 3.6001V3.2001C14.4016 2.77575 14.233 2.36878 13.9329 2.06873C13.6329 1.76867 13.2259 1.6001 12.8016 1.6001H12.4016C12.2955 1.6001 12.1937 1.64224 12.1187 1.71726C12.0437 1.79227 12.0016 1.89401 12.0016 2.0001C12.0016 2.10618 12.0437 2.20793 12.1187 2.28294C12.1937 2.35795 12.2955 2.4001 12.4016 2.4001H12.8016ZM12.8016 10.4001C13.0137 10.4001 13.2172 10.3158 13.3672 10.1658C13.5173 10.0158 13.6016 9.81227 13.6016 9.6001V9.2001C13.6016 9.09401 13.6437 8.99227 13.7187 8.91725C13.7937 8.84224 13.8955 8.8001 14.0016 8.8001C14.1076 8.8001 14.2094 8.84224 14.2844 8.91725C14.3594 8.99227 14.4016 9.09401 14.4016 9.2001V9.6001C14.4016 10.0244 14.233 10.4314 13.9329 10.7315C13.6329 11.0315 13.2259 11.2001 12.8016 11.2001H12.4016C12.2955 11.2001 12.1937 11.158 12.1187 11.0829C12.0437 11.0079 12.0016 10.9062 12.0016 10.8001C12.0016 10.694 12.0437 10.5923 12.1187 10.5173C12.1937 10.4422 12.2955 10.4001 12.4016 10.4001H12.8016ZM14.0016 4.8001C13.8955 4.8001 13.7937 4.84224 13.7187 4.91726C13.6437 4.99227 13.6016 5.09401 13.6016 5.2001V7.6001C13.6016 7.70618 13.6437 7.80793 13.7187 7.88294C13.7937 7.95796 13.8955 8.0001 14.0016 8.0001C14.1076 8.0001 14.2094 7.95796 14.2844 7.88294C14.3594 7.80793 14.4016 7.70618 14.4016 7.6001V5.2001C14.4016 5.09401 14.3594 4.99227 14.2844 4.91726C14.2094 4.84224 14.1076 4.8001 14.0016 4.8001ZM8.40156 1.6001C8.29548 1.6001 8.19373 1.64224 8.11872 1.71726C8.0437 1.79227 8.00156 1.89401 8.00156 2.0001C8.00156 2.10618 8.0437 2.20793 8.11872 2.28294C8.19373 2.35795 8.29548 2.4001 8.40156 2.4001H10.8016C10.9076 2.4001 11.0094 2.35795 11.0844 2.28294C11.1594 2.20793 11.2016 2.10618 11.2016 2.0001C11.2016 1.89401 11.1594 1.79227 11.0844 1.71726C11.0094 1.64224 10.9076 1.6001 10.8016 1.6001H8.40156ZM8.00156 10.8001C8.00156 10.694 8.0437 10.5923 8.11872 10.5173C8.19373 10.4422 8.29548 10.4001 8.40156 10.4001H10.8016C10.9076 10.4001 11.0094 10.4422 11.0844 10.5173C11.1594 10.5923 11.2016 10.694 11.2016 10.8001C11.2016 10.9062 11.1594 11.0079 11.0844 11.0829C11.0094 11.158 10.9076 11.2001 10.8016 11.2001H8.40156C8.29548 11.2001 8.19373 11.158 8.11872 11.0829C8.0437 11.0079 8.00156 10.9062 8.00156 10.8001ZM3.20156 4.8001H4.00156V10.0001C4.00156 10.5305 4.21228 11.0392 4.58735 11.4143C4.96242 11.7894 5.47113 12.0001 6.00156 12.0001H11.2016V12.8001C11.2016 13.2244 11.033 13.6314 10.7329 13.9315C10.4329 14.2315 10.0259 14.4001 9.60156 14.4001H4.40156C3.65896 14.4001 2.94677 14.1051 2.42166 13.58C1.89656 13.0549 1.60156 12.3427 1.60156 11.6001V6.4001C1.60156 5.97575 1.77013 5.56878 2.07019 5.26873C2.37025 4.96867 2.77722 4.8001 3.20156 4.8001Z" fill="url(#paint0_linear_809_2231)"/>
<defs>
<linearGradient id="paint0_linear_809_2231" x1="8.00156" y1="1.6001" x2="8.00156" y2="14.4001" gradientUnits="userSpaceOnUse">
<stop stop-color="#3B0E2A"/>
<stop offset="1" stop-color="#710A3C"/>
</linearGradient>
</defs>
</svg>
