<svg width="20" height="20" viewBox="0 0 20 20" fill="none" xmlns="http://www.w3.org/2000/svg">
<path d="M18.4883 9.86327L10.4434 1.8242C10.3854 1.76616 10.3166 1.72012 10.2409 1.6887C10.1651 1.65728 10.084 1.64111 10.002 1.64111C9.91995 1.64111 9.83876 1.65728 9.76302 1.6887C9.68727 1.72012 9.61847 1.76616 9.56055 1.8242L1.51562 9.86327C1.28125 10.0976 1.14844 10.416 1.14844 10.748C1.14844 11.4375 1.70898 11.998 2.39844 11.998H3.24609V17.7344C3.24609 18.0801 3.52539 18.3594 3.87109 18.3594H8.75195V13.9844H10.9395V18.3594H16.1328C16.4785 18.3594 16.7578 18.0801 16.7578 17.7344V11.998H17.6055C17.9375 11.998 18.2559 11.8672 18.4902 11.6308C18.9766 11.1426 18.9766 10.3515 18.4883 9.86327Z" fill="#C1365B"/>
</svg>
