<svg width="20" height="20" viewBox="0 0 20 20" fill="none" xmlns="http://www.w3.org/2000/svg">
<path d="M18.4845 9.86333L10.9376 2.32036L10.4317 1.8145C10.3165 1.7 10.1606 1.63574 9.99813 1.63574C9.83566 1.63574 9.67979 1.7 9.56453 1.8145L1.5118 9.86333C1.3937 9.98097 1.30036 10.1211 1.23729 10.2754C1.17423 10.4297 1.14271 10.5951 1.14461 10.7618C1.15242 11.4493 1.72469 11.9981 2.41219 11.9981H3.24227V18.3594H16.754V11.9981H17.6016C17.9356 11.9981 18.2501 11.8672 18.4864 11.6309C18.6028 11.5149 18.695 11.377 18.7577 11.2251C18.8204 11.0732 18.8523 10.9104 18.8516 10.7461C18.8516 10.4141 18.7208 10.0997 18.4845 9.86333ZM11.0919 16.9532H8.90438V12.9688H11.0919V16.9532ZM15.3477 10.5918V16.9532H12.3419V12.5C12.3419 12.0684 11.9923 11.7188 11.5606 11.7188H8.43563C8.00399 11.7188 7.65438 12.0684 7.65438 12.5V16.9532H4.64852V10.5918H2.77352L10.0001 3.37114L10.4513 3.82231L17.2247 10.5918H15.3477Z" fill="url(#paint0_linear_810_2271)"/>
<defs>
<linearGradient id="paint0_linear_810_2271" x1="9.99809" y1="1.63574" x2="9.99809" y2="18.3594" gradientUnits="userSpaceOnUse">
<stop stop-color="#3B0E2A"/>
<stop offset="1" stop-color="#710A3C"/>
</linearGradient>
</defs>
</svg>
