<svg width="18" height="18" viewBox="0 0 18 18" fill="none" xmlns="http://www.w3.org/2000/svg">
<path d="M6.789 5.42529C6.41242 5.04871 5.80187 5.04871 5.42529 5.42529C5.04871 5.80187 5.04871 6.41242 5.42529 6.789L7.63629 9L5.42529 11.211C5.04871 11.5876 5.04871 12.1981 5.42529 12.5747C5.80187 12.9513 6.41242 12.9513 6.789 12.5747L9 10.3637L11.211 12.5747C11.5876 12.9513 12.1981 12.9513 12.5747 12.5747C12.9513 12.1981 12.9513 11.5876 12.5747 11.211L10.3637 9L12.5747 6.789C12.9513 6.41242 12.9513 5.80187 12.5747 5.42529C12.1981 5.04871 11.5876 5.04871 11.211 5.42529L9 7.63629L6.789 5.42529Z" fill="#C1365B"/>
<path fill-rule="evenodd" clip-rule="evenodd" d="M9 0C4.02944 0 0 4.02944 0 9C0 13.9706 4.02944 18 9 18C13.9706 18 18 13.9706 18 9C18 4.02944 13.9706 0 9 0ZM1.92857 9C1.92857 5.09456 5.09456 1.92857 9 1.92857C12.9054 1.92857 16.0714 5.09456 16.0714 9C16.0714 12.9054 12.9054 16.0714 9 16.0714C5.09456 16.0714 1.92857 12.9054 1.92857 9Z" fill="#C1365B"/>
</svg>
