<svg width="19" height="19" viewBox="0 0 19 19" fill="none" xmlns="http://www.w3.org/2000/svg">
<path d="M9.49873 11.2521C9.6807 11.2521 9.85521 11.1798 9.98388 11.0511C10.1126 10.9225 10.1848 10.748 10.1848 10.566V7.38877C10.1848 7.2068 10.1126 7.03229 9.98388 6.90362C9.85521 6.77495 9.6807 6.70266 9.49873 6.70266C9.31676 6.70266 9.14225 6.77495 9.01358 6.90362C8.8849 7.03229 8.81262 7.2068 8.81262 7.38877V10.5554C8.81122 10.6464 8.82793 10.7368 8.86178 10.8212C8.89564 10.9057 8.94595 10.9826 9.00981 11.0474C9.07366 11.1123 9.14977 11.1637 9.23371 11.1989C9.31764 11.234 9.40773 11.2521 9.49873 11.2521Z" fill="url(#paint0_linear_810_2314)"/>
<path d="M9.47234 13.6007C9.90957 13.6007 10.264 13.2463 10.264 12.809C10.264 12.3718 9.90957 12.0174 9.47234 12.0174C9.03512 12.0174 8.68068 12.3718 8.68068 12.809C8.68068 13.2463 9.03512 13.6007 9.47234 13.6007Z" fill="url(#paint1_linear_810_2314)"/>
<path d="M16.0062 13.4793L10.8657 4.01099C10.7296 3.76094 10.5286 3.5522 10.2838 3.40677C10.0391 3.26133 9.75967 3.18457 9.47498 3.18457C9.19029 3.18457 8.91086 3.26133 8.66612 3.40677C8.42138 3.5522 8.22038 3.76094 8.08429 4.01099L2.93845 13.4793C2.80377 13.7211 2.7348 13.9939 2.73842 14.2706C2.74204 14.5473 2.81812 14.8183 2.95909 15.0564C3.10006 15.2946 3.30098 15.4916 3.54183 15.6279C3.78268 15.7642 4.05505 15.835 4.33179 15.8332H14.6129C14.8874 15.8335 15.1572 15.7624 15.3959 15.6269C15.6346 15.4914 15.834 15.2962 15.9745 15.0604C16.115 14.8247 16.1918 14.5564 16.1974 14.282C16.2029 14.0076 16.1371 13.7364 16.0062 13.4952V13.4793ZM15.0668 14.5032C15.0201 14.582 14.9537 14.6473 14.8741 14.6926C14.7945 14.738 14.7045 14.7618 14.6129 14.7618H4.33179C4.24005 14.7621 4.14982 14.7384 4.07002 14.6932C3.99022 14.6479 3.92359 14.5826 3.8767 14.5038C3.82981 14.4249 3.80429 14.3352 3.80265 14.2435C3.80101 14.1518 3.82331 14.0612 3.86734 13.9807L9.0079 4.51238C9.05312 4.4286 9.12016 4.35861 9.20193 4.30982C9.28369 4.26104 9.37713 4.23528 9.47234 4.23528C9.56755 4.23528 9.66099 4.26104 9.74275 4.30982C9.82452 4.35861 9.89156 4.4286 9.93679 4.51238L15.0773 13.9807C15.1211 14.0612 15.1431 14.1517 15.1413 14.2434C15.1394 14.335 15.1138 14.4245 15.0668 14.5032Z" fill="url(#paint2_linear_810_2314)"/>
<defs>
<linearGradient id="paint0_linear_810_2314" x1="9.46798" y1="3.18457" x2="9.46798" y2="15.8332" gradientUnits="userSpaceOnUse">
<stop stop-color="#3B0E2A"/>
<stop offset="1" stop-color="#710A3C"/>
</linearGradient>
<linearGradient id="paint1_linear_810_2314" x1="9.46798" y1="3.18457" x2="9.46798" y2="15.8332" gradientUnits="userSpaceOnUse">
<stop stop-color="#3B0E2A"/>
<stop offset="1" stop-color="#710A3C"/>
</linearGradient>
<linearGradient id="paint2_linear_810_2314" x1="9.46798" y1="3.18457" x2="9.46798" y2="15.8332" gradientUnits="userSpaceOnUse">
<stop stop-color="#3B0E2A"/>
<stop offset="1" stop-color="#710A3C"/>
</linearGradient>
</defs>
</svg>
