<svg width="21" height="22" viewBox="0 0 21 22" fill="none" xmlns="http://www.w3.org/2000/svg">
<path d="M13.558 12.6834C16.6583 13.3449 19.4672 13.9441 20.9972 13.0562L18.5201 6.75508L20.7842 1.67434C20.7842 1.67434 17.6806 2.97708 14.6344 2.71685C13.2851 2.60158 11.8939 2.30609 10.5192 2.01411C7.90925 1.45977 5.35886 0.918085 3.26833 1.64636L1.95703 13.072C3.80933 11.5935 6.43735 11.5064 9.18891 11.8696L9.69021 7.31545L9.69716 7.31625C9.90036 6.26203 10.8664 5.52591 11.9318 5.64793C13.0542 5.77647 13.862 6.8088 13.736 7.9537C13.61 9.0986 12.5979 9.92252 11.4754 9.79398C10.9549 9.73436 10.502 9.48039 10.1786 9.11095L9.8642 11.9669C11.1008 12.1591 12.3515 12.426 13.558 12.6834Z" fill="url(#paint0_linear_810_2302)"/>
<path d="M11.5515 9.10297C12.2998 9.18866 12.9745 8.63939 13.0585 7.87612C13.1425 7.11285 12.604 6.42463 11.8557 6.33894C11.1074 6.25324 10.4327 6.80252 10.3487 7.56578C10.2646 8.32905 10.8032 9.01727 11.5515 9.10297Z" fill="url(#paint1_linear_810_2302)"/>
<path d="M3.61395 1L1 21" stroke="url(#paint2_linear_810_2302)" stroke-width="0.5" stroke-linecap="round"/>
<defs>
<linearGradient id="paint0_linear_810_2302" x1="11.4771" y1="1.29443" x2="11.4771" y2="13.5034" gradientUnits="userSpaceOnUse">
<stop stop-color="#3B0E2A"/>
<stop offset="1" stop-color="#710A3C"/>
</linearGradient>
<linearGradient id="paint1_linear_810_2302" x1="11.4771" y1="1.29443" x2="11.4771" y2="13.5034" gradientUnits="userSpaceOnUse">
<stop stop-color="#3B0E2A"/>
<stop offset="1" stop-color="#710A3C"/>
</linearGradient>
<linearGradient id="paint2_linear_810_2302" x1="2.30698" y1="1" x2="2.30698" y2="21" gradientUnits="userSpaceOnUse">
<stop stop-color="#3B0E2A"/>
<stop offset="1" stop-color="#710A3C"/>
</linearGradient>
</defs>
</svg>
