<svg width="20" height="20" viewBox="0 0 20 20" fill="none" xmlns="http://www.w3.org/2000/svg">
<path d="M14.582 9.79167C15.3107 9.79183 16.0252 9.99312 16.6467 10.3734C17.2683 10.7536 17.7729 11.298 18.1048 11.9467C18.4368 12.5953 18.5833 13.323 18.5281 14.0496C18.473 14.7761 18.2184 15.4734 17.7923 16.0645C17.3662 16.6556 16.7853 17.1177 16.1134 17.3997C15.4416 17.6818 14.7049 17.7729 13.9846 17.6631C13.2642 17.5533 12.5882 17.2468 12.0309 16.7773C11.4736 16.3079 11.0568 15.6937 10.8262 15.0025H9.1712C8.87243 15.8926 8.26708 16.6477 7.4632 17.1328C6.65931 17.618 5.70918 17.8017 4.78238 17.6512C3.85557 17.5008 3.01238 17.0259 2.40329 16.3113C1.7942 15.5967 1.45883 14.6889 1.45703 13.75C1.45624 12.7358 1.8448 11.7599 2.54253 11.0238C3.24026 10.2877 4.19393 9.84753 5.20675 9.79408C6.21957 9.74063 7.21428 10.078 7.98561 10.7366C8.75695 11.3951 9.24606 12.3247 9.35203 13.3333H10.6454C10.7483 12.361 11.2074 11.4612 11.9343 10.8073C12.6611 10.1534 13.6043 9.79159 14.582 9.79167ZM5.41537 11.4583C4.80758 11.4583 4.22468 11.6998 3.79491 12.1295C3.36514 12.5593 3.1237 13.1422 3.1237 13.75C3.1237 14.3578 3.36514 14.9407 3.79491 15.3705C4.22468 15.8002 4.80758 16.0417 5.41537 16.0417C6.02315 16.0417 6.60605 15.8002 7.03582 15.3705C7.46559 14.9407 7.70703 14.3578 7.70703 13.75C7.70703 13.1422 7.46559 12.5593 7.03582 12.1295C6.60605 11.6998 6.02315 11.4583 5.41537 11.4583ZM14.582 11.4583C13.9742 11.4583 13.3913 11.6998 12.9616 12.1295C12.5318 12.5593 12.2904 13.1422 12.2904 13.75C12.2904 14.3578 12.5318 14.9407 12.9616 15.3705C13.3913 15.8002 13.9742 16.0417 14.582 16.0417C15.1898 16.0417 15.7727 15.8002 16.2025 15.3705C16.6323 14.9407 16.8737 14.3578 16.8737 13.75C16.8737 13.1422 16.6323 12.5593 16.2025 12.1295C15.7727 11.6998 15.1898 11.4583 14.582 11.4583ZM12.9254 2.5C13.4182 2.50002 13.898 2.65893 14.2934 2.95315C14.6888 3.24738 14.9788 3.66124 15.1204 4.13333L15.9587 6.925C16.6195 7.03583 17.2654 7.165 17.8979 7.31417C18.007 7.33656 18.1106 7.38064 18.2025 7.44377C18.2943 7.50691 18.3726 7.58783 18.4326 7.68175C18.4926 7.77566 18.5332 7.88066 18.5519 7.99054C18.5706 8.10041 18.5671 8.21292 18.5416 8.32141C18.516 8.4299 18.469 8.53217 18.4032 8.62216C18.3375 8.71215 18.2543 8.78804 18.1587 8.84532C18.0631 8.90261 17.957 8.94014 17.8466 8.95569C17.7363 8.97123 17.6239 8.96448 17.5162 8.93583C15.2195 8.39583 12.7145 8.125 9.9987 8.125C7.28287 8.125 4.77787 8.39583 2.4812 8.93583C2.26877 8.97941 2.04771 8.93846 1.86498 8.82169C1.68226 8.70491 1.55225 8.5215 1.50257 8.31041C1.45288 8.09932 1.48745 7.87718 1.59891 7.69116C1.71038 7.50515 1.88996 7.36991 2.09953 7.31417C2.74119 7.16339 3.38765 7.03388 4.03787 6.92583L4.87703 4.13333C5.01862 3.66124 5.30863 3.24738 5.70404 2.95315C6.09944 2.65893 6.57917 2.50002 7.07203 2.5H12.9254Z" fill="url(#paint0_linear_810_2310)"/>
<defs>
<linearGradient id="paint0_linear_810_2310" x1="10.0104" y1="2.5" x2="10.0104" y2="17.7083" gradientUnits="userSpaceOnUse">
<stop stop-color="#3B0E2A"/>
<stop offset="1" stop-color="#710A3C"/>
</linearGradient>
</defs>
</svg>
