<svg width="20" height="20" viewBox="0 0 20 20" fill="none" xmlns="http://www.w3.org/2000/svg">
<path d="M8.52813 9.3167C8.34653 9.30134 8.16454 9.34117 8.00595 9.43096C7.84737 9.52076 7.71959 9.65634 7.63934 9.81996C7.55909 9.98358 7.53011 10.1676 7.55619 10.348C7.58227 10.5283 7.66219 10.6966 7.7855 10.8308C7.90881 10.965 8.06976 11.0588 8.24728 11.1C8.4248 11.1412 8.61062 11.1279 8.78043 11.0617C8.95024 10.9956 9.09611 10.8797 9.19897 10.7292C9.30182 10.5788 9.35686 10.4008 9.35688 10.2186C9.36174 10.1049 9.34415 9.99143 9.30513 9.88458C9.2661 9.77773 9.20639 9.67962 9.12943 9.59586C9.05246 9.5121 8.95974 9.44434 8.85656 9.39644C8.75338 9.34853 8.64178 9.32144 8.52813 9.3167ZM11.4938 9.3167C11.3122 9.30134 11.1302 9.34117 10.9716 9.43096C10.813 9.52076 10.6852 9.65634 10.605 9.81996C10.5247 9.98358 10.4957 10.1676 10.5218 10.348C10.5479 10.5283 10.6278 10.6966 10.7511 10.8308C10.8744 10.965 11.0354 11.0588 11.2129 11.1C11.3904 11.1412 11.5763 11.1279 11.7461 11.0617C11.9159 10.9956 12.0617 10.8797 12.1646 10.7292C12.2674 10.5788 12.3225 10.4008 12.3225 10.2186C12.3274 10.1049 12.3098 9.99143 12.2708 9.88458C12.2317 9.77773 12.172 9.67962 12.0951 9.59586C12.0181 9.5121 11.9254 9.44434 11.8222 9.39644C11.719 9.34853 11.6074 9.32144 11.4938 9.3167Z" fill="url(#paint0_linear_811_2366)"/>
<path d="M15.4438 2.5H4.55626C4.33698 2.50049 4.11994 2.54418 3.91755 2.62857C3.71516 2.71296 3.53138 2.83639 3.37671 2.99182C3.22203 3.14725 3.09949 3.33163 3.01609 3.53443C2.93269 3.73723 2.89006 3.95447 2.89063 4.17375V15.1587C2.89006 15.378 2.93269 15.5953 3.01609 15.7981C3.09949 16.0009 3.22203 16.1852 3.37671 16.3407C3.53138 16.4961 3.71516 16.6195 3.91755 16.7039C4.11994 16.7883 4.33698 16.832 4.55626 16.8325H13.77L13.3394 15.3294L14.3794 16.2962L15.3625 17.2063L17.1094 18.75V4.17375C17.11 3.95447 17.0673 3.73723 16.9839 3.53443C16.9005 3.33163 16.778 3.14725 16.6233 2.99182C16.4686 2.83639 16.2848 2.71296 16.0825 2.62857C15.8801 2.54418 15.663 2.50049 15.4438 2.5ZM12.3075 13.1112C12.3075 13.1112 12.015 12.7619 11.7713 12.4531C12.3602 12.3145 12.8811 11.972 13.2419 11.4862C12.9495 11.6808 12.6361 11.8416 12.3075 11.9656C11.9295 12.127 11.5342 12.2442 11.1294 12.315C10.4335 12.4431 9.71986 12.4404 9.02501 12.3069C8.61707 12.2271 8.21728 12.1101 7.83063 11.9575C7.62682 11.8791 7.42865 11.7868 7.23751 11.6813C7.21313 11.665 7.18876 11.6569 7.16438 11.6406C7.15216 11.6345 7.14115 11.6263 7.13188 11.6163C7.05394 11.5738 6.97802 11.5277 6.90438 11.4781C7.25209 11.9537 7.75503 12.2928 8.32626 12.4369C8.08251 12.7456 7.78188 13.1112 7.78188 13.1112C7.29924 13.1243 6.8208 13.0184 6.38867 12.8031C5.95654 12.5877 5.58397 12.2694 5.30376 11.8763C5.33013 10.2291 5.73019 8.6094 6.47376 7.13938C7.12809 6.62544 7.92586 6.32734 8.75688 6.28625L8.83813 6.38375C8.05629 6.57723 7.3267 6.94064 6.70126 7.44812C6.70126 7.44812 6.88001 7.35063 7.18063 7.2125C7.76466 6.9459 8.38711 6.77315 9.02501 6.70062C9.07049 6.69121 9.1167 6.68577 9.16313 6.68437C9.7076 6.61344 10.2586 6.60798 10.8044 6.66812C11.6627 6.76615 12.4935 7.03112 13.25 7.44812C12.6563 6.96483 11.9667 6.61312 11.2269 6.41625L11.3406 6.28625C12.1717 6.32734 12.9694 6.62544 13.6238 7.13938C14.3673 8.6094 14.7674 10.2291 14.7938 11.8763C14.5113 12.269 14.1371 12.5869 13.7038 12.8021C13.2705 13.0174 12.7912 13.1235 12.3075 13.1112Z" fill="url(#paint1_linear_811_2366)"/>
<defs>
<linearGradient id="paint0_linear_811_2366" x1="9.93508" y1="9.31348" x2="9.93508" y2="11.1235" gradientUnits="userSpaceOnUse">
<stop stop-color="#3B0E2A"/>
<stop offset="1" stop-color="#710A3C"/>
</linearGradient>
<linearGradient id="paint1_linear_811_2366" x1="10" y1="2.5" x2="10" y2="18.75" gradientUnits="userSpaceOnUse">
<stop stop-color="#3B0E2A"/>
<stop offset="1" stop-color="#710A3C"/>
</linearGradient>
</defs>
</svg>
