<svg width="20" height="20" viewBox="0 0 20 20" fill="none" xmlns="http://www.w3.org/2000/svg">
<path d="M18.4258 17.8836L1.99245 1.44189L0.925781 2.50023L5.25911 6.83356L5.00078 7.50023H5.92578L7.17578 8.75023H1.66745V10.0002H8.42578L11.2508 12.8086C11.1508 13.0086 11.0841 13.2086 11.0341 13.4169C10.2424 13.0752 9.50912 13.1669 8.96745 13.4086C8.62578 11.9252 7.32578 10.8336 5.78411 10.8336C3.97578 10.8336 2.50078 12.3252 2.50078 14.1669C2.50078 16.0086 3.97578 17.5002 5.78411 17.5002C7.50078 17.5002 8.90078 16.1502 9.03411 14.4336C9.31745 14.2336 10.0591 13.8586 10.9674 14.4502C11.1174 16.1586 12.5008 17.5002 14.2174 17.5002C14.7174 17.5002 15.1841 17.3836 15.6008 17.1752L17.3674 18.9419L18.4258 17.8836ZM5.78411 16.5502C4.48411 16.5502 3.44245 15.4836 3.44245 14.1669C3.44245 12.8502 4.49245 11.7836 5.78411 11.7836C7.08411 11.7836 8.12578 12.8502 8.12578 14.1669C8.12578 15.4836 7.08411 16.5502 5.78411 16.5502ZM14.2174 16.5502C12.9174 16.5502 11.8758 15.4836 11.8758 14.1669C11.8758 13.9502 11.9091 13.7502 11.9674 13.5419L14.8674 16.4419C14.6591 16.5086 14.4508 16.5502 14.2174 16.5502ZM18.3341 10.0002H12.6674L11.4174 8.75023H18.3341V10.0002ZM14.2174 10.8336C16.0258 10.8336 17.5008 12.3252 17.5008 14.1669C17.5008 14.3752 17.4758 14.5836 17.4424 14.7752L16.5341 13.8669C16.4719 13.3439 16.2361 12.857 15.8645 12.4838C15.4928 12.1107 15.0068 11.8729 14.4841 11.8086L13.5758 10.9086C13.7841 10.8586 14.0008 10.8336 14.2174 10.8336ZM10.1674 7.50023L6.43411 3.75023L7.02578 2.23356C7.19245 1.80856 7.65911 1.57523 8.10078 1.70023L8.14245 1.70856L10.0008 2.32523L11.8508 1.70856C12.2924 1.56689 12.7674 1.78356 12.9508 2.19189L12.9674 2.23356L15.0008 7.50023H10.1674Z" fill="url(#paint0_linear_811_2371)"/>
<defs>
<linearGradient id="paint0_linear_811_2371" x1="9.67578" y1="1.44189" x2="9.67578" y2="18.9419" gradientUnits="userSpaceOnUse">
<stop stop-color="#3B0E2A"/>
<stop offset="1" stop-color="#710A3C"/>
</linearGradient>
</defs>
</svg>
