<svg width="20" height="20" viewBox="0 0 20 20" fill="none" xmlns="http://www.w3.org/2000/svg">
<path d="M13.8468 0.144812C10.5276 0.144812 7.83684 1.62866 7.83684 3.46174C7.83684 5.29481 10.5284 6.77943 13.8468 6.77943C17.1661 6.77943 19.8568 5.29481 19.8568 3.46174C19.8568 1.62866 17.1653 0.144043 13.8468 0.144043V0.144812ZM19.8568 4.44712C19.8553 6.2802 17.1661 7.76481 13.8468 7.76481C10.5368 7.76481 7.85222 6.29635 7.83684 4.47174V5.76943C7.83684 6.55251 8.33838 7.26943 9.15992 7.83712C9.99068 8.06327 10.7307 8.37712 11.3468 8.77404C12.1107 8.96789 12.9507 9.08635 13.8468 9.08635C17.1661 9.08635 19.8568 7.6025 19.8568 5.76943V4.44712ZM19.8568 6.75481C19.8568 8.58789 17.1661 10.0725 13.8468 10.0725C13.443 10.0725 13.0507 10.0425 12.6691 10.0002C12.9702 10.4057 13.1756 10.874 13.2699 11.3702C13.4615 11.381 13.6507 11.394 13.8468 11.394C17.1661 11.394 19.8568 9.9102 19.8568 8.07712V6.75481ZM6.15453 8.60558C2.8353 8.60558 0.144531 10.0902 0.144531 11.9233C0.144531 13.7564 2.83607 15.241 6.15453 15.241C9.47376 15.241 12.1645 13.7564 12.1645 11.9233C12.1645 10.0902 9.47299 8.60558 6.15453 8.60558ZM19.8568 9.0625C19.8553 10.8956 17.1661 12.3802 13.8468 12.3802C13.6538 12.3802 13.4584 12.3664 13.2699 12.3556C13.2615 12.4133 13.2568 12.4902 13.2461 12.5479C13.2845 12.664 13.3176 12.7787 13.3176 12.9094V13.6787C13.4922 13.6871 13.6676 13.7017 13.8468 13.7017C17.1661 13.7017 19.8568 12.2179 19.8568 10.3848V9.0625ZM19.8568 11.3702C19.8553 13.2033 17.1661 14.6879 13.8468 14.6879C13.6538 14.6879 13.4584 14.674 13.2699 14.6633C13.2615 14.721 13.2568 14.7979 13.2461 14.8556C13.2845 14.971 13.3176 15.0864 13.3176 15.2171V15.9864C13.4922 15.9948 13.6676 16.0094 13.8468 16.0094C17.1661 16.0094 19.8568 14.5256 19.8568 12.6925V11.3702ZM12.1645 12.9087C12.163 14.7417 9.47376 16.2264 6.15453 16.2264C2.84453 16.2264 0.159916 14.7579 0.144531 12.9325V14.231C0.144531 16.064 2.83453 17.5487 6.15453 17.5487C9.47453 17.5487 12.1645 16.064 12.1645 14.231V12.9087ZM12.1645 15.2164C12.163 17.0494 9.47376 18.534 6.15453 18.534C2.84453 18.534 0.159916 17.0656 0.144531 15.2402V16.5387C0.144531 18.3717 2.83453 19.8563 6.15453 19.8563C9.47453 19.8563 12.1645 18.3717 12.1645 16.5387V15.2164Z" fill="url(#paint0_linear_811_2369)"/>
<defs>
<linearGradient id="paint0_linear_811_2369" x1="10.0007" y1="0.144043" x2="10.0007" y2="19.8563" gradientUnits="userSpaceOnUse">
<stop stop-color="#3B0E2A"/>
<stop offset="1" stop-color="#710A3C"/>
</linearGradient>
</defs>
</svg>
