<svg width="23" height="20" viewBox="0 0 23 20" fill="none" xmlns="http://www.w3.org/2000/svg">
<g clip-path="url(#clip0_811_2375)">
<path d="M16.2266 3.25L19.75 6.77344C19.8984 6.92187 19.8984 7.16406 19.75 7.3125L11.2188 15.8438L7.59375 16.2461C7.10938 16.3008 6.69922 15.8906 6.75391 15.4062L7.15625 11.7812L15.6875 3.25C15.8359 3.10156 16.0781 3.10156 16.2266 3.25ZM22.5547 2.35547L20.6484 0.449219C20.0547 -0.144531 19.0898 -0.144531 18.4922 0.449219L17.1094 1.83203C16.9609 1.98047 16.9609 2.22266 17.1094 2.37109L20.6328 5.89453C20.7812 6.04297 21.0234 6.04297 21.1719 5.89453L22.5547 4.51172C23.1484 3.91406 23.1484 2.94922 22.5547 2.35547ZM15.5 13.5234V17.5H3V5H11.9766C12.1016 5 12.2188 4.94922 12.3086 4.86328L13.8711 3.30078C14.168 3.00391 13.957 2.5 13.5391 2.5H2.375C1.33984 2.5 0.5 3.33984 0.5 4.375V18.125C0.5 19.1602 1.33984 20 2.375 20H16.125C17.1602 20 18 19.1602 18 18.125V11.9609C18 11.543 17.4961 11.3359 17.1992 11.6289L15.6367 13.1914C15.5508 13.2812 15.5 13.3984 15.5 13.5234Z" fill="url(#paint0_linear_811_2375)"/>
</g>
<defs>
<linearGradient id="paint0_linear_811_2375" x1="11.75" y1="0.00390625" x2="11.75" y2="20" gradientUnits="userSpaceOnUse">
<stop stop-color="#3B0E2A"/>
<stop offset="1" stop-color="#710A3C"/>
</linearGradient>
<clipPath id="clip0_811_2375">
<rect width="22.5" height="20" fill="white" transform="translate(0.5)"/>
</clipPath>
</defs>
</svg>
