<svg width="41" height="41" viewBox="0 0 41 41" fill="none" xmlns="http://www.w3.org/2000/svg">
<path fill-rule="evenodd" clip-rule="evenodd" d="M37.9397 21.7098C37.9397 31.6442 29.8824 39.6978 19.9435 39.6978C10.0037 39.6978 1.94724 31.6442 1.94724 21.7098C1.94724 11.7753 10.0037 3.72168 19.9435 3.72168C29.8824 3.72168 37.9397 11.7753 37.9397 21.7098Z" fill="url(#paint0_linear_812_2588)"/>
<path fill-rule="evenodd" clip-rule="evenodd" d="M19.633 4.47176C10.1079 4.47176 2.38672 12.1899 2.38672 21.7099C2.38672 31.2298 10.1079 38.9479 19.633 38.9479C23.716 38.9479 27.465 37.5308 30.419 35.1614C30.7421 34.9022 31.2141 34.9541 31.4733 35.2772C31.7325 35.6003 31.6806 36.0723 31.3575 36.3315C28.147 38.9067 24.0695 40.4479 19.633 40.4479C9.28009 40.4479 0.886719 32.0589 0.886719 21.7099C0.886719 11.3609 9.28009 2.97176 19.633 2.97176C20.0472 2.97176 20.383 3.30755 20.383 3.72176C20.383 4.13598 20.0472 4.47176 19.633 4.47176Z" fill="#FF8F8F"/>
<path fill-rule="evenodd" clip-rule="evenodd" d="M19.6331 7.80559V0.000488281L23.537 3.90262L19.6331 7.80559Z" fill="#FF8F8F"/>
<path fill-rule="evenodd" clip-rule="evenodd" d="M27.6156 19.7892C27.6975 20.1953 27.4348 20.5908 27.0287 20.6727L20.1473 22.0612C19.7413 22.1431 19.3457 21.8804 19.2638 21.4743C19.1819 21.0683 19.4446 20.6727 19.8507 20.5908L26.7321 19.2024C27.1381 19.1205 27.5337 19.3832 27.6156 19.7892Z" fill="#FF8F8F"/>
<path fill-rule="evenodd" clip-rule="evenodd" d="M19.6331 9.79466C20.0473 9.79466 20.3831 10.1304 20.3831 10.5447V21.7098C20.3831 22.124 20.0473 22.4598 19.6331 22.4598C19.2189 22.4598 18.8831 22.124 18.8831 21.7098V10.5447C18.8831 10.1304 19.2189 9.79466 19.6331 9.79466Z" fill="#FF8F8F"/>
<path fill-rule="evenodd" clip-rule="evenodd" d="M21.805 21.7098C21.805 22.7379 20.9714 23.571 19.9429 23.571C18.9152 23.571 18.0816 22.7379 18.0816 21.7098C18.0816 20.6817 18.9152 19.8485 19.9429 19.8485C20.9714 19.8485 21.805 20.6817 21.805 21.7098Z" fill="#FF8F8F"/>
<path d="M37 30.5C37 31.3284 36.3284 32 35.5 32C34.6716 32 34 31.3284 34 30.5C34 29.6716 34.6716 29 35.5 29C36.3284 29 37 29.6716 37 30.5Z" fill="#FF8F8F"/>
<path d="M39 21.5C39 22.3284 38.3284 23 37.5 23C36.6716 23 36 22.3284 36 21.5C36 20.6716 36.6716 20 37.5 20C38.3284 20 39 20.6716 39 21.5Z" fill="#FF8F8F"/>
<path d="M37 13.5C37 14.3284 36.3284 15 35.5 15C34.6716 15 34 14.3284 34 13.5C34 12.6716 34.6716 12 35.5 12C36.3284 12 37 12.6716 37 13.5Z" fill="#FF8F8F"/>
<path d="M31 6.5C31 7.32843 30.3284 8 29.5 8C28.6716 8 28 7.32843 28 6.5C28 5.67157 28.6716 5 29.5 5C30.3284 5 31 5.67157 31 6.5Z" fill="#FF8F8F"/>
<defs>
<linearGradient id="paint0_linear_812_2588" x1="19.9434" y1="0.000488281" x2="19.9434" y2="40.4479" gradientUnits="userSpaceOnUse">
<stop stop-color="#3B0E2A"/>
<stop offset="1" stop-color="#710A3C"/>
</linearGradient>
</defs>
</svg>
