<svg width="193" height="109" viewBox="0 0 193 109" fill="none" xmlns="http://www.w3.org/2000/svg">
<g clip-path="url(#clip0_813_2690)">
<path d="M111.347 50.5508L94.8516 83.1981" stroke="#C1365B" stroke-width="22" stroke-linecap="round"/>
<path d="M109.422 61.872L176.248 82.9591C178.344 83.6204 180.358 81.7669 179.753 79.7349L172.93 56.8696" stroke="#C1365B" stroke-width="22" stroke-linecap="round"/>
<path d="M144.504 23.0978C145.599 22.6411 146.866 22.7868 147.817 23.4789L182.299 48.5715C183.601 49.5188 183.982 51.236 183.194 52.6082L165.212 83.9565C164.564 85.0865 163.264 85.7263 161.927 85.5725L115.442 80.2252C114.105 80.0714 113 79.1557 112.65 77.9109L102.93 43.3761C102.505 41.8644 103.3 40.2824 104.799 39.6573L144.504 23.0978Z" fill="#FF7D7D"/>
<path fill-rule="evenodd" clip-rule="evenodd" d="M180.806 94.5383H152.785V85.9268H180.806V94.5383Z" fill="#3B0E2A"/>
<path fill-rule="evenodd" clip-rule="evenodd" d="M180.806 94.5383H152.785V85.9268H180.806V94.5383Z" stroke="#710A3C" stroke-width="1.36006"/>
<path fill-rule="evenodd" clip-rule="evenodd" d="M152.786 94.5383H0.375V85.9268H152.786V94.5383Z" stroke="#710A3C" stroke-width="1.36006"/>
<g filter="url(#filter0_di_813_2690)">
<path d="M129.875 23.6425C128.197 21.4535 128.631 18.5429 130.878 16.9213L151.125 2.30925C152.556 1.27632 154.745 1.75864 155.545 3.28326L167.005 25.1194C168.195 27.3871 167.389 30.0349 165.1 31.3813L162.716 32.784C152.883 38.5676 139.375 36.0348 132.546 27.1266L129.875 23.6425Z" fill="#FF7D7D"/>
</g>
<path d="M142.492 18.6511C142.114 18.159 142.213 17.3946 142.704 16.9973L149.42 11.5679C149.861 11.2112 150.46 11.2829 150.791 11.7317L155.883 18.6418C156.249 19.1394 156.142 19.8977 155.65 20.2875L149.004 25.5456C148.569 25.8898 147.984 25.8224 147.653 25.39L142.492 18.6511Z" fill="white"/>
<path d="M38.0353 46.2477L34.5474 49.5878C33.6885 50.4103 33.6885 51.744 34.5474 52.5665L38.0353 55.9066C38.8942 56.7292 40.2868 56.7292 41.1457 55.9066L44.6336 52.5665C45.4925 51.744 45.4925 50.4103 44.6336 49.5878L41.1457 46.2477C40.2868 45.4251 38.8942 45.4251 38.0353 46.2477Z" fill="url(#paint0_linear_813_2690)"/>
<path opacity="0.35" fill-rule="evenodd" clip-rule="evenodd" d="M40.6978 51.014C40.6978 51.6354 40.1718 52.1391 39.523 52.1391C38.8742 52.1391 38.3482 51.6354 38.3482 51.014C38.3482 50.3927 38.8742 49.889 39.523 49.889C40.1718 49.889 40.6978 50.3927 40.6978 51.014ZM38.3482 52.5637C38.678 52.7936 39.084 52.9289 39.523 52.9289C40.6273 52.9289 41.5226 52.0716 41.5226 51.014C41.5226 49.9565 40.6273 49.0991 39.523 49.0991C38.4635 49.0991 37.5964 49.8883 37.5278 50.8864H37.5234V51.014V55.4143L38.3482 56.1852V52.5637Z" fill="#FF8F8F"/>
<path d="M45.0893 81.6182H32.9924C31.7777 81.6182 30.793 82.5612 30.793 83.7244C30.793 84.8877 31.7777 85.8307 32.9924 85.8307H45.0893C46.304 85.8307 47.2887 84.8877 47.2887 83.7244C47.2887 82.5612 46.304 81.6182 45.0893 81.6182Z" fill="url(#paint1_linear_813_2690)"/>
<path d="M19.2455 81.6182H7.14865C5.93394 81.6182 4.94922 82.5612 4.94922 83.7244C4.94922 84.8877 5.93394 85.8307 7.14865 85.8307H19.2455C20.4602 85.8307 21.4449 84.8877 21.4449 83.7244C21.4449 82.5612 20.4602 81.6182 19.2455 81.6182Z" fill="url(#paint2_linear_813_2690)"/>
<path d="M66.5346 81.6182H54.4377C53.223 81.6182 52.2383 82.5612 52.2383 83.7244C52.2383 84.8877 53.223 85.8307 54.4377 85.8307H66.5346C67.7493 85.8307 68.734 84.8877 68.734 83.7244C68.734 82.5612 67.7493 81.6182 66.5346 81.6182Z" fill="url(#paint3_linear_813_2690)"/>
<path d="M42.89 77.4058H30.7932C29.5785 77.4058 28.5938 78.3488 28.5938 79.512C28.5938 80.6753 29.5785 81.6183 30.7932 81.6183H42.89C44.1048 81.6183 45.0895 80.6753 45.0895 79.512C45.0895 78.3488 44.1048 77.4058 42.89 77.4058Z" fill="url(#paint4_linear_813_2690)"/>
<path d="M21.4447 77.4058H9.34787C8.13316 77.4058 7.14844 78.3488 7.14844 79.512C7.14844 80.6753 8.13316 81.6183 9.34787 81.6183H21.4447C22.6594 81.6183 23.6442 80.6753 23.6442 79.512C23.6442 78.3488 22.6594 77.4058 21.4447 77.4058Z" fill="url(#paint5_linear_813_2690)"/>
<path d="M70.3822 77.4058H58.2854C57.0707 77.4058 56.0859 78.3488 56.0859 79.512C56.0859 80.6753 57.0707 81.6183 58.2854 81.6183H70.3822C71.597 81.6183 72.5817 80.6753 72.5817 79.512C72.5817 78.3488 71.597 77.4058 70.3822 77.4058Z" fill="url(#paint6_linear_813_2690)"/>
<path d="M42.89 73.1934H30.7932C29.5785 73.1934 28.5938 74.1364 28.5938 75.2996C28.5938 76.4629 29.5785 77.4059 30.7932 77.4059H42.89C44.1048 77.4059 45.0895 76.4629 45.0895 75.2996C45.0895 74.1364 44.1048 73.1934 42.89 73.1934Z" fill="url(#paint7_linear_813_2690)"/>
<path d="M17.0463 73.1934H4.94943C3.73472 73.1934 2.75 74.1364 2.75 75.2996C2.75 76.4629 3.73472 77.4059 4.94943 77.4059H17.0463C18.261 77.4059 19.2457 76.4629 19.2457 75.2996C19.2457 74.1364 18.261 73.1934 17.0463 73.1934Z" fill="url(#paint8_linear_813_2690)"/>
<path d="M67.6322 73.1934H55.5354C54.3207 73.1934 53.3359 74.1364 53.3359 75.2996C53.3359 76.4629 54.3207 77.4059 55.5354 77.4059H67.6322C68.847 77.4059 69.8317 76.4629 69.8317 75.2996C69.8317 74.1364 68.847 73.1934 67.6322 73.1934Z" fill="url(#paint9_linear_813_2690)"/>
<path d="M46.1869 68.9805H34.0901C32.8753 68.9805 31.8906 69.9235 31.8906 71.0868C31.8906 72.25 32.8753 73.193 34.0901 73.193H46.1869C47.4016 73.193 48.3864 72.25 48.3864 71.0868C48.3864 69.9235 47.4016 68.9805 46.1869 68.9805Z" fill="url(#paint10_linear_813_2690)"/>
<path d="M21.4447 68.9805H9.34787C8.13316 68.9805 7.14844 69.9235 7.14844 71.0868C7.14844 72.25 8.13316 73.193 9.34787 73.193H21.4447C22.6594 73.193 23.6442 72.25 23.6442 71.0868C23.6442 69.9235 22.6594 68.9805 21.4447 68.9805Z" fill="url(#paint11_linear_813_2690)"/>
<path d="M67.6322 68.9805H55.5354C54.3207 68.9805 53.3359 69.9235 53.3359 71.0868C53.3359 72.25 54.3207 73.193 55.5354 73.193H67.6322C68.847 73.193 69.8317 72.25 69.8317 71.0868C69.8317 69.9235 68.847 68.9805 67.6322 68.9805Z" fill="url(#paint12_linear_813_2690)"/>
<path d="M46.1869 64.7681H34.0901C32.8753 64.7681 31.8906 65.7111 31.8906 66.8743C31.8906 68.0376 32.8753 68.9806 34.0901 68.9806H46.1869C47.4016 68.9806 48.3864 68.0376 48.3864 66.8743C48.3864 65.7111 47.4016 64.7681 46.1869 64.7681Z" fill="url(#paint13_linear_813_2690)"/>
<path d="M20.3432 64.7681H8.2463C7.03159 64.7681 6.04688 65.7111 6.04688 66.8743C6.04688 68.0376 7.03159 68.9806 8.2463 68.9806H20.3432C21.5579 68.9806 22.5426 68.0376 22.5426 66.8743C22.5426 65.7111 21.5579 64.7681 20.3432 64.7681Z" fill="url(#paint14_linear_813_2690)"/>
<path d="M50.0385 60.5557H37.9416C36.7269 60.5557 35.7422 61.4987 35.7422 62.6619C35.7422 63.8252 36.7269 64.7682 37.9416 64.7682H50.0385C51.2532 64.7682 52.2379 63.8252 52.2379 62.6619C52.2379 61.4987 51.2532 60.5557 50.0385 60.5557Z" fill="url(#paint15_linear_813_2690)"/>
<path d="M43.9877 56.3428H31.8908C30.6761 56.3428 29.6914 57.2858 29.6914 58.449C29.6914 59.6123 30.6761 60.5553 31.8908 60.5553H43.9877C45.2024 60.5553 46.1871 59.6123 46.1871 58.449C46.1871 57.2858 45.2024 56.3428 43.9877 56.3428Z" fill="url(#paint16_linear_813_2690)"/>
<path d="M112.328 51.0771C110.671 51.0771 108.984 51.6877 107.72 52.9028L93.6142 66.4598L85.302 69.5171L84.4953 69.8367L84.3524 70.6592L82.2156 84.3959L81.9297 86.3573L83.9741 86.0856L98.2709 84.032L99.1254 83.8946L99.4581 83.1195L102.45 75.5416L103.21 74.8581L116.889 61.7128C119.34 59.3559 119.388 55.573 117.079 53.1308L116.889 52.9028C116.292 52.3241 115.582 51.8647 114.8 51.5514C114.017 51.238 113.178 51.0768 112.33 51.0771H112.328ZM112.328 53.9533C113.182 53.9533 114.038 54.3182 114.749 55.0033C116.175 56.3718 116.175 58.2896 114.749 59.6581L107.103 67.0064L102.257 62.3515L109.905 55.0033C110.617 54.3182 111.472 53.9533 112.326 53.9533H112.328ZM100.073 64.4515L104.919 69.1064L102.163 71.7545L97.318 67.098L100.073 64.4515ZM94.991 69.0611H95.0383L99.932 73.7613L96.9381 81.2933L88.0579 82.525L92.1416 78.6004C92.2252 78.6062 92.2967 78.6457 92.3786 78.6457C93.7208 78.6457 94.8497 77.6084 94.8497 76.3188C94.8497 75.0292 93.7208 73.9456 92.3786 73.9456C91.0381 73.9456 89.9576 75.0292 89.9576 76.3188C89.9576 76.3978 89.9983 76.4663 90.0043 76.5468L85.9195 80.4713L87.2023 71.9372L94.991 69.0611Z" fill="#3B0E2A"/>
<path d="M109.422 61.8721L180.353 83.988" stroke="#C1365B" stroke-width="22" stroke-linecap="round"/>
</g>
<defs>
<filter id="filter0_di_813_2690" x="127.855" y="1.76074" width="39.6953" height="39.127" filterUnits="userSpaceOnUse" color-interpolation-filters="sRGB">
<feFlood flood-opacity="0" result="BackgroundImageFix"/>
<feColorMatrix in="SourceAlpha" type="matrix" values="0 0 0 0 0 0 0 0 0 0 0 0 0 0 0 0 0 0 127 0" result="hardAlpha"/>
<feOffset dx="-1" dy="5"/>
<feColorMatrix type="matrix" values="0 0 0 0 0.321569 0 0 0 0 0.0509804 0 0 0 0 0.196078 0 0 0 1 0"/>
<feBlend mode="normal" in2="BackgroundImageFix" result="effect1_dropShadow_813_2690"/>
<feBlend mode="normal" in="SourceGraphic" in2="effect1_dropShadow_813_2690" result="shape"/>
<feColorMatrix in="SourceAlpha" type="matrix" values="0 0 0 0 0 0 0 0 0 0 0 0 0 0 0 0 0 0 127 0" result="hardAlpha"/>
<feOffset dx="1" dy="-4"/>
<feComposite in2="hardAlpha" operator="arithmetic" k2="-1" k3="1"/>
<feColorMatrix type="matrix" values="0 0 0 0 1 0 0 0 0 1 0 0 0 0 1 0 0 0 1 0"/>
<feBlend mode="normal" in2="shape" result="effect2_innerShadow_813_2690"/>
</filter>
<linearGradient id="paint0_linear_813_2690" x1="36.2913" y1="47.9177" x2="42.6044" y2="54.51" gradientUnits="userSpaceOnUse">
<stop stop-color="#3B0E2A"/>
<stop offset="1" stop-color="#710A3C"/>
</linearGradient>
<linearGradient id="paint1_linear_813_2690" x1="39.0408" y1="81.6182" x2="39.0408" y2="85.8307" gradientUnits="userSpaceOnUse">
<stop stop-color="#C1365B"/>
<stop offset="1" stop-color="#3B0E2A"/>
</linearGradient>
<linearGradient id="paint2_linear_813_2690" x1="13.1971" y1="81.6182" x2="13.1971" y2="85.8307" gradientUnits="userSpaceOnUse">
<stop stop-color="#C1365B"/>
<stop offset="1" stop-color="#3B0E2A"/>
</linearGradient>
<linearGradient id="paint3_linear_813_2690" x1="60.4861" y1="81.6182" x2="60.4861" y2="85.8307" gradientUnits="userSpaceOnUse">
<stop stop-color="#C1365B"/>
<stop offset="1" stop-color="#3B0E2A"/>
</linearGradient>
<linearGradient id="paint4_linear_813_2690" x1="36.8416" y1="77.4058" x2="36.8416" y2="81.6183" gradientUnits="userSpaceOnUse">
<stop stop-color="#C1365B"/>
<stop offset="1" stop-color="#3B0E2A"/>
</linearGradient>
<linearGradient id="paint5_linear_813_2690" x1="15.3963" y1="77.4058" x2="15.3963" y2="81.6183" gradientUnits="userSpaceOnUse">
<stop stop-color="#C1365B"/>
<stop offset="1" stop-color="#3B0E2A"/>
</linearGradient>
<linearGradient id="paint6_linear_813_2690" x1="64.3338" y1="77.4058" x2="64.3338" y2="81.6183" gradientUnits="userSpaceOnUse">
<stop stop-color="#C1365B"/>
<stop offset="1" stop-color="#3B0E2A"/>
</linearGradient>
<linearGradient id="paint7_linear_813_2690" x1="36.8416" y1="73.1934" x2="36.8416" y2="77.4059" gradientUnits="userSpaceOnUse">
<stop stop-color="#C1365B"/>
<stop offset="1" stop-color="#3B0E2A"/>
</linearGradient>
<linearGradient id="paint8_linear_813_2690" x1="10.9979" y1="73.1934" x2="10.9979" y2="77.4059" gradientUnits="userSpaceOnUse">
<stop stop-color="#C1365B"/>
<stop offset="1" stop-color="#3B0E2A"/>
</linearGradient>
<linearGradient id="paint9_linear_813_2690" x1="61.5838" y1="73.1934" x2="61.5838" y2="77.4059" gradientUnits="userSpaceOnUse">
<stop stop-color="#C1365B"/>
<stop offset="1" stop-color="#3B0E2A"/>
</linearGradient>
<linearGradient id="paint10_linear_813_2690" x1="40.1385" y1="68.9805" x2="40.1385" y2="73.193" gradientUnits="userSpaceOnUse">
<stop stop-color="#C1365B"/>
<stop offset="1" stop-color="#3B0E2A"/>
</linearGradient>
<linearGradient id="paint11_linear_813_2690" x1="15.3963" y1="68.9805" x2="15.3963" y2="73.193" gradientUnits="userSpaceOnUse">
<stop stop-color="#C1365B"/>
<stop offset="1" stop-color="#3B0E2A"/>
</linearGradient>
<linearGradient id="paint12_linear_813_2690" x1="61.5838" y1="68.9805" x2="61.5838" y2="73.193" gradientUnits="userSpaceOnUse">
<stop stop-color="#C1365B"/>
<stop offset="1" stop-color="#3B0E2A"/>
</linearGradient>
<linearGradient id="paint13_linear_813_2690" x1="40.1385" y1="64.7681" x2="40.1385" y2="68.9806" gradientUnits="userSpaceOnUse">
<stop stop-color="#C1365B"/>
<stop offset="1" stop-color="#3B0E2A"/>
</linearGradient>
<linearGradient id="paint14_linear_813_2690" x1="14.2947" y1="64.7681" x2="14.2947" y2="68.9806" gradientUnits="userSpaceOnUse">
<stop stop-color="#C1365B"/>
<stop offset="1" stop-color="#3B0E2A"/>
</linearGradient>
<linearGradient id="paint15_linear_813_2690" x1="43.9901" y1="60.5557" x2="43.9901" y2="64.7682" gradientUnits="userSpaceOnUse">
<stop stop-color="#C1365B"/>
<stop offset="1" stop-color="#3B0E2A"/>
</linearGradient>
<linearGradient id="paint16_linear_813_2690" x1="37.9393" y1="56.3428" x2="37.9393" y2="60.5553" gradientUnits="userSpaceOnUse">
<stop stop-color="#C1365B"/>
<stop offset="1" stop-color="#3B0E2A"/>
</linearGradient>
<clipPath id="clip0_813_2690">
<rect width="193" height="109" fill="white"/>
</clipPath>
</defs>
</svg>
