<svg width="169" height="121" viewBox="0 0 169 121" fill="none" xmlns="http://www.w3.org/2000/svg">
<g clip-path="url(#clip0_812_2529)">
<path d="M50.5297 70.3057C47.9318 70.3057 45.8258 68.1997 45.8258 65.6018V53.2539C45.8258 50.656 47.9318 48.55 50.5297 48.55C53.1276 48.55 55.2336 50.656 55.2336 53.2539V65.6018C55.2336 68.1997 53.1276 70.3057 50.5297 70.3057Z" fill="#710A3C"/>
<path fill-rule="evenodd" clip-rule="evenodd" d="M50.5297 48.7C48.0147 48.7 45.9758 50.7389 45.9758 53.2539V65.6018C45.9758 68.1169 48.0147 70.1557 50.5297 70.1557C53.0448 70.1557 55.0836 68.1168 55.0836 65.6018V53.2539C55.0836 50.7388 53.0448 48.7 50.5297 48.7ZM45.6758 53.2539C45.6758 50.5732 47.849 48.4 50.5297 48.4C53.2104 48.4 55.3836 50.5732 55.3836 53.2539V65.6018C55.3836 68.2825 53.2104 70.4557 50.5297 70.4557C47.849 70.4557 45.6758 68.2825 45.6758 65.6018V53.2539Z" fill="#3B0E2A"/>
<path d="M59 70C56.2386 70 54 67.7614 54 65V47C54 44.2386 56.2386 42 59 42H68C70.7614 42 73 44.2386 73 47V65C73 67.7614 70.7614 70 68 70H59Z" fill="#FF8F8F"/>
<path fill-rule="evenodd" clip-rule="evenodd" d="M59 42.15C56.3214 42.15 54.15 44.3214 54.15 47V65C54.15 67.6786 56.3214 69.85 59 69.85H68C70.6786 69.85 72.85 67.6786 72.85 65V47C72.85 44.3214 70.6786 42.15 68 42.15H59ZM53.85 47C53.85 44.1557 56.1557 41.85 59 41.85H68C70.8443 41.85 73.15 44.1557 73.15 47V65C73.15 67.8443 70.8443 70.15 68 70.15H59C56.1557 70.15 53.85 67.8443 53.85 65V47Z" fill="#0C152E"/>
<path d="M5.15 120.85C2.38857 120.85 0.15 118.611 0.15 115.85V94.2917C0.15 91.5303 2.38858 89.2917 5.15 89.2917H8.8724C11.6338 89.2917 13.8724 91.5303 13.8724 94.2917V115.85C13.8724 118.611 11.6338 120.85 8.8724 120.85H5.15Z" fill="#710A3C"/>
<path fill-rule="evenodd" clip-rule="evenodd" d="M5.15 89.4417C2.47142 89.4417 0.3 91.6131 0.3 94.2917V115.85C0.3 118.529 2.47142 120.7 5.15 120.7H8.8724C11.551 120.7 13.7224 118.529 13.7224 115.85V94.2917C13.7224 91.6131 11.551 89.4417 8.8724 89.4417H5.15ZM0 94.2917C0 91.4474 2.30573 89.1417 5.15 89.1417H8.8724C11.7167 89.1417 14.0224 91.4474 14.0224 94.2917V115.85C14.0224 118.694 11.7167 121 8.8724 121H5.15C2.30573 121 0 118.694 0 115.85V94.2917Z" fill="#3B0E2A"/>
<path d="M17 121C14.2386 121 12 118.761 12 116V86C12 83.2386 14.2386 81 17 81H34C36.7614 81 39 83.2386 39 86V116C39 118.761 36.7614 121 34 121H17Z" fill="#FF8F8F"/>
<path fill-rule="evenodd" clip-rule="evenodd" d="M17 81.15C14.3214 81.15 12.15 83.3214 12.15 86V116C12.15 118.679 14.3214 120.85 17 120.85H34C36.6786 120.85 38.85 118.679 38.85 116V86C38.85 83.3214 36.6786 81.15 34 81.15H17ZM11.85 86C11.85 83.1557 14.1557 80.85 17 80.85H34C36.8443 80.85 39.15 83.1557 39.15 86V116C39.15 118.844 36.8443 121.15 34 121.15H17C14.1557 121.15 11.85 118.844 11.85 116V86Z" fill="#3B0E2A"/>
<path d="M130 88C130 85.2386 127.761 83 125 83H112C109.239 83 107 85.2386 107 88V116C107 118.761 109.239 121 112 121H125C127.761 121 130 118.761 130 116V88Z" fill="#710A3C"/>
<path d="M169 74C169 71.2386 166.761 69 164 69H135C132.239 69 130 71.2386 130 74V116C130 118.761 132.239 121 135 121H164C166.761 121 169 118.761 169 116V74Z" fill="#FF8F8F"/>
<path d="M95 38C95 33.5817 91.4183 30 87 30H80C75.5817 30 72 33.5817 72 38V61C72 65.4183 75.5817 69 80 69H87C91.4183 69 95 65.4183 95 61V38Z" fill="#710A3C"/>
<path d="M142.858 25.5336C142.858 21.1153 139.276 17.5336 134.858 17.5336H103.404C98.986 17.5336 95.4043 21.1153 95.4043 25.5336V61.1519C95.4043 65.5702 98.986 69.1519 103.404 69.1519H134.858C139.276 69.1519 142.858 65.5702 142.858 61.1519V25.5336Z" fill="#FF8F8F"/>
<path d="M62.0096 74.152C62.0096 71.3906 59.771 69.152 57.0096 69.152H43.2852C40.5238 69.152 38.2852 71.3906 38.2852 74.152V115.77C38.2852 118.531 40.5238 120.77 43.2852 120.77H57.0096C59.771 120.77 62.0096 118.531 62.0096 115.77V74.152Z" fill="#710A3C"/>
<path d="M107 74C107 71.2386 104.761 69 102 69H67C64.2386 69 62 71.2386 62 74V116C62 118.761 64.2386 121 67 121H102C104.761 121 107 118.761 107 116V74Z" fill="#FF8F8F"/>
<path d="M151.999 3C151.999 1.34314 150.656 0 148.999 0H124.999C123.342 0 121.999 1.34315 121.999 3V27.4544C121.999 29.1113 123.342 30.4544 124.999 30.4544H148.999C150.656 30.4544 151.999 29.1113 151.999 27.4544V3Z" fill="#710A3C"/>
<path fill-rule="evenodd" clip-rule="evenodd" d="M149.354 7.8909C149.966 8.63851 149.857 9.74113 149.109 10.3537L133.693 22.9847C132.627 23.8581 131.033 23.5766 130.331 22.3909L125.494 14.2252C125.002 13.3936 125.277 12.3202 126.108 11.8276C126.94 11.3351 128.013 11.6099 128.506 12.4415L132.601 19.3548L146.891 7.64634C147.639 7.0338 148.741 7.1433 149.354 7.8909Z" fill="#FF8F8F"/>
</g>
<defs>
<clipPath id="clip0_812_2529">
<rect width="169" height="121" fill="white"/>
</clipPath>
</defs>
</svg>
