<svg width="18" height="18" viewBox="0 0 18 18" fill="none" xmlns="http://www.w3.org/2000/svg">
<path d="M15.3619 0.818359H2.63459C1.63459 0.818359 0.816406 1.63654 0.816406 2.63654V15.3638C0.816406 16.3638 1.63459 17.182 2.63459 17.182H15.3619C16.3619 17.182 17.18 16.3638 17.18 15.3638V2.63654C17.18 1.63654 16.3619 0.818359 15.3619 0.818359ZM9.00732 14.4547C8.37095 14.4547 7.86186 13.9456 7.86186 13.3093C7.86186 12.6638 8.37095 12.1729 9.00732 12.1729C9.65277 12.1729 10.1437 12.6638 10.1437 13.3093C10.1346 13.9365 9.65277 14.4547 9.00732 14.4547ZM11.7437 7.72745C11.0528 8.73654 10.3982 9.05472 10.0437 9.70018C9.95277 9.86382 9.89823 9.99109 9.87095 10.2729C9.8255 10.682 9.46186 10.982 9.05277 10.982H8.99823C8.5255 10.982 8.15277 10.582 8.19823 10.1093C8.2255 9.80018 8.29823 9.482 8.47095 9.1729C8.91641 8.382 9.76186 7.90927 10.2528 7.20927C10.771 6.47291 10.48 5.09109 9.00732 5.09109C8.36186 5.09109 7.93459 5.41836 7.67095 5.80927C7.44368 6.13654 7.04368 6.29109 6.67095 6.13654C6.55926 6.09307 6.45887 6.02484 6.37735 5.93698C6.29582 5.84912 6.23528 5.74392 6.20028 5.62929C6.16528 5.51466 6.15672 5.39358 6.17526 5.27516C6.1938 5.15675 6.23895 5.04408 6.30732 4.94563C6.86186 4.13654 7.78913 3.54563 8.98913 3.54563C10.3346 3.54563 11.2528 4.15472 11.7255 4.92745C12.1255 5.582 12.3619 6.80927 11.7437 7.72745Z" fill="url(#paint0_linear_812_2562)"/>
<defs>
<linearGradient id="paint0_linear_812_2562" x1="8.99823" y1="0.818359" x2="8.99823" y2="17.182" gradientUnits="userSpaceOnUse">
<stop stop-color="#3B0E2A"/>
<stop offset="1" stop-color="#710A3C"/>
</linearGradient>
</defs>
</svg>
