<svg width="22" height="22" viewBox="0 0 22 22" fill="none" xmlns="http://www.w3.org/2000/svg">
<path d="M18.7778 1H3.22222C2 1 1 2 1 3.22222V18.7778C1 20 2 21 3.22222 21H18.7778C20 21 21 20 21 18.7778V3.22222C21 2 20 1 18.7778 1ZM11.0111 17.6667C10.2333 17.6667 9.61111 17.0444 9.61111 16.2667C9.61111 15.4778 10.2333 14.8778 11.0111 14.8778C11.8 14.8778 12.4 15.4778 12.4 16.2667C12.3889 17.0333 11.8 17.6667 11.0111 17.6667ZM14.3556 9.44445C13.5111 10.6778 12.7111 11.0667 12.2778 11.8556C12.1667 12.0556 12.1 12.2111 12.0667 12.5556C12.0111 13.0556 11.5667 13.4222 11.0667 13.4222H11C10.4222 13.4222 9.96667 12.9333 10.0222 12.3556C10.0556 11.9778 10.1444 11.5889 10.3556 11.2111C10.9 10.2444 11.9333 9.66667 12.5333 8.81111C13.1667 7.91111 12.8111 6.22222 11.0111 6.22222C10.2222 6.22222 9.7 6.62222 9.37778 7.1C9.1 7.5 8.61111 7.68889 8.15556 7.5C8.01904 7.44687 7.89634 7.36348 7.7967 7.25609C7.69706 7.14871 7.62307 7.02013 7.58029 6.88002C7.53751 6.73992 7.52705 6.59193 7.54971 6.44721C7.57237 6.30248 7.62756 6.16477 7.71111 6.04444C8.38889 5.05556 9.52222 4.33333 10.9889 4.33333C12.6333 4.33333 13.7556 5.07778 14.3333 6.02222C14.8222 6.82222 15.1111 8.32222 14.3556 9.44445Z" fill="#FF8F8F"/>
</svg>
