<svg width="22" height="14" viewBox="0 0 22 14" fill="none" xmlns="http://www.w3.org/2000/svg">
<g clip-path="url(#clip0_815_2739)">
<path fill-rule="evenodd" clip-rule="evenodd" d="M15.2061 0C16.0346 0 16.7061 0.671572 16.7061 1.5V11.6C16.7061 12.4284 16.0346 13.1 15.2061 13.1H1.70312C0.874698 13.1 0.203125 12.4284 0.203125 11.6V1.5C0.203125 0.671573 0.874699 0 1.70312 0H15.2061ZM15.7061 1.5C15.7061 1.22386 15.4823 1 15.2061 1H1.70312C1.42698 1 1.20312 1.22386 1.20312 1.5V11.6C1.20312 11.8761 1.42698 12.1 1.70312 12.1H15.2061C15.4823 12.1 15.7061 11.8761 15.7061 11.6V1.5Z" fill="#710A3C"/>
<path fill-rule="evenodd" clip-rule="evenodd" d="M12.0001 2.5C12.8286 2.5 13.5001 3.17157 13.5001 4V9C13.5001 9.82843 12.8286 10.5 12.0001 10.5H5.00013C4.1717 10.5 3.50013 9.82843 3.50013 9V4C3.50013 3.17157 4.1717 2.5 5.00013 2.5H12.0001ZM12.5001 4C12.5001 3.72386 12.2763 3.5 12.0001 3.5H5.00013C4.72398 3.5 4.50013 3.72386 4.50013 4V9C4.50013 9.27614 4.72398 9.5 5.00013 9.5H12.0001C12.2763 9.5 12.5001 9.27614 12.5001 9V4Z" fill="#C1365B"/>
<path fill-rule="evenodd" clip-rule="evenodd" d="M17.719 4.5373H21.5V5.5373H17.719V4.5373Z" fill="#C1365B"/>
<path fill-rule="evenodd" clip-rule="evenodd" d="M17.719 7.5627H21.5V8.5627H17.719V7.5627Z" fill="#C1365B"/>
<path fill-rule="evenodd" clip-rule="evenodd" d="M20.5001 2.269C21.3286 2.269 22.0001 2.94057 22.0001 3.769V9.331C22.0001 10.1594 21.3286 10.831 20.5001 10.831H15.7061V2.269H20.5001ZM21.0001 3.769C21.0001 3.49286 20.7763 3.269 20.5001 3.269H16.7061V9.831H20.5001C20.7763 9.831 21.0001 9.60714 21.0001 9.331V3.769Z" fill="#710A3C"/>
</g>
<defs>
<clipPath id="clip0_815_2739">
<rect width="22" height="14" fill="white"/>
</clipPath>
</defs>
</svg>
