<svg width="19" height="19" viewBox="0 0 19 19" fill="none" xmlns="http://www.w3.org/2000/svg">
<path d="M15.2887 12.9519C17.0842 11.278 18.0764 9.38142 18.0764 9.38142C18.0764 9.38142 14.9097 3.31669 9.63194 3.31669C8.61818 3.32033 7.61589 3.541 6.68694 3.96506L7.49972 4.81523C8.18313 4.55517 8.90461 4.42122 9.63194 4.41937C11.8697 4.41937 13.7264 5.70729 15.0871 7.12865C15.7419 7.81638 16.3289 8.57109 16.8393 9.38142C16.7781 9.47735 16.7105 9.58321 16.6334 9.69899C16.2798 10.2283 15.7573 10.934 15.0871 11.6342C14.9129 11.8161 14.7313 11.9959 14.5413 12.1701L15.2887 12.9519Z" fill="white"/>
<path d="M13.1121 10.6782C13.3477 9.98992 13.3913 9.24595 13.2379 8.53282C13.0845 7.81969 12.7404 7.16672 12.2457 6.64989C11.7509 6.13305 11.1259 5.77361 10.4432 5.61338C9.76057 5.45315 9.04839 5.49872 8.38955 5.74479L9.25828 6.65229C9.66394 6.59163 10.0775 6.63051 10.4663 6.76583C10.8551 6.90114 11.2084 7.12919 11.4982 7.4319C11.7879 7.7346 12.0062 8.10364 12.1358 8.50978C12.2653 8.91592 12.3025 9.348 12.2444 9.77177L13.1121 10.6782ZM10.0056 12.1105L10.8733 13.017C10.2144 13.263 9.50227 13.3086 8.81961 13.1484C8.13695 12.9881 7.51189 12.6287 7.01714 12.1119C6.5224 11.595 6.17831 10.942 6.02493 10.2289C5.87155 9.51578 5.91517 8.77181 6.15072 8.08357L7.01944 8.99107C6.96138 9.41484 6.99859 9.84692 7.12813 10.2531C7.25766 10.6592 7.47596 11.0282 7.76573 11.3309C8.0555 11.6336 8.40877 11.8617 8.79756 11.997C9.18634 12.1323 9.59995 12.1712 10.0056 12.1105Z" fill="white"/>
<path d="M4.72361 6.59164C4.53361 6.76807 4.351 6.94671 4.17683 7.12865C3.52201 7.81638 2.93499 8.57109 2.42461 9.38142L2.63044 9.69899C2.98406 10.2283 3.50656 10.934 4.17683 11.6342C5.53744 13.0555 7.39522 14.3435 9.63194 14.3435C10.3877 14.3435 11.0992 14.1968 11.7642 13.9465L12.5769 14.7978C11.648 15.2218 10.6457 15.4425 9.63194 15.4462C4.35417 15.4462 1.1875 9.38142 1.1875 9.38142C1.1875 9.38142 2.17867 7.48371 3.97522 5.81095L4.72256 6.59275L4.72361 6.59164ZM15.5916 16.3878L2.92494 3.1557L3.67228 2.375L16.3389 15.6071L15.5916 16.3878Z" fill="white"/>
<path d="M15.2887 12.9519L15.108 13.1246L15.2786 13.3031L15.4591 13.1348L15.2887 12.9519ZM18.0764 9.38142L18.2979 9.49731L18.3585 9.38153L18.298 9.26571L18.0764 9.38142ZM9.63194 3.31669V3.06669L9.63104 3.06669L9.63194 3.31669ZM6.68694 3.96506L6.58313 3.73764L6.26325 3.88366L6.50624 4.13782L6.68694 3.96506ZM7.49972 4.81523L7.31902 4.98799L7.43363 5.10787L7.58864 5.04888L7.49972 4.81523ZM9.63194 4.41937V4.16937L9.63131 4.16937L9.63194 4.41937ZM15.0871 7.12865L15.2681 6.95625L15.2676 6.95577L15.0871 7.12865ZM16.8393 9.38142L17.05 9.51591L17.1353 9.3823L17.0508 9.24818L16.8393 9.38142ZM16.6334 9.69899L16.8413 9.83787L16.8416 9.8375L16.6334 9.69899ZM14.5413 12.1701L14.3724 11.9858L14.1842 12.1583L14.3606 12.3428L14.5413 12.1701ZM13.1121 10.6782L12.9315 10.851L13.2156 11.1478L13.3486 10.7591L13.1121 10.6782ZM8.38955 5.74479L8.30208 5.51059L7.94644 5.64342L8.20896 5.91766L8.38955 5.74479ZM9.25828 6.65229L9.07768 6.82517L9.16721 6.91869L9.29525 6.89954L9.25828 6.65229ZM12.2444 9.77177L11.9968 9.73783L11.9804 9.85744L12.0639 9.94464L12.2444 9.77177ZM10.0056 12.1105L10.1862 11.9377L10.0967 11.8442L9.96864 11.8633L10.0056 12.1105ZM10.8733 13.017L10.9607 13.2511L11.3164 13.1183L11.0539 12.8441L10.8733 13.017ZM6.15072 8.08357L6.33132 7.91069L6.04722 7.61392L5.91419 8.00261L6.15072 8.08357ZM7.01944 8.99107L7.26713 9.02501L7.28352 8.9054L7.20004 8.8182L7.01944 8.99107ZM4.72361 6.59164L4.90425 6.76448L4.5535 6.40844L4.72361 6.59164ZM4.17683 7.12865L3.99624 6.95577L3.99578 6.95626L4.17683 7.12865ZM2.42461 9.38142L2.21307 9.24818L2.12794 9.38335L2.21482 9.51739L2.42461 9.38142ZM2.63044 9.69899L2.42064 9.83498L2.42257 9.83787L2.63044 9.69899ZM11.7642 13.9465L11.945 13.7739L11.8308 13.6543L11.6761 13.7125L11.7642 13.9465ZM12.5769 14.7978L12.6808 15.0252L13.0004 14.8793L12.7578 14.6251L12.5769 14.7978ZM9.63194 15.4462V15.6962L9.63285 15.6961L9.63194 15.4462ZM1.1875 9.38142L0.965904 9.26568L0.905463 9.3814L0.965891 9.49713L1.1875 9.38142ZM3.97522 5.81095L4.15594 5.6382L3.98544 5.45984L3.80486 5.62798L3.97522 5.81095ZM4.72256 6.59275L4.54184 6.76549L4.72247 6.95446L4.90319 6.76558L4.72256 6.59275ZM15.5916 16.3878L15.411 16.5607L15.5916 16.7494L15.7722 16.5607L15.5916 16.3878ZM2.92494 3.1557L2.74435 2.98282L2.57886 3.1557L2.74435 3.32857L2.92494 3.1557ZM3.67228 2.375L3.85287 2.20212L3.67228 2.01347L3.49168 2.20212L3.67228 2.375ZM16.3389 15.6071L16.5195 15.78L16.685 15.6071L16.5195 15.4343L16.3389 15.6071ZM15.4591 13.1348C16.3737 12.2821 17.0821 11.3745 17.5615 10.6811C17.8014 10.3341 17.9847 10.0398 18.1083 9.83153C18.1701 9.72739 18.217 9.6447 18.2488 9.58763C18.2646 9.55909 18.2767 9.53695 18.2849 9.52172C18.289 9.51411 18.2921 9.50822 18.2943 9.50413C18.2954 9.50209 18.2962 9.50049 18.2968 9.49935C18.2971 9.49878 18.2974 9.49833 18.2976 9.49798C18.2976 9.49781 18.2977 9.49767 18.2978 9.49756C18.2978 9.4975 18.2978 9.49744 18.2978 9.49741C18.2979 9.49736 18.2979 9.49731 18.0764 9.38142C17.8549 9.26553 17.8549 9.2655 17.8549 9.26547C17.8549 9.26547 17.8549 9.26545 17.8549 9.26545C17.8549 9.26546 17.8549 9.26549 17.8549 9.26555C17.8548 9.26567 17.8547 9.2659 17.8545 9.26625C17.8541 9.26694 17.8535 9.26809 17.8527 9.26969C17.851 9.27288 17.8483 9.27785 17.8447 9.28453C17.8375 9.29791 17.8265 9.31815 17.8117 9.34474C17.7822 9.39793 17.7376 9.47649 17.6783 9.5763C17.5598 9.77598 17.3827 10.0604 17.1502 10.3968C16.6846 11.0702 15.9991 11.9478 15.1182 12.769L15.4591 13.1348ZM18.0764 9.38142C18.298 9.26571 18.2979 9.26561 18.2979 9.26549C18.2978 9.26542 18.2978 9.26528 18.2977 9.26513C18.2975 9.26485 18.2974 9.26447 18.2971 9.26401C18.2966 9.26307 18.2959 9.26177 18.2951 9.26011C18.2933 9.2568 18.2908 9.25204 18.2875 9.24589C18.2809 9.23359 18.2712 9.21571 18.2585 9.19264C18.233 9.14649 18.1954 9.07952 18.1459 8.9947C18.0468 8.8251 17.8998 8.58394 17.7071 8.29506C17.3219 7.71776 16.7522 6.94743 16.0139 6.17618C14.5424 4.63899 12.3702 3.06669 9.63194 3.06669V3.56669C12.1715 3.56669 14.2215 5.02675 15.6527 6.52193C16.3658 7.26686 16.9177 8.01272 17.2912 8.57255C17.4778 8.85224 17.6195 9.08489 17.7142 9.24695C17.7615 9.32796 17.7971 9.39129 17.8206 9.43398C17.8324 9.45533 17.8411 9.47151 17.8468 9.48216C17.8497 9.48748 17.8518 9.49142 17.8531 9.49393C17.8538 9.49519 17.8542 9.49609 17.8545 9.49662C17.8547 9.49689 17.8547 9.49707 17.8548 9.49715C17.8548 9.49719 17.8548 9.49719 17.8548 9.49721C17.8548 9.49718 17.8548 9.49713 18.0764 9.38142ZM9.63104 3.06669C8.58149 3.07046 7.54414 3.29894 6.58313 3.73764L6.79076 4.19249C7.68764 3.78306 8.65487 3.5702 9.63284 3.56669L9.63104 3.06669ZM6.50624 4.13782L7.31902 4.98799L7.68043 4.64247L6.86765 3.7923L6.50624 4.13782ZM7.58864 5.04888C8.244 4.79949 8.93558 4.67114 9.63258 4.66937L9.63131 4.16937C8.87364 4.17129 8.12226 4.31084 7.41081 4.58157L7.58864 5.04888ZM9.63194 4.66937C11.7705 4.66937 13.5661 5.9013 14.9065 7.30152L15.2676 6.95577C13.8868 5.51329 11.9689 4.16937 9.63194 4.16937V4.66937ZM14.906 7.30104C15.5493 7.97666 16.1261 8.71824 16.6277 9.51466L17.0508 9.24818C16.5317 8.42394 15.9345 7.6561 15.2681 6.95626L14.906 7.30104ZM16.6285 9.24693C16.5672 9.34299 16.5009 9.44696 16.4253 9.56048L16.8416 9.8375C16.9201 9.71946 16.9889 9.61171 17.05 9.51591L16.6285 9.24693ZM16.4256 9.56011C16.0777 10.0808 15.5641 10.7743 14.9065 11.4613L15.2676 11.8071C15.9505 11.0937 16.4819 10.3758 16.8413 9.83787L16.4256 9.56011ZM14.9065 11.4613C14.7354 11.64 14.5577 11.8159 14.3724 11.9858L14.7103 12.3544C14.9049 12.1759 15.0904 11.9923 15.2676 11.8071L14.9065 11.4613ZM14.3606 12.3428L15.108 13.1246L15.4694 12.7791L14.722 11.9973L14.3606 12.3428ZM13.3486 10.7591C13.5989 10.0278 13.6452 9.23765 13.4823 8.48025L12.9935 8.58539C13.1374 9.25425 13.0964 9.95206 12.8756 10.5972L13.3486 10.7591ZM13.4823 8.48025C13.3194 7.72282 12.9537 7.02795 12.4263 6.47701L12.0651 6.82276C12.5272 7.30549 12.8496 7.91656 12.9935 8.58539L13.4823 8.48025ZM12.4263 6.47701C11.8988 5.92597 11.2311 5.54152 10.5003 5.36999L10.3861 5.85676C11.0206 6.0057 11.6031 6.34013 12.0651 6.82276L12.4263 6.47701ZM10.5003 5.36999C9.76949 5.19845 9.00701 5.24731 8.30208 5.51059L8.47703 5.97898C9.08977 5.75013 9.75164 5.70785 10.3861 5.85676L10.5003 5.36999ZM8.20896 5.91766L9.07768 6.82517L9.43887 6.47941L8.57015 5.57191L8.20896 5.91766ZM9.29525 6.89954C9.66072 6.84489 10.0335 6.87987 10.3842 7.00193L10.5485 6.52972C10.1216 6.38114 9.66715 6.33838 9.22131 6.40504L9.29525 6.89954ZM10.3842 7.00193C10.7349 7.12401 11.0546 7.3301 11.3176 7.60477L11.6787 7.25902C11.3621 6.92828 10.9753 6.67827 10.5485 6.52972L10.3842 7.00193ZM11.3176 7.60477C11.5805 7.87949 11.7794 8.21523 11.8976 8.58575L12.3739 8.43382C12.233 7.99206 11.9953 7.58971 11.6787 7.25902L11.3176 7.60477ZM11.8976 8.58575C12.0158 8.9563 12.0498 9.35082 11.9968 9.73783L12.4921 9.8057C12.5552 9.34518 12.5148 8.87555 12.3739 8.43382L11.8976 8.58575ZM12.0639 9.94464L12.9315 10.851L13.2927 10.5053L12.425 9.59889L12.0639 9.94464ZM9.82502 12.2834L10.6927 13.1898L11.0539 12.8441L10.1862 11.9377L9.82502 12.2834ZM10.7858 12.7828C10.1731 13.0116 9.51119 13.0539 8.87674 12.905L8.76248 13.3917C9.49334 13.5633 10.2558 13.5144 10.9607 13.2511L10.7858 12.7828ZM8.87674 12.905C8.2422 12.756 7.65974 12.4216 7.19774 11.939L6.83655 12.2847C7.36404 12.8358 8.03171 13.2202 8.76248 13.3917L8.87674 12.905ZM7.19774 11.939C6.73564 11.4562 6.4132 10.8452 6.26934 10.1763L5.78052 10.2815C5.94343 11.0389 6.30915 11.7338 6.83655 12.2847L7.19774 11.939ZM6.26934 10.1763C6.12548 9.50748 6.16645 8.80967 6.38725 8.16452L5.91419 8.00261C5.66389 8.73395 5.61762 9.52408 5.78052 10.2815L6.26934 10.1763ZM5.97013 8.25644L6.83885 9.16395L7.20004 8.8182L6.33132 7.91069L5.97013 8.25644ZM6.77176 8.95713C6.70866 9.41766 6.74906 9.88729 6.88995 10.329L7.36631 10.1771C7.24812 9.80654 7.2141 9.41202 7.26713 9.02501L6.77176 8.95713ZM6.88995 10.329C7.03084 10.7708 7.26858 11.1731 7.58514 11.5038L7.94633 11.1581C7.68335 10.8833 7.48448 10.5476 7.36631 10.1771L6.88995 10.329ZM7.58514 11.5038C7.90174 11.8346 8.28856 12.0846 8.71538 12.2331L8.87974 11.7609C8.52899 11.6388 8.20926 11.4327 7.94633 11.1581L7.58514 11.5038ZM8.71538 12.2331C9.14225 12.3817 9.59674 12.4245 10.0426 12.3578L9.96864 11.8633C9.60316 11.9179 9.23044 11.883 8.87974 11.7609L8.71538 12.2331ZM4.5535 6.40844C4.36039 6.58776 4.17423 6.76984 3.99624 6.95577L4.35743 7.30152C4.52777 7.12357 4.70683 6.94838 4.89372 6.77484L4.5535 6.40844ZM3.99578 6.95626C3.32943 7.6561 2.73222 8.42394 2.21307 9.24818L2.63615 9.51466C3.13777 8.71824 3.7146 7.97666 4.35789 7.30104L3.99578 6.95626ZM2.21482 9.51739L2.42066 9.83496L2.84023 9.56302L2.6344 9.24545L2.21482 9.51739ZM2.42257 9.83787C2.78194 10.3758 3.31336 11.0937 3.99624 11.8071L4.35743 11.4613C3.69975 10.7743 3.18617 10.0808 2.83832 9.56011L2.42257 9.83787ZM3.99624 11.8071C5.37709 13.2496 7.29602 14.5935 9.63194 14.5935V14.0935C7.49442 14.0935 5.69779 12.8615 4.35743 11.4613L3.99624 11.8071ZM9.63194 14.5935C10.4207 14.5935 11.162 14.4403 11.8522 14.1805L11.6761 13.7125C11.0364 13.9533 10.3547 14.0935 9.63194 14.0935V14.5935ZM11.5833 14.1192L12.3961 14.9704L12.7578 14.6251L11.945 13.7739L11.5833 14.1192ZM12.4731 14.5703C11.5762 14.9797 10.609 15.1926 9.63104 15.1962L9.63285 15.6961C10.6824 15.6923 11.7197 15.4639 12.6808 15.0252L12.4731 14.5703ZM9.63194 15.1962C7.09239 15.1962 5.04243 13.7361 3.61115 12.2409C2.89805 11.496 2.34624 10.7501 1.97272 10.1903C1.78612 9.9106 1.64442 9.67795 1.54973 9.51589C1.50239 9.43487 1.46683 9.37155 1.4433 9.32886C1.43154 9.30751 1.42278 9.29133 1.41707 9.28068C1.41422 9.27536 1.41212 9.27142 1.4108 9.26891C1.41013 9.26765 1.40966 9.26675 1.40938 9.26622C1.40924 9.26595 1.40914 9.26577 1.4091 9.26569C1.40908 9.26565 1.40908 9.26565 1.40907 9.26563C1.40908 9.26566 1.40911 9.26571 1.1875 9.38142C0.965891 9.49713 0.965941 9.49723 0.966004 9.49735C0.966041 9.49742 0.966117 9.49756 0.966191 9.49771C0.966339 9.49799 0.966536 9.49836 0.966782 9.49883C0.967273 9.49977 0.967957 9.50107 0.968835 9.50272C0.970591 9.50604 0.97312 9.5108 0.976418 9.51695C0.983014 9.52925 0.992686 9.54713 1.0054 9.5702C1.03084 9.61635 1.06846 9.68332 1.11802 9.76814C1.21712 9.93774 1.36406 10.1789 1.55679 10.4678C1.94196 11.0451 2.51167 11.8154 3.24996 12.5867C4.72145 14.1238 6.89372 15.6962 9.63194 15.6962V15.1962ZM1.1875 9.38142C1.4091 9.49716 1.40908 9.49719 1.40906 9.49722C1.40906 9.49722 1.40905 9.49724 1.40905 9.49724C1.40906 9.49723 1.40907 9.4972 1.4091 9.49714C1.40917 9.49702 1.40929 9.49679 1.40947 9.49644C1.40984 9.49575 1.41044 9.4946 1.41129 9.493C1.41298 9.48981 1.41563 9.48484 1.41923 9.47815C1.42642 9.46477 1.43743 9.44452 1.45219 9.41792C1.48172 9.36472 1.52627 9.28613 1.58548 9.18628C1.70392 8.98653 1.88085 8.70199 2.11332 8.3656C2.57877 7.69208 3.26422 6.81455 4.14558 5.99391L3.80486 5.62798C2.88967 6.48011 2.18126 7.38781 1.70199 8.08134C1.46209 8.42848 1.27894 8.72291 1.1554 8.93126C1.09362 9.03545 1.0467 9.11819 1.015 9.1753C0.999157 9.20385 0.987111 9.22601 0.978914 9.24125C0.974815 9.24886 0.971678 9.25475 0.969508 9.25885C0.968423 9.26089 0.967579 9.26249 0.966979 9.26363C0.966678 9.2642 0.966439 9.26466 0.966259 9.265C0.96617 9.26517 0.966096 9.26532 0.966036 9.26543C0.966007 9.26549 0.965974 9.26555 0.965959 9.26558C0.96593 9.26563 0.965904 9.26568 1.1875 9.38142ZM3.79451 5.98369L4.54184 6.76549L4.90327 6.42L4.15594 5.6382L3.79451 5.98369ZM4.90319 6.76558L4.90425 6.76448L4.54298 6.41881L4.54192 6.41991L4.90319 6.76558ZM15.7722 16.215L3.10554 2.98282L2.74435 3.32857L15.411 16.5607L15.7722 16.215ZM3.10554 3.32857L3.85287 2.54788L3.49168 2.20212L2.74435 2.98282L3.10554 3.32857ZM3.49168 2.54788L16.1583 15.78L16.5195 15.4343L3.85287 2.20212L3.49168 2.54788ZM16.1583 15.4343L15.411 16.215L15.7722 16.5607L16.5195 15.78L16.1583 15.4343Z" fill="white"/>
</svg>
