<?xml version="1.0" standalone="no"?>
<!DOCTYPE svg PUBLIC "-//W3C//DTD SVG 20010904//EN"
 "http://www.w3.org/TR/2001/REC-SVG-20010904/DTD/svg10.dtd">
<svg version="1.0" xmlns="http://www.w3.org/2000/svg"
 width="516.000000pt" height="514.000000pt" viewBox="0 0 516.000000 514.000000"
 preserveAspectRatio="xMidYMid meet">
<metadata>
Created by potrace 1.16, written by Peter Selinger 2001-2019
</metadata>
<g transform="translate(0.000000,514.000000) scale(0.100000,-0.100000)"
fill="#000000" stroke="none">
<path d="M3197 3217 c141 -130 223 -320 223 -515 0 -117 -20 -202 -71 -307
-91 -188 -270 -333 -469 -379 -185 -44 -398 -3 -557 105 -23 16 -44 29 -47 29
-3 0 -6 -188 -6 -418 l0 -417 128 -127 c70 -70 146 -136 170 -148 95 -47 219
-44 313 7 31 16 283 262 762 741 613 614 720 725 741 772 14 30 26 64 26 76 0
37 -177 191 -342 298 -122 79 -331 178 -476 226 -107 35 -288 77 -403 93 l-37
5 45 -41z"/>
<path d="M2050 3136 c-357 -121 -680 -304 -974 -550 l-29 -24 21 -34 c12 -18
228 -240 481 -492 l460 -460 3 620 c4 553 6 625 21 679 28 93 67 174 119 243
26 34 42 62 35 61 -7 0 -68 -19 -137 -43z"/>
<path d="M2601 3134 c-238 -64 -378 -308 -315 -549 56 -216 278 -361 498 -326
247 40 415 266 377 508 -41 267 -301 437 -560 367z"/>
</g>
</svg>
