<svg width="16" height="16" viewBox="0 0 16 16" fill="none" xmlns="http://www.w3.org/2000/svg">
<path fill-rule="evenodd" clip-rule="evenodd" d="M8 16C12.4183 16 16 12.4183 16 8C16 3.58172 12.4183 0 8 0C3.58172 0 0 3.58172 0 8C0 12.4183 3.58172 16 8 16ZM8.75098 9.82227L8.94141 4.99805H7.32031L7.50098 9.82227H8.75098ZM7.49609 11.8779C7.66536 12.0342 7.88021 12.1123 8.14062 12.1123C8.4043 12.1123 8.61751 12.0358 8.78027 11.8828C8.94629 11.7298 9.0293 11.5361 9.0293 11.3018C9.0293 11.0706 8.94629 10.8802 8.78027 10.7305C8.61426 10.5775 8.40104 10.501 8.14062 10.501C7.88346 10.501 7.66862 10.5758 7.49609 10.7256C7.32682 10.8753 7.24219 11.0674 7.24219 11.3018C7.24219 11.5264 7.32682 11.7184 7.49609 11.8779Z" fill="#C1365B"/>
</svg>
