<svg width="19" height="15" viewBox="0 0 19 15" fill="none" xmlns="http://www.w3.org/2000/svg">
<path fill-rule="evenodd" clip-rule="evenodd" d="M0.727123 6.26199C2.71812 2.39199 5.64612 0.416992 9.44412 0.416992C13.2431 0.416992 16.1711 2.39199 18.1621 6.26199C18.5021 6.92199 18.5021 7.70799 18.1621 8.36799C16.1711 12.238 13.2421 14.214 9.44412 14.214C5.64612 14.214 2.71812 12.238 0.727123 8.36799C0.559573 8.04227 0.472168 7.68128 0.472168 7.31499C0.472168 6.94871 0.559573 6.58771 0.727123 6.26199V6.26199ZM1.68712 6.42199C1.53824 6.71171 1.46058 7.03276 1.46058 7.35849C1.46058 7.68423 1.53824 8.00527 1.68712 8.29499C3.45912 11.739 6.06412 13.497 9.44412 13.497C12.8241 13.497 15.4301 11.739 17.2021 8.29499C17.3512 8.00514 17.4289 7.68392 17.4289 7.35799C17.4289 7.03207 17.3512 6.71084 17.2021 6.42099C15.4301 2.97699 12.8251 1.21999 9.44412 1.21999C6.06412 1.21999 3.45912 2.97799 1.68712 6.42199V6.42199Z" fill="#3B0E2A"/>
<path d="M9.25634 10.144C9.62837 10.144 9.99677 10.0707 10.3405 9.92838C10.6842 9.78601 10.9965 9.57733 11.2596 9.31426C11.5226 9.05119 11.7313 8.73889 11.8737 8.39517C12.0161 8.05145 12.0893 7.68306 12.0893 7.31103C12.0893 6.93899 12.0161 6.5706 11.8737 6.22688C11.7313 5.88317 11.5226 5.57086 11.2596 5.30779C10.9965 5.04473 10.6842 4.83605 10.3405 4.69368C9.99677 4.5513 9.62837 4.47803 9.25634 4.47803C8.50498 4.47803 7.7844 4.7765 7.25311 5.30779C6.72182 5.83908 6.42334 6.55967 6.42334 7.31103C6.42334 8.06239 6.72182 8.78297 7.25311 9.31426C7.7844 9.84555 8.50498 10.144 9.25634 10.144V10.144ZM9.25634 9.14403C8.7702 9.14403 8.30397 8.95091 7.96021 8.60715C7.61646 8.2634 7.42334 7.79717 7.42334 7.31103C7.42334 6.82489 7.61646 6.35865 7.96021 6.0149C8.30397 5.67115 8.7702 5.47803 9.25634 5.47803C9.74248 5.47803 10.2087 5.67115 10.5525 6.0149C10.8962 6.35865 11.0893 6.82489 11.0893 7.31103C11.0893 7.79717 10.8962 8.2634 10.5525 8.60715C10.2087 8.95091 9.74248 9.14403 9.25634 9.14403Z" fill="#3B0E2A"/>
</svg>
