<svg width="20" height="20" viewBox="0 0 20 20" fill="none" xmlns="http://www.w3.org/2000/svg">
<path d="M3.33203 5.62317C3.33203 5.12589 3.52958 4.64898 3.88121 4.29735C4.23284 3.94571 4.70975 3.74817 5.20703 3.74817H12.707C13.2043 3.74817 13.6812 3.94571 14.0329 4.29735C14.3845 4.64898 14.582 5.12589 14.582 5.62317V17.7082C14.582 17.818 14.553 17.9259 14.4979 18.021C14.4429 18.1161 14.3638 18.1949 14.2686 18.2497C14.1733 18.3044 14.0654 18.3331 13.9555 18.3329C13.8457 18.3326 13.7378 18.3034 13.6429 18.2482L8.95703 15.5148L4.27203 18.2482C4.17705 18.3036 4.06912 18.333 3.95915 18.3334C3.84918 18.3337 3.74106 18.3051 3.6457 18.2503C3.55035 18.1955 3.47113 18.1165 3.41606 18.0214C3.36098 17.9262 3.332 17.8181 3.33203 17.7082V5.62317ZM5.20703 4.99817C5.04127 4.99817 4.8823 5.06402 4.76509 5.18123C4.64788 5.29844 4.58203 5.45741 4.58203 5.62317V16.6198L8.64286 14.2515C8.73837 14.1959 8.84692 14.1666 8.95745 14.1666C9.06797 14.1666 9.17653 14.1959 9.27203 14.2515L13.3329 16.6198V5.62317C13.3329 5.45741 13.267 5.29844 13.1498 5.18123C13.0326 5.06402 12.8736 4.99817 12.7079 4.99817H5.20786H5.20703ZM12.707 1.6665C13.7568 1.6665 14.7637 2.08354 15.506 2.82587C16.2483 3.5682 16.6654 4.57502 16.6654 5.62484V15.519C16.6654 15.6848 16.5995 15.8437 16.4823 15.9609C16.3651 16.0782 16.2061 16.144 16.0404 16.144C15.8746 16.144 15.7156 16.0782 15.5984 15.9609C15.4812 15.8437 15.4154 15.6848 15.4154 15.519V5.62567C15.4154 4.90738 15.13 4.2185 14.6221 3.71059C14.1142 3.20268 13.4253 2.91734 12.707 2.91734H5.52953C5.52953 2.91734 5.6237 2.45234 6.1937 2.01567C6.66536 1.6665 7.16703 1.6665 7.16703 1.6665H12.707Z" fill="#C1365B"/>
</svg>
