<svg width="18" height="18" viewBox="0 0 18 18" fill="none" xmlns="http://www.w3.org/2000/svg">
<g clip-path="url(#clip0_817_11)">
<path d="M10.4546 0H4.5C3.90326 0 3.33097 0.237053 2.90901 0.65901C2.48705 1.08097 2.25 1.65326 2.25 2.25V15.75C2.25 16.3467 2.48705 16.919 2.90901 17.341C3.33097 17.7629 3.90326 18 4.5 18H13.5C14.0967 18 14.669 17.7629 15.091 17.341C15.5129 16.919 15.75 16.3467 15.75 15.75V5.29537C15.7499 4.99703 15.6314 4.71093 15.4204 4.5L11.25 0.329625C11.0391 0.118632 10.753 6.37171e-05 10.4546 0V0ZM10.6875 3.9375V1.6875L14.0625 5.0625H11.8125C11.5141 5.0625 11.228 4.94397 11.017 4.73299C10.806 4.52202 10.6875 4.23587 10.6875 3.9375ZM5.0625 10.125C4.91332 10.125 4.77024 10.0657 4.66475 9.96025C4.55926 9.85476 4.5 9.71168 4.5 9.5625C4.5 9.41332 4.55926 9.27024 4.66475 9.16475C4.77024 9.05926 4.91332 9 5.0625 9H12.9375C13.0867 9 13.2298 9.05926 13.3352 9.16475C13.4407 9.27024 13.5 9.41332 13.5 9.5625C13.5 9.71168 13.4407 9.85476 13.3352 9.96025C13.2298 10.0657 13.0867 10.125 12.9375 10.125H5.0625ZM4.5 11.8125C4.5 11.6633 4.55926 11.5202 4.66475 11.4148C4.77024 11.3093 4.91332 11.25 5.0625 11.25H12.9375C13.0867 11.25 13.2298 11.3093 13.3352 11.4148C13.4407 11.5202 13.5 11.6633 13.5 11.8125C13.5 11.9617 13.4407 12.1048 13.3352 12.2102C13.2298 12.3157 13.0867 12.375 12.9375 12.375H5.0625C4.91332 12.375 4.77024 12.3157 4.66475 12.2102C4.55926 12.1048 4.5 11.9617 4.5 11.8125ZM5.0625 14.625C4.91332 14.625 4.77024 14.5657 4.66475 14.4602C4.55926 14.3548 4.5 14.2117 4.5 14.0625C4.5 13.9133 4.55926 13.7702 4.66475 13.6648C4.77024 13.5593 4.91332 13.5 5.0625 13.5H9.5625C9.71168 13.5 9.85476 13.5593 9.96025 13.6648C10.0657 13.7702 10.125 13.9133 10.125 14.0625C10.125 14.2117 10.0657 14.3548 9.96025 14.4602C9.85476 14.5657 9.71168 14.625 9.5625 14.625H5.0625Z" fill="#C1365B"/>
</g>
<defs>
<clipPath id="clip0_817_11">
<rect width="18" height="18" fill="white"/>
</clipPath>
</defs>
</svg>
