<svg width="48" height="48" viewBox="0 0 48 48" fill="none" xmlns="http://www.w3.org/2000/svg">
<path fill-rule="evenodd" clip-rule="evenodd" d="M9.78838 9.59418C10.5648 8.80853 11.8311 8.80103 12.6168 9.57744L16.8992 13.8095C17.6849 14.5859 17.6924 15.8522 16.916 16.6379C16.1396 17.4235 14.8733 17.431 14.0876 16.6546L9.80512 12.4226C9.01946 11.6462 9.01197 10.3798 9.78838 9.59418Z" fill="#C1365B"/>
<path fill-rule="evenodd" clip-rule="evenodd" d="M24 4C25.1046 4 26 4.89543 26 6V12C26 13.1046 25.1046 14 24 14C22.8954 14 22 13.1046 22 12V6C22 4.89543 22.8954 4 24 4Z" fill="#FF8F8F"/>
<path fill-rule="evenodd" clip-rule="evenodd" d="M4 24C4 22.8954 4.89543 22 6 22H12C13.1046 22 14 22.8954 14 24C14 25.1046 13.1046 26 12 26H6C4.89543 26 4 25.1046 4 24Z" fill="#710A3C"/>
</svg>
