<svg width="14" height="14" viewBox="0 0 14 14" fill="none" xmlns="http://www.w3.org/2000/svg">
<path d="M12.9062 0.4375H1.09375C0.919762 0.437695 0.752955 0.506899 0.629927 0.629927C0.506899 0.752955 0.437695 0.919762 0.4375 1.09375V12.9062C0.437695 13.0802 0.506899 13.247 0.629927 13.3701C0.752955 13.4931 0.919762 13.5623 1.09375 13.5625H12.9062C13.0802 13.5623 13.247 13.4931 13.3701 13.3701C13.4931 13.247 13.5623 13.0802 13.5625 12.9062V1.09375C13.5623 0.919764 13.4931 0.752962 13.3701 0.629935C13.247 0.506908 13.0802 0.437703 12.9062 0.4375V0.4375ZM12.6875 12.6875H1.3125V1.3125H12.6875V12.6875Z" fill="#C1365B"/>
<path d="M5.6875 10.7886C5.6875 11.2786 6.08469 11.6758 6.57465 11.6758V11.6758C6.85328 11.6758 7.11572 11.5449 7.28333 11.3223L8.0293 10.3317C8.15986 10.1583 8.23047 9.9472 8.23047 9.73016V7.51167C8.23047 7.26778 8.3196 7.03229 8.48109 6.84952L11.1147 3.86893C11.2648 3.69908 11.3477 3.48023 11.3477 3.25357V3.25357C11.3477 2.7403 10.9316 2.32422 10.4183 2.32422H3.36112C2.84886 2.32422 2.43359 2.73949 2.43359 3.25175V3.25175C2.43359 3.48479 2.52132 3.7093 2.67933 3.88061L5.42257 6.85479C5.59292 7.03948 5.6875 7.28153 5.6875 7.53278V10.7886ZM3.32251 3.28737C3.31356 3.27767 3.30859 3.26495 3.30859 3.25175V3.25175C3.30859 3.22274 3.33211 3.19922 3.36113 3.19922H10.4183C10.4483 3.19922 10.4727 3.22354 10.4727 3.25355V3.25355C10.4727 3.2668 10.4678 3.27959 10.459 3.28952L7.60609 6.51831C7.4446 6.70107 7.35547 6.93656 7.35547 7.18045V9.43755C7.35547 9.65459 7.28486 9.86574 7.15429 10.0391L6.58436 10.7959C6.58206 10.799 6.57847 10.8008 6.57465 10.8008V10.8008C6.56794 10.8008 6.5625 10.7953 6.5625 10.7886V7.19088C6.5625 6.93962 6.46792 6.69757 6.29757 6.51288L3.32251 3.28737Z" fill="#C1365B"/>
</svg>
