<svg width="48" height="48" viewBox="0 0 48 48" fill="none" xmlns="http://www.w3.org/2000/svg">
<path fill-rule="evenodd" clip-rule="evenodd" d="M2 17.1538H40.395V6.1748H2V17.1538Z" fill="#710A3C"/>
<path d="M46.5991 10.4183C46.3874 9.3536 45.8647 8.37555 45.0971 7.60788C44.5874 7.09812 43.9822 6.69376 43.3162 6.41788C42.6502 6.14199 41.9364 6 41.2156 6C40.4947 6 39.7809 6.14199 39.1149 6.41788C38.4489 6.69376 37.8438 7.09812 37.3341 7.60788C37.3338 7.60813 37.3336 7.60838 37.3333 7.60863L37.3326 7.60791L10.1836 34.7579L17.9466 42.5189L45.0966 15.3709C45.604 14.8636 46.0094 14.259 46.2867 13.5897C46.7022 12.5867 46.8109 11.4831 46.5991 10.4183Z" fill="url(#paint0_linear_817_34)"/>
<path fill-rule="evenodd" clip-rule="evenodd" d="M34.1172 13.7172C33.9609 13.8734 33.9609 14.1266 34.1172 14.2828L34.9925 15.1582L36.1094 13.9928L34.9627 12.8716L34.1172 13.7172ZM35.3163 12.518L36.4553 13.6318L37.9155 12.1081L36.7975 11.0368L35.3163 12.518ZM37.1512 10.6831L38.2622 11.7479L40.057 9.89128L39.2828 9.11716C39.1266 8.96095 38.8734 8.96095 38.7172 9.11716L37.1512 10.6831ZM40.4106 10.2449L38.4495 12.2736L38.4487 12.2744L36.8129 13.9814L38.518 15.6486L40.5175 17.6482L43.8828 14.2828C44.0391 14.1266 44.0391 13.8734 43.8828 13.7172L40.4106 10.2449ZM40.164 18.0017L38.346 16.1837L37.2068 17.3725L38.7172 18.8828C38.8734 19.0391 39.1266 19.0391 39.2828 18.8828L40.164 18.0017ZM36.8532 17.0189L37.9905 15.8321L36.4669 14.3424L35.3462 15.5118L36.8532 17.0189Z" fill="#EDEDED"/>
<defs>
<linearGradient id="paint0_linear_817_34" x1="28.4441" y1="6" x2="28.4441" y2="42.5189" gradientUnits="userSpaceOnUse">
<stop stop-color="#3B0E2A"/>
<stop offset="1" stop-color="#710A3C"/>
</linearGradient>
</defs>
</svg>
