<svg width="51" height="51" viewBox="0 0 51 51" fill="none" xmlns="http://www.w3.org/2000/svg">
<path d="M27.2876 20.3582L24.7617 19.8401L23.9556 23.7692L25.8365 24.1551C27.7496 24.5476 28.7425 23.9994 29.0051 22.7196C29.2505 21.5235 28.6189 20.6313 27.2876 20.3582Z" fill="#C1365B"/>
<path d="M26.2442 26.3472L23.5406 25.7926L23.5402 25.7941L22.6441 30.1626L24.757 30.5961C27.0082 31.0579 28.0778 30.5163 28.3651 29.1159C28.6497 27.7288 27.915 26.69 26.2442 26.3472Z" fill="#C1365B"/>
<path fill-rule="evenodd" clip-rule="evenodd" d="M1.17158 22.3848C-0.390526 23.9469 -0.390526 26.4795 1.17158 28.0416L22.3848 49.2548C23.9469 50.8169 26.4795 50.8169 28.0416 49.2548L49.2548 28.0416C50.8169 26.4795 50.8169 23.9469 49.2548 22.3848L28.0416 1.17157C26.4795 -0.390529 23.9469 -0.390521 22.3848 1.17157L1.17158 22.3848ZM19.7219 33.7556L20.0987 31.9189L17.1595 31.3327C16.9567 31.2911 16.8259 31.0928 16.8675 30.89L17.169 29.4206C17.1889 29.3232 17.2468 29.2377 17.3298 29.183C17.4129 29.1282 17.5142 29.1087 17.6117 29.1286L18.7141 29.338C19.0064 29.3979 19.3105 29.3393 19.5596 29.175C19.8086 29.0108 19.9823 28.7543 20.0422 28.462L21.7017 20.373C21.7614 20.082 21.7036 19.7791 21.5408 19.5306C21.3781 19.2821 21.1237 19.108 20.8331 19.0463L19.7222 18.8261C19.5194 18.7845 19.3918 18.5853 19.4331 18.384L19.7312 16.9308C19.7512 16.8333 19.8091 16.7478 19.8921 16.6931C19.9752 16.6383 20.0765 16.6188 20.174 16.6388L23.1131 17.2249L23.4899 15.3881C23.5099 15.2907 23.5678 15.2052 23.6508 15.1505C23.7338 15.0957 23.8352 15.0762 23.9327 15.0962L25.2948 15.3756C25.3922 15.3956 25.4777 15.4535 25.5325 15.5365C25.5872 15.6195 25.6068 15.7209 25.5868 15.8183L25.21 17.6551L26.0519 17.8278L26.4287 15.991C26.4487 15.8936 26.5066 15.8081 26.5896 15.7534C26.6726 15.6986 26.774 15.6791 26.8714 15.699L28.3408 16.0005C28.4383 16.0205 28.5238 16.0784 28.5785 16.1614C28.6333 16.2444 28.6528 16.3458 28.6328 16.4432L28.256 18.28L28.3912 18.3077C30.97 18.8367 32.3795 20.5499 31.9176 22.801C31.5511 24.5878 30.2828 25.4485 28.7845 25.5117L28.758 25.641C30.4551 26.1683 31.6873 27.6783 31.2345 29.8853C30.6958 32.5111 28.292 33.5997 25.365 32.9993L25.2416 32.9739L24.8648 34.8107C24.8448 34.9081 24.7869 34.9936 24.7039 35.0484C24.6208 35.1031 24.5195 35.1227 24.422 35.1027L22.9526 34.8012C22.7499 34.7596 22.6191 34.5613 22.6607 34.3585L23.0375 32.5218L22.3028 32.371L21.926 34.2078C21.906 34.3052 21.8481 34.3907 21.7651 34.4455C21.682 34.5002 21.5807 34.5198 21.4832 34.4998L20.0138 34.1983C19.8111 34.1567 19.6803 33.9584 19.7219 33.7556Z" fill="#C1365B"/>
</svg>
