<svg width="18" height="18" viewBox="0 0 18 18" fill="none" xmlns="http://www.w3.org/2000/svg">
<path d="M6.1875 7.875C6.03832 7.875 5.89524 7.93426 5.78975 8.03975C5.68426 8.14524 5.625 8.28832 5.625 8.4375C5.625 8.58668 5.68426 8.72976 5.78975 8.83525C5.89524 8.94074 6.03832 9 6.1875 9H11.8125C11.9617 9 12.1048 8.94074 12.2102 8.83525C12.3157 8.72976 12.375 8.58668 12.375 8.4375C12.375 8.28832 12.3157 8.14524 12.2102 8.03975C12.1048 7.93426 11.9617 7.875 11.8125 7.875H6.1875ZM5.625 10.6875C5.625 10.5383 5.68426 10.3952 5.78975 10.2898C5.89524 10.1843 6.03832 10.125 6.1875 10.125H11.8125C11.9617 10.125 12.1048 10.1843 12.2102 10.2898C12.3157 10.3952 12.375 10.5383 12.375 10.6875C12.375 10.8367 12.3157 10.9798 12.2102 11.0852C12.1048 11.1907 11.9617 11.25 11.8125 11.25H6.1875C6.03832 11.25 5.89524 11.1907 5.78975 11.0852C5.68426 10.9798 5.625 10.8367 5.625 10.6875ZM5.625 12.9375C5.625 12.7883 5.68426 12.6452 5.78975 12.5398C5.89524 12.4343 6.03832 12.375 6.1875 12.375H8.4375C8.58668 12.375 8.72976 12.4343 8.83525 12.5398C8.94074 12.6452 9 12.7883 9 12.9375C9 13.0867 8.94074 13.2298 8.83525 13.3352C8.72976 13.4407 8.58668 13.5 8.4375 13.5H6.1875C6.03832 13.5 5.89524 13.4407 5.78975 13.3352C5.68426 13.2298 5.625 13.0867 5.625 12.9375Z" fill="#710A3C"/>
<path d="M10.6875 0H4.5C3.90326 0 3.33097 0.237053 2.90901 0.65901C2.48705 1.08097 2.25 1.65326 2.25 2.25V15.75C2.25 16.3467 2.48705 16.919 2.90901 17.341C3.33097 17.7629 3.90326 18 4.5 18H13.5C14.0967 18 14.669 17.7629 15.091 17.341C15.5129 16.919 15.75 16.3467 15.75 15.75V5.0625L10.6875 0ZM10.6875 1.125V3.375C10.6875 3.82255 10.8653 4.25178 11.1818 4.56824C11.4982 4.88471 11.9274 5.0625 12.375 5.0625H14.625V15.75C14.625 16.0484 14.5065 16.3345 14.2955 16.5455C14.0845 16.7565 13.7984 16.875 13.5 16.875H4.5C4.20163 16.875 3.91548 16.7565 3.7045 16.5455C3.49353 16.3345 3.375 16.0484 3.375 15.75V2.25C3.375 1.95163 3.49353 1.66548 3.7045 1.4545C3.91548 1.24353 4.20163 1.125 4.5 1.125H10.6875Z" fill="#710A3C"/>
</svg>
