<svg width="20" height="20" viewBox="0 0 20 20" fill="none" xmlns="http://www.w3.org/2000/svg">
<path d="M2.6499 2.69574C2.6499 2.52122 2.77848 2.37336 2.95131 2.34913L2.86108 1.70542L2.95131 2.34913L6.8972 1.79599C8.9556 1.50745 11.0442 1.50745 13.1026 1.79599L17.0485 2.34913C17.2213 2.37336 17.3499 2.52122 17.3499 2.69574V11.6173C17.3499 13.5091 16.3508 15.2603 14.7222 16.2229L10.6868 18.6082C10.2631 18.8586 9.73668 18.8586 9.31296 18.6082L5.2776 16.2229C3.64901 15.2603 2.6499 13.5091 2.6499 11.6173V2.69574Z" stroke="#DD3C3C" stroke-width="1.3"/>
<path d="M11.3943 9.6932L11.1203 9.88557L11.1178 10.2203L11.1023 12.3006V12.3044C11.1014 12.8579 10.6254 13.3499 9.99077 13.3499C9.35552 13.3499 8.87944 12.857 8.87944 12.303V12.3009L8.89476 10.2392L8.89731 9.89593L8.6153 9.70028C8.00719 9.27836 7.6499 8.60838 7.6499 7.88995C7.6499 6.67805 8.6815 5.6499 9.9999 5.6499C11.3181 5.6499 12.3499 6.67808 12.3499 7.88995C12.3499 8.60292 11.9962 9.2706 11.3943 9.6932Z" stroke="#DD3C3C" stroke-width="1.3"/>
</svg>
