<svg width="24" height="24" viewBox="0 0 24 24" fill="none" xmlns="http://www.w3.org/2000/svg">
<g clip-path="url(#clip0_2_685)">
<path d="M11.16 16.3L12.288 17.427C12.535 17.686 12.88 17.828 13.238 17.82H14.572V18.949C14.572 19.794 15.258 20.48 16.103 20.48H17.232V21.813C17.232 22.163 17.371 22.501 17.617 22.752L18.503 23.638C18.737 23.87 19.055 24.001 19.386 24H22.903C23.1939 23.9992 23.4726 23.8832 23.6782 23.6775C23.8838 23.4717 23.9995 23.1929 24 22.902V19.385C24.0005 19.22 23.9681 19.0566 23.905 18.9042C23.8418 18.7517 23.749 18.6133 23.632 18.497L16.297 11.161C16.9257 9.36795 16.9267 7.41454 16.2999 5.62083C15.6732 3.82712 14.4558 2.29946 12.8472 1.28815C11.2386 0.276837 9.33426 -0.158158 7.44612 0.0544313C5.55799 0.267021 3.79803 1.11459 2.45461 2.45827C1.11119 3.80195 0.263968 5.56207 0.0517464 7.45025C-0.160475 9.33843 0.27489 11.2427 1.28651 12.8511C2.29814 14.4595 3.82603 15.6766 5.61987 16.303C7.4137 16.9294 9.36711 16.928 11.16 16.299V16.3ZM3.54205 3.53601C4.6658 2.40923 6.14672 1.70873 7.73062 1.55474C9.31452 1.40075 10.9026 1.80287 12.2224 2.69209C13.5421 3.58131 14.5112 4.90217 14.9633 6.42797C15.4154 7.95377 15.3223 9.58936 14.7 11.054C14.6406 11.1944 14.6243 11.3493 14.6533 11.4989C14.6824 11.6485 14.7554 11.7861 14.863 11.894L22.466 19.5V22.469H19.498L18.75 21.721V19.916C18.75 19.6548 18.6463 19.4042 18.4615 19.2195C18.2768 19.0348 18.0263 18.931 17.765 18.931H16.103V17.274C16.103 17.0128 15.9993 16.7622 15.8145 16.5775C15.6298 16.3928 15.3793 16.289 15.118 16.289H13.316L11.892 14.865C11.7843 14.7572 11.6467 14.684 11.4971 14.6548C11.3474 14.6255 11.1925 14.6416 11.052 14.701C9.58741 15.3214 7.95257 15.4129 6.42785 14.9598C4.90314 14.5068 3.58354 13.5373 2.69535 12.2178C1.80715 10.8983 1.4057 9.31088 1.55981 7.72776C1.71393 6.14463 2.41403 4.66445 3.54005 3.54101L3.54305 3.53701L3.54205 3.53601ZM6.74705 9.55701C7.12019 9.56405 7.491 9.49664 7.83779 9.35871C8.18458 9.22079 8.50039 9.01511 8.76677 8.75371C9.03315 8.49231 9.24474 8.18044 9.38919 7.83631C9.53364 7.49219 9.60804 7.12272 9.60804 6.74951C9.60804 6.3763 9.53364 6.00683 9.38919 5.66271C9.24474 5.31858 9.03315 5.00671 8.76677 4.74531C8.50039 4.48391 8.18458 4.27824 7.83779 4.14031C7.491 4.00238 7.12019 3.93497 6.74705 3.94201C6.01163 3.95589 5.31102 4.25778 4.79583 4.78278C4.28065 5.30778 3.99204 6.01396 3.99204 6.74951C3.99204 7.48506 4.28065 8.19125 4.79583 8.71624C5.31102 9.24124 6.01163 9.54313 6.74705 9.55701ZM6.74705 5.49401C7.04226 5.49458 7.32813 5.59749 7.55597 5.78521C7.78381 5.97293 7.93951 6.23384 7.99654 6.52349C8.05358 6.81313 8.00842 7.1136 7.86875 7.37368C7.72909 7.63376 7.50357 7.83737 7.23062 7.94982C6.95766 8.06226 6.65416 8.07659 6.37183 7.99035C6.0895 7.90411 5.84581 7.72265 5.68227 7.47688C5.51873 7.2311 5.44547 6.93623 5.47497 6.6425C5.50447 6.34877 5.6349 6.07435 5.84405 5.86601C6.08405 5.62601 6.40805 5.49101 6.74705 5.49101V5.49401Z" fill="#DD3C3C"/>
</g>
<defs>
<clipPath id="clip0_2_685">
<rect width="24" height="24" fill="white"/>
</clipPath>
</defs>
</svg>
