<svg width="20" height="20" viewBox="0 0 20 20" fill="none" xmlns="http://www.w3.org/2000/svg">
<path d="M10.0751 1C10.4479 1 10.7501 1.30221 10.7501 1.675V2.92393C10.7501 3.29672 10.4479 3.59893 10.0751 3.59893H9.92512C9.55233 3.59893 9.25012 3.29672 9.25012 2.92393V1.675C9.25012 1.30221 9.55233 1 9.92512 1H10.0751Z" fill="#3B0E2A"/>
<path d="M1 10.1137C1 9.74086 1.30221 9.43866 1.675 9.43866H2.92393C3.29672 9.43866 3.59893 9.74086 3.59893 10.1137V10.2637C3.59893 10.6364 3.29672 10.9387 2.92393 10.9387H1.675C1.30221 10.9387 1 10.6364 1 10.2637V10.1137Z" fill="#3B0E2A"/>
<path d="M16.401 10.1137C16.401 9.74086 16.7032 9.43866 17.076 9.43866H18.3249C18.6977 9.43866 18.9999 9.74086 18.9999 10.1137V10.2637C18.9999 10.6364 18.6977 10.9387 18.3249 10.9387H17.076C16.7032 10.9387 16.401 10.6364 16.401 10.2637V10.1137Z" fill="#3B0E2A"/>
<path d="M10.7501 17.0761C10.7501 16.7033 10.4479 16.4011 10.0751 16.4011H9.92512C9.55233 16.4011 9.25012 16.7033 9.25012 17.0761V18.325C9.25012 18.6978 9.55233 19 9.92512 19H10.0751C10.4479 19 10.7501 18.6978 10.7501 18.325V17.0761Z" fill="#3B0E2A"/>
<path d="M15.5338 14.4732C15.2702 14.2096 14.8428 14.2096 14.5792 14.4732L14.4731 14.5793C14.2095 14.8429 14.2095 15.2703 14.4731 15.5339L15.3562 16.417C15.6199 16.6806 16.0472 16.6806 16.3108 16.417L16.4169 16.3109C16.6805 16.0473 16.6805 15.6199 16.4169 15.3563L15.5338 14.4732Z" fill="#3B0E2A"/>
<path d="M3.68902 3.58297C3.95262 3.31937 4.38001 3.31937 4.64361 3.58297L5.52674 4.4661C5.79034 4.7297 5.79034 5.15709 5.52674 5.42069L5.42067 5.52676C5.15707 5.79036 4.72968 5.79036 4.46608 5.52676L3.58295 4.64363C3.31935 4.38003 3.31935 3.95264 3.58295 3.68904L3.68902 3.58297Z" fill="#3B0E2A"/>
<path d="M14.4733 4.46622C14.2097 4.72982 14.2097 5.15721 14.4733 5.42081L14.5794 5.52688C14.843 5.79048 15.2704 5.79048 15.534 5.52688L16.4171 4.64375C16.6807 4.38015 16.6807 3.95276 16.4171 3.68916L16.311 3.58309C16.0474 3.31949 15.62 3.31949 15.3564 3.58309L14.4733 4.46622Z" fill="#3B0E2A"/>
<path d="M3.58295 16.3109C3.31935 16.0473 3.31935 15.6199 3.58295 15.3563L4.46608 14.4732C4.72968 14.2096 5.15707 14.2096 5.42067 14.4732L5.52674 14.5793C5.79034 14.8429 5.79034 15.2703 5.52674 15.5339L4.64361 16.417C4.38001 16.6806 3.95262 16.6806 3.68902 16.417L3.58295 16.3109Z" fill="#3B0E2A"/>
<path fill-rule="evenodd" clip-rule="evenodd" d="M10.0001 4.70181C7.10595 4.70181 4.7583 7.03573 4.7583 9.91665C4.7583 12.7976 7.10595 15.1315 10.0001 15.1315C12.8942 15.1315 15.2418 12.7976 15.2418 9.91665C15.2418 7.03573 12.8942 4.70181 10.0001 4.70181ZM10 5.98077C12.1895 5.98077 13.9629 7.74377 13.9629 9.91666C13.9629 12.0895 12.1895 13.8525 10 13.8525C7.8106 13.8525 6.03723 12.0895 6.03723 9.91666C6.03723 7.74377 7.8106 5.98077 10 5.98077Z" fill="#3B0E2A"/>
</svg>
