<svg width="13" height="13" viewBox="0 0 13 13" fill="none" xmlns="http://www.w3.org/2000/svg">
<path fill-rule="evenodd" clip-rule="evenodd" d="M6.92221 8.4822C7.43278 8.30683 7.79971 7.82246 7.79971 7.25239C7.79971 6.53442 7.21768 5.95239 6.49971 5.95239C5.78174 5.95239 5.19971 6.53442 5.19971 7.25239C5.19971 7.82246 5.56664 8.30683 6.07721 8.4822V9.75C6.07721 9.98334 6.26637 10.1725 6.49971 10.1725C6.73305 10.1725 6.92221 9.98334 6.92221 9.75V8.4822ZM6.49971 7.70739C6.751 7.70739 6.95471 7.50368 6.95471 7.25239C6.95471 7.0011 6.751 6.79739 6.49971 6.79739C6.24842 6.79739 6.04471 7.0011 6.04471 7.25239C6.04471 7.50368 6.24842 7.70739 6.49971 7.70739Z" fill="#DD3C3C"/>
<path fill-rule="evenodd" clip-rule="evenodd" d="M2.83116 3.67733C2.87442 2.50518 3.26247 1.6364 3.92368 1.05927C4.61561 0.455334 5.54233 0.227539 6.49961 0.227539C7.45689 0.227539 8.38361 0.455334 9.07553 1.05927C9.73674 1.6364 10.1248 2.50518 10.1681 3.67733C11.2016 3.7261 12.0246 4.57951 12.0246 5.62513V10.075C12.0246 11.152 11.1516 12.025 10.0746 12.025H2.92461C1.84765 12.025 0.974609 11.152 0.974609 10.075V5.62513C0.974609 4.57951 1.7976 3.7261 2.83116 3.67733ZM3.67688 3.67513C3.71914 2.69862 4.03843 2.08072 4.47934 1.69588C4.96368 1.27313 5.66196 1.07254 6.49961 1.07254C7.33726 1.07254 8.03554 1.27313 8.51988 1.69588C8.96079 2.08072 9.28008 2.69862 9.32234 3.67513H3.67688ZM1.81961 5.62513C1.81961 5.01486 2.31434 4.52013 2.92461 4.52013H10.0746C10.6849 4.52013 11.1796 5.01486 11.1796 5.62513V10.075C11.1796 10.6853 10.6849 11.18 10.0746 11.18H2.92461C2.31433 11.18 1.81961 10.6853 1.81961 10.075V5.62513Z" fill="#DD3C3C"/>
</svg>
