<svg width="18" height="28" viewBox="0 0 18 28" fill="none" xmlns="http://www.w3.org/2000/svg">
<path d="M9 28C9 28 18 13.9085 18 8.96C18 4.01153 13.9706 0 9 0C4.02944 0 0 4.01153 0 8.96C0 11.6179 2.59634 16.9133 5 21.2463V15H5.02746C5.00932 14.8358 5 14.669 5 14.5C5 12.0147 7.01472 10 9.5 10C11.9853 10 14 12.0147 14 14.5C14 16.9853 11.9853 19 9.5 19C8.57493 19 7.71505 18.7209 7 18.2422V24.7283C8.16324 26.6899 9 28 9 28Z" fill="#DD3C3C"/>
<path d="M9.5 17C10.8807 17 12 15.8807 12 14.5C12 13.1193 10.8807 12 9.5 12C8.11929 12 7 13.1193 7 14.5C7 15.8807 8.11929 17 9.5 17Z" fill="#DD3C3C"/>
</svg>
