<svg width="207" height="155" viewBox="0 0 207 155" fill="none" xmlns="http://www.w3.org/2000/svg">
<g clip-path="url(#clip0_2_732)">
<path d="M56.334 110.174L0.290039 125.636L15.7047 181.853L71.7487 166.391L56.334 110.174Z" fill="white"/>
<path d="M15.5441 182.144L15.4816 181.912L0 125.467L0.230977 125.405L56.5017 109.875L56.5642 110.107L72.0458 166.552L71.8148 166.614L15.5441 182.144ZM0.586804 125.805L15.8749 181.561L71.459 166.226L56.1709 110.47L0.586804 125.805Z" fill="#3B0E2A"/>
<path d="M84.675 141.999L69.5554 86.8567L56.3398 110.17L71.7528 166.389L84.675 141.999Z" fill="url(#paint0_linear_2_732)"/>
<path d="M71.7524 166.627C71.7461 166.627 71.7336 166.627 71.7274 166.627C71.6337 166.614 71.5526 166.545 71.5276 166.451L56.1084 110.232C56.0897 110.17 56.1022 110.107 56.1334 110.051L69.349 86.7314C69.3989 86.65 69.4925 86.5999 69.5862 86.6124C69.6798 86.6249 69.761 86.6938 69.7859 86.7877L84.9055 141.93C84.9242 141.986 84.918 142.049 84.8868 142.105L71.9646 166.495C71.9209 166.577 71.8397 166.627 71.7524 166.627ZM56.5953 110.201L71.8273 165.744L84.4248 141.967L69.4801 87.4703L56.5953 110.201Z" fill="#3B0E2A"/>
<path d="M69.5546 86.8566L56.339 110.17L0.292969 125.636L13.365 102.574L69.5546 86.8566Z" fill="white"/>
<path d="M0.292956 125.874C0.218045 125.874 0.149376 125.843 0.105677 125.78C0.049494 125.705 0.0370096 125.599 0.0869504 125.517L13.1589 102.455C13.1902 102.399 13.2401 102.361 13.3025 102.342L69.4921 86.6186C69.5858 86.5936 69.6856 86.6249 69.7418 86.7C69.798 86.7751 69.8105 86.8816 69.7606 86.963L56.545 110.282C56.5138 110.339 56.4638 110.376 56.4014 110.395L0.355382 125.862C0.336654 125.874 0.317926 125.874 0.292956 125.874ZM13.521 102.781L0.779878 125.254L56.1767 109.969L69.0614 87.2385L13.521 102.781Z" fill="#3B0E2A"/>
<path d="M213.301 125.917L194.593 118.116L186.815 136.881L205.523 144.683L213.301 125.917Z" fill="white"/>
<path d="M205.527 144.889C205.499 144.889 205.472 144.884 205.445 144.873L186.736 137.069C186.632 137.026 186.578 136.905 186.622 136.796L194.401 118.029C194.445 117.926 194.57 117.877 194.673 117.915L213.382 125.718C213.486 125.762 213.54 125.882 213.497 125.991L205.717 144.758C205.684 144.84 205.608 144.889 205.527 144.889ZM187.089 136.764L205.418 144.404L213.034 126.019L194.706 118.379L187.089 136.764Z" fill="#3B0E2A"/>
<path d="M216.712 134.914L209.084 153.326L205.526 144.682L213.306 125.915L216.712 134.914Z" fill="url(#paint1_linear_2_732)"/>
<path d="M209.084 153.533C209.002 153.533 208.926 153.484 208.894 153.408L205.336 144.764C205.314 144.715 205.314 144.655 205.336 144.605L213.115 125.838C213.148 125.762 213.213 125.697 213.311 125.713C213.398 125.713 213.469 125.768 213.502 125.849L216.907 134.854C216.923 134.903 216.923 134.957 216.907 135.006L209.28 153.413C209.242 153.479 209.166 153.533 209.084 153.533ZM205.749 144.682L209.084 152.78L216.488 134.908L213.295 126.472L205.749 144.682Z" fill="#3B0E2A"/>
<path d="M209.084 153.326L205.527 144.682L186.817 136.878L190.337 145.424L209.084 153.326Z" fill="white"/>
<path d="M209.085 153.533C209.058 153.533 209.03 153.528 209.003 153.517L190.256 145.62C190.207 145.599 190.163 145.56 190.147 145.506L186.633 136.96C186.6 136.884 186.616 136.791 186.676 136.731C186.736 136.671 186.823 136.654 186.899 136.687L205.608 144.491C205.657 144.513 205.701 144.551 205.723 144.605L209.281 153.249C209.313 153.326 209.297 153.419 209.237 153.479C209.188 153.511 209.139 153.533 209.085 153.533ZM190.495 145.266L208.704 152.933L205.375 144.835L187.204 137.26L190.495 145.266Z" fill="#3B0E2A"/>
<path d="M115.956 63.6075L102.023 96.7332L135.047 110.709L148.98 77.5833L115.956 63.6075Z" fill="white"/>
<path d="M135.06 111.012C135.02 111.012 134.98 111.004 134.94 110.988L101.911 97.0137C101.839 96.9816 101.775 96.9254 101.743 96.8452C101.711 96.773 101.711 96.6848 101.743 96.6126L115.682 63.481C115.746 63.3286 115.93 63.2564 116.082 63.3206L149.112 77.3032C149.264 77.3674 149.336 77.5439 149.272 77.7043L135.34 110.836C135.284 110.94 135.172 111.012 135.06 111.012ZM102.423 96.5644L134.892 110.306L148.592 77.7364L116.122 63.9944L102.423 96.5644Z" fill="#3B0E2A"/>
<path d="M131.87 57.6328L164.267 71.3507L148.992 77.5759L115.963 63.6013L131.87 57.6328Z" fill="white"/>
<path d="M148.992 77.8809C148.952 77.8809 148.912 77.8729 148.872 77.8569L115.843 63.8742C115.731 63.8261 115.651 63.7138 115.659 63.5854C115.659 63.4571 115.739 63.3528 115.859 63.3047L131.766 57.3442C131.838 57.3201 131.918 57.3201 131.99 57.3522L164.387 71.0621C164.499 71.1102 164.571 71.2225 164.571 71.3429C164.571 71.4632 164.499 71.5755 164.379 71.6236L149.104 77.8569C149.072 77.8729 149.032 77.8809 148.992 77.8809ZM116.786 63.6175L148.992 77.2472L163.475 71.3429L131.862 57.9619L116.786 63.6175Z" fill="#3B0E2A"/>
<path d="M164.266 71.3511L148.991 77.5763L135.052 110.708L150.167 104.547L164.266 71.3511Z" fill="url(#paint2_linear_2_732)"/>
<path d="M135.06 111.013C134.98 111.013 134.9 110.98 134.844 110.924C134.756 110.836 134.732 110.708 134.78 110.587L148.712 77.4558C148.744 77.3836 148.8 77.3194 148.88 77.2954L164.155 71.0622C164.267 71.014 164.403 71.0461 164.491 71.1344C164.579 71.2226 164.603 71.351 164.555 71.4713L150.447 104.667C150.415 104.739 150.359 104.803 150.279 104.827L135.172 110.988C135.132 111.005 135.092 111.013 135.06 111.013ZM149.224 77.8168L135.62 110.154L149.935 104.314L163.699 71.9125L149.224 77.8168Z" fill="#3B0E2A"/>
<path d="M190.451 -2.80321L173.484 -9.18079L167.091 7.76685L184.058 14.1444L190.451 -2.80321Z" fill="white"/>
<path d="M166.936 7.77825C166.936 7.75807 166.939 7.73773 166.946 7.71723L173.34 -9.23038C173.354 -9.26735 173.381 -9.30075 173.421 -9.31848C173.457 -9.33606 173.501 -9.3378 173.538 -9.32309L190.511 -2.94332C190.589 -2.91405 190.629 -2.82264 190.6 -2.74467L184.202 14.2031C184.173 14.2811 184.086 14.3209 184.003 14.2918L167.031 7.91604C166.977 7.88984 166.939 7.83476 166.936 7.77825ZM173.576 -8.98094L167.289 7.67951L183.974 13.9493L190.261 -2.71115L173.576 -8.98094Z" fill="#3B0E2A"/>
<path d="M193.777 5.11266L187.502 21.7374L184.063 14.1499L190.456 -2.79883L193.777 5.11266Z" fill="white"/>
<path d="M183.908 14.1565C183.908 14.1363 183.911 14.116 183.918 14.0955L190.315 -2.85371C190.337 -2.91118 190.392 -2.95377 190.457 -2.95227C190.522 -2.95481 190.576 -2.9165 190.602 -2.8569L193.92 5.05465C193.933 5.09051 193.935 5.13088 193.92 5.16784L187.648 21.7927C187.626 21.8502 187.571 21.8887 187.51 21.8911C187.45 21.8935 187.392 21.8594 187.365 21.7998L183.923 14.2125C183.914 14.1967 183.909 14.1767 183.908 14.1565ZM190.463 -2.38242L184.228 14.1439L187.489 21.338L193.61 5.11531L190.463 -2.38242Z" fill="#3B0E2A"/>
<path d="M187.502 21.7367L184.064 14.1496L167.092 7.76855L170.495 15.2761L187.502 21.7367Z" fill="url(#paint3_linear_2_732)"/>
<path d="M166.938 7.77933C166.937 7.73896 166.951 7.69796 166.978 7.66859C167.021 7.62244 167.085 7.60779 167.147 7.62963L184.118 14.0061C184.155 14.0209 184.189 14.0478 184.203 14.0877L187.645 21.6745C187.671 21.7301 187.658 21.7994 187.615 21.8455C187.572 21.8917 187.508 21.9063 187.446 21.8845L170.439 15.4205C170.402 15.4057 170.369 15.3788 170.355 15.3389L166.953 7.83536C166.944 7.8155 166.939 7.79547 166.938 7.77933ZM183.947 14.2716L167.382 8.04491L170.607 15.1551L187.207 21.4613L183.947 14.2716Z" fill="#3B0E2A"/>
<path d="M91.4065 24.4141L100.21 34.207L109.988 25.4308L101.185 15.6378L91.4065 24.4141Z" fill="white"/>
<path d="M110.092 25.4738C110.086 25.4871 110.077 25.4991 110.065 25.5098L100.285 34.2872C100.264 34.3061 100.235 34.3186 100.203 34.3167C100.175 34.316 100.145 34.3022 100.126 34.2804L91.3209 24.4854C91.2804 24.4404 91.2852 24.3681 91.3301 24.3277L101.113 15.5515C101.158 15.5111 101.227 15.5148 101.271 15.561L110.077 25.3534C110.103 25.3882 110.11 25.4366 110.092 25.4738ZM100.216 34.0473L109.832 25.4193L101.175 15.7916L91.5596 24.4196L100.216 34.0473Z" fill="#3B0E2A"/>
<path d="M91.9082 18.2031L101.506 9.59399L101.187 15.6339L91.4058 24.4126L91.9082 18.2031Z" fill="white"/>
<path d="M101.289 15.6818C101.283 15.6951 101.274 15.7071 101.262 15.7179L91.4777 24.4953C91.4443 24.5249 91.3946 24.5339 91.3533 24.5113C91.3108 24.4912 91.2887 24.4484 91.2915 24.4011L91.7966 18.1929C91.7998 18.1652 91.8123 18.1387 91.8341 18.1198L101.43 9.50946C101.463 9.47982 101.511 9.47347 101.551 9.49224C101.591 9.51102 101.617 9.55243 101.614 9.59975L101.298 15.6409C101.299 15.654 101.295 15.6686 101.289 15.6818ZM91.5398 24.1421L101.079 15.5829L101.38 9.85579L92.0162 18.2574L91.5398 24.1421Z" fill="#3B0E2A"/>
<path d="M101.506 9.59283L101.187 15.6319L109.992 25.4263L110.307 19.4503L101.506 9.59283Z" fill="url(#paint4_linear_2_732)"/>
<path d="M110.094 25.4712C110.082 25.4977 110.059 25.5192 110.031 25.5291C109.988 25.5445 109.942 25.5324 109.91 25.4977L101.104 15.7065C101.085 15.6846 101.072 15.656 101.077 15.6257L101.393 9.58553C101.394 9.54087 101.426 9.50077 101.469 9.48536C101.512 9.46994 101.558 9.48201 101.591 9.5167L110.391 19.3764C110.41 19.3982 110.422 19.4268 110.418 19.4571L110.104 25.4303C110.103 25.4461 110.099 25.4606 110.094 25.4712ZM101.303 15.593L109.897 25.1515L110.194 19.4911L101.604 9.86944L101.303 15.593Z" fill="#3B0E2A"/>
<path d="M179.949 48.7861H149.949V78.8114H179.949V48.7861Z" fill="#DD3C3C"/>
<path d="M154.449 74.3076L175.449 53.2899" stroke="white"/>
<path d="M175.449 74.3076L154.449 53.2899" stroke="white"/>
</g>
<defs>
<linearGradient id="paint0_linear_2_732" x1="70.5074" y1="86.8567" x2="70.5074" y2="166.389" gradientUnits="userSpaceOnUse">
<stop stop-color="#FF7297"/>
<stop offset="1" stop-color="#FF8F8F" stop-opacity="0"/>
</linearGradient>
<linearGradient id="paint1_linear_2_732" x1="211.119" y1="125.915" x2="211.119" y2="153.326" gradientUnits="userSpaceOnUse">
<stop stop-color="#FF7297"/>
<stop offset="1" stop-color="#FF8F8F" stop-opacity="0"/>
</linearGradient>
<linearGradient id="paint2_linear_2_732" x1="149.659" y1="71.3511" x2="149.659" y2="110.708" gradientUnits="userSpaceOnUse">
<stop stop-color="#FF7297"/>
<stop offset="1" stop-color="#FF8F8F" stop-opacity="0"/>
</linearGradient>
<linearGradient id="paint3_linear_2_732" x1="177.297" y1="7.76855" x2="177.297" y2="21.7367" gradientUnits="userSpaceOnUse">
<stop stop-color="#FF7297"/>
<stop offset="1" stop-color="#FF8F8F" stop-opacity="0"/>
</linearGradient>
<linearGradient id="paint4_linear_2_732" x1="105.747" y1="9.59283" x2="105.747" y2="25.4263" gradientUnits="userSpaceOnUse">
<stop stop-color="#FF7297"/>
<stop offset="1" stop-color="#FF8F8F" stop-opacity="0"/>
</linearGradient>
<clipPath id="clip0_2_732">
<rect width="207" height="155" fill="white"/>
</clipPath>
</defs>
</svg>
