<svg width="21" height="20" viewBox="0 0 21 20" fill="none" xmlns="http://www.w3.org/2000/svg">
<path d="M13.57 9.45783L12.2206 8.73577C12.4019 8.19018 12.5 7.60664 12.5 7.00018C12.5 3.96262 10.0376 1.50018 6.99999 1.50018C6.40528 1.50018 5.83261 1.59457 5.29614 1.76919C6.72806 0.103761 9.17122 -0.407009 11.1883 0.67223C13.0767 1.68268 14.093 3.58189 13.6747 5.60547L18.5906 8.23577C18.7283 8.30944 18.8374 8.42703 18.9005 8.56983L19.5728 10.0898C19.7569 10.5062 19.5008 10.9848 19.0522 11.0626L17.3502 11.3579C17.2381 11.3774 17.1228 11.3588 17.0225 11.3051L16.1473 10.8368L15.9248 10.0447L15.3549 10.23C15.0795 10.3196 14.7849 10.1621 14.7063 9.88337L14.5434 9.30558L13.9688 9.49301C13.8366 9.53612 13.6926 9.52342 13.57 9.45783Z" fill="#DD3C3C"/>
<path d="M5.97969 5.08411C5.70397 5.14815 5.53237 5.42358 5.59641 5.69929C5.66045 5.97501 5.93587 6.14661 6.21159 6.08257C6.4873 6.01853 6.6589 5.74311 6.59486 5.46739C6.53083 5.19168 6.2554 5.02008 5.97969 5.08411Z" fill="#DD3C3C"/>
<path fill-rule="evenodd" clip-rule="evenodd" d="M1.57721 8.50628C2.06478 10.6055 3.66702 12.1604 5.71839 12.4229L6.14535 14.2612C6.1768 14.3966 6.26217 14.5133 6.38168 14.5843L6.96259 14.9293L6.59645 15.4924C6.43859 15.7352 6.51431 16.0606 6.76316 16.2087L7.33939 16.5517L6.85132 17.3008L7.08705 18.3157C7.11279 18.4265 7.17484 18.5256 7.26334 18.597L8.70454 19.7613C9.05871 20.0474 9.58745 19.9246 9.77927 19.5117L10.5322 17.8907C10.598 17.7491 10.6146 17.5896 10.5792 17.4375L9.23201 11.6369C11.1443 10.5648 11.954 8.42937 11.4398 6.2156C10.8073 3.49212 8.08668 1.79708 5.36319 2.42963C2.6397 3.06218 0.944662 5.78279 1.57721 8.50628ZM4.81718 5.88029C4.65319 5.1742 5.09264 4.46886 5.79873 4.30487C6.50481 4.14087 7.21016 4.58033 7.37415 5.28641C7.53815 5.9925 7.09869 6.69784 6.3926 6.86184C5.68652 7.02583 4.98118 6.58638 4.81718 5.88029Z" fill="#DD3C3C"/>
</svg>
