<svg width="40" height="40" viewBox="0 0 40 40" fill="none" xmlns="http://www.w3.org/2000/svg">
<path d="M40 20C40 8.9543 31.0457 0 20 0C8.9543 0 0 8.9543 0 20C0 31.0457 8.9543 40 20 40C31.0457 40 40 31.0457 40 20Z" fill="#3B3B41"/>
<path d="M15.5234 28.75C23.6512 28.75 28.0967 22.0167 28.0967 16.1776C28.0967 15.9864 28.0967 15.796 28.0838 15.6065C28.9486 14.9809 29.6952 14.2065 30.2885 13.3192C29.482 13.6766 28.6264 13.9109 27.7504 14.0145C28.6729 13.4622 29.3633 12.5937 29.6931 11.5704C28.8257 12.0851 27.8767 12.4479 26.8871 12.643C25.5173 11.1866 23.3408 10.8301 21.5779 11.7735C19.8151 12.7168 18.9043 14.7254 19.3564 16.673C15.8033 16.4949 12.4929 14.8168 10.2491 12.0563C9.0762 14.0753 9.67528 16.6582 11.6172 17.9548C10.914 17.934 10.2261 17.7443 9.61154 17.4018C9.61154 17.4199 9.61154 17.4388 9.61154 17.4578C9.61211 19.5611 11.0949 21.3728 13.1568 21.7893C12.5062 21.9667 11.8236 21.9926 11.1614 21.8651C11.7404 23.6651 13.3994 24.8982 15.2899 24.9337C13.7252 26.1634 11.7921 26.8309 9.80194 26.8289C9.45035 26.8282 9.0991 26.8069 8.75 26.7652C10.7709 28.0619 13.1222 28.7498 15.5234 28.7466" fill="#1DA1F2"/>
</svg>
