<svg width="40" height="40" viewBox="0 0 40 40" fill="none" xmlns="http://www.w3.org/2000/svg">
<path d="M40 20C40 8.9543 31.0457 0 20 0C8.9543 0 0 8.9543 0 20C0 31.0457 8.9543 40 20 40C31.0457 40 40 31.0457 40 20Z" fill="url(#paint0_linear_2_243)"/>
<path fill-rule="evenodd" clip-rule="evenodd" d="M29.7917 24.1667C30.367 24.1667 30.8333 24.633 30.8333 25.2083C30.8333 25.7836 30.367 26.25 29.7917 26.25H11.0417C10.4664 26.25 10 25.7836 10 25.2083C10 24.633 10.4664 24.1667 11.0417 24.1667H29.7917ZM16.3333 13.75C17.4379 13.75 18.3333 14.6454 18.3333 15.75V19.0417C18.3333 20.1462 17.4379 21.0417 16.3333 21.0417H12C10.8954 21.0417 10 20.1462 10 19.0417V15.75C10 14.6454 10.8954 13.75 12 13.75H16.3333ZM29.7917 18.9583C30.367 18.9583 30.8333 19.4247 30.8333 20C30.8333 20.5753 30.367 21.0417 29.7917 21.0417H22.5C21.9247 21.0417 21.4583 20.5753 21.4583 20C21.4583 19.4247 21.9247 18.9583 22.5 18.9583H29.7917ZM29.7917 13.75C30.367 13.75 30.8333 14.2164 30.8333 14.7917C30.8333 15.367 30.367 15.8333 29.7917 15.8333H22.5C21.9247 15.8333 21.4583 15.367 21.4583 14.7917C21.4583 14.2164 21.9247 13.75 22.5 13.75H29.7917Z" fill="#DD3C3C"/>
<defs>
<linearGradient id="paint0_linear_2_243" x1="20" y1="0" x2="20" y2="40" gradientUnits="userSpaceOnUse">
<stop stop-color="#3B0E2A"/>
<stop offset="1" stop-color="#71083C"/>
</linearGradient>
</defs>
</svg>
