<svg width="32" height="32" viewBox="0 0 32 32" fill="none" xmlns="http://www.w3.org/2000/svg">
<path d="M32 16C32 7.16344 24.8366 0 16 0C7.16344 0 0 7.16344 0 16C0 24.8366 7.16344 32 16 32C24.8366 32 32 24.8366 32 16Z" fill="white"/>
<path fill-rule="evenodd" clip-rule="evenodd" d="M23.8333 19.3333C24.2936 19.3333 24.6667 19.7064 24.6667 20.1667C24.6667 20.6269 24.2936 21 23.8333 21H8.83333C8.3731 21 8 20.6269 8 20.1667C8 19.7064 8.3731 19.3333 8.83333 19.3333H16.3333H23.8333ZM12.6667 11C13.7712 11 14.6667 11.8954 14.6667 13V14.8333C14.6667 15.9379 13.7712 16.8333 12.6667 16.8333H10C8.89543 16.8333 8 15.9379 8 14.8333V13C8 11.8954 8.89543 11 10 11H12.6667ZM23.8333 15.1667C24.2936 15.1667 24.6667 15.5398 24.6667 16C24.6667 16.4602 24.2936 16.8333 23.8333 16.8333H18C17.5398 16.8333 17.1667 16.4602 17.1667 16C17.1667 15.5398 17.5398 15.1667 18 15.1667H23.8333ZM23.8333 11C24.2936 11 24.6667 11.3731 24.6667 11.8333C24.6667 12.2936 24.2936 12.6667 23.8333 12.6667H18C17.5398 12.6667 17.1667 12.2936 17.1667 11.8333C17.1667 11.3731 17.5398 11 18 11H23.8333Z" fill="#DD3C3C"/>
</svg>
