<svg width="44" height="40" viewBox="0 0 44 40" fill="none" xmlns="http://www.w3.org/2000/svg">
<g clip-path="url(#clip0_2_876)">
<path fill-rule="evenodd" clip-rule="evenodd" d="M0.000366211 29.7267C4.55937 30.0347 8.53937 28.9537 12.2174 26.2027C10.3444 25.9747 8.72337 25.5127 7.34737 24.4397C6.00037 23.3887 4.97737 22.0987 4.43537 20.3047H7.83537C7.85537 20.2277 7.87637 20.1497 7.89637 20.0727C6.02037 19.5457 4.43037 18.5847 3.23137 17.0637C2.04237 15.5537 1.46137 13.8237 1.40537 11.9057L4.88937 12.8797C4.95337 12.7497 4.93837 12.7797 5.00337 12.6497C3.33437 11.3147 2.13637 9.68471 1.70437 7.57271C1.27837 5.49471 1.51937 3.51271 2.60337 1.52871C7.18637 6.88771 12.9424 9.84971 20.0254 10.3577C19.6664 7.45371 19.8414 4.87971 22.5934 2.22771C25.7214 -0.787288 30.6604 -0.672288 33.9614 2.15071C34.4274 2.54871 34.8444 2.61371 35.3564 2.43071C36.8054 1.91371 38.2434 1.36971 39.7184 0.823712C39.1504 2.63171 37.9284 3.97471 36.4794 5.28271L40.7044 4.16471C40.7654 4.26971 40.7574 4.25671 40.8174 4.36171C39.7644 5.43971 38.7654 6.58071 37.6264 7.55971C37.0074 8.09271 36.7944 8.58671 36.7654 9.38671C36.4364 18.3807 32.7494 25.6377 24.8964 30.1907C16.9104 34.8217 8.66337 34.5487 0.562366 30.1297C0.411366 30.0467 0.280366 29.9287 0.000366211 29.7267Z" fill="#DFE6F2"/>
<path fill-rule="evenodd" clip-rule="evenodd" d="M26.413 39.235H43.609V22.039H26.413V39.235Z" fill="#DD3C3C"/>
<path d="M40.2603 25.3868L29.7603 35.8868M29.7603 25.3868L40.2603 35.8868L29.7603 25.3868Z" stroke="white" stroke-width="1.5"/>
</g>
<defs>
<clipPath id="clip0_2_876">
<rect width="44" height="40" fill="white"/>
</clipPath>
</defs>
</svg>
