<svg width="15" height="13" viewBox="0 0 15 13" fill="none" xmlns="http://www.w3.org/2000/svg">
<path d="M14 7.10001L1.5 7.10001C1.22386 7.10001 1 6.87615 1 6.60001C1 6.32386 1.22386 6.10001 1.5 6.10001L14 6.10001C14.2761 6.10001 14.5 6.32386 14.5 6.60001C14.5 6.87615 14.2761 7.10001 14 7.10001Z" fill="#DD3C3C"/>
<path d="M6.75358 11.8465C6.94884 12.0417 6.94884 12.3583 6.75358 12.5536C6.55832 12.7488 6.24173 12.7488 6.04647 12.5536L0.446471 6.95357C0.251209 6.7583 0.251209 6.44172 0.446471 6.24646L6.04647 0.646459C6.24173 0.451197 6.55832 0.451197 6.75358 0.646459C6.94884 0.841721 6.94884 1.1583 6.75358 1.35357L1.50713 6.60001L6.75358 11.8465Z" fill="#DD3C3C"/>
</svg>
