<svg width="516" height="514" viewBox="0 0 516 514" fill="none" xmlns="http://www.w3.org/2000/svg">
<path d="M319.7 192.3C333.8 205.3 342 224.3 342 243.8C342 255.5 340 264 334.9 274.5C325.8 293.3 307.9 307.8 288 312.4C269.5 316.8 248.2 312.7 232.3 301.9C230 300.3 227.9 299 227.6 299C227.3 299 227 317.8 227 340.8V382.5L239.8 395.2C246.8 402.2 254.4 408.8 256.8 410C266.3 414.7 278.7 414.4 288.1 409.3C291.2 407.7 316.4 383.1 364.3 335.2C425.6 273.8 436.3 262.7 438.4 258C439.8 255 441 251.6 441 250.4C441 246.7 423.3 231.3 406.8 220.6C394.6 212.7 373.7 202.8 359.2 198C348.5 194.5 330.4 190.3 318.9 188.7L315.2 188.2L319.7 192.3Z" fill="#DD3C3C"/>
<path d="M205 200.4C169.3 212.5 137 230.8 107.6 255.4L104.7 257.8L106.8 261.2C108 263 129.6 285.2 154.9 310.4L200.9 356.4L201.2 294.4C201.6 239.1 201.8 231.9 203.3 226.5C206.1 217.2 210 209.1 215.2 202.2C217.8 198.8 219.4 196 218.7 196.1C218 196.1 211.9 198 205 200.4Z" fill="#DD3C3C"/>
<path d="M260.1 200.6C236.3 207 222.3 231.4 228.6 255.5C234.2 277.1 256.4 291.6 278.4 288.1C303.1 284.1 319.9 261.5 316.1 237.3C312 210.6 286 193.6 260.1 200.6Z" fill="#DD3C3C"/>
</svg>
