<svg width="26" height="22" viewBox="0 0 26 22" fill="none" xmlns="http://www.w3.org/2000/svg">
<path fill-rule="evenodd" clip-rule="evenodd" d="M25.4211 11.4833L25.4208 11.5003C25.4208 11.506 25.4211 11.5113 25.4211 11.5171C25.4211 12.756 25.0391 13.9447 24.2857 15.0493C23.6092 16.0415 22.6615 16.919 21.4692 17.6587C19.1666 19.0866 16.1407 19.8727 12.9486 19.8727C11.8824 19.8727 10.8316 19.7853 9.81207 19.6121C9.17945 20.1866 8.43925 20.704 7.65595 21.1127C3.47074 23.0818 0 21.159 0 21.159C0 21.159 3.22689 18.5852 2.70213 16.3291C1.25829 14.9389 0.475982 13.2623 0.475982 11.5168C0.475982 11.5109 0.47628 11.5055 0.47628 11.5C0.47628 11.4944 0.475982 11.4887 0.475982 11.4833C0.475982 9.73784 1.25859 8.0612 2.70213 6.67069C3.22689 4.41486 0 1.84117 0 1.84117C0 1.84117 3.47074 -0.0819566 7.65595 1.88746C8.43935 2.29616 9.17974 2.81325 9.81207 3.38801C10.8314 3.21461 11.8824 3.12715 12.9486 3.12715C16.1405 3.12715 19.1667 3.91378 21.4692 5.34161C22.6615 6.08147 23.6092 6.95923 24.2856 7.95088C25.0391 9.05575 25.4211 10.2438 25.4211 11.4833ZM12.7105 5C6.82892 5 2.06087 7.97255 2.06117 11.6399C2.06117 13.2378 2.96652 14.704 4.47499 15.8494C4.73454 18.2382 3.5218 19.6883 2.70322 20.5465C5.21983 21.1678 7.81038 19.2452 8.98804 17.8625C10.1466 18.132 11.4009 18.2798 12.7105 18.2798C18.5918 18.2798 23.3599 15.3067 23.3599 11.6399C23.3599 7.97284 18.5918 5 12.7105 5ZM12.7105 13.6C11.9265 13.6 11.2909 12.8949 11.2909 12.0249C11.2909 11.1551 11.9265 10.45 12.7105 10.45C13.4946 10.45 14.1302 11.1551 14.1302 12.0249C14.1302 12.8949 13.4946 13.6 12.7105 13.6ZM17.6461 13.6C16.8621 13.6 16.2265 12.8949 16.2265 12.0249C16.2265 11.1551 16.8621 10.45 17.6461 10.45C18.4301 10.45 19.0658 11.1551 19.0658 12.0249C19.0658 12.8949 18.4301 13.6 17.6461 13.6ZM7.77464 13.5997C6.99072 13.5997 6.35526 12.8947 6.35526 12.0249C6.35526 11.1553 6.99072 10.4502 7.77474 10.4502C8.55857 10.4502 9.19402 11.1553 9.19402 12.0251C9.19402 12.8947 8.55857 13.5997 7.77464 13.5997Z" fill="#DD3C3C"/>
</svg>
