<svg width="18" height="18" viewBox="0 0 18 18" fill="none" xmlns="http://www.w3.org/2000/svg">
<path d="M7.5 1.5V7.5H1.5V1.5H7.5ZM8 1H1V8H8V1Z" fill="white" stroke="white" stroke-width="0.5"/>
<path d="M16.5 10.5V16.5H10.5V10.5H16.5ZM17 10H10V17H17V10Z" fill="white" stroke="white" stroke-width="0.5"/>
<path d="M7.5 10.5V16.5H1.5V10.5H7.5ZM8 10H1V17H8V10Z" fill="white" stroke="white" stroke-width="0.5"/>
<path d="M5.5 3.5H3.5V5.5H5.5V3.5Z" fill="white" stroke="white" stroke-width="0.5"/>
<path d="M5.5 12.5H3.5V14.5H5.5V12.5Z" fill="white" stroke="white" stroke-width="0.5"/>
<path d="M14.5 12.5H12.5V14.5H14.5V12.5Z" fill="white" stroke="white" stroke-width="0.5"/>
<path d="M12 6H10V8H12V6Z" fill="white" stroke="white" stroke-width="0.5"/>
<path d="M17 6H15V8H17V6Z" fill="white" stroke="white" stroke-width="0.5"/>
<path d="M14.5 3.5H12.5V5.5H14.5V3.5Z" fill="white" stroke="white" stroke-width="0.5"/>
<path d="M17 1H15V3H17V1Z" fill="white" stroke="white" stroke-width="0.5"/>
<path d="M12 1H10V3H12V1Z" fill="white" stroke="white" stroke-width="0.5"/>
</svg>
