<svg width="16" height="14" viewBox="0 0 16 14" fill="none" xmlns="http://www.w3.org/2000/svg">
<path fill-rule="evenodd" clip-rule="evenodd" d="M2.93541 5.58543C3.45668 3.30519 5.50937 1.60002 7.96442 1.60002C10.3954 1.60002 12.4299 3.27076 12.9769 5.51636L12.4195 4.97109C12.1827 4.73936 11.8028 4.74353 11.5711 4.9804C11.3393 5.21727 11.3435 5.59715 11.5804 5.82888L13.1517 7.36605C13.4797 7.68698 14.01 7.66672 14.3126 7.3217L15.6511 5.79561C15.8696 5.54648 15.8447 5.1674 15.5956 4.9489C15.3465 4.7304 14.9674 4.75523 14.7489 5.00435L14.222 5.60508C13.6898 2.644 11.0883 0.400024 7.96442 0.400024C4.94155 0.400024 2.40977 2.50008 1.76559 5.31801C1.69174 5.64105 1.89375 5.96279 2.21679 6.03663C2.53982 6.11048 2.86156 5.90847 2.93541 5.58543ZM7.96442 12.6538C5.76287 12.6538 3.8864 11.2835 3.14558 9.35687L3.55812 9.80593C3.78231 10.0499 4.16186 10.066 4.40589 9.84188C4.64992 9.61769 4.66601 9.23813 4.44183 8.9941L2.87981 7.2938C2.54664 6.93114 1.96804 6.95273 1.66283 7.33922L0.329095 9.02817C0.123729 9.28823 0.168067 9.66553 0.428127 9.8709C0.688187 10.0762 1.06549 10.0319 1.27086 9.77187L1.8043 9.09635C2.50598 11.833 4.99997 13.8538 7.96442 13.8538C10.9252 13.8538 13.4147 11.8391 14.1211 9.1089C14.2041 8.78811 14.0113 8.46074 13.6905 8.37774C13.3697 8.29473 13.0424 8.48751 12.9593 8.80831C12.3876 11.0182 10.3689 12.6538 7.96442 12.6538Z" fill="#DD3C3C"/>
</svg>
