<svg width="20" height="20" viewBox="0 0 20 20" fill="none" xmlns="http://www.w3.org/2000/svg">
<path fill-rule="evenodd" clip-rule="evenodd" d="M6.40588 3.94654V2.65C6.40588 1.73873 7.14461 1 8.05588 1H11.944C12.8553 1 13.594 1.73873 13.594 2.65V3.94654H17.8517C18.2107 3.94654 18.5017 4.23755 18.5017 4.59654C18.5017 4.95552 18.2107 5.24654 17.8517 5.24654H16.5381V17.3508C16.5381 18.262 15.7994 19.0008 14.8881 19.0008H5.11179C4.20052 19.0008 3.46179 18.262 3.46179 17.3508V5.24654H2.15C1.79101 5.24654 1.5 4.95552 1.5 4.59654C1.5 4.23755 1.79101 3.94654 2.15 3.94654H6.40588ZM7.70588 2.65C7.70588 2.4567 7.86258 2.3 8.05588 2.3H11.944C12.1373 2.3 12.294 2.4567 12.294 2.65V3.94654H7.70588V2.65Z" fill="#DD3C3C"/>
</svg>
