<svg width="20" height="20" viewBox="0 0 20 20" fill="none" xmlns="http://www.w3.org/2000/svg">
<path d="M9.75559 10.7544C9.56151 10.9508 9.24493 10.9528 9.04849 10.7587C8.85205 10.5646 8.85014 10.248 9.04421 10.0516C9.23829 9.85517 9.55487 9.85325 9.75131 10.0473C9.94775 10.2414 9.94966 10.558 9.75559 10.7544Z" fill="#DD3C3C"/>
<path fill-rule="evenodd" clip-rule="evenodd" d="M15.8695 9.33916C15.5395 9.67311 15.0013 9.67637 14.6674 9.34644L14.3377 9.02066L12.7058 13.2236C12.6276 13.4251 12.4661 13.5831 12.263 13.657L3.9406 16.6832C3.3857 16.8849 2.84565 16.3514 3.04068 15.7941L5.96589 7.4357C6.03731 7.23163 6.19331 7.06832 6.39389 6.98763L10.5768 5.30503L10.247 4.97925C9.91307 4.64932 9.90982 4.11114 10.2397 3.77719L11.746 2.25261C12.0759 1.91866 12.6141 1.9154 12.948 2.24533L17.3684 6.61252C17.7024 6.94245 17.7056 7.48063 17.3757 7.81458L15.8695 9.33916ZM8.67513 11.7167C9.24834 12.0333 9.98405 11.946 10.467 11.4572C11.0492 10.8679 11.0434 9.91817 10.4541 9.33594C9.86479 8.75371 8.91506 8.75945 8.33283 9.34877C7.89833 9.78857 7.79128 10.4291 8.00986 10.9678L4.64645 14.3311C4.45118 14.5263 4.45118 14.8429 4.64644 15.0382C4.84169 15.2334 5.15828 15.2334 5.35354 15.0382L8.67513 11.7167Z" fill="#DD3C3C"/>
</svg>
