<svg width="20" height="20" viewBox="0 0 20 20" fill="none" xmlns="http://www.w3.org/2000/svg">
<path fill-rule="evenodd" clip-rule="evenodd" d="M0.684235 18.0109C0.489203 18.5682 1.02925 19.1018 1.58415 18.9L12.2085 15.0368C12.4117 14.9629 12.5731 14.805 12.6513 14.6034L14.8289 8.99484L15.4786 9.63672C15.8126 9.96665 16.3508 9.9634 16.6807 9.62945L18.673 7.61283C19.003 7.27889 18.9997 6.74071 18.6658 6.41078L12.9658 0.77939C12.6318 0.44946 12.0937 0.452717 11.7637 0.786666L9.7714 2.80328C9.44147 3.13723 9.44473 3.67541 9.77868 4.00534L10.4284 4.64723L4.84656 6.89256C4.64598 6.97324 4.48998 7.13657 4.41856 7.34063L0.684235 18.0109ZM3.42632 16.8469L11.5298 13.9003L13.8207 7.9998L11.4355 5.64332L5.56318 8.00553L2.71487 16.1442L7.00311 11.8037C6.70681 11.1538 6.82336 10.361 7.35517 9.82274C8.04296 9.12657 9.16489 9.11978 9.86107 9.80757C10.5572 10.4953 10.564 11.6173 9.87623 12.3135C9.27758 12.9194 8.35003 13.0031 7.6606 12.5611L3.42632 16.8469ZM17.432 7.01929L16.0722 8.39567L11.0124 3.39682L12.3723 2.02044L17.432 7.01929ZM8.07315 11.6172C8.37644 11.9169 8.86522 11.9139 9.16486 11.6106C9.4645 11.3073 9.46154 10.8186 9.15825 10.5189C8.85496 10.2193 8.36618 10.2222 8.06654 10.5255C7.7669 10.8288 7.76986 11.3176 8.07315 11.6172Z" fill="#3B0E2A"/>
</svg>
