<svg width="18" height="16" viewBox="0 0 18 16" fill="none" xmlns="http://www.w3.org/2000/svg">
<mask id="mask0_2_1021" style="mask-type:alpha" maskUnits="userSpaceOnUse" x="0" y="0" width="18" height="16">
<path fill-rule="evenodd" clip-rule="evenodd" d="M0 3C0 1.34315 1.34315 0 3 0H15C16.6569 0 18 1.34315 18 3V13C18 14.6569 16.6569 16 15 16H3C1.34315 16 0 14.6569 0 13V3ZM8 1.29925C8.35898 1.29925 8.65 1.59026 8.65 1.94925V14.0508C8.65 14.4098 8.35898 14.7008 8 14.7008C7.64102 14.7008 7.35 14.4098 7.35 14.0508V1.94925C7.35 1.59026 7.64102 1.29925 8 1.29925ZM3 3.35C2.64102 3.35 2.35 3.64102 2.35 4C2.35 4.35898 2.64102 4.65 3 4.65H5C5.35898 4.65 5.65 4.35898 5.65 4C5.65 3.64102 5.35898 3.35 5 3.35H3ZM2.35 7C2.35 6.64102 2.64102 6.35 3 6.35H5C5.35898 6.35 5.65 6.64102 5.65 7C5.65 7.35898 5.35898 7.65 5 7.65H3C2.64102 7.65 2.35 7.35898 2.35 7ZM3 9.35C2.64102 9.35 2.35 9.64102 2.35 10C2.35 10.359 2.64102 10.65 3 10.65H5C5.35898 10.65 5.65 10.359 5.65 10C5.65 9.64102 5.35898 9.35 5 9.35H3Z" fill="white"/>
</mask>
<g mask="url(#mask0_2_1021)">
<path fill-rule="evenodd" clip-rule="evenodd" d="M0 3C0 1.34315 1.34315 0 3 0H15C16.6569 0 18 1.34315 18 3V13C18 14.6569 16.6569 16 15 16H3C1.34315 16 0 14.6569 0 13V3ZM8 1.29925C8.35898 1.29925 8.65 1.59026 8.65 1.94925V14.0508C8.65 14.4098 8.35898 14.7008 8 14.7008C7.64102 14.7008 7.35 14.4098 7.35 14.0508V1.94925C7.35 1.59026 7.64102 1.29925 8 1.29925ZM3 3.35C2.64102 3.35 2.35 3.64102 2.35 4C2.35 4.35898 2.64102 4.65 3 4.65H5C5.35898 4.65 5.65 4.35898 5.65 4C5.65 3.64102 5.35898 3.35 5 3.35H3ZM2.35 7C2.35 6.64102 2.64102 6.35 3 6.35H5C5.35898 6.35 5.65 6.64102 5.65 7C5.65 7.35898 5.35898 7.65 5 7.65H3C2.64102 7.65 2.35 7.35898 2.35 7ZM3 9.35C2.64102 9.35 2.35 9.64102 2.35 10C2.35 10.359 2.64102 10.65 3 10.65H5C5.35898 10.65 5.65 10.359 5.65 10C5.65 9.64102 5.35898 9.35 5 9.35H3Z" fill="#DD3C3C"/>
<path d="M2.99995 -1.29999C0.625127 -1.29999 -1.30005 0.625188 -1.30005 3.00001H1.29995C1.29995 2.06113 2.06107 1.30001 2.99995 1.30001V-1.29999ZM15 -1.29999H2.99995V1.30001H15V-1.29999ZM19.2999 3.00001C19.2999 0.625188 17.3748 -1.29999 15 -1.29999V1.30001C15.9389 1.30001 16.7 2.06113 16.7 3.00001H19.2999ZM19.2999 13V3.00001H16.7V13H19.2999ZM15 17.3C17.3748 17.3 19.2999 15.3748 19.2999 13H16.7C16.7 13.9389 15.9389 14.7 15 14.7V17.3ZM2.99995 17.3H15V14.7H2.99995V17.3ZM-1.30005 13C-1.30005 15.3748 0.625127 17.3 2.99995 17.3V14.7C2.06107 14.7 1.29995 13.9389 1.29995 13H-1.30005ZM-1.30005 3.00001V13H1.29995V3.00001H-1.30005ZM9.94995 1.94926C9.94995 0.872304 9.07691 -0.000741482 7.99995 -0.000741482V2.59926C7.64096 2.59926 7.34995 2.30824 7.34995 1.94926H9.94995ZM9.94995 14.0508V1.94926H7.34995V14.0508H9.94995ZM7.99995 16.0008C9.0769 16.0008 9.94995 15.1278 9.94995 14.0508H7.34995C7.34995 13.6918 7.64096 13.4008 7.99995 13.4008V16.0008ZM6.04995 14.0508C6.04995 15.1278 6.923 16.0008 7.99995 16.0008V13.4008C8.35893 13.4008 8.64995 13.6918 8.64995 14.0508H6.04995ZM6.04995 1.94926V14.0508H8.64995V1.94926H6.04995ZM7.99995 -0.000741482C6.923 -0.000741482 6.04995 0.872303 6.04995 1.94926H8.64995C8.64995 2.30824 8.35893 2.59926 7.99995 2.59926V-0.000741482ZM3.64995 4.00001C3.64995 4.359 3.35894 4.65001 2.99995 4.65001V2.05001C1.92299 2.05001 1.04995 2.92305 1.04995 4.00001H3.64995ZM2.99995 3.35001C3.35894 3.35001 3.64995 3.64102 3.64995 4.00001H1.04995C1.04995 5.07697 1.92299 5.95001 2.99995 5.95001V3.35001ZM4.99995 3.35001H2.99995V5.95001H4.99995V3.35001ZM4.34995 4.00001C4.34995 3.64102 4.64096 3.35001 4.99995 3.35001V5.95001C6.07691 5.95001 6.94995 5.07697 6.94995 4.00001H4.34995ZM4.99995 4.65001C4.64096 4.65001 4.34995 4.359 4.34995 4.00001H6.94995C6.94995 2.92305 6.07691 2.05001 4.99995 2.05001V4.65001ZM2.99995 4.65001H4.99995V2.05001H2.99995V4.65001ZM2.99995 5.05001C1.92299 5.05001 1.04995 5.92305 1.04995 7.00001H3.64995C3.64995 7.359 3.35894 7.65001 2.99995 7.65001V5.05001ZM4.99995 5.05001H2.99995V7.65001H4.99995V5.05001ZM6.94995 7.00001C6.94995 5.92305 6.07691 5.05001 4.99995 5.05001V7.65001C4.64096 7.65001 4.34995 7.359 4.34995 7.00001H6.94995ZM4.99995 8.95001C6.07691 8.95001 6.94995 8.07696 6.94995 7.00001H4.34995C4.34995 6.64102 4.64096 6.35001 4.99995 6.35001V8.95001ZM2.99995 8.95001H4.99995V6.35001H2.99995V8.95001ZM1.04995 7.00001C1.04995 8.07696 1.92299 8.95001 2.99995 8.95001V6.35001C3.35894 6.35001 3.64995 6.64102 3.64995 7.00001H1.04995ZM3.64995 10C3.64995 10.359 3.35893 10.65 2.99995 10.65V8.05001C1.923 8.05001 1.04995 8.92305 1.04995 10H3.64995ZM2.99995 9.35001C3.35893 9.35001 3.64995 9.64102 3.64995 10H1.04995C1.04995 11.077 1.923 11.95 2.99995 11.95V9.35001ZM4.99995 9.35001H2.99995V11.95H4.99995V9.35001ZM4.34995 10C4.34995 9.64102 4.64097 9.35001 4.99995 9.35001V11.95C6.0769 11.95 6.94995 11.077 6.94995 10H4.34995ZM4.99995 10.65C4.64097 10.65 4.34995 10.359 4.34995 10H6.94995C6.94995 8.92305 6.0769 8.05001 4.99995 8.05001V10.65ZM2.99995 10.65H4.99995V8.05001H2.99995V10.65Z" fill="#DD3C3C"/>
</g>
</svg>
