<svg width="20" height="20" viewBox="0 0 20 20" fill="none" xmlns="http://www.w3.org/2000/svg">
<path d="M4.0001 5.34998C3.64112 5.34998 3.3501 5.641 3.3501 5.99998C3.3501 6.35896 3.64112 6.64998 4.0001 6.64998H6.0001C6.35908 6.64998 6.6501 6.35896 6.6501 5.99998C6.6501 5.641 6.35908 5.34998 6.0001 5.34998H4.0001Z" fill="#3B0E2A"/>
<path d="M3.3501 8.99998C3.3501 8.641 3.64112 8.34998 4.0001 8.34998H6.0001C6.35908 8.34998 6.6501 8.641 6.6501 8.99998C6.6501 9.35896 6.35908 9.64997 6.0001 9.64997H4.0001C3.64112 9.64997 3.3501 9.35896 3.3501 8.99998Z" fill="#3B0E2A"/>
<path d="M4.0001 11.35C3.64112 11.35 3.3501 11.641 3.3501 12C3.3501 12.359 3.64112 12.65 4.0001 12.65H6.0001C6.35908 12.65 6.6501 12.359 6.6501 12C6.6501 11.641 6.35908 11.35 6.0001 11.35H4.0001Z" fill="#3B0E2A"/>
<path fill-rule="evenodd" clip-rule="evenodd" d="M4 2C2.34315 2 1 3.34315 1 5V15C1 16.6569 2.34315 18 4 18H16C17.6569 18 19 16.6569 19 15V5C19 3.34315 17.6569 2 16 2H4ZM16 3.3H9.65V10V16.7H16C16.9389 16.7 17.7 15.9389 17.7 15V5C17.7 4.06112 16.9389 3.3 16 3.3ZM4 16.7H8.35V3.3H4C3.06112 3.3 2.3 4.06112 2.3 5V15C2.3 15.9389 3.06112 16.7 4 16.7Z" fill="#3B0E2A"/>
</svg>
