<svg width="14" height="14" viewBox="0 0 14 14" fill="none" xmlns="http://www.w3.org/2000/svg">
<path opacity="0.1" d="M14 0H0V14H14V0Z" fill="white" fill-opacity="0.1"/>
<path d="M10 1H4C2.34315 1 1 2.34315 1 4V10C1 11.6569 2.34315 13 4 13H10C11.6569 13 13 11.6569 13 10V4C13 2.34315 11.6569 1 10 1Z" stroke="#C1365B" stroke-linecap="round"/>
<path d="M6.31613 8.07799V7.94429C6.31613 7.23398 6.6 6.9415 7.09032 6.56546L7.36559 6.35655C7.64946 6.13928 7.8129 5.97215 7.8129 5.64624C7.8129 5.31198 7.59785 4.98607 7.02151 4.98607C6.46237 4.98607 6.16989 5.26184 6.16989 5.80501H5C5 4.79387 5.65376 4 7.02151 4C8.23441 4 9 4.67688 9 5.58774C9 6.13092 8.75914 6.54875 8.34624 6.85794L7.98495 7.1337C7.60645 7.41783 7.43441 7.56825 7.43441 7.94429V8.07799H6.31613ZM6.90968 10C6.45376 10 6.2129 9.74095 6.2129 9.31476C6.2129 8.90529 6.45376 8.64624 6.90968 8.64624C7.35699 8.64624 7.60645 8.90529 7.60645 9.31476C7.60645 9.74095 7.35699 10 6.90968 10Z" fill="#C1365B"/>
</svg>
