<svg width="20" height="20" viewBox="0 0 20 20" fill="none" xmlns="http://www.w3.org/2000/svg">
<path d="M1.00024 5.91628L0.807954 5.45474C0.621621 5.53237 0.500244 5.71442 0.500244 5.91628H1.00024ZM8.00024 16.9998L7.80793 17.4614C7.93102 17.5127 8.06949 17.5127 8.19257 17.4614L8.00024 16.9998ZM1.00024 14.0831H0.500244C0.500244 14.285 0.621611 14.467 0.807933 14.5447L1.00024 14.0831ZM14.9999 5.91626L15.4999 5.91625C15.4999 5.7144 15.3785 5.53234 15.1922 5.45471L14.9999 5.91626ZM8.00007 3L8.19236 2.53845C8.06929 2.48718 7.93084 2.48718 7.80778 2.53845L8.00007 3ZM11.0001 10.6665L10.8078 10.2049C10.6215 10.2826 10.5001 10.4646 10.5001 10.6665H11.0001ZM15.0001 17L14.8078 17.4615C14.9309 17.5128 15.0694 17.5128 15.1924 17.4615L15.0001 17ZM11.0001 15.3333H10.5001C10.5001 15.5351 10.6215 15.7172 10.8078 15.7948L11.0001 15.3333ZM18.9999 10.6665H19.4999C19.4999 10.4646 19.3786 10.2826 19.1922 10.2049L18.9999 10.6665ZM18.9999 15.3333L19.1923 15.7948C19.3786 15.7172 19.4999 15.5351 19.4999 15.3333H18.9999ZM0.807933 6.37782L7.80793 9.29454L8.19255 8.37146L1.19255 5.45474L0.807933 6.37782ZM7.50024 8.833V16.9998H8.50024V8.833H7.50024ZM8.19255 16.5383L1.19255 13.6216L0.807933 14.5447L7.80793 17.4614L8.19255 16.5383ZM1.50024 14.0831V5.91628H0.500244V14.0831H1.50024ZM14.8076 5.45473L7.80792 8.37146L8.19256 9.29453L15.1922 6.37779L14.8076 5.45473ZM15.5 8.99999L15.4999 5.91625L14.4999 5.91627L14.5 9.00001L15.5 8.99999ZM15.4999 14.0831V12.4414H14.4999V14.0831H15.4999ZM8.19257 17.4614L11.6922 16.003L11.3076 15.0799L7.80792 16.5383L8.19257 17.4614ZM7.80778 2.53845L0.807954 5.45474L1.19253 6.37783L8.19236 3.46155L7.80778 2.53845ZM15.1922 5.45471L8.19236 2.53845L7.80778 3.46155L14.8076 6.37781L15.1922 5.45471ZM10.8078 11.128L14.8078 12.7947L15.1924 11.8717L11.1924 10.2049L10.8078 11.128ZM14.5001 12.3332V17H15.5001V12.3332H14.5001ZM15.1924 16.5384L11.1924 14.8717L10.8078 15.7948L14.8078 17.4615L15.1924 16.5384ZM11.5001 15.3333V10.6665H10.5001V15.3333H11.5001ZM18.8076 10.2049L14.8078 11.8717L15.1924 12.7947L19.1923 11.128L18.8076 10.2049ZM15.1924 17.4615L19.1923 15.7948L18.8076 14.8717L14.8078 16.5384L15.1924 17.4615ZM19.4999 15.3333V10.6665H18.4999V15.3333H19.4999ZM14.8077 8.53846L10.8078 10.2049L11.1924 11.128L15.1923 9.46155L14.8077 8.53846ZM19.1922 10.2049L15.1923 8.53845L14.8077 9.46155L18.8077 11.128L19.1922 10.2049Z" fill="#3B0E2A"/>
</svg>
