<svg width="20" height="20" viewBox="0 0 20 20" fill="none" xmlns="http://www.w3.org/2000/svg">
<path d="M6.20464 3.47898L4.8775 4.83281H13.0219C13.657 4.83281 14.1719 5.34768 14.1719 5.98281C14.1719 6.61793 13.657 7.13281 13.0219 7.13281H4.8742L6.20463 8.49003C6.64923 8.94359 6.64922 9.67895 6.20461 10.1325C5.76 10.586 5.03916 10.586 4.59455 10.1325L1.33345 6.80569C1.11994 6.58788 0.999997 6.29247 1 5.98445C1 5.67643 1.11995 5.38102 1.33346 5.16322L4.59459 1.8365C5.0392 1.38295 5.76005 1.38295 6.20465 1.83651C6.64925 2.29007 6.64925 3.02543 6.20464 3.47898Z" fill="#DD3C3C"/>
<path d="M13.7952 11.51L15.1223 12.8638H6.97813C6.34301 12.8638 5.82812 13.3787 5.82812 14.0138C5.82812 14.6489 6.34301 15.1638 6.97813 15.1638H15.1256L13.7952 16.521C13.3506 16.9746 13.3506 17.7099 13.7952 18.1635C14.2398 18.617 14.9607 18.617 15.4053 18.1635L18.6664 14.8367C18.8799 14.6189 18.9998 14.3234 18.9998 14.0154C18.9998 13.7074 18.8799 13.412 18.6664 13.1942L15.4052 9.8675C14.9606 9.41395 14.2398 9.41396 13.7952 9.86752C13.3506 10.321 13.3506 11.0564 13.7952 11.51Z" fill="#DD3C3C"/>
</svg>
