<svg width="20" height="20" viewBox="0 0 20 20" fill="none" xmlns="http://www.w3.org/2000/svg">
<path d="M5.36085 3.12184L3.19355 5.33273H12.5281C12.8871 5.33273 13.1781 5.62375 13.1781 5.98273C13.1781 6.34172 12.8871 6.63273 12.5281 6.63273H3.19028L5.36083 8.84701C5.61213 9.10337 5.61213 9.519 5.36083 9.77536C5.10953 10.0318 4.70209 10.0318 4.45079 9.77535L1.18969 6.44856C1.06901 6.32545 1.00122 6.15848 1.00122 5.98438C1.00122 5.81028 1.06902 5.64331 1.18969 5.5202L4.45083 2.19348C4.70213 1.93713 5.10956 1.93713 5.36086 2.19349C5.61216 2.44985 5.61215 2.86549 5.36085 3.12184Z" fill="#3B0E2A"/>
<path d="M14.6392 11.1529L16.8065 13.3638H7.47202C7.11303 13.3638 6.82202 13.6548 6.82202 14.0138C6.82202 14.3728 7.11303 14.6638 7.47202 14.6638H16.8098L14.6392 16.8781C14.3879 17.1344 14.3879 17.5501 14.6392 17.8064C14.8905 18.0628 15.2979 18.0628 15.5492 17.8064L18.8104 14.4796C18.931 14.3565 18.9988 14.1895 18.9988 14.0154C18.9988 13.8413 18.931 13.6744 18.8103 13.5513L15.5492 10.2245C15.2979 9.96814 14.8905 9.96815 14.6392 10.2245C14.3879 10.4809 14.3879 10.8965 14.6392 11.1529Z" fill="#3B0E2A"/>
</svg>
