<svg width="40" height="40" viewBox="0 0 40 40" fill="none" xmlns="http://www.w3.org/2000/svg">
<g clip-path="url(#clip0_2_446)">
<path opacity="0.01" fill-rule="evenodd" clip-rule="evenodd" d="M-8 -8H48V48H-8V-8Z" fill="white" fill-opacity="0.01"/>
<path fill-rule="evenodd" clip-rule="evenodd" d="M12.935 20L2.31797 9.38301C1.38063 8.44801 0.853016 7.17902 0.85114 5.85508C0.849265 4.53114 1.37329 3.26065 2.30797 2.323C3.24566 1.38801 4.51636 0.863796 5.84055 0.865671C7.16473 0.867547 8.43394 1.39536 9.36897 2.333L19.986 12.949L30.602 2.33201C31.065 1.86758 31.6149 1.49891 32.2204 1.24706C32.8259 0.995206 33.4751 0.8651 34.1309 0.864171C34.7867 0.863243 35.4362 0.99151 36.0424 1.24165C36.6487 1.49179 37.1997 1.85889 37.664 2.32201C38.599 3.25969 39.1232 4.53039 39.1213 5.85458C39.1194 7.17876 38.5916 8.44797 37.654 9.38301L27.037 20L37.654 30.617C38.5913 31.552 39.1189 32.821 39.1208 34.1449C39.1227 35.4689 38.5987 36.7394 37.664 37.677C37.1997 38.1401 36.6487 38.5072 36.0424 38.7574C35.4362 39.0075 34.7867 39.1358 34.1309 39.1348C33.4751 39.1339 32.8259 39.0038 32.2204 38.7519C31.6149 38.5001 31.065 38.1314 30.602 37.667L19.986 27.052L9.36897 37.668C8.43398 38.6053 7.16498 39.133 5.84104 39.1348C4.5171 39.1367 3.24662 38.6127 2.30897 37.678C1.37398 36.7403 0.849765 35.4696 0.85164 34.1454C0.853516 32.8212 1.38133 31.552 2.31897 30.617L12.934 20H12.935Z" stroke="#3B0E2A"/>
</g>
<defs>
<clipPath id="clip0_2_446">
<rect width="40" height="40" fill="white"/>
</clipPath>
</defs>
</svg>
