<svg width="50" height="50" viewBox="0 0 50 50" fill="none" xmlns="http://www.w3.org/2000/svg">
<g clip-path="url(#clip0_2_475)">
<path d="M25 50C11.1929 50 0 38.8071 0 25C0 11.1929 11.1929 0 25 0C38.8071 0 50 11.1929 50 25C50 38.8071 38.8071 50 25 50Z" fill="#DD3C3C"/>
<path d="M34 11C34.4308 11 34.78 11.3492 34.78 11.78V13.22H36.22C36.6508 13.22 37 13.5692 37 14C37 14.4308 36.6508 14.78 36.22 14.78H34.78V16.22C34.78 16.6508 34.4308 17 34 17C33.5692 17 33.22 16.6508 33.22 16.22V14.78H31.78C31.3492 14.78 31 14.4308 31 14C31 13.5692 31.3492 13.22 31.78 13.22H33.22V11.78C33.22 11.3492 33.5692 11 34 11Z" fill="white"/>
<circle cx="25" cy="17" r="3.5" fill="#DD3C3C" stroke="white"/>
<path d="M34.4 36.4737V31.7368V31.7368C34.4 29.1208 32.2792 27 29.6632 27H20.7368C18.1208 27 16 29.1208 16 31.7368V31.7368V36.4737" stroke="white"/>
</g>
<defs>
<clipPath id="clip0_2_475">
<rect width="50" height="50" fill="white"/>
</clipPath>
</defs>
</svg>
