<svg width="24" height="24" viewBox="0 0 24 24" fill="none" xmlns="http://www.w3.org/2000/svg">
<path fill-rule="evenodd" clip-rule="evenodd" d="M20 0H4C2.93913 0 1.92172 0.421427 1.17157 1.17157C0.421427 1.92172 0 2.93913 0 4L0 20C0 21.0609 0.421427 22.0783 1.17157 22.8284C1.92172 23.5786 2.93913 24 4 24H20C21.0609 24 22.0783 23.5786 22.8284 22.8284C23.5786 22.0783 24 21.0609 24 20V4C24 2.93913 23.5786 1.92172 22.8284 1.17157C22.0783 0.421427 21.0609 0 20 0Z" fill="#FF8F8F" fill-opacity="0.5"/>
<path fill-rule="evenodd" clip-rule="evenodd" d="M7.99 11H19C19.55 11 20 11.45 20 12C20 12.55 19.55 13 19 13H7.99V14.79C7.99 15.24 7.45 15.46 7.14 15.14L4.36 12.35C4.26844 12.2545 4.21733 12.1273 4.21733 11.995C4.21733 11.8627 4.26844 11.7355 4.36 11.64L7.14 8.85C7.45 8.53 7.99 8.76 7.99 9.2V11Z" fill="#DD3C3C"/>
</svg>
