<svg width="24" height="24" viewBox="0 0 24 24" fill="none" xmlns="http://www.w3.org/2000/svg">
<path fill-rule="evenodd" clip-rule="evenodd" d="M4 0H20C21.0609 0 22.0783 0.421427 22.8284 1.17157C23.5786 1.92172 24 2.93913 24 4V20C24 21.0609 23.5786 22.0783 22.8284 22.8284C22.0783 23.5786 21.0609 24 20 24H4C2.93913 24 1.92172 23.5786 1.17157 22.8284C0.421427 22.0783 0 21.0609 0 20V4C0 2.93913 0.421427 1.92172 1.17157 1.17157C1.92172 0.421427 2.93913 0 4 0V0Z" fill="#FF8F8F" fill-opacity="0.5"/>
<path fill-rule="evenodd" clip-rule="evenodd" d="M16.01 11H5C4.45 11 4 11.45 4 12C4 12.55 4.45 13 5 13H16.01V14.79C16.01 15.24 16.55 15.46 16.86 15.14L19.64 12.35C19.83 12.15 19.83 11.84 19.64 11.64L16.86 8.85C16.55 8.53 16.01 8.76 16.01 9.2V11Z" fill="#DD3C3C"/>
</svg>
