<svg width="50" height="50" viewBox="0 0 50 50" fill="none" xmlns="http://www.w3.org/2000/svg">
<g clip-path="url(#clip0_2_494)">
<path d="M25 50C11.1929 50 0 38.8071 0 25C0 11.1929 11.1929 0 25 0C38.8071 0 50 11.1929 50 25C50 38.8071 38.8071 50 25 50Z" fill="#DD3C3C"/>
<path d="M37.4769 13.3595C37.7875 13.0485 37.7875 12.5443 37.4769 12.2332C37.1663 11.9223 36.6626 11.9223 36.3519 12.2332L32.6311 15.9584L31.3579 14.6837C31.0473 14.3727 30.5436 14.3727 30.233 14.6837C29.9223 14.9947 29.9223 15.499 30.233 15.8101L32.0687 17.6478C32.3793 17.9588 32.883 17.9588 33.1936 17.6478L37.4769 13.3595Z" fill="white"/>
<circle cx="25" cy="19" r="3.5" fill="#DD3C3C" stroke="white"/>
<path d="M34.4 38.4737V33.7368V33.7368C34.4 31.1208 32.2792 29 29.6632 29H20.7368C18.1208 29 16 31.1208 16 33.7368V33.7368V38.4737" stroke="white"/>
</g>
<defs>
<clipPath id="clip0_2_494">
<rect width="50" height="50" fill="white"/>
</clipPath>
</defs>
</svg>
