<svg width="13" height="13" viewBox="0 0 13 13" fill="none" xmlns="http://www.w3.org/2000/svg">
<path d="M9.07627 1.05927C9.33986 1.28934 9.56004 1.56576 9.73227 1.88927L9.09679 2.52475C8.95452 2.17023 8.75471 1.90021 8.52061 1.69588C8.03627 1.27313 7.33799 1.07254 6.50034 1.07254C5.6627 1.07254 4.96442 1.27313 4.48008 1.69588C4.03916 2.08072 3.71987 2.69862 3.67761 3.67513H7.94641L7.10141 4.52013H2.92534C2.31507 4.52013 1.82034 5.01486 1.82034 5.62513V9.8012L1.0414 10.5801C0.998313 10.419 0.975342 10.2497 0.975342 10.075V5.62513C0.975342 4.57951 1.79834 3.7261 2.8319 3.67733C2.87516 2.50518 3.26321 1.6364 3.92442 1.05927C4.61634 0.455334 5.54307 0.227539 6.50034 0.227539C7.45762 0.227539 8.38434 0.455334 9.07627 1.05927Z" fill="#DD3C3C"/>
<path d="M6.07768 8.48225C6.03366 8.46713 5.99071 8.44971 5.94897 8.43014L6.73979 7.63932C6.7995 7.60226 6.85 7.55176 6.88706 7.49205L7.67788 6.70123C7.75634 6.86858 7.80018 7.05539 7.80018 7.25244C7.80018 7.82251 7.43325 8.30688 6.92268 8.48225V9.75005C6.92268 9.98339 6.73352 10.1725 6.50018 10.1725C6.26684 10.1725 6.07768 9.98339 6.07768 9.75005V8.48225Z" fill="#DD3C3C"/>
<path d="M10.0752 11.18H3.19913L2.42017 11.959C2.58126 12.0021 2.75056 12.025 2.92523 12.025H10.0752C11.1522 12.025 12.0252 11.152 12.0252 10.075V5.6251C12.0252 4.73918 11.4344 3.99124 10.6253 3.75378L9.85901 4.5201H10.0752C10.6855 4.5201 11.1802 5.01483 11.1802 5.6251V10.075C11.1802 10.6853 10.6855 11.18 10.0752 11.18Z" fill="#DD3C3C"/>
<path d="M11.999 1.59882C12.164 1.43382 12.164 1.16631 11.999 1.00131C11.834 0.836315 11.5665 0.836315 11.4015 1.00131L0.676482 11.7263C0.511485 11.8913 0.511485 12.1588 0.676482 12.3238C0.841478 12.4888 1.10899 12.4888 1.27399 12.3238L11.999 1.59882Z" fill="#DD3C3C"/>
</svg>
