<svg width="27" height="27" viewBox="0 0 27 27" fill="none" xmlns="http://www.w3.org/2000/svg">
<path opacity="0.05" fill-rule="evenodd" clip-rule="evenodd" d="M0 0H27V27H0V0Z" fill="white" fill-opacity="0.05"/>
<path d="M13.5 14.156C15.312 14.156 16.781 12.687 16.781 10.875C16.781 9.06295 15.312 7.59399 13.5 7.59399C11.6879 7.59399 10.219 9.06295 10.219 10.875C10.219 12.687 11.6879 14.156 13.5 14.156Z" stroke="#3B0E2A" stroke-linecap="round" stroke-linejoin="round"/>
<path d="M20 20.878C19.4129 19.6521 18.4911 18.6172 17.3409 17.8928C16.1908 17.1684 14.8593 16.784 13.5 16.784C12.1407 16.784 10.8092 17.1684 9.65908 17.8928C8.50895 18.6172 7.58712 19.6521 7 20.878" stroke="#3B0E2A" stroke-linecap="round" stroke-linejoin="round"/>
<path d="M13.5 23.344C18.9367 23.344 23.344 18.9367 23.344 13.5C23.344 8.06331 18.9367 3.65601 13.5 3.65601C8.06331 3.65601 3.65601 8.06331 3.65601 13.5C3.65601 18.9367 8.06331 23.344 13.5 23.344Z" stroke="#3B0E2A" stroke-linecap="round" stroke-linejoin="round"/>
</svg>
