<svg width="19" height="16" viewBox="0 0 19 16" fill="none" xmlns="http://www.w3.org/2000/svg">
<path d="M1.36438 1.75L1.36438 2.75C1.36438 3.30228 1.8121 3.75 2.36438 3.75L17.3644 3.75C17.9167 3.75 18.3644 3.30228 18.3644 2.75V1.75C18.3644 1.19772 17.9167 0.75 17.3644 0.75L2.36438 0.75C1.8121 0.75 1.36438 1.19772 1.36438 1.75Z" stroke="#DD3C3C"/>
<path d="M1.36438 7.25L1.36438 8.25C1.36438 8.80228 1.8121 9.25 2.36438 9.25L17.3644 9.25C17.9167 9.25 18.3644 8.80228 18.3644 8.25V7.25C18.3644 6.69772 17.9167 6.25 17.3644 6.25L2.36438 6.25C1.8121 6.25 1.36438 6.69772 1.36438 7.25Z" stroke="#DD3C3C"/>
<path d="M1.36438 12.75L1.36438 13.75C1.36438 14.3023 1.8121 14.75 2.36438 14.75L17.3644 14.75C17.9167 14.75 18.3644 14.3023 18.3644 13.75V12.75C18.3644 12.1977 17.9167 11.75 17.3644 11.75H2.36438C1.8121 11.75 1.36438 12.1977 1.36438 12.75Z" stroke="#DD3C3C"/>
</svg>
