<svg width="17" height="17" viewBox="0 0 17 17" fill="none" xmlns="http://www.w3.org/2000/svg">
<path d="M8.5 16C12.6421 16 16 12.6421 16 8.5C16 4.35786 12.6421 1 8.5 1C4.35786 1 1 4.35786 1 8.5C1 12.6421 4.35786 16 8.5 16Z" stroke="#DD3C3C"/>
<path d="M9 4.5C9 4.22386 8.77614 4 8.5 4C8.22386 4 8 4.22386 8 4.5V8.5C8 8.77614 8.22386 9 8.5 9C8.77614 9 9 8.77614 9 8.5V4.5Z" fill="#DD3C3C"/>
<path d="M9 11.5C9 11.2239 8.77614 11 8.5 11C8.22386 11 8 11.2239 8 11.5V12.5C8 12.7761 8.22386 13 8.5 13C8.77614 13 9 12.7761 9 12.5V11.5Z" fill="#DD3C3C"/>
</svg>
