<svg width="19" height="17" viewBox="0 0 19 17" fill="none" xmlns="http://www.w3.org/2000/svg">
<path fill-rule="evenodd" clip-rule="evenodd" d="M11.0943 1.93698L17.0792 13.0518C17.6029 14.0243 17.239 15.2373 16.2664 15.7609C15.975 15.9179 15.6492 16 15.3182 16H3.34845C2.24388 16 1.34845 15.1046 1.34845 14C1.34845 13.669 1.43059 13.3432 1.58751 13.0518L7.57241 1.93698C8.09608 0.964443 9.30901 0.600566 10.2815 1.12424C10.6262 1.3098 10.9087 1.59238 11.0943 1.93698Z" stroke="white" stroke-width="1.5" stroke-linecap="square"/>
<path d="M9.33334 5.33333V9.99999" stroke="white" stroke-width="1.5" stroke-linecap="round"/>
<path d="M9.33334 13.6667C9.88563 13.6667 10.3333 13.2189 10.3333 12.6667C10.3333 12.1144 9.88563 11.6667 9.33334 11.6667C8.78106 11.6667 8.33334 12.1144 8.33334 12.6667C8.33334 13.2189 8.78106 13.6667 9.33334 13.6667Z" fill="white"/>
</svg>
