<svg width="516" height="322" viewBox="0 0 516 322" fill="none" xmlns="http://www.w3.org/2000/svg">
<g clip-path="url(#clip0_798_1887)">
<path d="M310.538 140.433L329.001 208.5" stroke="#FF8F8F" stroke-width="44" stroke-linecap="round"/>
<path d="M152.156 174.275L138.374 236.12" stroke="#C1365B" stroke-width="44" stroke-linecap="round"/>
<path d="M219.863 84.4801C225.476 79.7655 232.607 78.3471 238.455 80.7819L319.914 114.693C327.777 117.966 331.341 127.304 328.319 136.712L302.001 218.629C299.485 226.463 292.936 232.579 285.476 234.063L183.506 254.346C176.046 255.83 169.182 252.382 166.184 245.645L134.839 175.197C131.239 167.107 134.145 156.482 141.69 150.144L219.863 84.4801Z" fill="#C1365B"/>
<g filter="url(#filter0_di_798_1887)">
<path d="M187.497 96C181.77 92.3449 183.111 83.9636 187.497 77.5L211.996 42.5C218.426 33.023 233.797 29.5193 240.5 36.5L274.869 68.3434C279.197 72.851 278.701 80.1719 273.683 85.8382C252.113 110.195 240.561 119.071 206.096 106.474C204.368 105.843 202.729 105.045 201.202 104.138L187.497 96Z" fill="#FF8F8F"/>
</g>
<path d="M219.007 76.4451C216.114 74.101 215.623 69.5591 217.945 66.6288L226.29 56.0973C228.454 53.3662 232.237 53.1021 234.778 55.5047L243.72 63.961C246.283 66.385 246.616 70.6084 244.465 73.3943L236.825 83.2869C234.789 85.9233 231.228 86.3485 228.654 84.2626L219.007 76.4451Z" fill="white"/>
<path d="M297.001 228L308.501 289.5M297.001 228C295.401 223.6 296.334 220.5 297.001 219.5L297.001 228Z" stroke="#C1365B" stroke-width="5" stroke-linecap="round"/>
<path d="M328.5 209L317 274" stroke="#FF8F8F" stroke-width="44" stroke-linecap="round"/>
<path d="M202.607 188.706L219.334 248.249" stroke="#710A3C" stroke-width="44" stroke-linecap="round"/>
<path d="M41.582 203.707L26.5781 263.707" stroke="#710A3C" stroke-width="44" stroke-linecap="round"/>
<path d="M111.689 122.23C117.455 118.196 124.703 117.625 130.587 120.743L212.541 164.166C220.452 168.357 223.906 178.083 220.685 187.101L192.644 265.621C189.962 273.13 183.225 278.451 175.642 279.047L71.9949 287.205C64.4117 287.801 57.5159 283.554 54.5924 276.486L24.0233 202.579C20.5125 194.091 23.6349 183.847 31.3863 178.423L111.689 122.23Z" fill="#FF7D7D"/>
<g filter="url(#filter1_di_798_1887)">
<path d="M80.788 137.064C75.0482 132.745 74.1698 125.173 78.7215 119.25L109.63 79.0329C116.304 70.3491 130.405 69.3613 137.079 77.11L167.69 112.653C171.999 117.656 171.373 124.893 166.194 129.946L-nan -nanL-nan -nanL166.194 129.946C143.38 152.205 105.481 155.646 81.544 137.633L80.788 137.064Z" fill="#710A3C"/>
</g>
<path d="M110.419 114.476C107.778 112.09 107.7 107.607 110.249 104.787L119.412 94.6518C121.788 92.0236 125.539 91.8675 127.827 94.3016L135.882 102.869C138.191 105.325 138.142 109.49 135.774 112.173L127.363 121.698C125.121 124.237 121.575 124.558 119.225 122.434L110.419 114.476Z" fill="white"/>
<path d="M33.5781 260.207L82.5781 207.707H93.0781" stroke="#710A3C" stroke-width="44" stroke-linecap="round"/>
<rect x="211" y="249.355" width="85.3553" height="85.3553" rx="10" transform="rotate(-45 211 249.355)" fill="url(#paint0_linear_798_1887)"/>
<rect x="222.981" y="260.628" width="68.6196" height="68.4131" rx="9.5" transform="rotate(-45 222.981 260.628)" fill="url(#paint1_linear_798_1887)" stroke="#710A3C"/>
<rect x="234.254" y="271.901" width="53.2832" height="54.2373" rx="9.5" transform="rotate(-45 234.254 271.901)" fill="url(#paint2_linear_798_1887)" stroke="#710A3C"/>
<rect x="245.527" y="283.174" width="37.6579" height="34.5331" rx="9.5" transform="rotate(-45 245.527 283.174)" fill="url(#paint3_linear_798_1887)" stroke="#710A3C"/>
<rect x="56" y="271" width="433" height="24" fill="#FF8F8F" stroke="#C1365B" stroke-width="2"/>
<rect x="55" y="270" width="135" height="26" fill="#C1365B"/>
<rect width="121" height="84" transform="matrix(0.995805 -0.0915016 -0.49758 0.867418 395.797 110.072)" fill="url(#paint4_linear_798_1887)"/>
<rect x="0.249113" y="0.387958" width="42" height="52" transform="matrix(0.995805 -0.0915016 -0.49758 0.867418 451.264 117.393)" stroke="#C1365B"/>
<rect x="0.249113" y="0.387958" width="31" height="36" transform="matrix(0.995805 -0.0915016 -0.49758 0.867418 402.468 121.876)" stroke="#C1365B"/>
<path fill-rule="evenodd" clip-rule="evenodd" d="M456.793 239.663L339.964 250.398L385.968 171.735L502.797 161L456.793 239.663Z" fill="#FF8F8F"/>
<path fill-rule="evenodd" clip-rule="evenodd" d="M340.043 250.391L331.001 251.222L377.004 172.559L386.047 171.728L340.043 250.391Z" fill="url(#paint5_linear_798_1887)"/>
<rect x="411.582" y="205.017" width="18.9469" height="14.7314" rx="4" transform="matrix(0.950423 -0.777703 0.310959 0.628631 -43.347 396.226)" fill="url(#paint6_linear_798_1887)"/>
<path opacity="0.35" fill-rule="evenodd" clip-rule="evenodd" d="M425.601 203.63C425.005 204.649 423.569 205.562 422.394 205.67C421.219 205.778 420.75 205.04 421.345 204.021C421.941 203.003 423.377 202.09 424.552 201.982C425.727 201.874 426.196 202.612 425.601 203.63ZM419.86 206.562C420.237 206.884 420.842 207.038 421.637 206.965C423.637 206.781 426.08 205.227 427.094 203.493C428.108 201.759 427.309 200.503 425.309 200.687C423.39 200.863 421.063 202.301 419.982 203.949L419.974 203.949L419.852 204.159L415.633 211.372L416.388 212.499L419.86 206.562Z" fill="#FF8F8F"/>
</g>
<defs>
<filter id="filter0_di_798_1887" x="183.688" y="32.8267" width="96.1211" height="87.351" filterUnits="userSpaceOnUse" color-interpolation-filters="sRGB">
<feFlood flood-opacity="0" result="BackgroundImageFix"/>
<feColorMatrix in="SourceAlpha" type="matrix" values="0 0 0 0 0 0 0 0 0 0 0 0 0 0 0 0 0 0 127 0" result="hardAlpha"/>
<feOffset dx="2" dy="8"/>
<feComposite in2="hardAlpha" operator="out"/>
<feColorMatrix type="matrix" values="0 0 0 0 1 0 0 0 0 1 0 0 0 0 1 0 0 0 1 0"/>
<feBlend mode="normal" in2="BackgroundImageFix" result="effect1_dropShadow_798_1887"/>
<feBlend mode="normal" in="SourceGraphic" in2="effect1_dropShadow_798_1887" result="shape"/>
<feColorMatrix in="SourceAlpha" type="matrix" values="0 0 0 0 0 0 0 0 0 0 0 0 0 0 0 0 0 0 127 0" result="hardAlpha"/>
<feOffset dx="-2" dy="-10"/>
<feComposite in2="hardAlpha" operator="arithmetic" k2="-1" k3="1"/>
<feColorMatrix type="matrix" values="0 0 0 0 0.443137 0 0 0 0 0.0392157 0 0 0 0 0.235294 0 0 0 1 0"/>
<feBlend mode="normal" in2="shape" result="effect2_innerShadow_798_1887"/>
</filter>
<filter id="filter1_di_798_1887" x="75.8164" y="71.861" width="94.7266" height="87.318" filterUnits="userSpaceOnUse" color-interpolation-filters="sRGB">
<feFlood flood-opacity="0" result="BackgroundImageFix"/>
<feColorMatrix in="SourceAlpha" type="matrix" values="0 0 0 0 0 0 0 0 0 0 0 0 0 0 0 0 0 0 127 0" result="hardAlpha"/>
<feOffset dy="10"/>
<feComposite in2="hardAlpha" operator="out"/>
<feColorMatrix type="matrix" values="0 0 0 0 0.321569 0 0 0 0 0.0509804 0 0 0 0 0.196078 0 0 0 1 0"/>
<feBlend mode="normal" in2="BackgroundImageFix" result="effect1_dropShadow_798_1887"/>
<feBlend mode="normal" in="SourceGraphic" in2="effect1_dropShadow_798_1887" result="shape"/>
<feColorMatrix in="SourceAlpha" type="matrix" values="0 0 0 0 0 0 0 0 0 0 0 0 0 0 0 0 0 0 127 0" result="hardAlpha"/>
<feOffset dy="-9"/>
<feComposite in2="hardAlpha" operator="arithmetic" k2="-1" k3="1"/>
<feColorMatrix type="matrix" values="0 0 0 0 1 0 0 0 0 1 0 0 0 0 1 0 0 0 1 0"/>
<feBlend mode="normal" in2="shape" result="effect2_innerShadow_798_1887"/>
</filter>
<linearGradient id="paint0_linear_798_1887" x1="253.678" y1="249.355" x2="253.678" y2="334.711" gradientUnits="userSpaceOnUse">
<stop stop-color="#3B0E2A"/>
<stop offset="1" stop-color="#710A3C"/>
</linearGradient>
<linearGradient id="paint1_linear_798_1887" x1="257.083" y1="260.628" x2="257.083" y2="330.041" gradientUnits="userSpaceOnUse">
<stop stop-color="#3B0E2A"/>
<stop offset="1" stop-color="#710A3C"/>
</linearGradient>
<linearGradient id="paint2_linear_798_1887" x1="260.688" y1="271.901" x2="260.688" y2="327.138" gradientUnits="userSpaceOnUse">
<stop stop-color="#3B0E2A"/>
<stop offset="1" stop-color="#710A3C"/>
</linearGradient>
<linearGradient id="paint3_linear_798_1887" x1="264.149" y1="283.174" x2="264.149" y2="318.707" gradientUnits="userSpaceOnUse">
<stop stop-color="#3B0E2A"/>
<stop offset="1" stop-color="#710A3C"/>
</linearGradient>
<linearGradient id="paint4_linear_798_1887" x1="60.5" y1="0" x2="60.5" y2="84" gradientUnits="userSpaceOnUse">
<stop stop-color="#3B0E2A"/>
<stop offset="1" stop-color="#710A3C"/>
</linearGradient>
<linearGradient id="paint5_linear_798_1887" x1="381.526" y1="172.143" x2="388.308" y2="245.956" gradientUnits="userSpaceOnUse">
<stop stop-color="#3B0E2A"/>
<stop offset="1" stop-color="#710A3C"/>
</linearGradient>
<linearGradient id="paint6_linear_798_1887" x1="468.988" y1="177.966" x2="468.988" y2="192.698" gradientUnits="userSpaceOnUse">
<stop stop-color="#3B0E2A"/>
<stop offset="1" stop-color="#710A3C"/>
</linearGradient>
<clipPath id="clip0_798_1887">
<rect width="516" height="296" fill="white"/>
</clipPath>
</defs>
</svg>
