<svg width="351" height="242" viewBox="0 0 351 242" fill="none" xmlns="http://www.w3.org/2000/svg">
<g clip-path="url(#clip0_792_1265)">
<path d="M202.5 157L161.5 245.5" stroke="#C1365B" stroke-width="44" stroke-linecap="round"/>
<path d="M199 178.5L320.534 218.546C324.346 219.802 328.009 216.282 326.907 212.423L314.5 169" stroke="#C1365B" stroke-width="44" stroke-linecap="round"/>
<path d="M262.802 104.864C264.794 103.997 267.098 104.274 268.828 105.588L331.537 153.241C333.905 155.04 334.598 158.301 333.166 160.907L300.463 220.44C299.284 222.586 296.919 223.801 294.488 223.509L209.948 213.354C207.517 213.062 205.507 211.323 204.87 208.959L187.194 143.375C186.421 140.504 187.866 137.499 190.592 136.312L262.802 104.864Z" fill="#FF7D7D"/>
<path fill-rule="evenodd" clip-rule="evenodd" d="M328.824 240.536H277.863V224.182H328.824V240.536Z" fill="#3B0E2A"/>
<path fill-rule="evenodd" clip-rule="evenodd" d="M328.824 240.536H277.863V224.182H328.824V240.536Z" stroke="#710A3C" stroke-width="1.36006"/>
<path fill-rule="evenodd" clip-rule="evenodd" d="M277.863 240.536H0.679688V224.182H277.863V240.536Z" stroke="#710A3C" stroke-width="1.36006"/>
<path fill-rule="evenodd" clip-rule="evenodd" d="M163.484 180.501H46.1631V89.3735H163.484V180.501Z" fill="#FF8F8F"/>
<path fill-rule="evenodd" clip-rule="evenodd" d="M163.484 180.501H46.1631V89.3735H163.484V180.501Z" stroke="#710A3C" stroke-width="1.36006"/>
<path fill-rule="evenodd" clip-rule="evenodd" d="M172.564 180.501H163.484V89.3735H172.564V180.501Z" fill="url(#paint0_linear_792_1265)"/>
<path fill-rule="evenodd" clip-rule="evenodd" d="M172.564 180.501H163.484V89.3735H172.564V180.501Z" stroke="url(#paint1_linear_792_1265)" stroke-width="1.36006"/>
<path fill-rule="evenodd" clip-rule="evenodd" d="M111.998 213H85.998V181H111.998V213Z" stroke="#710A3C" stroke-width="1.36006"/>
<path fill-rule="evenodd" clip-rule="evenodd" d="M117.998 213H111.998V181H117.998V213Z" fill="#C1365B"/>
<path fill-rule="evenodd" clip-rule="evenodd" d="M117.998 213H111.998V181H117.998V213Z" stroke="#710A3C" stroke-width="1.36006"/>
<path d="M143.97 216.32H251.357V224.182" stroke="#710A3C" stroke-width="1.36006"/>
<path fill-rule="evenodd" clip-rule="evenodd" d="M73.1695 223.926H146.348C146.348 217.735 141.327 212.717 135.134 212.717H123.864H73.1695V223.926Z" stroke="#710A3C" stroke-width="1.36006"/>
<path d="M123.863 224.372V212.717" stroke="#710A3C" stroke-width="1.36006"/>
<path fill-rule="evenodd" clip-rule="evenodd" d="M227.08 95.4256C225.209 104.049 229.095 112.211 235.762 113.657L245.18 114.777L249.271 83.1727L242.537 82.43C235.871 80.9843 228.951 86.8024 227.08 95.4256Z" fill="#C1365B"/>
<path fill-rule="evenodd" clip-rule="evenodd" d="M235.975 96.4628C234.104 105.086 237.992 113.248 244.658 114.694C251.324 116.14 258.245 110.322 260.116 101.699C261.988 93.0757 258.099 84.9132 251.434 83.4674C244.767 82.0215 237.846 87.8396 235.975 96.4628Z" fill="white"/>
<path fill-rule="evenodd" clip-rule="evenodd" d="M235.975 96.4628C234.104 105.086 237.992 113.248 244.658 114.694C251.324 116.14 258.245 110.322 260.116 101.699C261.988 93.0757 258.099 84.9132 251.434 83.4674C244.767 82.0215 237.846 87.8396 235.975 96.4628Z" fill="#710A3C" stroke="#C1365B" stroke-width="1.36006"/>
<g filter="url(#filter0_di_792_1265)">
<path d="M236.195 105.9C233.143 101.743 233.933 96.215 238.02 93.1355L274.841 65.386C277.444 63.4244 281.425 64.3404 282.88 67.2358L303.721 108.704C305.886 113.011 304.421 118.039 300.258 120.596L295.921 123.26C278.038 134.244 253.472 129.434 241.053 112.516L236.195 105.9Z" fill="#FF7D7D"/>
</g>
<path d="M259.146 96.4205C258.46 95.4859 258.639 94.0345 259.533 93.2798L271.746 82.969C272.548 82.2916 273.638 82.4276 274.24 83.2801L283.5 96.403C284.167 97.3479 283.971 98.788 283.076 99.5281L270.99 109.514C270.199 110.167 269.135 110.04 268.533 109.218L259.146 96.4205Z" fill="white"/>
<path fill-rule="evenodd" clip-rule="evenodd" d="M251.673 128.847L263.737 130.254L264.992 119.484L252.928 118.078C249.952 117.731 247.261 119.861 246.914 122.835C246.567 125.809 248.697 128.5 251.673 128.847Z" fill="#C1365B"/>
<path d="M308.762 90.5942C306.803 83.7176 303.068 77.298 297.585 72.1135C295.268 69.9228 292.752 68.1115 290.12 66.5962C274.411 57.5541 254.122 60.4759 241.346 74.8497C238.989 77.5019 231.321 88.4247 230.552 95.0201" stroke="#C1365B" stroke-width="1.36006"/>
<path fill-rule="evenodd" clip-rule="evenodd" d="M290.447 102.927C288.576 111.55 292.464 119.712 299.13 121.158L308.547 122.278L312.638 90.674L305.906 89.9314C299.238 88.4855 292.318 94.3036 290.447 102.927Z" fill="#C1365B"/>
<path fill-rule="evenodd" clip-rule="evenodd" d="M298.323 103.833C296.452 112.456 300.34 120.619 307.005 122.065C313.671 123.51 320.593 117.691 322.464 109.069C324.335 100.446 320.447 92.2835 313.781 90.8378C307.114 89.3919 300.194 95.21 298.323 103.833Z" fill="#710A3C"/>
<path fill-rule="evenodd" clip-rule="evenodd" d="M298.323 103.833C296.452 112.456 300.34 120.619 307.005 122.065C313.671 123.51 320.593 117.691 322.464 109.069C324.335 100.446 320.447 92.2835 313.781 90.8378C307.114 89.3919 300.194 95.21 298.323 103.833Z" stroke="#C1365B" stroke-width="1.36006"/>
<path d="M310.371 110.127L307.992 130.531L264.299 125.437" stroke="#C1365B" stroke-width="1.36006"/>
<rect x="94" y="133" width="16.9706" height="16.9706" rx="4" transform="rotate(-45 94 133)" fill="url(#paint2_linear_792_1265)"/>
<path opacity="0.35" fill-rule="evenodd" clip-rule="evenodd" d="M108.017 132.879C108.017 134.059 107.061 135.016 105.881 135.016C104.701 135.016 103.744 134.059 103.744 132.879C103.744 131.699 104.701 130.743 105.881 130.743C107.061 130.743 108.017 131.699 108.017 132.879ZM103.744 135.823C104.344 136.259 105.082 136.516 105.881 136.516C107.889 136.516 109.517 134.888 109.517 132.879C109.517 130.871 107.889 129.243 105.881 129.243C103.954 129.243 102.377 130.742 102.252 132.637H102.244V132.879V141.236L103.744 142.7V135.823Z" fill="#FF8F8F"/>
<ellipse cx="192.5" cy="171" rx="17.5" ry="17" fill="#710A3C"/>
<path d="M199 178.5L328 220.5" stroke="#C1365B" stroke-width="44" stroke-linecap="round"/>
<circle cx="311" cy="108" r="2.25" stroke="#C1365B" stroke-width="1.5"/>
</g>
<defs>
<filter id="filter0_di_792_1265" x="231.342" y="64.3445" width="73.373" height="74.8096" filterUnits="userSpaceOnUse" color-interpolation-filters="sRGB">
<feFlood flood-opacity="0" result="BackgroundImageFix"/>
<feColorMatrix in="SourceAlpha" type="matrix" values="0 0 0 0 0 0 0 0 0 0 0 0 0 0 0 0 0 0 127 0" result="hardAlpha"/>
<feOffset dx="-3" dy="10"/>
<feComposite in2="hardAlpha" operator="out"/>
<feColorMatrix type="matrix" values="0 0 0 0 0.321569 0 0 0 0 0.0509804 0 0 0 0 0.196078 0 0 0 1 0"/>
<feBlend mode="normal" in2="BackgroundImageFix" result="effect1_dropShadow_792_1265"/>
<feBlend mode="normal" in="SourceGraphic" in2="effect1_dropShadow_792_1265" result="shape"/>
<feColorMatrix in="SourceAlpha" type="matrix" values="0 0 0 0 0 0 0 0 0 0 0 0 0 0 0 0 0 0 127 0" result="hardAlpha"/>
<feOffset dx="2" dy="-10"/>
<feComposite in2="hardAlpha" operator="arithmetic" k2="-1" k3="1"/>
<feColorMatrix type="matrix" values="0 0 0 0 1 0 0 0 0 1 0 0 0 0 1 0 0 0 1 0"/>
<feBlend mode="normal" in2="shape" result="effect2_innerShadow_792_1265"/>
</filter>
<linearGradient id="paint0_linear_792_1265" x1="168.024" y1="89.3735" x2="168.024" y2="180.501" gradientUnits="userSpaceOnUse">
<stop stop-color="#3B0E2A"/>
<stop offset="1" stop-color="#710A3C"/>
</linearGradient>
<linearGradient id="paint1_linear_792_1265" x1="168.024" y1="89.3735" x2="168.024" y2="180.501" gradientUnits="userSpaceOnUse">
<stop stop-color="#3B0E2A"/>
<stop offset="1" stop-color="#710A3C"/>
</linearGradient>
<linearGradient id="paint2_linear_792_1265" x1="102.485" y1="133" x2="102.485" y2="149.971" gradientUnits="userSpaceOnUse">
<stop stop-color="#3B0E2A"/>
<stop offset="1" stop-color="#710A3C"/>
</linearGradient>
<clipPath id="clip0_792_1265">
<rect width="351" height="242" fill="white"/>
</clipPath>
</defs>
</svg>
