<svg width="518" height="371" viewBox="0 0 518 371" fill="none" xmlns="http://www.w3.org/2000/svg">
<g clip-path="url(#clip0_778_101)">
<path fill-rule="evenodd" clip-rule="evenodd" d="M332.144 234.97C330.234 234.97 328.345 234.552 326.221 233.723C314.056 228.989 309.008 216.493 303.663 203.265C300.332 195.022 329.73 182.111 333.411 191.22C334.291 193.397 335.309 195.916 336.313 198.225L338.105 197.147C372.83 176.23 390.662 167.196 404.118 174.679C411.865 178.987 414.657 188.764 410.355 196.519C406.833 202.865 399.645 205.889 392.914 204.419C384.858 206.476 363.104 219.579 354.649 224.672C343.131 231.61 337.554 234.969 332.144 234.969" fill="#EDEDED"/>
<path fill-rule="evenodd" clip-rule="evenodd" d="M321.57 196.253L321.818 199.917L336.302 198.22L331.891 187.454L321.57 196.253Z" fill="#C5CFE4"/>
<path fill-rule="evenodd" clip-rule="evenodd" d="M275.519 274.217L274.877 281.371L289.929 340.241L288.055 466.661L289.895 464.818L298.478 354.19C299.295 343.657 297.785 333.074 294.055 323.19L275.519 274.217Z" fill="#C1365B"/>
<path fill-rule="evenodd" clip-rule="evenodd" d="M228.663 214.73C268.519 222.83 287.893 225.565 322.206 225.601L319.931 190.499L234.237 181.317L228.663 214.73V214.73ZM323.574 226.886H322.89C287.864 226.886 268.428 224.134 227.8 215.866L227.193 215.742L233.172 179.912L321.142 189.336L323.574 226.886V226.886Z" fill="#C1365B"/>
<path fill-rule="evenodd" clip-rule="evenodd" d="M270.261 467.488H212.416L227.288 215.198L228.57 215.274L213.777 466.204H269.012L274.236 274.179L275.52 274.214L270.261 467.488Z" fill="#C1365B"/>
<path fill-rule="evenodd" clip-rule="evenodd" d="M295.76 140.135L295.77 140.151C295.805 140.162 295.841 140.171 295.877 140.181L295.76 140.135Z" fill="#05DD8F"/>
<path fill-rule="evenodd" clip-rule="evenodd" d="M355.532 467.512L287.4 467.3L289.865 340.316L274.076 279.151L275.32 278.83L291.15 340.166V340.253L288.708 466.02L352.448 466.217L343.173 456.835L343.18 456.563L346.21 339.755L322.263 226.376L323.52 226.11L347.496 339.637V339.713L344.47 456.321L355.532 467.512Z" fill="#C1365B"/>
<path fill-rule="evenodd" clip-rule="evenodd" d="M235.107 295.13C232.21 295.13 229.278 294.345 226.637 292.7C222.393 290.05 218.143 286.006 209.124 263.217C207.758 259.769 200.908 242.205 200.139 235.232C198.891 223.914 208.304 191.005 216.419 165.392C219.098 156.934 228.123 152.257 236.564 154.937C245.011 157.619 249.686 166.647 247.007 175.102C240.028 197.138 232.537 224.622 232.097 231.78C233.704 238.425 242.474 261.487 246.226 267.468C251.602 272.613 252.829 280.989 248.742 287.559C245.701 292.444 240.464 295.129 235.107 295.129" fill="#EDEDED"/>
<path fill-rule="evenodd" clip-rule="evenodd" d="M399.561 173.338C392.771 175.27 387.797 181.514 387.797 188.929C387.797 196.342 392.59 202.183 399.374 204.117C399.374 204.117 400.982 203.821 401.732 203.463C402.394 203.148 407.015 177.428 402.509 174.267C402.275 174.102 399.902 173.18 399.561 173.337" fill="#FF8F8F"/>
<path fill-rule="evenodd" clip-rule="evenodd" d="M410.398 181.77V195.641C411.461 193.484 412.013 191.111 412.013 188.706C412.013 186.301 411.461 183.928 410.398 181.771" fill="#DFE6F2"/>
<path fill-rule="evenodd" clip-rule="evenodd" d="M410.051 196.352C410.18 196.118 410.283 195.878 410.398 195.64V181.77C408.994 178.902 406.744 176.533 403.951 174.983C401.208 173.459 398.269 172.641 395.039 172.472L390.984 204.727C391.514 204.549 392.457 204.221 392.903 204.061C399.523 205.541 406.591 202.586 410.05 196.352" fill="#FF8F8F"/>
<path fill-rule="evenodd" clip-rule="evenodd" d="M361.471 466.864L416.711 0.0759277Z" fill="#0C152E"/>
<path fill-rule="evenodd" clip-rule="evenodd" d="M362.109 466.94L360.836 466.79L416.076 0L417.35 0.151L362.109 466.94Z" fill="#C1365B"/>
<path fill-rule="evenodd" clip-rule="evenodd" d="M410.05 196.352C414.26 188.766 411.528 179.197 403.95 174.982C403.384 174.672 402.803 174.389 402.21 174.133C395.266 175.513 390.033 181.643 390.033 188.996C390.033 196.013 394.801 201.899 401.267 203.626C405.006 202.393 408.142 199.796 410.049 196.352" fill="#EDEDED"/>
<path fill-rule="evenodd" clip-rule="evenodd" d="M241.321 193.93L210.062 186.46L210.6 184.623L243.005 188.22L241.321 193.93Z" fill="#C5CFE4"/>
<rect x="242" y="302" width="173" height="118" fill="url(#paint0_linear_778_101)"/>
<path d="M265.288 127.38C268.245 125.386 272.042 125.118 275.25 126.677L334.521 155.481C339.024 157.67 341.215 162.85 339.648 167.605L322.515 219.604C321.245 223.46 317.77 226.164 313.722 226.45L241.214 231.569C237.165 231.855 233.345 229.665 231.546 226.026L207.278 176.949C205.059 172.462 206.5 167.025 210.651 164.226L265.288 127.38Z" fill="#FF7D7D"/>
<g filter="url(#filter0_di_778_101)">
<path d="M237.499 135.561C233.441 132.799 232.168 127.632 234.495 123.364L250.833 93.4034C254.064 87.4783 262.442 86.1567 267.34 90.7997L292.107 114.277C295.634 117.621 296.014 122.93 293.003 126.807L292.669 127.237C279.797 143.813 255.298 147.677 237.949 135.868L237.499 135.561Z" fill="#FF7D7D"/>
</g>
<rect width="16.8036" height="17.0072" rx="2" transform="matrix(0.492171 -0.870499 0.840294 0.54213 252.158 115.986)" fill="white"/>
<path fill-rule="evenodd" clip-rule="evenodd" d="M472.885 99.6025C491.076 103.408 507.557 106.855 516.534 101.747L502 65.5L515.284 36.2731C515.284 36.2731 497.074 43.7671 479.2 42.2701C471.284 41.607 463.121 39.9072 455.055 38.2276C439.741 35.0388 424.777 31.9227 412.51 36.1121L404.816 101.838C415.685 93.3331 431.105 92.8323 447.249 94.921L450.079 69.7173L450.191 68.7235L450.231 68.7281C451.424 62.6637 457.092 58.4292 463.343 59.1311C469.929 59.8706 474.669 65.8091 473.929 72.3951C473.19 78.9811 467.251 83.7207 460.665 82.9813C457.611 82.6384 454.954 81.1773 453.056 79.0522L451.212 95.4808C458.467 96.5868 465.806 98.1218 472.885 99.6025ZM461.112 79.0062C465.502 79.4992 469.461 76.3395 469.954 71.9488C470.447 67.5581 467.287 63.5991 462.897 63.1061C458.506 62.6132 454.547 65.7729 454.054 70.1636C453.561 74.5543 456.721 78.5133 461.112 79.0062Z" fill="#C1365B"/>
<path d="M232.5 227.5L322 221.5L322.5 227L326 243L237.001 247L232 232L232.5 227.5Z" fill="#3B0E2A"/>
<rect y="321.066" width="150" height="150" rx="20" transform="rotate(-45 0 321.066)" fill="url(#paint1_linear_778_101)"/>
<path d="M71 296.5H143" stroke="#FF7D7D" stroke-width="8" stroke-linecap="round"/>
<path d="M51 329H167.5" stroke="#FF7D7D" stroke-width="8" stroke-linecap="round"/>
</g>
<defs>
<filter id="filter0_di_778_101" x="233.338" y="88.0029" width="61.6914" height="62.7058" filterUnits="userSpaceOnUse" color-interpolation-filters="sRGB">
<feFlood flood-opacity="0" result="BackgroundImageFix"/>
<feColorMatrix in="SourceAlpha" type="matrix" values="0 0 0 0 0 0 0 0 0 0 0 0 0 0 0 0 0 0 127 0" result="hardAlpha"/>
<feOffset dy="8"/>
<feComposite in2="hardAlpha" operator="out"/>
<feColorMatrix type="matrix" values="0 0 0 0 0.321569 0 0 0 0 0.0509804 0 0 0 0 0.196078 0 0 0 1 0"/>
<feBlend mode="normal" in2="BackgroundImageFix" result="effect1_dropShadow_778_101"/>
<feBlend mode="normal" in="SourceGraphic" in2="effect1_dropShadow_778_101" result="shape"/>
<feColorMatrix in="SourceAlpha" type="matrix" values="0 0 0 0 0 0 0 0 0 0 0 0 0 0 0 0 0 0 127 0" result="hardAlpha"/>
<feOffset dy="-8"/>
<feComposite in2="hardAlpha" operator="arithmetic" k2="-1" k3="1"/>
<feColorMatrix type="matrix" values="0 0 0 0 1 0 0 0 0 1 0 0 0 0 1 0 0 0 1 0"/>
<feBlend mode="normal" in2="shape" result="effect2_innerShadow_778_101"/>
</filter>
<linearGradient id="paint0_linear_778_101" x1="328.5" y1="302" x2="328.5" y2="420" gradientUnits="userSpaceOnUse">
<stop stop-color="#3B0E2A"/>
<stop offset="1" stop-color="#710A3C"/>
</linearGradient>
<linearGradient id="paint1_linear_778_101" x1="75" y1="321.066" x2="75" y2="471.066" gradientUnits="userSpaceOnUse">
<stop stop-color="#3B0E2A"/>
<stop offset="1" stop-color="#710A3C"/>
</linearGradient>
<clipPath id="clip0_778_101">
<rect width="518" height="371" fill="white"/>
</clipPath>
</defs>
</svg>
