<svg width="257" height="205" viewBox="0 0 257 205" fill="none" xmlns="http://www.w3.org/2000/svg">
<g clip-path="url(#clip0_778_270)">
<path fill-rule="evenodd" clip-rule="evenodd" d="M129 9.99999C129 5.58171 132.582 2 137 2H227.8C232.218 2 235.8 5.58172 235.8 10V97.12C235.8 101.538 232.218 105.12 227.8 105.12H137C132.582 105.12 129 101.538 129 97.12V9.99999Z" fill="white" stroke="#C1365B" stroke-linejoin="round"/>
<path d="M140.23 76.7201C140.23 73.6163 142.747 71.1001 145.85 71.1001H173.32C176.424 71.1001 178.94 73.6163 178.94 76.7201V76.7201C178.94 79.8239 176.424 82.3401 173.32 82.3401H145.85C142.747 82.3401 140.23 79.8239 140.23 76.7201V76.7201Z" fill="#710A3C"/>
<path d="M185.861 76.7201C185.861 73.6163 188.377 71.1001 191.481 71.1001H218.951C222.055 71.1001 224.571 73.6163 224.571 76.7201V76.7201C224.571 79.8239 222.055 82.3401 218.951 82.3401H191.481C188.377 82.3401 185.861 79.8239 185.861 76.7201V76.7201Z" fill="#C1365B"/>
<path d="M79.3299 91.0601C81.2599 84.9101 108.33 97.0601 108.33 97.0601L123.94 102.68C123.94 102.68 148.11 96.9201 152.94 95.2801C165.21 91.0001 174 88.0001 181 89.7301C174.14 87.9301 165.29 90.5101 153 94.1201C148.14 95.5401 124.16 98.1201 124.16 98.1201L110.69 92.8701C110.69 92.8701 81.9999 80.6401 79.7499 86.7001C78.6799 89.7001 77.5599 94.1001 77.9599 97.5601C78.2056 95.3543 78.6644 93.1774 79.3299 91.0601Z" fill="#EDF0F5"/>
<path d="M141.047 116.195C135.417 117.305 126.897 119.335 121.657 116.975C108.127 110.875 82.1271 99.1154 81.5471 98.2354C78.7171 95.1254 80.3471 87.9054 81.8771 83.6854C84.0771 77.6254 112.877 89.8654 112.877 89.8654L126.347 95.1154C126.347 95.1154 150.347 92.5254 155.187 91.1154C169.847 86.8054 175.127 83.2754 182.457 87.6454C184.962 89.0875 186.844 91.4074 187.738 94.1565C188.631 96.9055 188.474 99.8883 187.296 102.528C186.118 105.168 184.003 107.277 181.36 108.448C178.717 109.618 175.734 109.767 172.987 108.865C170.687 109.085 154.917 113.455 141.047 116.195Z" fill="white" stroke="#FF8F8F" stroke-linejoin="round"/>
<path d="M81.4569 88.0454C83.3869 81.8954 110.457 94.0454 110.457 94.0454L126.067 99.6654C126.067 99.6654 150.237 93.9054 155.067 92.2654C167.337 87.9854 176.127 84.9854 183.127 86.7154C176.267 84.9154 167.417 87.4954 155.127 91.1054C150.267 92.5254 126.287 95.1054 126.287 95.1054L112.817 89.8554C112.817 89.8554 84.1269 77.6254 81.8769 83.6854C80.8069 86.6854 79.6869 91.0854 80.0869 94.5454C80.3325 92.3396 80.7913 90.1628 81.4569 88.0454Z" fill="#EDEDED"/>
<path fill-rule="evenodd" clip-rule="evenodd" d="M141.047 116.195C135.417 117.305 126.897 119.335 121.657 116.975C108.127 110.875 82.1271 99.1154 81.5471 98.2354C78.7171 95.1254 80.3471 87.9054 81.8771 83.6854C84.0771 77.6254 112.877 89.8654 112.877 89.8654L126.347 95.1154C126.347 95.1154 150.347 92.5254 155.187 91.1154C169.847 86.8054 175.127 83.2754 182.457 87.6454C184.962 89.0875 186.844 91.4074 187.738 94.1565C188.631 96.9055 188.474 99.8883 187.296 102.528C186.118 105.168 184.003 107.277 181.36 108.448C178.717 109.618 175.734 109.767 172.987 108.865C170.687 109.085 154.917 113.455 141.047 116.195Z" stroke="#FF8F8F" stroke-linejoin="round"/>
<path d="M0 180.15H125.72" stroke="#C1365B" stroke-linejoin="round"/>
<path d="M27.754 127L22 180H61.24L62 172.799" stroke="#C1365B" stroke-linejoin="round"/>
<path d="M22.4999 115.32C22.4999 113.98 22.5699 112.66 22.6899 111.32C21.9509 115.584 21.833 119.932 22.3399 124.23C22.3449 124.29 22.3449 124.35 22.3399 124.41L22.4899 125.61V115.49C22.5099 115.43 22.4999 115.38 22.4999 115.32Z" fill="#FF4148"/>
<path d="M83 180H105.13L101.81 130" stroke="#C1365B" stroke-linejoin="round"/>
<path d="M35.5605 184.61C35.1765 184.61 34.7925 184.59 34.4105 184.55C31.5358 184.268 28.8671 182.932 26.919 180.8C24.9709 178.667 23.8814 175.888 23.8605 173C23.1905 170.24 19.6005 162.63 17.4305 158C12.2605 147 9.56055 141 9.56055 135.93C9.56055 131.66 11.2505 126.24 19.8705 111.2C24.3205 103.42 28.7005 96.49 28.8705 96.2C29.6913 94.9039 30.7593 93.7821 32.0136 92.8987C33.2679 92.0153 34.6839 91.3876 36.1808 91.0515C37.6777 90.7153 39.2261 90.6773 40.7377 90.9396C42.2493 91.2018 43.6944 91.7593 44.9905 92.58C46.2867 93.4008 47.4085 94.4688 48.2919 95.7231C49.1753 96.9774 49.803 98.3934 50.1391 99.8903C50.4753 101.387 50.5133 102.936 50.251 104.447C49.9887 105.959 49.4313 107.404 48.6105 108.7C42.3805 118.54 35.2205 131.05 33.2105 136.07C34.2105 138.9 36.7705 144.28 38.5505 148.07C44.6105 160.95 47.7505 167.96 47.1505 174.07C46.8681 176.951 45.526 179.624 43.3846 181.571C41.2432 183.519 38.455 184.602 35.5605 184.61V184.61Z" fill="white" stroke="#FF8F8F" stroke-linejoin="round"/>
<path d="M44.9999 92.6001C44.1256 92.048 43.1803 91.6174 42.1899 91.3201C44.5823 93.0611 46.2234 95.6467 46.7804 98.5526C47.3375 101.459 46.7689 104.468 45.1899 106.97C38.9599 116.81 31.7999 129.32 29.7999 134.35C30.7999 137.18 33.3599 142.56 35.1299 146.35C41.1899 159.23 44.3299 166.24 43.7299 172.35C43.4471 175.234 42.1022 177.91 39.9566 179.858C37.811 181.806 35.0178 182.887 32.1199 182.89C31.7359 182.89 31.3519 182.87 30.9699 182.83C30.1897 182.755 29.419 182.601 28.6699 182.37C30.3588 183.614 32.3525 184.377 34.4399 184.58C34.8219 184.62 35.2059 184.64 35.5899 184.64C38.4894 184.636 41.2838 183.554 43.4297 181.604C45.5755 179.654 46.9194 176.976 47.1999 174.09C47.7999 167.99 44.6599 160.98 38.5999 148.09C36.8199 144.32 34.2899 138.94 33.2599 136.09C35.2599 131.09 42.4299 118.56 48.6599 108.72C49.4792 107.422 50.0344 105.974 50.2939 104.461C50.5533 102.948 50.5119 101.398 50.172 99.9013C49.8321 98.4041 49.2003 96.9886 48.3128 95.7358C47.4253 94.483 46.2996 93.4174 44.9999 92.6001V92.6001Z" fill="#EDEDED"/>
<path fill-rule="evenodd" clip-rule="evenodd" d="M35.5605 184.61C35.1765 184.61 34.7925 184.59 34.4105 184.55C31.5358 184.268 28.8671 182.932 26.919 180.8C24.9709 178.667 23.8814 175.888 23.8605 173C23.1905 170.24 19.6005 162.63 17.4305 158C12.2605 147 9.56055 141 9.56055 135.93C9.56055 131.66 11.2505 126.24 19.8705 111.2C24.3205 103.42 28.7005 96.49 28.8705 96.2C29.6913 94.9039 30.7593 93.7821 32.0136 92.8987C33.2679 92.0153 34.6839 91.3876 36.1808 91.0515C37.6777 90.7153 39.2261 90.6773 40.7377 90.9396C42.2493 91.2018 43.6944 91.7593 44.9905 92.58C46.2867 93.4008 47.4085 94.4688 48.2919 95.7231C49.1753 96.9774 49.803 98.3934 50.1391 99.8903C50.4753 101.387 50.5133 102.936 50.251 104.447C49.9887 105.959 49.4313 107.404 48.6105 108.7C42.3805 118.54 35.2205 131.05 33.2105 136.07C34.2105 138.9 36.7705 144.28 38.5505 148.07C44.6105 160.95 47.7505 167.96 47.1505 174.07C46.8681 176.951 45.526 179.624 43.3846 181.571C41.2432 183.519 38.455 184.602 35.5605 184.61V184.61Z" stroke="#FF8F8F" stroke-linejoin="round"/>
<path d="M62.7277 65.7095C65.6383 63.7962 69.3347 63.5353 72.4852 65.0206L110.166 82.786C114.768 84.9558 117.007 90.2357 115.368 95.0526L104.84 125.991C103.543 129.8 100.091 132.461 96.0769 132.745L48.8841 136.076C44.8705 136.36 41.078 134.21 39.2595 130.621L24.4893 101.468C22.1896 96.929 23.6649 91.387 27.9168 88.5921L62.7277 65.7095Z" fill="#FF7D7D"/>
<g filter="url(#filter0_di_778_270)">
<path d="M47.6429 72.4491C44.6517 70.5753 43.7472 67.0245 45.5052 64.0575L58.6822 41.8182C60.3798 38.9532 64.7192 38.2591 67.2315 40.4508L87.5247 58.1549C90.0731 60.3782 90.308 63.9635 88.0784 66.606V66.606C78.5747 77.8692 60.7462 80.6576 48.2573 72.834L47.6429 72.4491Z" fill="#FF7D7D"/>
</g>
<rect width="11.5385" height="11.3278" rx="2" transform="matrix(0.480781 -0.876841 0.883992 0.467502 59 61.1174)" fill="white"/>
<rect x="140.721" y="11.7" width="84" height="12" rx="6" fill="#FF8F8F"/>
<rect x="140.721" y="30.7" width="44" height="12" rx="6" fill="#FF8F8F"/>
<rect x="111" y="139.238" width="145.362" height="90" rx="20" transform="rotate(-0.488082 111 139.238)" fill="url(#paint0_linear_778_270)"/>
<path d="M142 161.5H227" stroke="#FF8F8F" stroke-width="4" stroke-linecap="round"/>
<path d="M141 177H226" stroke="#FF8F8F" stroke-width="4" stroke-linecap="round"/>
<path d="M141 193H226" stroke="#FF8F8F" stroke-width="4" stroke-linecap="round"/>
</g>
<defs>
<filter id="filter0_di_778_270" x="44.6133" y="39.1602" width="44.9922" height="42.1133" filterUnits="userSpaceOnUse" color-interpolation-filters="sRGB">
<feFlood flood-opacity="0" result="BackgroundImageFix"/>
<feColorMatrix in="SourceAlpha" type="matrix" values="0 0 0 0 0 0 0 0 0 0 0 0 0 0 0 0 0 0 127 0" result="hardAlpha"/>
<feOffset dy="4"/>
<feComposite in2="hardAlpha" operator="out"/>
<feColorMatrix type="matrix" values="0 0 0 0 0.321569 0 0 0 0 0.0509804 0 0 0 0 0.196078 0 0 0 1 0"/>
<feBlend mode="normal" in2="BackgroundImageFix" result="effect1_dropShadow_778_270"/>
<feBlend mode="normal" in="SourceGraphic" in2="effect1_dropShadow_778_270" result="shape"/>
<feColorMatrix in="SourceAlpha" type="matrix" values="0 0 0 0 0 0 0 0 0 0 0 0 0 0 0 0 0 0 127 0" result="hardAlpha"/>
<feOffset dy="-4"/>
<feComposite in2="hardAlpha" operator="arithmetic" k2="-1" k3="1"/>
<feColorMatrix type="matrix" values="0 0 0 0 1 0 0 0 0 1 0 0 0 0 1 0 0 0 1 0"/>
<feBlend mode="normal" in2="shape" result="effect2_innerShadow_778_270"/>
</filter>
<linearGradient id="paint0_linear_778_270" x1="183.681" y1="139.238" x2="183.681" y2="229.238" gradientUnits="userSpaceOnUse">
<stop stop-color="#3B0E2A"/>
<stop offset="1" stop-color="#710A3C"/>
</linearGradient>
<clipPath id="clip0_778_270">
<rect width="257" height="205" fill="white"/>
</clipPath>
</defs>
</svg>
