<svg width="1366" height="646" viewBox="0 0 1366 646" fill="none" xmlns="http://www.w3.org/2000/svg">
<g clip-path="url(#clip0_778_342)">
<path d="M1366 17.5H1254C1251.24 17.5 1249 19.7386 1249 22.5V427.045C1249 429.789 1246.79 432.02 1244.05 432.045L976.455 434.455C973.711 434.48 971.5 436.711 971.5 439.455V461" stroke="#3B0E2A"/>
<path d="M1365 67H1192C1189.24 67 1187 69.2386 1187 72V113C1187 115.761 1184.76 118 1182 118H1152.5C1149.74 118 1147.5 115.761 1147.5 113V72C1147.5 69.2386 1145.26 67 1142.5 67H1075C1072.24 67 1070 64.7614 1070 62V18.5" stroke="#3B0E2A"/>
<path d="M1364 154.5H1038.5C1035.74 154.5 1033.5 156.739 1033.5 159.5V182.5C1033.5 185.261 1031.26 187.5 1028.5 187.5H937.5C934.739 187.5 932.5 189.739 932.5 192.5V239.5C932.5 242.261 934.739 244.5 937.5 244.5H1106.5C1109.26 244.5 1111.5 246.739 1111.5 249.5V304.5C1111.5 307.261 1113.74 309.5 1116.5 309.5H1213.5C1216.26 309.5 1218.5 311.739 1218.5 314.5V356C1218.5 358.761 1220.74 361 1223.5 361H1364" stroke="#3B0E2A"/>
<path d="M814.837 429.326L961.081 289.275C962.998 287.438 966.018 287.421 967.956 289.236L1117.53 429.286C1119.67 431.286 1119.64 434.683 1117.47 436.645L967.892 571.932C965.972 573.669 963.043 573.652 961.143 571.894L814.899 436.607C812.785 434.651 812.756 431.318 814.837 429.326Z" stroke="#3B0E2A"/>
<path d="M0 479H506C508.761 479 511 481.239 511 484V522C511 524.761 513.239 527 516 527H555.5" stroke="#3B0E2A"/>
<path d="M3.5 451.5H152C154.761 451.5 157 449.261 157 446.5V409.5C157 406.739 159.239 404.5 162 404.5H256C258.761 404.5 261 402.261 261 399.5V305.444C261 302.705 263.204 300.475 265.944 300.444L434.056 298.556C436.796 298.525 439 296.295 439 293.556V235C439 232.239 436.761 230 434 230H345.5C342.739 230 340.5 227.761 340.5 225V108C340.5 105.239 342.739 103 345.5 103H498C500.761 103 503 100.761 503 98V76.5" stroke="#3B0E2A"/>
<path d="M0 100.5H299.5C302.261 100.5 304.5 102.739 304.5 105.5V155.5C304.5 158.261 302.261 160.5 299.5 160.5H230.5C227.739 160.5 225.5 162.739 225.5 165.5V207C225.5 209.761 223.261 212 220.5 212H191.5C188.739 212 186.5 209.761 186.5 207V165.5C186.5 162.739 184.261 160.5 181.5 160.5H0" stroke="#3B0E2A"/>
<rect x="285.121" y="100.906" width="27" height="27" rx="3.5" transform="rotate(-44.0856 285.121 100.906)" fill="url(#paint0_linear_778_342)" stroke="#FF8F8F" stroke-width="3"/>
<rect x="536.121" y="526.906" width="27" height="27" rx="3.5" transform="rotate(-44.0856 536.121 526.906)" fill="url(#paint1_linear_778_342)" stroke="#FF8F8F" stroke-width="3"/>
<rect x="953.121" y="462.906" width="27" height="27" rx="3.5" transform="rotate(-44.0856 953.121 462.906)" fill="url(#paint2_linear_778_342)" stroke="#FF8F8F" stroke-width="3"/>
<rect x="1051.12" y="18.9059" width="27" height="27" rx="3.5" transform="rotate(-44.0856 1051.12 18.9059)" fill="url(#paint3_linear_778_342)" stroke="#FF8F8F" stroke-width="3"/>
<g filter="url(#filter0_d_778_342)">
<circle cx="1249" cy="67" r="4" fill="white"/>
</g>
<g filter="url(#filter1_d_778_342)">
<circle cx="1105" cy="67" r="4" fill="white"/>
</g>
<g filter="url(#filter2_d_778_342)">
<circle cx="1249" cy="154" r="4" fill="white"/>
</g>
<g filter="url(#filter3_d_778_342)">
<circle cx="933" cy="215" r="4" fill="white"/>
</g>
<g filter="url(#filter4_d_778_342)">
<circle cx="1249" cy="361" r="4" fill="white"/>
</g>
<g filter="url(#filter5_d_778_342)">
<circle cx="1119" cy="433" r="4" fill="white"/>
</g>
<g filter="url(#filter6_d_778_342)">
<circle cx="312" cy="479" r="4" fill="white"/>
</g>
<g filter="url(#filter7_d_778_342)">
<circle cx="84" cy="452" r="4" fill="white"/>
</g>
<g filter="url(#filter8_d_778_342)">
<circle cx="447" cy="103" r="4" fill="white"/>
</g>
<g filter="url(#filter9_d_778_342)">
<circle cx="439" cy="264" r="4" fill="white"/>
</g>
<g filter="url(#filter10_d_778_342)">
<circle cx="207" cy="212" r="4" fill="white"/>
</g>
<g filter="url(#filter11_d_778_342)">
<circle cx="87" cy="101" r="4" fill="white"/>
</g>
</g>
<defs>
<filter id="filter0_d_778_342" x="1225" y="43" width="48" height="48" filterUnits="userSpaceOnUse" color-interpolation-filters="sRGB">
<feFlood flood-opacity="0" result="BackgroundImageFix"/>
<feColorMatrix in="SourceAlpha" type="matrix" values="0 0 0 0 0 0 0 0 0 0 0 0 0 0 0 0 0 0 127 0" result="hardAlpha"/>
<feMorphology radius="5" operator="dilate" in="SourceAlpha" result="effect1_dropShadow_778_342"/>
<feOffset/>
<feGaussianBlur stdDeviation="7.5"/>
<feComposite in2="hardAlpha" operator="out"/>
<feColorMatrix type="matrix" values="0 0 0 0 1 0 0 0 0 0.560784 0 0 0 0 0.560784 0 0 0 1 0"/>
<feBlend mode="normal" in2="BackgroundImageFix" result="effect1_dropShadow_778_342"/>
<feBlend mode="normal" in="SourceGraphic" in2="effect1_dropShadow_778_342" result="shape"/>
</filter>
<filter id="filter1_d_778_342" x="1081" y="43" width="48" height="48" filterUnits="userSpaceOnUse" color-interpolation-filters="sRGB">
<feFlood flood-opacity="0" result="BackgroundImageFix"/>
<feColorMatrix in="SourceAlpha" type="matrix" values="0 0 0 0 0 0 0 0 0 0 0 0 0 0 0 0 0 0 127 0" result="hardAlpha"/>
<feMorphology radius="5" operator="dilate" in="SourceAlpha" result="effect1_dropShadow_778_342"/>
<feOffset/>
<feGaussianBlur stdDeviation="7.5"/>
<feComposite in2="hardAlpha" operator="out"/>
<feColorMatrix type="matrix" values="0 0 0 0 1 0 0 0 0 0.560784 0 0 0 0 0.560784 0 0 0 1 0"/>
<feBlend mode="normal" in2="BackgroundImageFix" result="effect1_dropShadow_778_342"/>
<feBlend mode="normal" in="SourceGraphic" in2="effect1_dropShadow_778_342" result="shape"/>
</filter>
<filter id="filter2_d_778_342" x="1225" y="130" width="48" height="48" filterUnits="userSpaceOnUse" color-interpolation-filters="sRGB">
<feFlood flood-opacity="0" result="BackgroundImageFix"/>
<feColorMatrix in="SourceAlpha" type="matrix" values="0 0 0 0 0 0 0 0 0 0 0 0 0 0 0 0 0 0 127 0" result="hardAlpha"/>
<feMorphology radius="5" operator="dilate" in="SourceAlpha" result="effect1_dropShadow_778_342"/>
<feOffset/>
<feGaussianBlur stdDeviation="7.5"/>
<feComposite in2="hardAlpha" operator="out"/>
<feColorMatrix type="matrix" values="0 0 0 0 1 0 0 0 0 0.560784 0 0 0 0 0.560784 0 0 0 1 0"/>
<feBlend mode="normal" in2="BackgroundImageFix" result="effect1_dropShadow_778_342"/>
<feBlend mode="normal" in="SourceGraphic" in2="effect1_dropShadow_778_342" result="shape"/>
</filter>
<filter id="filter3_d_778_342" x="909" y="191" width="48" height="48" filterUnits="userSpaceOnUse" color-interpolation-filters="sRGB">
<feFlood flood-opacity="0" result="BackgroundImageFix"/>
<feColorMatrix in="SourceAlpha" type="matrix" values="0 0 0 0 0 0 0 0 0 0 0 0 0 0 0 0 0 0 127 0" result="hardAlpha"/>
<feMorphology radius="5" operator="dilate" in="SourceAlpha" result="effect1_dropShadow_778_342"/>
<feOffset/>
<feGaussianBlur stdDeviation="7.5"/>
<feComposite in2="hardAlpha" operator="out"/>
<feColorMatrix type="matrix" values="0 0 0 0 1 0 0 0 0 0.560784 0 0 0 0 0.560784 0 0 0 1 0"/>
<feBlend mode="normal" in2="BackgroundImageFix" result="effect1_dropShadow_778_342"/>
<feBlend mode="normal" in="SourceGraphic" in2="effect1_dropShadow_778_342" result="shape"/>
</filter>
<filter id="filter4_d_778_342" x="1225" y="337" width="48" height="48" filterUnits="userSpaceOnUse" color-interpolation-filters="sRGB">
<feFlood flood-opacity="0" result="BackgroundImageFix"/>
<feColorMatrix in="SourceAlpha" type="matrix" values="0 0 0 0 0 0 0 0 0 0 0 0 0 0 0 0 0 0 127 0" result="hardAlpha"/>
<feMorphology radius="5" operator="dilate" in="SourceAlpha" result="effect1_dropShadow_778_342"/>
<feOffset/>
<feGaussianBlur stdDeviation="7.5"/>
<feComposite in2="hardAlpha" operator="out"/>
<feColorMatrix type="matrix" values="0 0 0 0 1 0 0 0 0 0.560784 0 0 0 0 0.560784 0 0 0 1 0"/>
<feBlend mode="normal" in2="BackgroundImageFix" result="effect1_dropShadow_778_342"/>
<feBlend mode="normal" in="SourceGraphic" in2="effect1_dropShadow_778_342" result="shape"/>
</filter>
<filter id="filter5_d_778_342" x="1095" y="409" width="48" height="48" filterUnits="userSpaceOnUse" color-interpolation-filters="sRGB">
<feFlood flood-opacity="0" result="BackgroundImageFix"/>
<feColorMatrix in="SourceAlpha" type="matrix" values="0 0 0 0 0 0 0 0 0 0 0 0 0 0 0 0 0 0 127 0" result="hardAlpha"/>
<feMorphology radius="5" operator="dilate" in="SourceAlpha" result="effect1_dropShadow_778_342"/>
<feOffset/>
<feGaussianBlur stdDeviation="7.5"/>
<feComposite in2="hardAlpha" operator="out"/>
<feColorMatrix type="matrix" values="0 0 0 0 1 0 0 0 0 0.560784 0 0 0 0 0.560784 0 0 0 1 0"/>
<feBlend mode="normal" in2="BackgroundImageFix" result="effect1_dropShadow_778_342"/>
<feBlend mode="normal" in="SourceGraphic" in2="effect1_dropShadow_778_342" result="shape"/>
</filter>
<filter id="filter6_d_778_342" x="288" y="455" width="48" height="48" filterUnits="userSpaceOnUse" color-interpolation-filters="sRGB">
<feFlood flood-opacity="0" result="BackgroundImageFix"/>
<feColorMatrix in="SourceAlpha" type="matrix" values="0 0 0 0 0 0 0 0 0 0 0 0 0 0 0 0 0 0 127 0" result="hardAlpha"/>
<feMorphology radius="5" operator="dilate" in="SourceAlpha" result="effect1_dropShadow_778_342"/>
<feOffset/>
<feGaussianBlur stdDeviation="7.5"/>
<feComposite in2="hardAlpha" operator="out"/>
<feColorMatrix type="matrix" values="0 0 0 0 1 0 0 0 0 0.560784 0 0 0 0 0.560784 0 0 0 1 0"/>
<feBlend mode="normal" in2="BackgroundImageFix" result="effect1_dropShadow_778_342"/>
<feBlend mode="normal" in="SourceGraphic" in2="effect1_dropShadow_778_342" result="shape"/>
</filter>
<filter id="filter7_d_778_342" x="60" y="428" width="48" height="48" filterUnits="userSpaceOnUse" color-interpolation-filters="sRGB">
<feFlood flood-opacity="0" result="BackgroundImageFix"/>
<feColorMatrix in="SourceAlpha" type="matrix" values="0 0 0 0 0 0 0 0 0 0 0 0 0 0 0 0 0 0 127 0" result="hardAlpha"/>
<feMorphology radius="5" operator="dilate" in="SourceAlpha" result="effect1_dropShadow_778_342"/>
<feOffset/>
<feGaussianBlur stdDeviation="7.5"/>
<feComposite in2="hardAlpha" operator="out"/>
<feColorMatrix type="matrix" values="0 0 0 0 1 0 0 0 0 0.560784 0 0 0 0 0.560784 0 0 0 1 0"/>
<feBlend mode="normal" in2="BackgroundImageFix" result="effect1_dropShadow_778_342"/>
<feBlend mode="normal" in="SourceGraphic" in2="effect1_dropShadow_778_342" result="shape"/>
</filter>
<filter id="filter8_d_778_342" x="423" y="79" width="48" height="48" filterUnits="userSpaceOnUse" color-interpolation-filters="sRGB">
<feFlood flood-opacity="0" result="BackgroundImageFix"/>
<feColorMatrix in="SourceAlpha" type="matrix" values="0 0 0 0 0 0 0 0 0 0 0 0 0 0 0 0 0 0 127 0" result="hardAlpha"/>
<feMorphology radius="5" operator="dilate" in="SourceAlpha" result="effect1_dropShadow_778_342"/>
<feOffset/>
<feGaussianBlur stdDeviation="7.5"/>
<feComposite in2="hardAlpha" operator="out"/>
<feColorMatrix type="matrix" values="0 0 0 0 1 0 0 0 0 0.560784 0 0 0 0 0.560784 0 0 0 1 0"/>
<feBlend mode="normal" in2="BackgroundImageFix" result="effect1_dropShadow_778_342"/>
<feBlend mode="normal" in="SourceGraphic" in2="effect1_dropShadow_778_342" result="shape"/>
</filter>
<filter id="filter9_d_778_342" x="415" y="240" width="48" height="48" filterUnits="userSpaceOnUse" color-interpolation-filters="sRGB">
<feFlood flood-opacity="0" result="BackgroundImageFix"/>
<feColorMatrix in="SourceAlpha" type="matrix" values="0 0 0 0 0 0 0 0 0 0 0 0 0 0 0 0 0 0 127 0" result="hardAlpha"/>
<feMorphology radius="5" operator="dilate" in="SourceAlpha" result="effect1_dropShadow_778_342"/>
<feOffset/>
<feGaussianBlur stdDeviation="7.5"/>
<feComposite in2="hardAlpha" operator="out"/>
<feColorMatrix type="matrix" values="0 0 0 0 1 0 0 0 0 0.560784 0 0 0 0 0.560784 0 0 0 1 0"/>
<feBlend mode="normal" in2="BackgroundImageFix" result="effect1_dropShadow_778_342"/>
<feBlend mode="normal" in="SourceGraphic" in2="effect1_dropShadow_778_342" result="shape"/>
</filter>
<filter id="filter10_d_778_342" x="183" y="188" width="48" height="48" filterUnits="userSpaceOnUse" color-interpolation-filters="sRGB">
<feFlood flood-opacity="0" result="BackgroundImageFix"/>
<feColorMatrix in="SourceAlpha" type="matrix" values="0 0 0 0 0 0 0 0 0 0 0 0 0 0 0 0 0 0 127 0" result="hardAlpha"/>
<feMorphology radius="5" operator="dilate" in="SourceAlpha" result="effect1_dropShadow_778_342"/>
<feOffset/>
<feGaussianBlur stdDeviation="7.5"/>
<feComposite in2="hardAlpha" operator="out"/>
<feColorMatrix type="matrix" values="0 0 0 0 1 0 0 0 0 0.560784 0 0 0 0 0.560784 0 0 0 1 0"/>
<feBlend mode="normal" in2="BackgroundImageFix" result="effect1_dropShadow_778_342"/>
<feBlend mode="normal" in="SourceGraphic" in2="effect1_dropShadow_778_342" result="shape"/>
</filter>
<filter id="filter11_d_778_342" x="63" y="77" width="48" height="48" filterUnits="userSpaceOnUse" color-interpolation-filters="sRGB">
<feFlood flood-opacity="0" result="BackgroundImageFix"/>
<feColorMatrix in="SourceAlpha" type="matrix" values="0 0 0 0 0 0 0 0 0 0 0 0 0 0 0 0 0 0 127 0" result="hardAlpha"/>
<feMorphology radius="5" operator="dilate" in="SourceAlpha" result="effect1_dropShadow_778_342"/>
<feOffset/>
<feGaussianBlur stdDeviation="7.5"/>
<feComposite in2="hardAlpha" operator="out"/>
<feColorMatrix type="matrix" values="0 0 0 0 1 0 0 0 0 0.560784 0 0 0 0 0.560784 0 0 0 1 0"/>
<feBlend mode="normal" in2="BackgroundImageFix" result="effect1_dropShadow_778_342"/>
<feBlend mode="normal" in="SourceGraphic" in2="effect1_dropShadow_778_342" result="shape"/>
</filter>
<linearGradient id="paint0_linear_778_342" x1="298" y1="100.872" x2="298" y2="130.872" gradientUnits="userSpaceOnUse">
<stop stop-color="#3B0E2A"/>
<stop offset="1" stop-color="#710A3C"/>
</linearGradient>
<linearGradient id="paint1_linear_778_342" x1="549" y1="526.872" x2="549" y2="556.872" gradientUnits="userSpaceOnUse">
<stop stop-color="#3B0E2A"/>
<stop offset="1" stop-color="#710A3C"/>
</linearGradient>
<linearGradient id="paint2_linear_778_342" x1="966" y1="462.872" x2="966" y2="492.872" gradientUnits="userSpaceOnUse">
<stop stop-color="#3B0E2A"/>
<stop offset="1" stop-color="#710A3C"/>
</linearGradient>
<linearGradient id="paint3_linear_778_342" x1="1064" y1="18.8721" x2="1064" y2="48.8721" gradientUnits="userSpaceOnUse">
<stop stop-color="#3B0E2A"/>
<stop offset="1" stop-color="#710A3C"/>
</linearGradient>
<clipPath id="clip0_778_342">
<rect width="1366" height="646" fill="white"/>
</clipPath>
</defs>
</svg>
