<svg width="763" height="405" viewBox="0 0 763 405" fill="none" xmlns="http://www.w3.org/2000/svg">
<g clip-path="url(#clip0_788_1010)">
<rect opacity="0.5" x="17" y="318.553" width="500" height="500" rx="100" transform="rotate(-45 17 318.553)" fill="url(#paint0_linear_788_1010)"/>
<path d="M304.824 288.932H277.658V357.134H304.824V288.932Z" fill="#C1365B"/>
<path d="M366.043 229.06H338.875V357.135H366.043V229.06Z" fill="#FF8F8F"/>
<path d="M427.26 242.303H400.094V357.134H427.26V242.303Z" fill="#C1365B"/>
<path d="M488.478 177.469H461.311V357.135H488.478V177.469Z" fill="#FF8F8F"/>
<path d="M280.031 254.599L264.611 236.176L339.736 173.027L405.063 183.915L479.179 126.667L482.169 129.352L411.499 208.025L347.405 194.101L280.031 254.599Z" fill="#C1365B"/>
<path d="M483.228 164.672L440.246 123.455L495.735 108.608L483.228 164.672Z" fill="#C1365B"/>
<path d="M505.098 287.61C514.242 296.754 529.054 296.741 538.199 287.61C547.343 278.466 547.343 263.654 538.199 254.509C529.055 245.365 514.243 245.351 505.098 254.509C495.954 263.64 495.954 278.465 505.098 287.61ZM508.794 258.205C515.899 251.1 527.398 251.1 534.502 258.205C541.607 265.296 541.607 276.809 534.502 283.913C527.411 291.018 515.898 291.018 508.794 283.913C501.689 276.809 501.689 265.296 508.794 258.205Z" fill="#710A3C"/>
<path d="M507.207 277.001C507.002 272.744 508.535 268.404 511.793 265.16C517.926 259.013 527.85 259.013 533.983 265.16C535.598 266.775 536.789 268.651 537.556 270.663C537.364 266.912 535.845 263.202 532.97 260.341C526.837 254.208 516.913 254.208 510.78 260.341C506.276 264.845 505.072 271.402 507.207 277.001Z" fill="#FF8F8F"/>
<path d="M561.822 311.081C563.005 309.898 563.005 307.979 561.822 306.795L539.53 284.503L535.244 288.789L557.536 311.081C558.72 312.264 560.638 312.264 561.822 311.081Z" fill="#710A3C"/>
<path d="M565.56 314.82C567.205 313.175 567.205 310.508 565.56 308.864L544.939 288.243C544.478 287.782 543.73 287.782 543.268 288.243L538.982 292.529C538.521 292.99 538.521 293.738 538.982 294.2L559.603 314.821C561.248 316.465 563.915 316.465 565.56 314.82Z" fill="#C1365B"/>
<path d="M226.398 317.427C238.978 316.63 248.531 305.786 247.734 293.206C246.937 280.626 236.093 271.074 223.513 271.87C210.933 272.667 201.38 283.511 202.177 296.091C202.974 308.672 213.818 318.224 226.398 317.427Z" fill="#710A3C"/>
<path d="M234.689 284.018L230.766 282.555C230.111 282.311 229.382 282.644 229.137 283.299L223.806 297.592C223.567 298.233 222.862 298.568 222.213 298.349L216.091 296.275C215.429 296.051 214.71 296.405 214.485 297.068L213.141 301.034C212.917 301.696 213.272 302.415 213.934 302.64L226.23 306.806C226.878 307.026 227.583 306.69 227.823 306.049L235.432 285.648C235.677 284.992 235.344 284.263 234.689 284.018Z" fill="#FF8F8F"/>
<path d="M614.397 134.853C619.462 146.411 614.199 159.886 602.642 164.951C591.084 170.016 577.609 164.753 572.544 153.196C567.479 141.638 572.742 128.163 584.3 123.098C595.857 118.032 609.332 123.295 614.397 134.853Z" fill="#710A3C"/>
<path d="M138.799 206.352C151.816 206.352 162.368 195.799 162.368 182.782C162.368 169.765 151.816 159.212 138.799 159.212C125.781 159.212 115.229 169.765 115.229 182.782C115.229 195.799 125.781 206.352 138.799 206.352Z" fill="#710A3C"/>
<path d="M132 170.997L149.454 182.782L132 194.568V170.997Z" fill="#FF8F8F"/>
<path opacity="0.4" d="M96.3802 272.866V255.094C94.5722 255.133 93.0122 255.403 91.2492 255.976C86.6472 257.471 82.9022 260.669 80.7062 264.981C78.5802 269.153 78.1502 273.886 79.4792 278.358L96.3802 272.866Z" fill="#FF8F8F"/>
<path d="M104.887 276.308L96.8466 273.696L79.7656 279.246C81.6916 284.754 85.6546 288.617 91.2476 290.435C93.0696 291.027 94.9536 291.327 96.8496 291.327C104.564 291.327 111.368 286.492 113.926 279.246L104.887 276.308Z" fill="#FF8F8F"/>
<path opacity="0.1" d="M107.87 258.827L97.6016 272.959L114.215 278.357C116.4 271.039 113.939 263.464 107.87 258.827Z" fill="#FF8F8F"/>
<path opacity="0.62" d="M97.3145 271.768L107.115 258.278C104.109 256.192 100.972 255.173 97.3145 255.093V271.768Z" fill="#FF8F8F"/>
<path d="M189.626 111.785C204.595 111.785 216.729 99.6507 216.729 84.6821C216.729 69.7135 204.595 57.5791 189.626 57.5791C174.658 57.5791 162.523 69.7135 162.523 84.6821C162.523 99.6507 174.658 111.785 189.626 111.785Z" fill="#710A3C"/>
<path d="M196.6 81.6141L193.617 76.0351L188.557 79.6421L186.231 76.3791C185.177 74.9001 184.871 73.5971 186.992 72.0861L189.695 70.1581L186.438 65.5881C185.927 65.8591 184.223 66.8631 182.353 68.1961C178.451 70.9771 177.48 75.2611 180.597 79.6331L183.283 83.4011L178.871 86.5461L182.513 91.6561L186.925 88.5111L196.269 101.62L201.544 97.8601L192.2 84.7511L196.6 81.6141Z" fill="#FF8F8F"/>
<path d="M536.477 55.927C536.477 70.049 525.028 81.498 510.906 81.498C496.783 81.498 485.334 70.05 485.334 55.927C485.334 41.804 496.783 30.355 510.906 30.355C525.029 30.355 536.477 41.804 536.477 55.927Z" fill="#710A3C"/>
<path fill-rule="evenodd" clip-rule="evenodd" d="M519.335 48.2132C519.731 47.829 519.742 47.1959 519.357 46.7992C518.973 46.4024 518.34 46.3922 517.943 46.7764L513.116 51.4508L507.699 47.2413C506.908 46.6271 505.785 46.692 505.071 47.3931L499.989 52.3798C499.595 52.7666 499.589 53.3997 499.976 53.7939C500.363 54.1881 500.996 54.1941 501.39 53.8073L505.623 49.6534L505.792 53.5953C505.67 53.6722 505.556 53.7633 505.451 53.8684L500.781 58.5246C500.39 58.9146 500.389 59.5478 500.779 59.9388C501.169 60.3299 501.802 60.3308 502.193 59.9409L505.905 56.24L506.093 60.6447C505.944 60.7304 505.804 60.8366 505.677 60.9631L501.008 65.6194C500.617 66.0093 500.616 66.6425 501.006 67.0336C501.396 67.4247 502.029 67.4256 502.42 67.0356L507.038 62.4309C507.078 62.4345 507.119 62.4357 507.16 62.4343L512.499 66.5824C513.288 67.1953 514.408 67.1322 515.123 66.4344L519.907 61.765C520.303 61.3793 520.31 60.7462 519.925 60.3509C519.539 59.9556 518.906 59.9479 518.51 60.3336L514.485 64.2623L514.359 59.7146C514.553 59.6223 514.735 59.4972 514.896 59.3397L519.681 54.6703C520.076 54.2845 520.084 53.6514 519.698 53.2562C519.312 52.8609 518.679 52.8532 518.284 53.2389L514.287 57.1392L514.177 53.147C514.294 53.0736 514.405 52.9871 514.508 52.8875L519.335 48.2132ZM512.178 53.217C512.078 53.1639 511.981 53.1016 511.889 53.03L507.628 49.7189L507.79 53.5123C507.894 53.5668 507.994 53.6311 508.09 53.7054L512.282 56.9623L512.178 53.217ZM512.353 59.5475L512.478 64.0333L508.316 60.8001C508.245 60.7448 508.171 60.6949 508.095 60.6506L507.9 56.0907L512.272 59.4876C512.299 59.5084 512.326 59.5283 512.353 59.5475Z" fill="#FF8F8F"/>
<path d="M624.164 282.718C624.164 282.718 629.253 288.139 633.829 292.631C638.405 297.124 644.54 301.016 644.54 301.016C644.54 301.016 646.733 300.217 650.421 298.118C654.11 296.019 654.423 295.133 654.423 295.133C654.423 295.133 652.9 290.598 649.967 290.694C649.368 288.909 648.276 286.691 645.975 286.814C645.603 284.804 643.709 280.846 640.711 280.468C640.656 278.19 639.314 276.377 639.314 276.377L624.164 282.718Z" fill="#FF8F8F"/>
<path d="M644.125 275.187L647.272 280.89C647.272 280.89 646.659 281.698 645.642 282.031C644.625 282.363 642.113 279.89 641.376 278.623C640.639 277.356 639.921 275.671 639.921 275.671L644.125 275.187ZM607.79 271.241C607.79 271.241 607.743 272.135 608.167 273.822C606.599 275.432 606.13 277.914 607.18 280.045C608.23 282.176 610.484 283.317 612.716 283.054C613.796 284.417 614.533 284.925 614.533 284.925L619.536 283.832L615.62 275.886L611.704 267.94L607.79 271.241Z" fill="#FF8F8F"/>
<path d="M639.762 243.975C635.015 253.506 624.274 259.665 619.288 262.382C614.302 265.099 612.772 265.333 611.79 266.857C610.808 268.38 614.794 276.293 614.794 276.293C614.794 276.293 618.641 284.274 620.447 284.424C622.254 284.573 623.372 283.502 628.564 281.204C633.756 278.905 645.184 274.14 655.633 276.182C666.083 278.224 671.462 279.645 671.462 279.645L659.06 254.479L646.659 229.313C646.659 229.313 644.509 234.444 639.762 243.975Z" fill="#C1365B"/>
<path d="M675.663 272.918C676.495 275.882 675.855 278.129 673.498 279.291C671.141 280.452 668.94 279.675 667.125 277.125C667.125 277.125 664.71 275.057 655.446 256.259C646.182 237.461 646.014 234.286 646.014 234.286C645.626 231.206 645.822 229.075 648.179 227.914C650.537 226.752 652.382 227.518 654.552 230.079C654.552 230.079 657.707 233.649 666.23 250.945C674.755 268.241 675.663 272.918 675.663 272.918Z" fill="#FF8F8F"/>
<path d="M665.406 251.351C671.674 264.07 674.471 275.507 674.471 275.507C674.471 275.507 667.105 266.322 660.838 253.603C654.57 240.884 651.773 229.448 651.773 229.448C651.773 229.448 659.139 238.632 665.406 251.351Z" fill="#710A3C"/>
<path d="M670.189 227.179C669.9 227.179 669.611 227.088 669.364 226.9C668.767 226.443 668.654 225.59 669.11 224.993L685.515 203.534C685.971 202.936 686.824 202.824 687.422 203.279C688.019 203.736 688.132 204.589 687.676 205.186L671.271 226.645C671.003 226.996 670.598 227.179 670.189 227.179Z" fill="#FF8F8F"/>
<path d="M676.379 234.7C675.959 234.7 675.546 234.506 675.279 234.142C674.836 233.535 674.969 232.684 675.576 232.241L693.282 219.314C693.888 218.87 694.74 219.004 695.183 219.611C695.626 220.218 695.493 221.069 694.886 221.512L677.18 234.439C676.938 234.615 676.657 234.7 676.379 234.7Z" fill="#FF8F8F"/>
<path d="M680.896 245.346C680.324 245.346 679.792 244.983 679.604 244.41C679.369 243.696 679.757 242.927 680.471 242.693L710.829 232.707C711.544 232.471 712.312 232.861 712.546 233.574C712.781 234.288 712.393 235.057 711.679 235.291L681.321 245.277C681.18 245.324 681.037 245.346 680.896 245.346Z" fill="#FF8F8F"/>
<path d="M685.964 258.656C685.278 258.656 684.688 258.138 684.613 257.44C684.533 256.693 685.074 256.023 685.821 255.943L708.934 253.477C709.668 253.404 710.351 253.938 710.431 254.685C710.511 255.432 709.97 256.102 709.223 256.182L686.11 258.648C686.061 258.654 686.012 258.656 685.964 258.656Z" fill="#FF8F8F"/>
<g clip-path="url(#clip1_788_1010)">
<path d="M373 30C351.84 30 329 46.824 329 74C329 87.412 334.336 98.696 344.584 107.248C344.69 107.381 344.814 107.5 344.952 107.6C352.556 115.848 352.94 117.416 352.992 121.044C353.016 122.48 353.004 122.904 352.992 123.136L352.976 123.972C352.916 125.78 352.824 128.808 356.572 129.952L388.948 137.076C389.205 137.132 389.47 137.137 389.728 137.091C389.987 137.045 390.234 136.948 390.455 136.806C390.676 136.665 390.867 136.481 391.018 136.265C391.168 136.05 391.274 135.807 391.33 135.55C391.386 135.293 391.391 135.028 391.345 134.77C391.299 134.511 391.202 134.264 391.06 134.043C390.919 133.822 390.735 133.631 390.519 133.48C390.304 133.33 390.061 133.224 389.804 133.168L357.584 126.084C356.964 125.896 356.912 125.88 356.968 124.092L356.98 123.328C356.98 123.328 357.02 123.016 356.988 120.984C356.912 115.908 355.808 113.456 347.752 104.748C347.598 104.558 347.411 104.398 347.2 104.276C337.776 96.264 333 86.08 333 74C333 49.292 353.76 34 373 34C392.664 34 413 48.964 413 74C413 89.912 405.288 98.684 398.928 104.204C398.706 104.311 398.506 104.459 398.34 104.64C390.192 113.456 389.088 115.908 389.012 120.984V121.396L389.008 121.536C388.996 121.84 388.952 122.008 388.956 122.072C388.8 122.048 388.644 122.024 388.488 122L371.708 118.052C371.452 117.992 371.187 117.983 370.928 118.025C370.668 118.067 370.42 118.16 370.196 118.299C369.973 118.437 369.779 118.618 369.626 118.831C369.472 119.045 369.362 119.286 369.302 119.542C369.242 119.798 369.233 120.063 369.275 120.322C369.317 120.582 369.41 120.83 369.549 121.054C369.687 121.277 369.868 121.471 370.081 121.624C370.295 121.778 370.536 121.888 370.792 121.948L387.368 125.836C387.588 125.916 389.58 126.564 391.26 125.384C391.992 124.868 392.844 123.856 392.996 121.92L393.008 121.732L393.016 121.336L393.012 121.232L393.016 121.048C393.068 117.44 393.444 115.872 401.036 107.624C401.072 107.596 401.112 107.568 401.144 107.536C411.812 98.572 417 87.6 417 74C417 46.46 394.628 30 373 30Z" fill="#FF8F8F"/>
<path d="M389 148C389.454 148.001 389.894 147.846 390.248 147.563C390.603 147.279 390.85 146.883 390.948 146.44C391.006 146.184 391.014 145.919 390.97 145.66C390.926 145.401 390.831 145.153 390.69 144.931C390.55 144.709 390.368 144.516 390.153 144.365C389.939 144.213 389.696 144.106 389.44 144.048L357.44 136.792C356.928 136.688 356.396 136.789 355.957 137.073C355.518 137.356 355.208 137.8 355.092 138.31C354.977 138.82 355.065 139.354 355.339 139.799C355.612 140.244 356.049 140.565 356.556 140.692L388.556 147.948C388.701 147.982 388.85 148 389 148Z" fill="#FF8F8F"/>
<path d="M359.435 148.216C359.175 148.147 358.904 148.132 358.638 148.17C358.372 148.209 358.116 148.3 357.886 148.44C357.656 148.58 357.457 148.764 357.3 148.982C357.143 149.201 357.031 149.449 356.972 149.711C356.913 149.974 356.908 150.245 356.957 150.51C357.005 150.774 357.106 151.026 357.254 151.251C357.403 151.476 357.594 151.668 357.819 151.816C358.043 151.965 358.295 152.067 358.559 152.116L384.559 157.948C384.819 158.017 385.09 158.032 385.357 157.994C385.623 157.956 385.878 157.864 386.108 157.724C386.338 157.584 386.538 157.4 386.695 157.182C386.852 156.963 386.963 156.715 387.022 156.453C387.081 156.19 387.086 155.919 387.038 155.654C386.989 155.39 386.888 155.138 386.74 154.913C386.592 154.688 386.4 154.496 386.176 154.348C385.952 154.199 385.7 154.097 385.435 154.048L359.435 148.216Z" fill="#FF8F8F"/>
<g filter="url(#filter0_d_788_1010)">
<path d="M373 90C381.837 90 389 82.8366 389 74C389 65.1634 381.837 58 373 58C364.163 58 357 65.1634 357 74C357 82.8366 364.163 90 373 90Z" fill="#C1365B"/>
<path d="M373 88C380.732 88 387 81.732 387 74C387 66.268 380.732 60 373 60C365.268 60 359 66.268 359 74C359 81.732 365.268 88 373 88Z" stroke="#FF8F8F" stroke-width="4"/>
</g>
<path d="M361 74H357V98H361V74Z" fill="#FF8F8F"/>
<path d="M359 98C359 102 362.798 104.014 365 108C367.534 112.586 365 118 371 120" stroke="#FF8F8F" stroke-width="4"/>
</g>
<rect y="357" width="763" height="48" rx="8" fill="#710A3C"/>
<path d="M592.5 160C589.45 160 586.525 158.787 584.368 156.628C582.212 154.469 581 151.541 581 148.488C581 147.159 581.353 145.884 581.767 144.697C584.323 147.225 586.264 148.488 587.594 148.488C581.468 137.744 584.833 133.14 594.034 127C593.267 134.674 598.321 138.165 600.379 140.103C602.058 141.684 603.223 143.732 603.725 145.984C604.226 148.235 604.04 150.586 603.191 152.73C602.342 154.874 600.869 156.714 598.962 158.01C597.056 159.307 594.805 160 592.5 160V160ZM591.412 132.733C586.442 136.954 586.417 140.234 590.257 146.967C591.424 149.013 589.947 151.558 587.594 151.558C586.539 151.558 585.471 151.251 584.344 150.645C584.678 151.908 585.301 153.076 586.163 154.058C587.025 155.039 588.102 155.807 589.311 156.301C590.52 156.794 591.826 157 593.128 156.903C594.43 156.805 595.691 156.406 596.813 155.737C597.934 155.069 598.885 154.149 599.591 153.05C600.297 151.95 600.739 150.702 600.881 149.403C601.023 148.104 600.862 146.79 600.41 145.564C599.959 144.338 599.229 143.234 598.278 142.338C598.085 142.157 597.105 141.287 597.062 141.248C596.412 140.665 595.877 140.148 595.348 139.581C593.462 137.558 592.106 135.314 591.413 132.733H591.412Z" fill="#FF8F8F"/>
<path d="M7.5 371.5H756.5" stroke="#FF8F8F" stroke-linecap="round"/>
<path d="M7.5 390.5H756.5" stroke="#FF8F8F" stroke-linecap="round"/>
</g>
<defs>
<filter id="filter0_d_788_1010" x="307" y="8" width="132" height="132" filterUnits="userSpaceOnUse" color-interpolation-filters="sRGB">
<feFlood flood-opacity="0" result="BackgroundImageFix"/>
<feColorMatrix in="SourceAlpha" type="matrix" values="0 0 0 0 0 0 0 0 0 0 0 0 0 0 0 0 0 0 127 0" result="hardAlpha"/>
<feOffset/>
<feGaussianBlur stdDeviation="25"/>
<feColorMatrix type="matrix" values="0 0 0 0 0.756863 0 0 0 0 0.211765 0 0 0 0 0.356863 0 0 0 1 0"/>
<feBlend mode="normal" in2="BackgroundImageFix" result="effect1_dropShadow_788_1010"/>
<feBlend mode="normal" in="SourceGraphic" in2="effect1_dropShadow_788_1010" result="shape"/>
</filter>
<linearGradient id="paint0_linear_788_1010" x1="267" y1="318.553" x2="267" y2="818.553" gradientUnits="userSpaceOnUse">
<stop stop-color="#3B0E2A"/>
<stop offset="1" stop-color="#710A3C"/>
</linearGradient>
<clipPath id="clip0_788_1010">
<rect width="763" height="405" fill="white"/>
</clipPath>
<clipPath id="clip1_788_1010">
<rect width="88" height="128" fill="white" transform="translate(329 30)"/>
</clipPath>
</defs>
</svg>
