<svg width="855" height="283" viewBox="0 0 855 283" fill="none" xmlns="http://www.w3.org/2000/svg">
<g clip-path="url(#clip0_790_1129)">
<rect x="252" y="24" width="392" height="256" rx="10" fill="#C1365B"/>
<rect x="231" width="392" height="256" rx="10" fill="url(#paint0_linear_790_1129)"/>
<path d="M231 39H622" stroke="#710A3C" stroke-linecap="round"/>
<circle cx="261" cy="19" r="9" fill="#710A3C"/>
<circle cx="289" cy="19" r="9" fill="#C1365B"/>
<circle cx="317" cy="19" r="9" fill="#FF8F8F"/>
<path d="M476.279 88.3218L382.279 181.822" stroke="#FF8F8F" stroke-width="20" stroke-linecap="round"/>
<path d="M379.572 88L474.487 181.144" stroke="#FF8F8F" stroke-width="20" stroke-linecap="round"/>
<rect y="256.104" width="85" height="85" rx="10" transform="rotate(-45 0 256.104)" fill="url(#paint1_linear_790_1129)"/>
<rect x="686" y="19.104" width="85" height="85" rx="10" transform="rotate(-45 686 19.104)" fill="url(#paint2_linear_790_1129)"/>
<rect x="90.0527" y="98.052" width="42.5" height="42.5" rx="8" transform="rotate(-45 90.0527 98.052)" fill="url(#paint3_linear_790_1129)"/>
<rect x="686" y="128.052" width="42.5" height="42.5" rx="8" transform="rotate(-45 686 128.052)" fill="url(#paint4_linear_790_1129)"/>
<rect x="812" y="231.052" width="42.5" height="42.5" rx="8" transform="rotate(-45 812 231.052)" fill="url(#paint5_linear_790_1129)"/>
<rect x="45.0254" y="120.026" width="21.2501" height="21.2501" rx="2" transform="rotate(-45 45.0254 120.026)" fill="url(#paint6_linear_790_1129)"/>
<rect x="779" y="166.026" width="21.2501" height="21.2501" rx="2" transform="rotate(-45 779 166.026)" fill="url(#paint7_linear_790_1129)"/>
<rect x="171" y="246.026" width="21.2501" height="21.2501" rx="2" transform="rotate(-45 171 246.026)" fill="url(#paint8_linear_790_1129)"/>
<rect x="731" y="246.026" width="21.2501" height="21.2501" rx="2" transform="rotate(-45 731 246.026)" fill="url(#paint9_linear_790_1129)"/>
</g>
<defs>
<linearGradient id="paint0_linear_790_1129" x1="427" y1="0" x2="427" y2="256" gradientUnits="userSpaceOnUse">
<stop stop-color="#3B0E2A"/>
<stop offset="1" stop-color="#710A3C"/>
</linearGradient>
<linearGradient id="paint1_linear_790_1129" x1="42.5" y1="256.104" x2="42.5" y2="341.104" gradientUnits="userSpaceOnUse">
<stop stop-color="#3B0E2A"/>
<stop offset="1" stop-color="#710A3C"/>
</linearGradient>
<linearGradient id="paint2_linear_790_1129" x1="728.5" y1="19.104" x2="728.5" y2="104.104" gradientUnits="userSpaceOnUse">
<stop stop-color="#3B0E2A"/>
<stop offset="1" stop-color="#710A3C"/>
</linearGradient>
<linearGradient id="paint3_linear_790_1129" x1="111.303" y1="98.052" x2="111.303" y2="140.552" gradientUnits="userSpaceOnUse">
<stop stop-color="#3B0E2A"/>
<stop offset="1" stop-color="#710A3C"/>
</linearGradient>
<linearGradient id="paint4_linear_790_1129" x1="707.25" y1="128.052" x2="707.25" y2="170.552" gradientUnits="userSpaceOnUse">
<stop stop-color="#3B0E2A"/>
<stop offset="1" stop-color="#710A3C"/>
</linearGradient>
<linearGradient id="paint5_linear_790_1129" x1="833.25" y1="231.052" x2="833.25" y2="273.552" gradientUnits="userSpaceOnUse">
<stop stop-color="#3B0E2A"/>
<stop offset="1" stop-color="#710A3C"/>
</linearGradient>
<linearGradient id="paint6_linear_790_1129" x1="55.6504" y1="120.026" x2="55.6504" y2="141.276" gradientUnits="userSpaceOnUse">
<stop stop-color="#3B0E2A"/>
<stop offset="1" stop-color="#710A3C"/>
</linearGradient>
<linearGradient id="paint7_linear_790_1129" x1="789.625" y1="166.026" x2="789.625" y2="187.276" gradientUnits="userSpaceOnUse">
<stop stop-color="#3B0E2A"/>
<stop offset="1" stop-color="#710A3C"/>
</linearGradient>
<linearGradient id="paint8_linear_790_1129" x1="181.625" y1="246.026" x2="181.625" y2="267.276" gradientUnits="userSpaceOnUse">
<stop stop-color="#3B0E2A"/>
<stop offset="1" stop-color="#710A3C"/>
</linearGradient>
<linearGradient id="paint9_linear_790_1129" x1="741.625" y1="246.026" x2="741.625" y2="267.276" gradientUnits="userSpaceOnUse">
<stop stop-color="#3B0E2A"/>
<stop offset="1" stop-color="#710A3C"/>
</linearGradient>
<clipPath id="clip0_790_1129">
<rect width="854.01" height="282.74" fill="white"/>
</clipPath>
</defs>
</svg>
