<svg width="309" height="224" viewBox="0 0 309 224" fill="none" xmlns="http://www.w3.org/2000/svg">
<path d="M133.52 50.7H176.11V55.6399H133.52V50.7Z" fill="#DD3C3C"/>
<path d="M211.73 50.7H254.32V55.6399H211.73V50.7Z" fill="#FF8F8F"/>
<path d="M107.81 112.16H307.83V58.3501H80.0098V99.6601H106.96" stroke="#C1365B" stroke-linejoin="round"/>
<path fill-rule="evenodd" clip-rule="evenodd" d="M121.26 67.3899H248.61V103.13H121.26V67.3899Z" fill="#FF8F8F" stroke="#FF8F8F" stroke-linejoin="round"/>
<path d="M130.68 88.02H239.19V95.51H130.68V88.02Z" fill="url(#paint0_linear_783_697)"/>
<path d="M21.6792 96.52L13.1992 149.66H71.0292L72.1492 142.44" stroke="#C1365B" stroke-linejoin="round"/>
<path d="M120.18 88.33C113.39 88.33 103.18 84.04 84.1802 75C81.6902 73.81 78.6502 72.37 77.3302 71.8C74.8007 71.1515 72.5614 69.674 70.97 67.6035C69.3787 65.5331 68.5271 62.989 68.5513 60.3778C68.5755 57.7665 69.474 55.2386 71.1034 53.198C72.7328 51.1573 74.9991 49.7216 77.5402 49.12C81.9602 48.12 84.0702 49.12 94.2202 53.91C99.5302 56.43 112.55 62.63 118.56 64.49C121.56 61.8 126.73 55.76 130.01 51.91C140.14 40 146.84 32.12 155.66 32.12C158.526 32.0658 161.312 33.0674 163.487 34.934C165.662 36.8006 167.075 39.4019 167.457 42.2427C167.839 45.0835 167.162 47.9655 165.557 50.3401C163.951 52.7146 161.529 54.4159 158.75 55.12C156.29 57.12 151.24 63.06 147.8 67.12C136.23 80.64 129.24 88.33 120.18 88.33V88.33Z" fill="white" stroke="#101C3D" stroke-linejoin="round"/>
<path d="M71.6798 52.8699C76.6798 51.4699 79.1298 52.5299 90.9398 57.5699C97.1098 60.2099 112.25 66.6899 119.2 68.5699C122.55 65.3599 128.13 58.2399 131.7 53.6899C139.22 44.0999 145 36.7399 151.11 32.8999C144.34 35.1099 138.33 42.1499 130 51.8999C126.72 55.7499 121.59 61.7899 118.55 64.4799C112.55 62.6199 99.5498 56.4199 94.2098 53.8999C84.0598 49.0799 81.9998 48.0699 77.5298 49.1199C75.0717 49.6928 72.8692 51.0557 71.2598 52.9999C71.3998 52.9999 71.5298 52.9099 71.6798 52.8699Z" fill="#EDF0F5"/>
<path fill-rule="evenodd" clip-rule="evenodd" d="M120.18 88.33C113.39 88.33 103.18 84.04 84.1802 75C81.6902 73.81 78.6502 72.37 77.3302 71.8C74.8007 71.1515 72.5614 69.674 70.97 67.6035C69.3787 65.5331 68.5271 62.989 68.5513 60.3778C68.5755 57.7665 69.474 55.2386 71.1034 53.198C72.7328 51.1573 74.9991 49.7216 77.5402 49.12C81.9602 48.12 84.0702 49.12 94.2202 53.91C99.5302 56.43 112.55 62.63 118.56 64.49C121.56 61.8 126.73 55.76 130.01 51.91C140.14 40 146.84 32.12 155.66 32.12C158.526 32.0658 161.312 33.0674 163.487 34.934C165.662 36.8006 167.075 39.4019 167.457 42.2427C167.839 45.0835 167.162 47.9655 165.557 50.3401C163.951 52.7146 161.529 54.4159 158.75 55.12C156.29 57.12 151.24 63.06 147.8 67.12C136.23 80.64 129.24 88.33 120.18 88.33V88.33Z" stroke="#101C3D" stroke-linejoin="round"/>
<path d="M21.5194 84.8301C21.5194 83.4901 21.5894 82.1701 21.7094 80.8301C20.9619 85.093 20.8406 89.4421 21.3494 93.7401V93.9201L21.4894 95.1201V84.8301H21.5194V84.8301Z" fill="#FF4148"/>
<path d="M110.281 149.66L106.961 99.6599" stroke="#C1365B" stroke-linejoin="round"/>
<path d="M34.5703 154.12C34.1863 154.12 33.8023 154.1 33.4203 154.06C30.5473 153.781 27.8799 152.446 25.9332 150.315C23.9866 148.184 22.8989 145.407 22.8803 142.52C22.2003 139.76 18.6203 132.15 16.4403 127.52C11.2703 116.52 8.57031 110.52 8.57031 105.45C8.57031 101.18 10.2603 95.7601 18.8803 80.7201C23.3303 72.9401 27.7203 66.0101 27.8803 65.7201C29.5379 63.1024 32.1675 61.2504 35.1906 60.5715C38.2137 59.8926 41.3826 60.4425 44.0003 62.1001C46.618 63.7577 48.47 66.3873 49.1489 69.4104C49.8278 72.4334 49.2779 75.6024 47.6203 78.2201C41.3903 88.0601 34.2303 100.57 32.2303 105.59C33.2303 108.42 35.7903 113.8 37.5603 117.59C43.6203 130.47 46.7603 137.48 46.1603 143.59C45.8755 146.469 44.5324 149.14 42.3913 151.085C40.2501 153.03 37.4632 154.112 34.5703 154.12V154.12Z" fill="white" stroke="#101C3D" stroke-linejoin="round"/>
<path d="M44.0004 62.1101C43.127 61.5563 42.1814 61.1256 41.1904 60.8301C43.5828 62.5712 45.2238 65.1567 45.7809 68.0626C46.338 70.9686 45.7694 73.9777 44.1904 76.4801C37.9604 86.3201 30.8104 98.8301 28.8004 103.86C29.8004 106.69 32.3604 112.07 34.1304 115.86C40.2004 128.74 43.3304 135.75 42.7404 141.86C42.4272 144.941 40.9046 147.771 38.5067 149.73C36.1088 151.69 33.0316 152.617 29.9504 152.31C29.1703 152.234 28.3997 152.08 27.6504 151.85C29.3393 153.094 31.333 153.857 33.4204 154.06C33.8024 154.1 34.1864 154.12 34.5704 154.12C37.4699 154.116 40.2643 153.034 42.4101 151.084C44.556 149.134 45.8999 146.456 46.1804 143.57C46.7804 137.47 43.6404 130.46 37.5804 117.57C35.8104 113.8 33.2804 108.42 32.2504 105.57C34.2504 100.57 41.4104 88.0401 47.6404 78.2001C51.0704 72.7501 49.4404 65.5531 44.0004 62.1101V62.1101Z" fill="#EDF0F5"/>
<path fill-rule="evenodd" clip-rule="evenodd" d="M34.5703 154.12C34.1863 154.12 33.8023 154.1 33.4203 154.06C30.5473 153.781 27.8799 152.446 25.9332 150.315C23.9866 148.184 22.8989 145.407 22.8803 142.52C22.2003 139.76 18.6203 132.15 16.4403 127.52C11.2703 116.52 8.57031 110.52 8.57031 105.45C8.57031 101.18 10.2603 95.7601 18.8803 80.7201C23.3303 72.9401 27.7203 66.0101 27.8803 65.7201C29.5379 63.1024 32.1675 61.2504 35.1906 60.5715C38.2137 59.8926 41.3826 60.4425 44.0003 62.1001C46.618 63.7577 48.47 66.3873 49.1489 69.4104C49.8278 72.4334 49.2779 75.6024 47.6203 78.2201C41.3903 88.0601 34.2303 100.57 32.2303 105.59C33.2303 108.42 35.7903 113.8 37.5603 117.59C43.6203 130.47 46.7603 137.48 46.1603 143.59C45.8755 146.469 44.5324 149.14 42.3913 151.085C40.2501 153.03 37.4632 154.112 34.5703 154.12V154.12Z" stroke="#101C3D" stroke-linejoin="round"/>
<path d="M0 149.66H25.28M43.74 149.66H162.72H43.74Z" stroke="#C1365B" stroke-linejoin="round"/>
<path d="M63.1432 41.4884C66.0095 39.6483 69.6154 39.3937 72.7118 40.8129L111.554 58.6148C116.249 60.7667 118.533 66.1401 116.824 71.0141L105.987 101.924C104.666 105.69 101.234 108.31 97.254 108.591L48.3662 112.042C44.3859 112.323 40.6196 110.211 38.7836 106.668L23.7112 77.5871C21.3346 73.0016 22.841 67.3605 27.1874 64.5704L63.1432 41.4884Z" fill="#FF7D7D"/>
<g filter="url(#filter0_di_783_697)">
<path d="M46.6429 48.4491C43.6517 46.5753 42.7472 43.0245 44.5052 40.0575L57.6822 17.8182C59.3798 14.9532 63.7192 14.2591 66.2315 16.4508L86.5247 34.1549C89.0731 36.3782 89.308 39.9635 87.0784 42.606V42.606C77.5747 53.8692 59.7462 56.6576 47.2573 48.834L46.6429 48.4491Z" fill="#FF7D7D"/>
</g>
<rect width="11.5385" height="11.3278" rx="2" transform="matrix(0.480781 -0.876841 0.883992 0.467502 58 37.1174)" fill="white"/>
<g clip-path="url(#clip0_783_697)">
<rect width="178.482" height="51.7865" transform="translate(143 187.206) rotate(-45)" fill="url(#paint1_linear_783_697)"/>
<rect x="197.377" y="179.042" width="17" height="17" rx="3" transform="rotate(-90 197.377 179.042)" fill="white" fill-opacity="0.05"/>
<rect x="222.125" y="181.163" width="17" height="17" rx="3" transform="rotate(-90 222.125 181.163)" fill="white" fill-opacity="0.05"/>
<rect x="198.084" y="203.79" width="17" height="17" rx="3" transform="rotate(-90 198.084 203.79)" fill="white" fill-opacity="0.05"/>
<rect x="174.041" y="226.418" width="17" height="17" rx="3" transform="rotate(-90 174.041 226.418)" fill="white" fill-opacity="0.05"/>
<rect x="174.748" y="203.083" width="17" height="17" rx="3" transform="rotate(-90 174.748 203.083)" fill="white" fill-opacity="0.05"/>
<rect x="197.377" y="155" width="17" height="17" rx="3" transform="rotate(-90 197.377 155)" fill="white" fill-opacity="0.05"/>
<rect x="174.041" y="179.749" width="17" height="17" rx="3" transform="rotate(-90 174.041 179.749)" fill="white" fill-opacity="0.05"/>
<rect x="174.748" y="156.414" width="17" height="17" rx="3" transform="rotate(-90 174.748 156.414)" fill="white" fill-opacity="0.05"/>
<rect x="151.414" y="172.678" width="17" height="17" rx="3" transform="rotate(-90 151.414 172.678)" fill="white" fill-opacity="0.05"/>
<rect x="150.707" y="196.012" width="17" height="17" rx="3" transform="rotate(-90 150.707 196.012)" fill="white" fill-opacity="0.05"/>
<rect x="150.707" y="220.054" width="17" height="17" rx="3" transform="rotate(-90 150.707 220.054)" fill="white" fill-opacity="0.05"/>
</g>
<path d="M246.166 95.5522C244.611 97.1211 244.611 99.6649 246.166 101.234L248.265 103.351L252.983 98.3844L248.117 93.5844L246.166 95.5522Z" fill="#EDEDED"/>
<path d="M251.637 90.0333L256.427 94.7586L262.005 88.8869L257.291 84.3294L251.637 90.0333Z" fill="#EDEDED"/>
<path d="M260.811 80.778L265.456 85.2692L273.587 76.7833L271.995 75.1767C270.44 73.6078 267.918 73.6078 266.363 75.1767L260.811 80.778Z" fill="#EDEDED"/>
<path d="M277.108 80.3356L267.337 90.5339L267.329 90.5417L259.987 98.2705L267.657 105.836L277.643 115.911L292.191 101.234C293.747 99.6649 293.747 97.1211 292.191 95.5521L277.108 80.3356Z" fill="#EDEDED"/>
<path d="M274.123 119.462L265.929 111.196L261.09 116.29L266.363 121.609C267.918 123.178 270.44 123.178 271.995 121.609L274.123 119.462Z" fill="#EDEDED"/>
<path d="M257.569 112.737L262.389 107.663L256.543 101.896L251.786 106.904L257.569 112.737Z" fill="#EDEDED"/>
<defs>
<filter id="filter0_di_783_697" x="43.6133" y="15.1602" width="44.9922" height="42.1133" filterUnits="userSpaceOnUse" color-interpolation-filters="sRGB">
<feFlood flood-opacity="0" result="BackgroundImageFix"/>
<feColorMatrix in="SourceAlpha" type="matrix" values="0 0 0 0 0 0 0 0 0 0 0 0 0 0 0 0 0 0 127 0" result="hardAlpha"/>
<feOffset dy="4"/>
<feComposite in2="hardAlpha" operator="out"/>
<feColorMatrix type="matrix" values="0 0 0 0 0.321569 0 0 0 0 0.0509804 0 0 0 0 0.196078 0 0 0 1 0"/>
<feBlend mode="normal" in2="BackgroundImageFix" result="effect1_dropShadow_783_697"/>
<feBlend mode="normal" in="SourceGraphic" in2="effect1_dropShadow_783_697" result="shape"/>
<feColorMatrix in="SourceAlpha" type="matrix" values="0 0 0 0 0 0 0 0 0 0 0 0 0 0 0 0 0 0 127 0" result="hardAlpha"/>
<feOffset dy="-4"/>
<feComposite in2="hardAlpha" operator="arithmetic" k2="-1" k3="1"/>
<feColorMatrix type="matrix" values="0 0 0 0 1 0 0 0 0 1 0 0 0 0 1 0 0 0 1 0"/>
<feBlend mode="normal" in2="shape" result="effect2_innerShadow_783_697"/>
</filter>
<linearGradient id="paint0_linear_783_697" x1="184.935" y1="88.02" x2="184.935" y2="95.51" gradientUnits="userSpaceOnUse">
<stop stop-color="#3B0E2A"/>
<stop offset="1" stop-color="#710A3C"/>
</linearGradient>
<linearGradient id="paint1_linear_783_697" x1="89.2408" y1="0" x2="89.2408" y2="51.7865" gradientUnits="userSpaceOnUse">
<stop stop-color="#3B0E2A"/>
<stop offset="1" stop-color="#710A3C"/>
</linearGradient>
<clipPath id="clip0_783_697">
<rect width="178.482" height="51.7865" fill="white" transform="translate(143 187.206) rotate(-45)"/>
</clipPath>
</defs>
</svg>
