<svg width="257" height="205" viewBox="0 0 257 205" fill="none" xmlns="http://www.w3.org/2000/svg">
<g clip-path="url(#clip0_778_316)">
<path fill-rule="evenodd" clip-rule="evenodd" d="M129 9.99999C129 5.58171 132.582 2 137 2H227.8C232.218 2 235.8 5.58172 235.8 10V97.12C235.8 101.538 232.218 105.12 227.8 105.12H137C132.582 105.12 129 101.538 129 97.12V9.99999Z" fill="url(#paint0_linear_778_316)" stroke="#C1365B" stroke-linejoin="round"/>
<path d="M140.23 76.7201C140.23 73.6163 142.747 71.1001 145.85 71.1001H173.32C176.424 71.1001 178.94 73.6163 178.94 76.7201V76.7201C178.94 79.8239 176.424 82.3401 173.32 82.3401H145.85C142.747 82.3401 140.23 79.8239 140.23 76.7201V76.7201Z" fill="#FF8F8F"/>
<path d="M185.861 76.7201C185.861 73.6163 188.377 71.1001 191.481 71.1001H218.951C222.055 71.1001 224.571 73.6163 224.571 76.7201V76.7201C224.571 79.8239 222.055 82.3401 218.951 82.3401H191.481C188.377 82.3401 185.861 79.8239 185.861 76.7201V76.7201Z" fill="#C1365B"/>
<path d="M79.3299 91.0601C81.2599 84.9101 108.33 97.0601 108.33 97.0601L123.94 102.68C123.94 102.68 148.11 96.9201 152.94 95.2801C165.21 91.0001 174 88.0001 181 89.7301C174.14 87.9301 165.29 90.5101 153 94.1201C148.14 95.5401 124.16 98.1201 124.16 98.1201L110.69 92.8701C110.69 92.8701 81.9999 80.6401 79.7499 86.7001C78.6799 89.7001 77.5599 94.1001 77.9599 97.5601C78.2056 95.3543 78.6644 93.1774 79.3299 91.0601Z" fill="#EDF0F5"/>
<path d="M139.174 115.194C133.544 116.304 125.024 118.334 119.784 115.974C106.254 109.874 80.254 98.1144 79.674 97.2344C76.844 94.1244 78.474 86.9044 80.004 82.6844C82.204 76.6244 111.004 88.8644 111.004 88.8644L124.474 94.1144C124.474 94.1144 148.474 91.5244 153.314 90.1144C167.974 85.8044 173.254 82.2744 180.584 86.6444C183.089 88.0866 184.971 90.4065 185.865 93.1555C186.758 95.9045 186.601 98.8873 185.423 101.527C184.245 104.167 182.13 106.276 179.487 107.447C176.844 108.617 173.861 108.766 171.114 107.864C168.814 108.084 153.044 112.454 139.174 115.194Z" fill="white" stroke="#FF8F8F" stroke-linejoin="round"/>
<path d="M79.4569 87.0601C81.3869 80.9101 108.457 93.0601 108.457 93.0601L124.067 98.6801C124.067 98.6801 148.237 92.9201 153.067 91.2801C165.337 87.0001 174.127 84.0001 181.127 85.7301C174.267 83.9301 165.417 86.5101 153.127 90.1201C148.267 91.5401 124.287 94.1201 124.287 94.1201L110.817 88.8701C110.817 88.8701 82.1269 76.6401 79.8769 82.7001C78.8069 85.7001 77.6869 90.1001 78.0869 93.5601C78.3325 91.3543 78.7913 89.1774 79.4569 87.0601Z" fill="#EDEDED"/>
<path fill-rule="evenodd" clip-rule="evenodd" d="M139.047 115.21C133.417 116.32 124.897 118.35 119.657 115.99C106.127 109.89 80.1271 98.13 79.5471 97.25C76.7171 94.14 78.3471 86.92 79.8771 82.7C82.0771 76.64 110.877 88.88 110.877 88.88L124.347 94.13C124.347 94.13 148.347 91.54 153.187 90.13C167.847 85.82 173.127 82.29 180.457 86.66C182.962 88.1022 184.844 90.4221 185.738 93.1711C186.631 95.9201 186.474 98.903 185.296 101.543C184.118 104.182 182.003 106.292 179.36 107.462C176.717 108.633 173.734 108.782 170.987 107.88C168.687 108.1 152.917 112.47 139.047 115.21Z" stroke="#FF8F8F" stroke-linejoin="round"/>
<path d="M0 180.15H125.72" stroke="#C1365B" stroke-linejoin="round"/>
<path d="M27.754 127L22 180H61.24L62 172.799" stroke="#C1365B" stroke-linejoin="round"/>
<path d="M22.4999 115.32C22.4999 113.98 22.5699 112.66 22.6899 111.32C21.9509 115.584 21.833 119.932 22.3399 124.23C22.3449 124.29 22.3449 124.35 22.3399 124.41L22.4899 125.61V115.49C22.5099 115.43 22.4999 115.38 22.4999 115.32Z" fill="#FF4148"/>
<path d="M83 180H105.13L101.81 130" stroke="#C1365B" stroke-linejoin="round"/>
<path d="M35.5605 184.61C35.1765 184.61 34.7925 184.59 34.4105 184.55C31.5358 184.268 28.8671 182.932 26.919 180.8C24.9709 178.667 23.8814 175.888 23.8605 173C23.1905 170.24 19.6005 162.63 17.4305 158C12.2605 147 9.56055 141 9.56055 135.93C9.56055 131.66 11.2505 126.24 19.8705 111.2C24.3205 103.42 28.7005 96.49 28.8705 96.2C29.6913 94.9039 30.7593 93.7821 32.0136 92.8987C33.2679 92.0153 34.6839 91.3876 36.1808 91.0515C37.6777 90.7153 39.2261 90.6773 40.7377 90.9396C42.2493 91.2018 43.6944 91.7593 44.9905 92.58C46.2867 93.4008 47.4085 94.4688 48.2919 95.7231C49.1753 96.9774 49.803 98.3934 50.1391 99.8903C50.4753 101.387 50.5133 102.936 50.251 104.447C49.9887 105.959 49.4313 107.404 48.6105 108.7C42.3805 118.54 35.2205 131.05 33.2105 136.07C34.2105 138.9 36.7705 144.28 38.5505 148.07C44.6105 160.95 47.7505 167.96 47.1505 174.07C46.8681 176.951 45.526 179.624 43.3846 181.571C41.2432 183.519 38.455 184.602 35.5605 184.61V184.61Z" fill="white" stroke="#FF8F8F" stroke-linejoin="round"/>
<path d="M44.9999 92.6001C44.1256 92.048 43.1803 91.6174 42.1899 91.3201C44.5823 93.0611 46.2234 95.6467 46.7804 98.5526C47.3375 101.459 46.7689 104.468 45.1899 106.97C38.9599 116.81 31.7999 129.32 29.7999 134.35C30.7999 137.18 33.3599 142.56 35.1299 146.35C41.1899 159.23 44.3299 166.24 43.7299 172.35C43.4471 175.234 42.1022 177.91 39.9566 179.858C37.811 181.806 35.0178 182.887 32.1199 182.89C31.7359 182.89 31.3519 182.87 30.9699 182.83C30.1897 182.755 29.419 182.601 28.6699 182.37C30.3588 183.614 32.3525 184.377 34.4399 184.58C34.8219 184.62 35.2059 184.64 35.5899 184.64C38.4894 184.636 41.2838 183.554 43.4297 181.604C45.5755 179.654 46.9194 176.976 47.1999 174.09C47.7999 167.99 44.6599 160.98 38.5999 148.09C36.8199 144.32 34.2899 138.94 33.2599 136.09C35.2599 131.09 42.4299 118.56 48.6599 108.72C49.4792 107.422 50.0344 105.974 50.2939 104.461C50.5533 102.948 50.5119 101.398 50.172 99.9013C49.8321 98.4041 49.2003 96.9886 48.3128 95.7358C47.4253 94.483 46.2996 93.4174 44.9999 92.6001V92.6001Z" fill="#EDEDED"/>
<path fill-rule="evenodd" clip-rule="evenodd" d="M35.5605 184.61C35.1765 184.61 34.7925 184.59 34.4105 184.55C31.5358 184.268 28.8671 182.932 26.919 180.8C24.9709 178.667 23.8814 175.888 23.8605 173C23.1905 170.24 19.6005 162.63 17.4305 158C12.2605 147 9.56055 141 9.56055 135.93C9.56055 131.66 11.2505 126.24 19.8705 111.2C24.3205 103.42 28.7005 96.49 28.8705 96.2C29.6913 94.9039 30.7593 93.7821 32.0136 92.8987C33.2679 92.0153 34.6839 91.3876 36.1808 91.0515C37.6777 90.7153 39.2261 90.6773 40.7377 90.9396C42.2493 91.2018 43.6944 91.7593 44.9905 92.58C46.2867 93.4008 47.4085 94.4688 48.2919 95.7231C49.1753 96.9774 49.803 98.3934 50.1391 99.8903C50.4753 101.387 50.5133 102.936 50.251 104.447C49.9887 105.959 49.4313 107.404 48.6105 108.7C42.3805 118.54 35.2205 131.05 33.2105 136.07C34.2105 138.9 36.7705 144.28 38.5505 148.07C44.6105 160.95 47.7505 167.96 47.1505 174.07C46.8681 176.951 45.526 179.624 43.3846 181.571C41.2432 183.519 38.455 184.602 35.5605 184.61V184.61Z" stroke="#FF8F8F" stroke-linejoin="round"/>
<path d="M62.7277 65.7095C65.6383 63.7962 69.3347 63.5353 72.4852 65.0206L110.166 82.786C114.768 84.9558 117.007 90.2357 115.368 95.0526L104.84 125.991C103.543 129.8 100.091 132.461 96.0769 132.745L48.8841 136.076C44.8705 136.36 41.078 134.21 39.2595 130.621L24.4893 101.468C22.1896 96.929 23.6649 91.387 27.9168 88.5921L62.7277 65.7095Z" fill="#FF7D7D"/>
<g filter="url(#filter0_di_778_316)">
<path d="M47.6429 72.4491C44.6517 70.5753 43.7472 67.0245 45.5052 64.0575L58.6822 41.8182C60.3798 38.9532 64.7192 38.2591 67.2315 40.4508L87.5247 58.1549C90.0731 60.3782 90.308 63.9635 88.0784 66.606V66.606C78.5747 77.8692 60.7462 80.6576 48.2573 72.834L47.6429 72.4491Z" fill="#FF7D7D"/>
</g>
<rect width="11.5385" height="11.3278" rx="2" transform="matrix(0.480781 -0.876841 0.883992 0.467502 59 61.1174)" fill="white"/>
<rect x="140.721" y="11.7" width="84" height="12" rx="6" fill="#FF8F8F" fill-opacity="0.25"/>
<rect x="140.721" y="30.7" width="44" height="12" rx="6" fill="#FF8F8F" fill-opacity="0.25"/>
<rect x="111" y="139.238" width="145.362" height="90" rx="20" transform="rotate(-0.488082 111 139.238)" fill="white"/>
<path d="M142 161.5H227" stroke="url(#paint1_linear_778_316)" stroke-width="4" stroke-linecap="round"/>
<path d="M141 177H226" stroke="url(#paint2_linear_778_316)" stroke-width="4" stroke-linecap="round"/>
<path d="M141 193H226" stroke="url(#paint3_linear_778_316)" stroke-width="4" stroke-linecap="round"/>
</g>
<defs>
<filter id="filter0_di_778_316" x="44.6133" y="39.1602" width="44.9922" height="42.1133" filterUnits="userSpaceOnUse" color-interpolation-filters="sRGB">
<feFlood flood-opacity="0" result="BackgroundImageFix"/>
<feColorMatrix in="SourceAlpha" type="matrix" values="0 0 0 0 0 0 0 0 0 0 0 0 0 0 0 0 0 0 127 0" result="hardAlpha"/>
<feOffset dy="4"/>
<feComposite in2="hardAlpha" operator="out"/>
<feColorMatrix type="matrix" values="0 0 0 0 0.321569 0 0 0 0 0.0509804 0 0 0 0 0.196078 0 0 0 1 0"/>
<feBlend mode="normal" in2="BackgroundImageFix" result="effect1_dropShadow_778_316"/>
<feBlend mode="normal" in="SourceGraphic" in2="effect1_dropShadow_778_316" result="shape"/>
<feColorMatrix in="SourceAlpha" type="matrix" values="0 0 0 0 0 0 0 0 0 0 0 0 0 0 0 0 0 0 127 0" result="hardAlpha"/>
<feOffset dy="-4"/>
<feComposite in2="hardAlpha" operator="arithmetic" k2="-1" k3="1"/>
<feColorMatrix type="matrix" values="0 0 0 0 1 0 0 0 0 1 0 0 0 0 1 0 0 0 1 0"/>
<feBlend mode="normal" in2="shape" result="effect2_innerShadow_778_316"/>
</filter>
<linearGradient id="paint0_linear_778_316" x1="182.4" y1="2" x2="182.4" y2="105.12" gradientUnits="userSpaceOnUse">
<stop stop-color="#3B0E2A"/>
<stop offset="1" stop-color="#710A3C"/>
</linearGradient>
<linearGradient id="paint1_linear_778_316" x1="184.5" y1="161.5" x2="184.5" y2="162.5" gradientUnits="userSpaceOnUse">
<stop stop-color="#3B0E2A"/>
<stop offset="1" stop-color="#710A3C"/>
</linearGradient>
<linearGradient id="paint2_linear_778_316" x1="183.5" y1="177" x2="183.5" y2="178" gradientUnits="userSpaceOnUse">
<stop stop-color="#3B0E2A"/>
<stop offset="1" stop-color="#710A3C"/>
</linearGradient>
<linearGradient id="paint3_linear_778_316" x1="183.5" y1="193" x2="183.5" y2="194" gradientUnits="userSpaceOnUse">
<stop stop-color="#3B0E2A"/>
<stop offset="1" stop-color="#710A3C"/>
</linearGradient>
<clipPath id="clip0_778_316">
<rect width="257" height="205" fill="white"/>
</clipPath>
</defs>
</svg>
