<svg width="124" height="148" viewBox="0 0 124 148" fill="none" xmlns="http://www.w3.org/2000/svg">
<path d="M17.4724 8L3.5 16.5V140.5H112.5L122 127.258V8H17.4724Z" fill="#FF8F8F" stroke="#222222"/>
<rect x="3.5" y="16.5" width="109" height="124" fill="white" stroke="#222222"/>
<path d="M116.252 40.0454C117.048 38.8499 116.324 37.2382 114.896 37.0765C77.4808 32.8383 64.5911 71.9951 58.5451 90.8678C58.2596 91.7589 58.845 92.6895 59.7711 92.8229V92.8229C60.4854 92.9258 61.1692 92.5059 61.4382 91.8363C65.2306 82.3973 72.8962 78.2043 80.0747 78.3763C90.7685 78.6343 100.444 69.7826 105.075 61.1005C105.46 60.3781 105.323 59.4976 104.769 58.895L103.557 57.5773C102.781 56.7343 102.871 55.4133 103.753 54.6828L105.399 53.3198C108.337 50.8869 111.502 47.1748 116.252 40.0454Z" fill="#C1365B"/>
<path d="M54.8 108.2C57.5 104.8 61 100.1 61 91.9998C61 91.3998 60.6 90.9998 60 90.9998C59.4 90.9998 59 91.3998 59 91.9998C59 98.6998 56.5 102.7 54 105.9C53.4 104 53 101.7 53 98.9998C53 98.4998 52.6 97.9998 52 97.9998C51.5 97.9998 51 98.3998 51 98.9998C50.9 100.7 50.4 102.6 50 102.8C49.6 102.8 49.1 101.4 49 99.9998C49 99.4998 48.5 99.0998 48 99.0998C47.5 99.0998 47 99.3998 47 99.9998C46.7 101.7 45.9 104.1 45 104.1C44.6 104.1 44.4 104 44.3 103.8C44 103.5 43.9 102.8 43.9 102.2C43.9 101.8 44 101.4 44 101C44 100.5 43.6 99.9998 43.1 99.9998C42.6 99.9998 42.1 100.3 42 100.8C42 100.9 41.9 101.3 41.9 101.9C41.7 103.6 41.1 107 39 107C38.3 107 37.9 106.8 37.6 106.3C37.1 105.5 37.1 104.2 37.6 103V102.9C37.7 102.8 37.7 102.6 37.8 102.5C38.6 100.9 39.5 99.9998 41 99.9998C41.6 99.9998 42 99.5998 42 98.9998C42 98.3998 41.6 97.9998 41 97.9998C36.8 97.9998 35.6 102.1 34.4 106C33 110.8 31.7 114 28 114C22.9 114 21 107.4 21 103C21 94.3998 25.7 88.9998 30 88.9998C32.9 88.9998 34 91.2998 34.1 91.3998C34.3 91.8998 34.9 92.0998 35.4 91.8998C35.9 91.6998 36.1 91.0998 35.9 90.5998C35.8 90.3998 34.2 86.9998 30 86.9998C24.6 86.9998 19 92.9998 19 103C19 113.3 24.9 116 28 116C33.1 116 34.8 111.5 36.1 107.5C36.8 108.4 37.8 109 39 109C41.2 109 42.5 107.4 43.2 105.4C43.7 105.8 44.3 106 45 106C46.4 106 47.4 104.8 48 103.6C48.4 104.3 49.1 104.8 50 104.8C50.6 104.8 51.1 104.5 51.5 104.1C51.8 105.5 52.2 106.8 52.5 107.9C51.1 109.7 50 111.2 50 113C50 114.7 51.3 116 53 116C54.8 116 56 114.4 56 113C56 111.7 55.5 110.3 54.9 108.7C54.9 108.5 54.8 108.4 54.8 108.2ZM53 114C52.3 114 52 113.5 52 113C52 112.1 52.5 111.2 53.3 110.1C53.7 111.3 54 112.2 54 113C54 113.3 53.7 114 53 114Z" fill="#C1365B" stroke="#C1365B"/>
<path d="M19 120H61V122H19V120Z" fill="#710A3C"/>
<rect x="87" y="95" width="30" height="30" fill="#710A3C"/>
<path fill-rule="evenodd" clip-rule="evenodd" d="M102.708 110.002L109.002 103.707L108.295 103L102.001 109.295L95.707 103L95 103.707L101.294 110.002L95 116.297L95.707 117.004L102.001 110.709L108.295 117.004L109.002 116.297L102.708 110.002Z" fill="white" stroke="white" stroke-linejoin="round"/>
</svg>
