<svg width="294" height="184" viewBox="0 0 294 184" fill="none" xmlns="http://www.w3.org/2000/svg">
<g clip-path="url(#clip0_491_27)">
<path d="M73.8802 121.717C73.3229 122.16 61.6551 118.725 61.6551 118.725L54.335 123.757L70.1174 75.8799L116.516 86.5676" fill="#DFE6F2"/>
<path d="M54.6758 123.805C54.6323 123.805 54.5928 123.794 54.5573 123.766C54.4901 123.714 54.4624 123.627 54.4901 123.544L70.2725 75.6671C70.3041 75.5683 70.403 75.513 70.5057 75.5367L116.905 86.2244C117.011 86.2481 117.079 86.3548 117.055 86.4615C117.031 86.5682 116.924 86.6354 116.818 86.6117L70.5927 75.9636L55.0513 123.114L61.8892 118.414C61.9366 118.382 61.9999 118.371 62.0552 118.386C66.399 119.663 73.5097 121.612 74.1262 121.398C74.2093 121.331 74.3239 121.351 74.3911 121.438C74.4583 121.525 74.4345 121.655 74.3476 121.722C73.7745 122.173 65.6204 119.845 62.0315 118.794L54.7905 123.77C54.7549 123.794 54.7154 123.805 54.6758 123.805Z" fill="#0C152E"/>
<path d="M202.421 37.9512C201.598 37.8169 168.828 18.6748 142.042 29.39C115.255 40.1054 117.934 45.4611 94.7175 42.1884C66.4993 37.9512 48.5835 45.7615 48.5835 45.7615L14.3546 61.2396C14.3546 61.2396 8.99974 95.1441 25.8485 95.7768C57.2119 96.9547 143.528 95.7768 143.528 95.7768" fill="#710A3C"/>
<path d="M193.259 63.8482C187.014 60.8838 184.057 53.544 186.634 47.0223C189.322 40.2279 197.002 36.8919 203.8 39.5638C209.231 41.6824 225.768 46.5717 237.009 43.8247C243.345 42.2753 249.503 38.2516 255.464 34.3584C262.511 29.7537 269.8 24.9909 278.341 23.5403C285.55 22.315 292.392 27.1687 293.618 34.3821C294.843 41.5915 289.989 48.4333 282.776 49.6586C279.673 50.1843 274.732 53.4135 269.954 56.536C262.863 61.1684 254.041 66.9352 243.298 69.5596C221.871 74.7967 196.867 65.3067 194.085 64.2079C193.804 64.0933 193.528 63.9747 193.259 63.8482Z" fill="white"/>
<path d="M229.671 71.1687C212.505 71.1687 196.544 65.1055 194.355 64.2399C194.07 64.1292 193.79 64.0067 193.517 63.8763C187.157 60.8565 184.201 53.3546 186.794 46.7974C189.513 39.916 197.327 36.5208 204.212 39.2283C209.619 41.3389 226.113 46.2164 237.303 43.4812C243.603 41.9397 249.749 37.9239 255.694 34.0425C262.761 29.422 270.066 24.6513 278.65 23.1928C282.192 22.592 285.753 23.4063 288.678 25.4813C291.607 27.5604 293.551 30.6552 294.152 34.1927C294.753 37.7342 293.939 41.2954 291.864 44.2243C289.785 47.1531 286.694 49.0977 283.152 49.6985C280.089 50.2203 275.168 53.4337 270.409 56.5443C263.303 61.1886 254.461 66.9672 243.69 69.5996C239.093 70.7221 234.339 71.1687 229.671 71.1687ZM193.687 63.5166C193.952 63.6431 194.224 63.7617 194.501 63.8684C197.276 64.9672 222.224 74.4335 243.595 69.2122C254.303 66.5956 263.113 60.8407 270.188 56.2123C274.986 53.078 279.943 49.8369 283.085 49.3033C286.52 48.7183 289.524 46.8329 291.54 43.9911C293.555 41.1492 294.346 37.6907 293.761 34.256C293.176 30.8212 291.291 27.8173 288.449 25.8015C285.607 23.7857 282.148 22.9952 278.714 23.5802C270.212 25.0229 262.943 29.7738 255.911 34.3666C249.935 38.2718 243.761 42.3033 237.394 43.8606C226.101 46.6195 209.509 41.7144 204.066 39.5919C197.382 36.9635 189.797 40.2599 187.157 46.9397C184.647 53.3072 187.513 60.5878 193.687 63.5166Z" fill="#0C152E"/>
<path d="M144.591 59.002L125.718 150.294C125.718 150.294 172.524 160.689 191.089 146.341C205.183 135.448 222.476 81.8951 215.847 74.7805" fill="white"/>
<path d="M159.521 153.974C156.833 153.974 154.224 153.887 151.778 153.745C137.901 152.946 126.142 150.361 126.023 150.338C125.916 150.314 125.849 150.211 125.873 150.105L144.742 58.8131C144.766 58.7064 144.873 58.6352 144.976 58.6589C145.082 58.6827 145.149 58.7854 145.13 58.8922L126.296 149.994C129.576 150.689 173.627 159.701 191.315 146.037C202.829 137.14 215.943 100.623 217.331 83.6429C217.698 79.1291 217.256 76.062 216.05 74.7655C215.975 74.6865 215.979 74.56 216.062 74.4849C216.145 74.4098 216.267 74.4138 216.343 74.4968C217.643 75.892 218.109 78.9829 217.726 83.6745C216.335 100.718 203.145 137.397 191.56 146.35C183.754 152.377 170.928 153.974 159.521 153.974Z" fill="#0C152E"/>
<path d="M126.959 150.1L128.903 150.851L151.196 137.824C162.405 131.274 171.836 122.065 178.646 111.01L126.959 150.1Z" fill="#DFE6F2"/>
<path d="M178.275 110.875C144.338 140.816 105.009 163.35 65.5 188.5L25.8525 158.922C25.8525 158.922 113.817 92.2946 137.149 68.2988" fill="white"/>
<path d="M71.1419 193.477C71.0984 193.477 71.0589 193.461 71.0233 193.437L48.5511 176.184L26.079 158.932C26.0316 158.896 26 158.837 26 158.773C26 158.71 26.0276 158.655 26.079 158.615C26.9565 157.947 114.3 91.7183 137.351 68.011C137.426 67.9319 137.553 67.9319 137.632 68.007C137.711 68.0821 137.711 68.2086 137.636 68.2877C115.11 91.4574 31.3003 155.153 26.5257 158.773L48.8852 176.113L71.2446 193.453L70.5095 185.651C70.5055 185.58 70.5411 185.512 70.6004 185.473C77.379 181.161 84.0548 176.971 90.5093 172.924C121.304 153.611 150.39 135.37 178.493 110.576C178.576 110.505 178.699 110.513 178.774 110.592C178.849 110.671 178.837 110.798 178.758 110.873C150.632 135.691 121.529 153.939 90.7227 173.259C84.2999 177.287 77.6556 181.453 70.9126 185.746L71.3474 193.267C71.3513 193.342 71.3118 193.417 71.2446 193.453C71.1419 193.2 71.1735 193.477 71.1419 193.477Z" fill="#0C152E"/>
<path d="M201.76 85.9543C177.978 85.9543 152.915 74.3181 152.618 74.1797C152.52 74.1323 152.476 74.0137 152.524 73.9149C152.571 73.8161 152.686 73.7726 152.788 73.82C153.144 73.9861 188.757 90.5156 215.254 84.069C215.361 84.0453 215.468 84.1085 215.491 84.2152C215.519 84.3219 215.452 84.4287 215.345 84.4524C210.997 85.5077 206.401 85.9543 201.76 85.9543Z" fill="#0C152E"/>
<path d="M158.773 66.9427C158.773 66.9427 159.326 67.1246 161.295 67.6858L153.085 73.9585L155.39 74.9664C158.152 73.583 164.065 68.4526 164.275 68.5238C176.966 72.8004 205.215 76.7688 217.057 72.7806C217.132 71.8399 217.112 70.4842 217.116 68.5633L163.524 61.5317L158.773 66.9427Z" fill="#DFE6F2"/>
<path d="M197.666 89.8121C202.088 89.8121 205.674 86.2268 205.674 81.8042C205.674 77.3816 202.088 73.7964 197.666 73.7964C193.243 73.7964 189.658 77.3816 189.658 81.8042C189.658 86.2268 193.243 89.8121 197.666 89.8121Z" fill="#FF4148"/>
<path d="M96.5485 113.986C95.7777 113.622 95.1493 113.243 94.6789 112.927C88.6039 108.856 86.9794 100.626 91.0505 94.5513C93.3153 91.1679 96.8726 89.1679 100.623 88.7568C104.358 85.5869 111.311 77.6581 114.892 73.5673C117.983 70.0416 120.9 66.7096 123.378 64.1642C132.876 54.4093 157.943 37.7573 160.769 35.8917C166.872 31.8601 175.089 33.5439 179.117 39.6466C183.148 45.7493 181.468 53.9666 175.366 57.9982C165.607 64.4448 148.01 76.84 142.358 82.6462C140.366 84.6897 137.67 87.7687 134.817 91.0256C130.319 96.1599 125.22 101.982 120.611 106.354C117.56 109.251 115.003 111.263 112.564 112.693C105.473 116.844 99.7698 115.516 96.5485 113.986Z" fill="white"/>
<path d="M103.52 116.165C100.84 116.165 98.5839 115.473 96.8487 114.651C96.1768 114.331 95.5404 113.971 94.9554 113.58C88.7974 109.453 87.1452 101.086 91.2717 94.9315C93.4772 91.643 96.995 89.5046 100.927 89.058C104.654 85.8802 111.453 78.1253 115.109 73.9514L115.287 74.0502L115.137 73.9198C118.224 70.3941 121.14 67.0661 123.619 64.5207C133.132 54.75 158.215 38.0861 161.041 36.2205C167.223 32.1375 175.579 33.845 179.666 40.0308C183.749 46.2165 182.041 54.5682 175.855 58.6551C166.101 65.0977 148.52 77.481 142.879 83.2754C140.903 85.307 138.223 88.3624 135.385 91.5995L135.342 91.6469C130.844 96.7813 125.745 102.603 121.125 106.987C118.061 109.892 115.496 111.916 113.042 113.35C109.492 115.429 106.279 116.165 103.52 116.165ZM97.0187 114.291C100.453 115.923 105.99 117.022 112.852 113.003C115.279 111.584 117.824 109.576 120.86 106.69C125.465 102.319 130.559 96.5046 135.053 91.3742L135.097 91.3268C137.935 88.0857 140.619 85.0264 142.603 82.9869C148.267 77.1688 165.875 64.7618 175.646 58.3112C181.65 54.3468 183.306 46.2362 179.342 40.2363C175.377 34.2324 167.267 32.5763 161.267 36.5407C158.441 38.4063 133.393 55.0464 123.907 64.7855C121.437 67.323 118.524 70.6511 115.437 74.1688L115.409 74.2004C111.729 78.398 104.88 86.2161 101.141 89.3861C101.109 89.4098 101.073 89.4256 101.034 89.4335C97.1926 89.8525 93.7539 91.9315 91.6037 95.141C87.5998 101.117 89.2045 109.24 95.1768 113.244C95.742 113.631 96.3625 113.983 97.0187 114.291Z" fill="#0C152E"/>
<path d="M164.259 65.6189C164.259 65.6189 169.456 62.4688 175.377 56.6309L168.113 66.86C166.887 66.4885 165.599 66.0735 164.259 65.6189Z" fill="#0C152E"/>
<path d="M168.192 67.0889L168.057 67.0494C166.883 66.6976 165.587 66.2787 164.2 65.8083L163.801 65.6739L164.164 65.4526C164.216 65.421 169.413 62.2431 175.243 56.4922L175.544 56.7491L168.192 67.0889ZM164.718 65.5632C165.899 65.9624 167.014 66.3182 168.034 66.6265L174.01 58.2155C169.634 62.2905 165.86 64.8281 164.718 65.5632Z" fill="#0C152E"/>
<path d="M210.017 22.0481C213.306 21.7552 216.527 23.1048 218.626 25.6545L249.974 63.7488C253.323 67.819 252.938 73.7903 249.094 77.3965L222.052 102.761C219.177 105.459 214.984 106.215 211.347 104.691L158.789 82.6736C155.152 81.1501 152.75 77.6317 152.656 73.6899L151.767 36.625C151.641 31.3553 155.627 26.8924 160.877 26.4248L210.017 22.0481Z" fill="#FF7D7D"/>
<g filter="url(#filter0_di_491_27)">
<path d="M189.436 24.2037C187.864 20.23 189.54 16.1203 193.393 14.504L218.312 4.04951C224.457 1.4716 232.256 5.52465 233.678 12.0349L239.443 38.4367C240.334 42.5185 237.934 46.2522 233.778 47.249V47.249C216.012 51.5107 196.159 41.193 189.436 24.2037V24.2037Z" fill="#FF7D7D"/>
</g>
<rect width="13.7239" height="13.7239" rx="2" transform="matrix(0.940153 -0.340753 0.26142 0.965225 209.436 19.3843)" fill="white"/>
</g>
<defs>
<filter id="filter0_di_491_27" x="183.85" y="3.26416" width="55.7783" height="50.9453" filterUnits="userSpaceOnUse" color-interpolation-filters="sRGB">
<feFlood flood-opacity="0" result="BackgroundImageFix"/>
<feColorMatrix in="SourceAlpha" type="matrix" values="0 0 0 0 0 0 0 0 0 0 0 0 0 0 0 0 0 0 127 0" result="hardAlpha"/>
<feOffset dx="-5" dy="6"/>
<feComposite in2="hardAlpha" operator="out"/>
<feColorMatrix type="matrix" values="0 0 0 0 0.321569 0 0 0 0 0.0509804 0 0 0 0 0.196078 0 0 0 1 0"/>
<feBlend mode="normal" in2="BackgroundImageFix" result="effect1_dropShadow_491_27"/>
<feBlend mode="normal" in="SourceGraphic" in2="effect1_dropShadow_491_27" result="shape"/>
<feColorMatrix in="SourceAlpha" type="matrix" values="0 0 0 0 0 0 0 0 0 0 0 0 0 0 0 0 0 0 127 0" result="hardAlpha"/>
<feOffset dx="3" dy="-5"/>
<feComposite in2="hardAlpha" operator="arithmetic" k2="-1" k3="1"/>
<feColorMatrix type="matrix" values="0 0 0 0 1 0 0 0 0 1 0 0 0 0 1 0 0 0 1 0"/>
<feBlend mode="normal" in2="shape" result="effect2_innerShadow_491_27"/>
</filter>
<clipPath id="clip0_491_27">
<rect width="294" height="184" fill="white"/>
</clipPath>
</defs>
</svg>
