<svg width="252" height="282" viewBox="0 0 252 282" fill="none" xmlns="http://www.w3.org/2000/svg">
<g clip-path="url(#clip0_473_66)">
<path fill-rule="evenodd" clip-rule="evenodd" d="M84.957 104.468L85.8791 100.648C85.8791 100.648 84.1034 99.587 77.947 99.6464C78.082 99.6464 77.4149 99.6808 77.4812 100.069C80.0535 100.837 83.1188 102.515 84.957 104.468Z" fill="#DFE6F2"/>
<path fill-rule="evenodd" clip-rule="evenodd" d="M83.1666 129.648L83.1338 129.671L83.1666 129.648Z" fill="#DFE6F2"/>
<path fill-rule="evenodd" clip-rule="evenodd" d="M79.2949 133.248L79.5984 131.747C78.5842 132.165 77.5255 132.468 76.4434 132.648C76.4714 132.887 76.519 133.022 76.5838 133.031C77.4584 133.056 78.3291 133.154 79.188 133.323" fill="#DFE6F2"/>
<path fill-rule="evenodd" clip-rule="evenodd" d="M79.6084 131.719C80.8707 131.2 82.0566 130.511 83.1341 129.672L79.6084 131.719Z" fill="#4070F4"/>
<path fill-rule="evenodd" clip-rule="evenodd" d="M87.2066 124.997L83.166 129.648C84.7958 128.369 86.1674 126.79 87.2066 124.997Z" fill="#4070F4"/>
<path fill-rule="evenodd" clip-rule="evenodd" d="M91.8663 110.094L91.7485 109.515L91.8671 103.856L89.7154 114.919L89.4337 114.307C89.5024 114.928 89.5383 115.551 89.5422 116.176C89.5601 119.268 88.7534 122.307 87.2063 124.982L87.6713 124.476C87.6713 124.476 85.6467 134.473 85.6514 134.473C87.9287 134.934 89.7302 135.308 89.7302 135.308L90.1336 129.231C92.5935 123.166 93.1973 116.504 91.8663 110.094Z" fill="#DFE6F2"/>
<path d="M84.957 104.464L86.7702 95.4766" stroke="#0C152E" stroke-width="0.8265"/>
<path d="M87.7445 124.004L66.1209 231.058L59.6523 229.748L79.5986 131.723" stroke="#242831" stroke-width="0.8265"/>
<path d="M93.3351 96.3232L89.541 115.803" stroke="#0C152E" stroke-width="0.8265"/>
<path fill-rule="evenodd" clip-rule="evenodd" d="M60.7203 224.455L67.1935 225.768L65.0277 236.495L58.5537 235.183L60.7203 224.455Z" fill="#710A3C"/>
<path fill-rule="evenodd" clip-rule="evenodd" d="M60.7203 224.455L67.1935 225.768L65.0277 236.495L58.5537 235.183L60.7203 224.455Z" stroke="#710A3C" stroke-width="0.8265"/>
<path fill-rule="evenodd" clip-rule="evenodd" d="M209.087 166.442C202.353 131.852 199.391 70.322 199.391 70.3151L212.819 70.2667L212.676 68L198 68.0533V68.1007L198.162 70.32L206.037 178.145C209.075 179.686 212.255 179.05 215 176.985C213.653 173.842 210.168 172.083 209.087 166.442Z" fill="#DFE6F2"/>
<path d="M217 56.5C218.879 79.753 214.619 119.063 215.692 123.986C216.201 129.013 218.34 146.779 222.223 160.886C225.111 171.407 215.034 182.174 206.213 178.689" stroke="#242831" stroke-width="0.8265"/>
<path d="M158.509 280.245L163.918 154.512L169.363 280.215" stroke="#242831" stroke-width="0.8265"/>
<path d="M214.743 270.087L198.091 91.5986L162.856 91.6971L128.94 91.7925L113.378 274.55L109.443 280.384" stroke="#242831" stroke-width="0.8265"/>
<path d="M92.1112 102.256C95.8975 103.464 99.5963 104.931 103.183 106.646C106.214 108.078 110.539 110.116 113.999 111.471C116.196 107.853 109.733 67.6473 110.069 57.5M124.64 143.373C118.58 144.792 112.048 144.189 110.069 143.652C103.603 141.909 96.9008 138.745 90.4229 135.689C88.9133 135.045 87.3342 134.578 85.7168 134.3L124.64 143.373ZM79.2397 133.342C77.2151 133.123 75.5073 132.968 74.5742 132.822L79.2397 133.342ZM74.7802 99.6695C78.4369 99.5679 82.0929 99.8829 85.6786 100.611L74.7802 99.6695Z" stroke="#242831" stroke-width="0.8265"/>
<path d="M40.4802 271.216C37.7168 268.082 36.5801 263.832 37.411 259.733L42.9597 232.249L80.5209 239.863L74.9496 267.381C74.1421 271.403 71.5293 274.828 67.8671 276.663" stroke="#242831" stroke-width="0.8265"/>
<path fill-rule="evenodd" clip-rule="evenodd" d="M101.863 71.6241L88.9766 69.0103C88.5295 71.2301 89.2551 73.5242 90.8966 75.0805L86.6914 95.8878L93.2255 97.2103L97.3659 76.6047C99.6612 75.8934 101.386 73.9838 101.863 71.6241Z" fill="#710A3C"/>
<path fill-rule="evenodd" clip-rule="evenodd" d="M101.863 71.6241L88.9766 69.0103C88.5295 71.2301 89.2551 73.5242 90.8966 75.0805L86.6914 95.8878L93.2255 97.2103L97.3659 76.6047C99.6612 75.8934 101.386 73.9838 101.863 71.6241Z" stroke="#710A3C" stroke-width="0.8265"/>
<path d="M61.858 236.098L55.1406 269.348" stroke="#242831" stroke-width="0.8265"/>
<path d="M89.5163 115.241C89.517 115.559 89.5412 115.873 89.5421 116.176C89.5678 125.335 82.6569 132.78 74.1076 132.805C65.5575 132.828 61.9819 125.413 61.9561 116.253C61.9312 107.094 68.3982 99.6552 74.0374 99.6387C82.2894 99.6161 89.0536 106.513 89.5397 115.227" stroke="#242831" stroke-width="0.8265"/>
<path d="M158.366 23.0753C161.527 21.1837 165.473 21.1837 168.634 23.0753L212.805 49.5032C217.006 52.0165 218.77 57.2013 216.973 61.7548L200.971 102.313C199.464 106.132 195.775 108.642 191.669 108.642H135.331C131.225 108.642 127.536 106.132 126.029 102.313L110.027 61.7548C108.23 57.2013 109.994 52.0165 114.195 49.5032L158.366 23.0753Z" fill="#FF7D7D"/>
<g filter="url(#filter0_di_473_66)">
<path d="M138.476 37.5991C135.248 34.7982 134.841 30.3785 137.514 27.1677L154.804 6.39947C159.068 1.27835 167.857 1.27834 172.121 6.39943L189.411 27.1677C192.085 30.3785 191.677 34.7982 188.449 37.5991C174.649 49.5739 152.276 49.5739 138.476 37.5991Z" fill="#FF7D7D"/>
</g>
<rect width="13.7239" height="13.7239" rx="2" transform="matrix(0.677079 -0.735911 0.677079 0.735911 154 24.0996)" fill="white"/>
<mask id="path-25-inside-1_473_66" fill="white">
<path fill-rule="evenodd" clip-rule="evenodd" d="M16 280H74L52.4496 267L16 280Z"/>
</mask>
<path d="M16 280L15.6641 279.058L16 281V280ZM74 280V281H77.5937L74.5165 279.144L74 280ZM52.4496 267L52.9661 266.144L52.5601 265.899L52.1136 266.058L52.4496 267ZM16 281H74V279H16V281ZM51.933 267.856L73.4835 280.856L74.5165 279.144L52.9661 266.144L51.933 267.856ZM16.3359 280.942L52.7855 267.942L52.1136 266.058L15.6641 279.058L16.3359 280.942Z" fill="#710A3C" mask="url(#path-25-inside-1_473_66)"/>
<mask id="path-27-inside-2_473_66" fill="white">
<path fill-rule="evenodd" clip-rule="evenodd" d="M201 280H250.666L232.212 256L201 280Z"/>
</mask>
<path d="M201 280L200.39 279.207L198.059 281H201V280ZM250.666 280V281H252.696L251.458 279.39L250.666 280ZM232.212 256L233.005 255.39L232.395 254.598L231.602 255.207L232.212 256ZM201 281H250.666V279H201V281ZM231.419 256.61L249.873 280.609L251.458 279.39L233.005 255.39L231.419 256.61ZM201.61 280.792L232.821 256.793L231.602 255.207L200.39 279.207L201.61 280.792Z" fill="#710A3C" mask="url(#path-27-inside-2_473_66)"/>
<path d="M1.1709 280.317H251.246" stroke="#242831" stroke-width="0.8265" stroke-linecap="round" stroke-linejoin="round"/>
<mask id="path-30-inside-3_473_66" fill="white">
<path fill-rule="evenodd" clip-rule="evenodd" d="M3.00098 280H43.2787L28.3131 263L3.00098 280Z"/>
</mask>
<path fill-rule="evenodd" clip-rule="evenodd" d="M3.00098 280H43.2787L28.3131 263L3.00098 280Z" fill="#710A3C"/>
<path d="M3.00098 280L2.44344 279.17L-0.281604 281H3.00098V280ZM43.2787 280V281H45.4913L44.0293 279.339L43.2787 280ZM28.3131 263L29.0637 262.339L28.484 261.681L27.7556 262.17L28.3131 263ZM3.00098 281H43.2787V279H3.00098V281ZM27.5625 263.661L42.5281 280.661L44.0293 279.339L29.0637 262.339L27.5625 263.661ZM3.55851 280.83L28.8707 263.83L27.7556 262.17L2.44344 279.17L3.55851 280.83Z" fill="#710A3C" mask="url(#path-30-inside-3_473_66)"/>
</g>
<defs>
<filter id="filter0_di_473_66" x="135.752" y="2.55859" width="55.4209" height="50.0215" filterUnits="userSpaceOnUse" color-interpolation-filters="sRGB">
<feFlood flood-opacity="0" result="BackgroundImageFix"/>
<feColorMatrix in="SourceAlpha" type="matrix" values="0 0 0 0 0 0 0 0 0 0 0 0 0 0 0 0 0 0 127 0" result="hardAlpha"/>
<feOffset dy="6"/>
<feComposite in2="hardAlpha" operator="out"/>
<feColorMatrix type="matrix" values="0 0 0 0 0.321569 0 0 0 0 0.0509804 0 0 0 0 0.196078 0 0 0 1 0"/>
<feBlend mode="normal" in2="BackgroundImageFix" result="effect1_dropShadow_473_66"/>
<feBlend mode="normal" in="SourceGraphic" in2="effect1_dropShadow_473_66" result="shape"/>
<feColorMatrix in="SourceAlpha" type="matrix" values="0 0 0 0 0 0 0 0 0 0 0 0 0 0 0 0 0 0 127 0" result="hardAlpha"/>
<feOffset dy="-5"/>
<feComposite in2="hardAlpha" operator="arithmetic" k2="-1" k3="1"/>
<feColorMatrix type="matrix" values="0 0 0 0 1 0 0 0 0 1 0 0 0 0 1 0 0 0 1 0"/>
<feBlend mode="normal" in2="shape" result="effect2_innerShadow_473_66"/>
</filter>
<clipPath id="clip0_473_66">
<rect width="252" height="282" fill="white"/>
</clipPath>
</defs>
</svg>
