<svg width="644" height="374" viewBox="0 0 644 374" fill="none" xmlns="http://www.w3.org/2000/svg">
<g clip-path="url(#clip0_412_1308)">
<path d="M549.907 301.146V374.583H644.014V314.042C643.999 287.229 622.259 265.5 595.446 265.5H514.3C533.965 265.536 549.892 281.48 549.907 301.146Z" fill="#710A3C"/>
<path d="M591.728 66.3789H396.325V206.272H591.728V66.3789Z" fill="url(#paint0_linear_412_1308)"/>
<path d="M549.907 374.583V301.146C549.893 281.48 533.966 265.536 514.3 265.5H221.917C204.564 265.5 190.496 279.568 190.496 296.921V374.609" stroke="#C1365B" stroke-width="1.3"/>
<path d="M572.527 92.2358H417.073V186.59H572.527V92.2358Z" fill="white"/>
<path d="M572.527 85.5151H417.073V95.3431H572.527V85.5151Z" fill="#FF7D7D"/>
<path d="M396.326 206.284L591.729 206.284V66.3907L396.326 66.3907V206.284Z" stroke="#C1365B" stroke-width="1.3"/>
<path d="M510 243.901V215H462V249" stroke="#C1365B" stroke-width="1.3"/>
<path d="M526 249V215H510V248.915L526 249Z" fill="#710A3C" stroke="#C1365B" stroke-width="1.3"/>
<path d="M505 215V206H488V214.977L505 215Z" fill="#710A3C" stroke="#C1365B" stroke-width="1.3"/>
<path d="M545.5 265.43L474.208 265.643L474.273 248.743L543.017 249.054C543.684 249.024 544.333 249.285 544.822 249.78C545.31 250.275 545.597 250.963 545.617 251.689L545.5 265.43Z" fill="#710A3C" stroke="#C1365B" stroke-width="1.3"/>
<path fill-rule="evenodd" clip-rule="evenodd" d="M475.222 265.474L301.022 265.448L301.1 247.937L475.3 248.678L475.222 265.474Z" stroke="#C1365B" stroke-width="1.3"/>
<path d="M600.035 66.3789H591.741V206.272H600.035V66.3789Z" fill="#C1365B" stroke="#C1365B" stroke-width="1.3"/>
<path d="M109.373 239.661C111.386 239.542 113.376 239.179 115.301 238.582L141.301 160.582L145.799 201.597C147.515 198.139 149.283 194.421 151.142 190.391C159.787 171.619 166.833 153.263 167.132 152.496C170.728 141.913 165.317 130.38 154.879 126.381C144.442 122.383 132.71 127.348 128.314 137.624C120.15 158.931 110.114 180.914 103.354 193.017C101.222 191.301 99.0383 189.481 97.2183 187.96C84.1143 177.053 71.7123 166.744 57.2693 166.38C46.1365 166.129 36.781 174.69 36.046 185.802C35.3111 196.913 43.4575 206.632 54.5263 207.85C58.0623 209.501 65.8103 215.949 70.5293 219.888C83.2433 230.483 94.2933 239.7 107.488 239.7C108.112 239.726 108.736 239.7 109.373 239.661Z" fill="#DFE6F2"/>
<path d="M117.579 239.5L140.16 171.718L130.124 173.889L126.991 186.109C123.497 199.7 118.708 212.925 112.691 225.603L105.918 239.903C109.803 240.364 113.735 240.228 117.579 239.5Z" fill="#C3CFE6"/>
<path d="M144.879 170.964V170.717H144.814L144.879 170.964Z" fill="#C3CFE6"/>
<path d="M160.466 374.583C162.065 369.799 163.794 364.794 165.666 359.62M143.8 160.902L80.6589 350.325C77.7055 358.06 76.3309 366.308 76.6159 374.583L143.8 160.902Z" stroke="#C1365B" stroke-width="1.3"/>
<path d="M264.167 217.296L200.792 214.878C191.468 214.524 182.187 213.428 173.037 211.602L129.591 202.918L132.477 158.64L270.875 178.049L264.167 217.296Z" fill="#710A3C"/>
<path d="M248.255 216.698L229.548 215.983L225.284 195.625L131.047 180.584L131.775 169.365L243.367 182.313L248.255 216.698Z" fill="#C1365B"/>
<path d="M260.878 214.345C266.325 228.554 269.328 246.429 270.771 265.279M166.953 374.583L159.036 286.04L166.953 374.583Z" stroke="#C1365B" stroke-width="1.3"/>
<g filter="url(#filter0_i_412_1308)">
<path d="M69.6561 165.274C77.1841 159.744 78.8039 149.159 73.2741 141.631C67.7442 134.103 57.1587 132.483 49.6307 138.013C42.1027 143.543 40.4828 154.128 46.0127 161.656C51.5426 169.184 62.1281 170.804 69.6561 165.274Z" fill="#C1365B"/>
</g>
<path d="M69.6561 165.274C77.1841 159.744 78.8039 149.159 73.2741 141.631C67.7442 134.103 57.1587 132.483 49.6307 138.013C42.1027 143.543 40.4828 154.128 46.0127 161.656C51.5426 169.184 62.1281 170.804 69.6561 165.274Z" stroke="#C1365B" stroke-width="0.65"/>
<path d="M228.805 293.169C217.448 293.169 208.19 284.062 208.005 272.707C207.823 261.007 212.477 239.388 245.705 226.414C249.254 225.036 252.764 223.879 256.105 222.93L252.023 162.623C251.363 155.122 254.808 147.851 261.031 143.611C267.254 139.371 275.282 138.825 282.021 142.184C288.76 145.543 293.158 152.281 293.519 159.802L298.836 238.114C299.604 249.206 291.513 258.941 280.467 260.214C266.31 261.93 251.529 268.261 249.618 272.122C249.755 283.585 240.592 292.998 229.13 293.169H228.805Z" fill="#DFE6F2"/>
<path d="M423.95 93.77C425.745 93.77 427.2 92.3149 427.2 90.52C427.2 88.7251 425.745 87.27 423.95 87.27C422.155 87.27 420.7 88.7251 420.7 90.52C420.7 92.3149 422.155 93.77 423.95 93.77Z" fill="#3B0E2A"/>
<path d="M433.25 93.5C435.045 93.5 436.5 92.0449 436.5 90.25C436.5 88.4551 435.045 87 433.25 87C431.455 87 430 88.4551 430 90.25C430 92.0449 431.455 93.5 433.25 93.5Z" fill="#710A3C"/>
<path d="M442.25 93.5C444.045 93.5 445.5 92.0449 445.5 90.25C445.5 88.4551 444.045 87 442.25 87C440.455 87 439 88.4551 439 90.25C439 92.0449 440.455 93.5 442.25 93.5Z" fill="#C1365B"/>
<path d="M476 127V119H468" stroke="#710A3C" stroke-width="1.3"/>
<path d="M474.883 119.339C463.933 130.476 462.992 148.182 472.698 160.449C482.404 172.716 499.653 175.62 512.749 167.193M518.094 162.686C528.714 151.907 529.989 134.881 521.095 122.6C512.201 110.318 495.8 106.455 482.479 113.505" stroke="#710A3C" stroke-width="1.3"/>
<path d="M518 155V162H526" stroke="#710A3C" stroke-width="1.3"/>
<path d="M59.4434 169.768C63.5861 169.768 66.9444 168.988 66.9444 168.026C66.9444 167.064 63.5861 166.284 59.4434 166.284C55.3007 166.284 51.9424 167.064 51.9424 168.026C51.9424 168.988 55.3007 169.768 59.4434 169.768Z" fill="#C5CFE4"/>
<path d="M496.708 163.826C509.25 163.826 519.416 153.791 519.416 141.413C519.416 129.035 509.25 119 496.708 119C484.167 119 474 129.035 474 141.413C474 153.791 484.167 163.826 496.708 163.826Z" fill="#C1365B"/>
<path d="M492.281 147.952C493.461 148.652 494.81 149.027 496.186 149.039C498.415 149.039 499.717 147.878 499.717 146.198C499.717 144.641 498.815 143.752 496.537 142.886C493.783 141.923 492.081 140.515 492.081 138.167C492.081 135.573 494.259 133.645 497.539 133.645C498.832 133.602 500.115 133.883 501.269 134.46L500.668 136.215C499.683 135.692 498.582 135.42 497.464 135.424C495.16 135.424 494.284 136.784 494.284 137.92C494.284 139.477 495.311 140.243 497.639 141.132C500.492 142.22 501.945 143.579 501.945 146.025C501.945 148.595 500.017 150.818 496.036 150.818C494.532 150.837 493.049 150.471 491.73 149.756L492.281 147.952Z" fill="#710A3C"/>
<path d="M498.053 130.722H496.107V153.859H498.053V130.722Z" fill="#710A3C"/>
<path d="M483.189 141.413C483.189 136.255 484.991 131.256 488.291 127.257C491.59 123.258 496.186 120.504 501.303 119.459C498.002 118.789 494.591 118.853 491.318 119.646C488.045 120.438 484.992 121.94 482.38 124.042C479.768 126.144 477.663 128.793 476.217 131.797C474.772 134.802 474.021 138.086 474.021 141.413C474.021 144.739 474.772 148.023 476.217 151.028C477.663 154.032 479.768 156.682 482.38 158.784C484.992 160.885 488.045 162.387 491.318 163.18C494.591 163.972 498.002 164.036 501.303 163.366C496.186 162.321 491.59 159.567 488.291 155.568C484.991 151.569 483.189 146.57 483.189 141.413Z" fill="#710A3C"/>
<path d="M496.462 121.021C495.533 121.44 494.635 121.921 493.773 122.462H484.58C484.979 122.212 485.383 121.977 485.796 121.751L487.27 121.021H496.462ZM490.412 125.02C489.916 125.476 489.434 125.956 488.982 126.46H479.795C480.247 125.961 480.724 125.481 481.22 125.02H490.412ZM485.538 131.477C485.3 131.947 485.081 132.427 484.882 132.917H475.695C475.894 132.427 476.113 131.947 476.351 131.477H485.538ZM483.428 138.168C483.355 138.643 483.301 139.123 483.262 139.608H474.075C474.114 139.123 474.168 138.643 474.24 138.168H483.428ZM484.089 147.678H474.902C474.761 147.207 474.639 146.727 474.532 146.238H483.72C483.827 146.727 483.948 147.202 484.089 147.678ZM487.961 155.166H478.778C478.409 154.701 478.063 154.221 477.733 153.726H486.92C487.246 154.221 487.596 154.701 487.961 155.166ZM486.215 161.296H495.412C494.574 160.867 493.765 160.386 492.989 159.856H483.802L486.215 161.296Z" fill="#C1365B"/>
<path d="M206.428 84.814C212.653 82.9317 219.592 84.419 224.499 88.6869L286.486 142.603C293.029 148.294 294.329 157.438 289.555 164.196L251.561 217.994C247.566 223.651 240.189 226.349 232.955 224.798L142.936 205.507C135.702 203.956 130.079 198.473 128.753 191.676L116.141 127.032C114.557 118.911 119.49 111.103 127.79 108.593L206.428 84.814Z" fill="#FF7D7D"/>
<g filter="url(#filter1_di_412_1308)">
<path d="M167.28 96.0072C164.571 92.6845 165.044 88.4591 168.397 86.0345L214.818 52.4721C219.475 49.1054 227.231 50.7674 230.099 55.7468L258.69 105.385C260.755 108.971 259.455 113.019 255.622 114.94L233.541 126.002C217.152 134.212 194.474 129.352 182.889 115.146L167.28 96.0072Z" fill="#FF7D7D"/>
</g>
<path d="M200.429 90.1507C199.911 89.3466 200.141 88.2724 200.944 87.7513L216.439 77.6847C217.242 77.1636 218.312 77.393 218.83 78.197L228.84 93.7297C229.358 94.5337 229.128 95.608 228.325 96.129L212.83 106.196C212.028 106.717 210.957 106.487 210.439 105.683L200.429 90.1507Z" fill="white"/>
</g>
<defs>
<filter id="filter0_i_412_1308" x="42.4043" y="130.404" width="34.4785" height="38.478" filterUnits="userSpaceOnUse" color-interpolation-filters="sRGB">
<feFlood flood-opacity="0" result="BackgroundImageFix"/>
<feBlend mode="normal" in="SourceGraphic" in2="BackgroundImageFix" result="shape"/>
<feColorMatrix in="SourceAlpha" type="matrix" values="0 0 0 0 0 0 0 0 0 0 0 0 0 0 0 0 0 0 127 0" result="hardAlpha"/>
<feOffset dy="-12"/>
<feGaussianBlur stdDeviation="2"/>
<feComposite in2="hardAlpha" operator="arithmetic" k2="-1" k3="1"/>
<feColorMatrix type="matrix" values="0 0 0 0 0 0 0 0 0 0 0 0 0 0 0 0 0 0 0.18 0"/>
<feBlend mode="normal" in2="shape" result="effect1_innerShadow_412_1308"/>
</filter>
<filter id="filter1_di_412_1308" x="165.526" y="50.7114" width="94.1396" height="89.2827" filterUnits="userSpaceOnUse" color-interpolation-filters="sRGB">
<feFlood flood-opacity="0" result="BackgroundImageFix"/>
<feColorMatrix in="SourceAlpha" type="matrix" values="0 0 0 0 0 0 0 0 0 0 0 0 0 0 0 0 0 0 127 0" result="hardAlpha"/>
<feOffset dy="10"/>
<feComposite in2="hardAlpha" operator="out"/>
<feColorMatrix type="matrix" values="0 0 0 0 0.321569 0 0 0 0 0.0509804 0 0 0 0 0.196078 0 0 0 1 0"/>
<feBlend mode="normal" in2="BackgroundImageFix" result="effect1_dropShadow_412_1308"/>
<feBlend mode="normal" in="SourceGraphic" in2="effect1_dropShadow_412_1308" result="shape"/>
<feColorMatrix in="SourceAlpha" type="matrix" values="0 0 0 0 0 0 0 0 0 0 0 0 0 0 0 0 0 0 127 0" result="hardAlpha"/>
<feOffset dy="-10"/>
<feComposite in2="hardAlpha" operator="arithmetic" k2="-1" k3="1"/>
<feColorMatrix type="matrix" values="0 0 0 0 1 0 0 0 0 1 0 0 0 0 1 0 0 0 1 0"/>
<feBlend mode="normal" in2="shape" result="effect2_innerShadow_412_1308"/>
</filter>
<linearGradient id="paint0_linear_412_1308" x1="494.027" y1="66.3789" x2="494.027" y2="206.272" gradientUnits="userSpaceOnUse">
<stop stop-color="#3B0E2A"/>
<stop offset="1" stop-color="#710A3C"/>
</linearGradient>
<clipPath id="clip0_412_1308">
<rect width="644" height="374" fill="white"/>
</clipPath>
</defs>
</svg>
