<svg width="644" height="374" viewBox="0 0 644 374" fill="none" xmlns="http://www.w3.org/2000/svg">
<path d="M49.875 161.5L24.875 186.5L49.875 211.5" stroke="#C1365B" stroke-width="2" stroke-linecap="round" stroke-linejoin="round"/>
<path d="M593.168 212.516L618.125 187.473L593.081 162.517" stroke="#C1365B" stroke-width="2" stroke-linecap="round" stroke-linejoin="round"/>
<g clip-path="url(#clip0_412_1306)">
<rect x="110" y="54" width="197" height="267" fill="#880C48" stroke="white" stroke-width="2"/>
<rect x="121" y="91.4561" width="36" height="36" rx="5" transform="rotate(-45 121 91.4561)" fill="white" fill-opacity="0.05"/>
<rect x="151" y="61.4561" width="36" height="36" rx="5" transform="rotate(-45 151 61.4561)" fill="white" fill-opacity="0.05"/>
<rect x="92" y="123.456" width="36" height="36" rx="5" transform="rotate(-45 92 123.456)" fill="white" fill-opacity="0.05"/>
<rect x="84" y="69.4561" width="36" height="36" rx="5" transform="rotate(-45 84 69.4561)" fill="white" fill-opacity="0.05"/>
<rect x="115" y="40.4561" width="36" height="36" rx="5" transform="rotate(-45 115 40.4561)" fill="white" fill-opacity="0.05"/>
<path d="M195.576 135.773C198.631 134.044 202.369 134.044 205.424 135.773L255.074 163.864C259.479 166.356 261.328 171.747 259.379 176.418L241.566 219.109C240.012 222.833 236.372 225.259 232.337 225.259H168.663C164.628 225.259 160.988 222.833 159.434 219.109L141.621 176.418C139.672 171.747 141.521 166.356 145.926 163.864L195.576 135.773Z" fill="#FF7D7D"/>
<g filter="url(#filter0_di_412_1306)">
<path d="M172.633 151.304C169.08 148.388 168.631 143.788 171.574 140.445L191.278 118.065C195.641 113.109 204.637 113.109 209.001 118.065L228.705 140.445C231.648 143.788 231.199 148.388 227.646 151.304V151.304C212.454 163.77 187.825 163.77 172.633 151.304V151.304Z" fill="#FF7D7D"/>
</g>
<rect width="14.6687" height="14.6687" rx="2" transform="matrix(0.69735 -0.716731 0.69735 0.716731 190 139.99)" fill="white"/>
<rect x="128.665" y="282" width="33" height="33" transform="rotate(-45 128.665 282)" stroke="#C1365B" stroke-width="3"/>
</g>
<g clip-path="url(#clip1_412_1306)">
<rect x="340" y="54" width="197" height="267" fill="#880C48" stroke="white" stroke-width="2"/>
<rect x="423" y="56.4561" width="36" height="36" rx="5" transform="rotate(-45 423 56.4561)" fill="white" fill-opacity="0.05"/>
<rect x="465" y="74.4561" width="36" height="36" rx="5" transform="rotate(-45 465 74.4561)" fill="white" fill-opacity="0.05"/>
<rect x="495" y="104.456" width="36" height="36" rx="5" transform="rotate(-45 495 104.456)" fill="white" fill-opacity="0.05"/>
<rect x="507" y="56.4561" width="36" height="36" rx="5" transform="rotate(-45 507 56.4561)" fill="white" fill-opacity="0.05"/>
<path d="M451.366 143.075C454.527 141.184 458.473 141.184 461.634 143.075L505.805 169.503C510.006 172.017 511.77 177.201 509.973 181.755L493.971 222.313C492.464 226.132 488.775 228.642 484.669 228.642H428.331C424.225 228.642 420.536 226.132 419.029 222.313L403.027 181.755C401.23 177.201 402.994 172.017 407.195 169.503L451.366 143.075Z" fill="#FF7D7D"/>
<g filter="url(#filter1_di_412_1306)">
<path d="M431.476 157.599C428.248 154.798 427.841 150.378 430.514 147.168L447.804 126.399C452.068 121.278 460.857 121.278 465.121 126.399L482.411 147.168C485.085 150.378 484.677 154.798 481.449 157.599V157.599C467.649 169.574 445.276 169.574 431.476 157.599V157.599Z" fill="#FF7D7D"/>
</g>
<rect width="13.7239" height="13.7239" rx="2" transform="matrix(0.677079 -0.735911 0.677079 0.735911 447 146.73)" fill="white"/>
<rect x="473.665" y="282" width="33" height="33" transform="rotate(-45 473.665 282)" stroke="#C1365B" stroke-width="3"/>
</g>
<g clip-path="url(#clip2_412_1306)">
<rect x="225" y="41" width="198" height="293" fill="url(#paint0_linear_412_1306)" stroke="white" stroke-width="2"/>
<rect x="250" y="94.4561" width="36" height="36" rx="5" transform="rotate(-45 250 94.4561)" fill="white" fill-opacity="0.05"/>
<rect x="283" y="69.4561" width="36" height="36" rx="5" transform="rotate(-45 283 69.4561)" fill="white" fill-opacity="0.05"/>
<rect x="313" y="38.4561" width="36" height="36" rx="5" transform="rotate(-45 313 38.4561)" fill="white" fill-opacity="0.05"/>
<rect x="355" y="56.4561" width="36" height="36" rx="5" transform="rotate(-45 355 56.4561)" fill="white" fill-opacity="0.05"/>
<rect x="325" y="86.4561" width="36" height="36" rx="5" transform="rotate(-45 325 86.4561)" fill="white" fill-opacity="0.05"/>
<rect x="385" y="86.4561" width="36" height="36" rx="5" transform="rotate(-45 385 86.4561)" fill="white" fill-opacity="0.05"/>
<rect x="397" y="38.4561" width="36" height="36" rx="5" transform="rotate(-45 397 38.4561)" fill="white" fill-opacity="0.05"/>
<rect x="221" y="63.4561" width="36" height="36" rx="5" transform="rotate(-45 221 63.4561)" fill="white" fill-opacity="0.05"/>
<rect x="255" y="35.4561" width="36" height="36" rx="5" transform="rotate(-45 255 35.4561)" fill="white" fill-opacity="0.05"/>
<path d="M319.367 155.467C322.528 153.576 326.472 153.576 329.633 155.467L374.753 182.452C378.955 184.965 380.72 190.151 378.922 194.705L362.559 236.161C361.052 239.98 357.363 242.489 353.257 242.489H295.743C291.637 242.489 287.948 239.98 286.441 236.161L270.078 194.705C268.28 190.151 270.045 184.965 274.247 182.452L319.367 155.467Z" fill="#C1365B"/>
<g filter="url(#filter2_di_412_1306)">
<path d="M299.094 170.281C295.812 167.434 295.397 162.942 298.115 159.678L315.84 138.397C320.105 133.277 328.895 133.277 333.16 138.397L350.885 159.678C353.603 162.942 353.189 167.434 349.907 170.281V170.281C335.875 182.452 313.125 182.452 299.094 170.281V170.281Z" fill="#C1365B"/>
</g>
<rect width="13.9515" height="13.9515" rx="2" transform="matrix(0.677228 -0.735773 0.677228 0.735773 315.222 159.234)" fill="white"/>
<rect x="242.837" y="295" width="37" height="37" transform="rotate(-45 242.837 295)" stroke="#C1365B" stroke-width="3"/>
<path d="M262.5 290.5L273.5 301L297 278.5" stroke="#FF8F8F" stroke-width="4" stroke-linecap="round"/>
</g>
<defs>
<filter id="filter0_di_412_1306" x="169.635" y="114.348" width="61.0098" height="52.3052" filterUnits="userSpaceOnUse" color-interpolation-filters="sRGB">
<feFlood flood-opacity="0" result="BackgroundImageFix"/>
<feColorMatrix in="SourceAlpha" type="matrix" values="0 0 0 0 0 0 0 0 0 0 0 0 0 0 0 0 0 0 127 0" result="hardAlpha"/>
<feOffset dy="6"/>
<feComposite in2="hardAlpha" operator="out"/>
<feColorMatrix type="matrix" values="0 0 0 0 0.321569 0 0 0 0 0.0509804 0 0 0 0 0.196078 0 0 0 1 0"/>
<feBlend mode="normal" in2="BackgroundImageFix" result="effect1_dropShadow_412_1306"/>
<feBlend mode="normal" in="SourceGraphic" in2="effect1_dropShadow_412_1306" result="shape"/>
<feColorMatrix in="SourceAlpha" type="matrix" values="0 0 0 0 0 0 0 0 0 0 0 0 0 0 0 0 0 0 127 0" result="hardAlpha"/>
<feOffset dy="-5"/>
<feComposite in2="hardAlpha" operator="arithmetic" k2="-1" k3="1"/>
<feColorMatrix type="matrix" values="0 0 0 0 1 0 0 0 0 1 0 0 0 0 1 0 0 0 1 0"/>
<feBlend mode="normal" in2="shape" result="effect2_innerShadow_412_1306"/>
</filter>
<filter id="filter1_di_412_1306" x="428.752" y="122.559" width="55.4209" height="50.0215" filterUnits="userSpaceOnUse" color-interpolation-filters="sRGB">
<feFlood flood-opacity="0" result="BackgroundImageFix"/>
<feColorMatrix in="SourceAlpha" type="matrix" values="0 0 0 0 0 0 0 0 0 0 0 0 0 0 0 0 0 0 127 0" result="hardAlpha"/>
<feOffset dy="6"/>
<feComposite in2="hardAlpha" operator="out"/>
<feColorMatrix type="matrix" values="0 0 0 0 0.321569 0 0 0 0 0.0509804 0 0 0 0 0.196078 0 0 0 1 0"/>
<feBlend mode="normal" in2="BackgroundImageFix" result="effect1_dropShadow_412_1306"/>
<feBlend mode="normal" in="SourceGraphic" in2="effect1_dropShadow_412_1306" result="shape"/>
<feColorMatrix in="SourceAlpha" type="matrix" values="0 0 0 0 0 0 0 0 0 0 0 0 0 0 0 0 0 0 127 0" result="hardAlpha"/>
<feOffset dy="-5"/>
<feComposite in2="hardAlpha" operator="arithmetic" k2="-1" k3="1"/>
<feColorMatrix type="matrix" values="0 0 0 0 1 0 0 0 0 1 0 0 0 0 1 0 0 0 1 0"/>
<feBlend mode="normal" in2="shape" result="effect2_innerShadow_412_1306"/>
</filter>
<filter id="filter2_di_412_1306" x="296.324" y="134.557" width="56.3516" height="50.8521" filterUnits="userSpaceOnUse" color-interpolation-filters="sRGB">
<feFlood flood-opacity="0" result="BackgroundImageFix"/>
<feColorMatrix in="SourceAlpha" type="matrix" values="0 0 0 0 0 0 0 0 0 0 0 0 0 0 0 0 0 0 127 0" result="hardAlpha"/>
<feOffset dy="6"/>
<feComposite in2="hardAlpha" operator="out"/>
<feColorMatrix type="matrix" values="0 0 0 0 0.321569 0 0 0 0 0.0509804 0 0 0 0 0.196078 0 0 0 1 0"/>
<feBlend mode="normal" in2="BackgroundImageFix" result="effect1_dropShadow_412_1306"/>
<feBlend mode="normal" in="SourceGraphic" in2="effect1_dropShadow_412_1306" result="shape"/>
<feColorMatrix in="SourceAlpha" type="matrix" values="0 0 0 0 0 0 0 0 0 0 0 0 0 0 0 0 0 0 127 0" result="hardAlpha"/>
<feOffset dy="-5"/>
<feComposite in2="hardAlpha" operator="arithmetic" k2="-1" k3="1"/>
<feColorMatrix type="matrix" values="0 0 0 0 1 0 0 0 0 1 0 0 0 0 1 0 0 0 1 0"/>
<feBlend mode="normal" in2="shape" result="effect2_innerShadow_412_1306"/>
</filter>
<linearGradient id="paint0_linear_412_1306" x1="324" y1="40" x2="324" y2="335" gradientUnits="userSpaceOnUse">
<stop stop-color="#3B0E2A"/>
<stop offset="1" stop-color="#710A3C"/>
</linearGradient>
<clipPath id="clip0_412_1306">
<rect width="199" height="269" fill="white" transform="translate(109 53)"/>
</clipPath>
<clipPath id="clip1_412_1306">
<rect width="199" height="269" fill="white" transform="translate(339 53)"/>
</clipPath>
<clipPath id="clip2_412_1306">
<rect width="200" height="295" fill="white" transform="translate(224 40)"/>
</clipPath>
</defs>
</svg>
