<svg width="224" height="188" viewBox="0 0 224 188" fill="none" xmlns="http://www.w3.org/2000/svg">
<g clip-path="url(#clip0_407_1127)">
<path d="M203.77 138.04C197.678 126.424 175.623 84.7015 170.989 80.6166L178.517 62.243C181.611 54.6897 176.519 46.0455 168.283 45.4958C167.994 45.4765 167.701 45.4668 167.407 45.4667H166.489C165.502 39.2866 162.76 34.834 159.524 34.834H138.918C135.682 34.834 132.939 39.2866 131.953 45.4667H131.565C131.271 45.4667 130.978 45.4764 130.689 45.4958C122.453 46.0455 117.361 54.6897 120.455 62.243L127.983 80.6166L96.3376 137.152C94.245 140.801 92.9204 144.83 92.443 148.997C91.9657 153.164 92.3455 157.383 93.5596 161.401C97.3032 173.267 108.015 182.601 121.837 183.154C122.285 183.172 122.735 183.181 123.187 183.181H176.313C176.765 183.181 177.215 183.172 177.663 183.154C194.935 182.463 207.351 168.06 207.381 152.141C207.341 147.223 206.102 142.386 203.77 138.04V138.04Z" fill="#C1365B"/>
<path d="M125.824 46.8201C127.579 57.9249 139.568 79.6226 139.568 79.6226C134.919 65.4215 131.953 45.4671 131.953 45.4671H131.565C129.571 45.468 127.604 45.9315 125.824 46.8201V46.8201ZM172.458 46.8101C172.475 46.7046 172.485 46.6137 172.5 46.5119C170.893 45.822 169.159 45.4663 167.407 45.4671H166.489C166.48 45.413 166.469 45.3615 166.46 45.3076C166.377 45.406 166.328 45.4671 166.328 45.4671C166.328 45.4671 163.361 65.4215 158.713 79.6226C158.713 79.6226 170.708 57.9119 172.458 46.8101ZM172.5 112.425C170.745 101.32 158.756 79.6226 158.756 79.6226C163.405 93.8237 166.371 113.778 166.371 113.778H166.759C168.753 113.777 170.72 113.314 172.5 112.425ZM125.866 112.435C125.849 112.541 125.839 112.631 125.824 112.733C127.431 113.423 129.165 113.779 130.917 113.778H131.835C131.844 113.832 131.855 113.884 131.864 113.938C131.946 113.839 131.996 113.778 131.996 113.778C131.996 113.778 134.962 93.8237 139.611 79.6226C139.611 79.6226 127.616 101.333 125.866 112.435Z" fill="#FF7D7D"/>
<path d="M149.795 85.052C149.573 85.052 149.351 85.052 149.129 85.0511C141.391 85.0242 133.661 84.5618 125.977 83.666C125.614 83.6219 125.263 83.507 124.945 83.3281C124.628 83.1493 124.349 82.9099 124.125 82.624C123.902 82.338 123.738 82.0112 123.643 81.6623C123.548 81.3134 123.525 80.9494 123.574 80.5915V80.5915C123.67 79.8792 124.048 79.2333 124.624 78.7941C125.201 78.3549 125.929 78.1577 126.652 78.2454C142.03 80.0386 157.569 80.0385 172.947 78.245C173.671 78.1573 174.4 78.3547 174.977 78.7944C175.554 79.2342 175.932 79.8807 176.029 80.5938V80.5938C176.078 80.9516 176.055 81.3154 175.96 81.6641C175.865 82.0128 175.701 82.3396 175.478 82.6254C175.254 82.9112 174.976 83.1504 174.658 83.3291C174.34 83.5078 173.99 83.6225 173.627 83.6666C165.717 84.5876 157.759 85.0502 149.795 85.052ZM141.812 145.534C143.881 146.761 146.246 147.419 148.66 147.441C152.567 147.441 154.849 145.405 154.849 142.459C154.849 139.729 153.268 138.169 149.274 136.652C144.447 134.963 141.461 132.493 141.461 128.377C141.461 123.828 145.28 120.449 151.03 120.449C153.298 120.373 155.548 120.865 157.572 121.878L156.517 124.955C154.791 124.037 152.859 123.561 150.899 123.568C146.861 123.568 145.324 125.951 145.324 127.944C145.324 130.674 147.124 132.016 151.206 133.576C156.211 135.483 158.756 137.866 158.756 142.154C158.756 146.661 155.375 150.56 148.397 150.56C145.543 150.56 142.428 149.738 140.847 148.697L141.812 145.534Z" fill="#3B0E2A"/>
<path d="M151.934 115.324H148.521V155.893H151.934V115.324Z" fill="#3B0E2A"/>
<path d="M98.6008 44.8259C111.142 44.8259 121.309 34.7913 121.309 22.413C121.309 10.0346 111.142 0 98.6008 0C86.0594 0 75.8926 10.0346 75.8926 22.413C75.8926 34.7913 86.0594 44.8259 98.6008 44.8259Z" fill="#FF7D7D"/>
<path d="M94.1738 28.9522C95.354 29.6519 96.7024 30.0273 98.0791 30.0394C100.307 30.0394 101.609 28.8782 101.609 27.1981C101.609 25.6413 100.708 24.7516 98.4298 23.8865C95.676 22.9234 93.9738 21.5147 93.9738 19.1669C93.9738 16.573 96.1518 14.6454 99.4313 14.6454C100.724 14.6024 102.008 14.8828 103.162 15.4605L102.561 17.2153C101.576 16.6924 100.475 16.4205 99.3563 16.4242C97.0526 16.4242 96.1768 17.7836 96.1768 18.9201C96.1768 20.4769 97.2033 21.2426 99.5313 22.1323C102.385 23.2195 103.837 24.5788 103.837 27.0246C103.837 29.5945 101.909 31.8183 97.9291 31.8183C96.4249 31.8369 94.9414 31.4708 93.623 30.7558L94.1738 28.9522Z" fill="#710A3C"/>
<path d="M99.9458 11.7222H98V34.8588H99.9458V11.7222Z" fill="#710A3C"/>
<path d="M85.0813 22.4127C85.0818 17.2553 86.8837 12.2558 90.1833 8.25687C93.483 4.25789 98.0785 1.50398 103.195 0.459293C99.8945 -0.210633 96.4838 -0.146988 93.2109 0.645607C89.938 1.4382 86.8848 2.93988 84.2729 5.04171C81.6609 7.14354 79.5557 9.79281 78.1099 12.7974C76.6642 15.8019 75.9141 19.0864 75.9141 22.4126C75.9141 25.7389 76.6642 29.0234 78.1099 32.0279C79.5557 35.0325 81.6609 37.6818 84.2729 39.7836C86.8848 41.8854 89.938 43.3871 93.2109 44.1797C96.4838 44.9723 99.8945 45.0359 103.195 44.366C98.0785 43.3213 93.483 40.5674 90.1833 36.5684C86.8837 32.5695 85.0818 27.57 85.0813 22.4127Z" fill="#C1365B"/>
<path d="M98.3547 2.02148C97.4259 2.44034 96.5273 2.92149 95.6652 3.46158H86.473C86.8718 3.21195 87.2755 2.97674 87.6889 2.75111L89.1625 2.02148H98.3547ZM92.3044 6.02013C91.8083 6.47617 91.3268 6.9562 90.8745 7.46023H81.6873C82.1396 6.96101 82.6162 6.48098 83.1123 6.02013H92.3044ZM87.4311 12.4766C87.1928 12.947 86.9739 13.427 86.7746 13.9167H77.5873C77.7867 13.427 78.0056 12.947 78.2439 12.4766H87.4311ZM85.3204 19.1682C85.2474 19.6434 85.1939 20.1235 85.155 20.6083H75.9678C76.0066 20.1235 76.0602 19.6435 76.1331 19.1682H85.3204ZM85.9817 28.6777H76.7946C76.6535 28.2072 76.5319 27.7272 76.4249 27.2376H85.6121C85.7192 27.7272 85.8407 28.2024 85.9817 28.6777ZM89.8532 36.1662H80.6708C80.3011 35.7005 79.9559 35.2205 79.6251 34.7261H88.8124C89.1382 35.2205 89.4884 35.7005 89.8532 36.1662ZM88.1072 42.2962H97.3041C96.467 41.8667 95.6581 41.3857 94.8821 40.8561H85.6948L88.1072 42.2962Z" fill="#FF7D7D"/>
<path d="M66.2249 174.805H67.7487C67.2119 174.805 66.6801 174.784 66.1514 174.753C66.1755 174.77 66.2006 174.787 66.2249 174.805Z" fill="#DDDDDD"/>
<path d="M216.003 184.542H20.4326V187.36H216.003V184.542Z" fill="#710A3C"/>
<path d="M222.79 183.144H215.691V185.951H222.79V183.144Z" fill="#222328"/>
<path d="M107.582 61.9839H1.87906C0.841286 61.9839 0 62.964 0 64.1731V145.727C0 146.936 0.841286 147.916 1.87906 147.916H107.582C108.619 147.916 109.461 146.936 109.461 145.727V64.1731C109.461 62.964 108.619 61.9839 107.582 61.9839Z" fill="#FF7D7D"/>
<path d="M39.7 122L50.65 104.3L39.55 87H46.9L54.75 99.2L61.95 87H69.15L58.2 104.6L69.4 122H62.05L54.1 109.65L46.9 122H39.7Z" fill="#3B0E2A"/>
</g>
<defs>
<clipPath id="clip0_407_1127">
<rect width="223.3" height="187.36" fill="white"/>
</clipPath>
</defs>
</svg>
