<svg width="107" height="91" viewBox="0 0 107 91" fill="none" xmlns="http://www.w3.org/2000/svg">
<path d="M97.641 67.0458C94.722 61.404 84.1537 41.1394 81.9332 39.1554L85.5404 30.2314C87.0233 26.5628 84.5833 22.3643 80.6368 22.0974C80.498 22.088 80.358 22.0833 80.2167 22.0832H79.7769C79.3041 19.0816 77.9901 16.9189 76.4394 16.9189H66.5656C65.0149 16.9189 63.7009 19.0816 63.2281 22.0832H63.0425C62.9013 22.0832 62.7612 22.0879 62.6224 22.0974C58.6758 22.3643 56.2359 26.5628 57.7188 30.2314L61.326 39.1554L46.1622 66.6144C45.1594 68.3869 44.5247 70.3437 44.296 72.3675C44.0672 74.3913 44.2492 76.4404 44.831 78.3922C46.6248 84.1551 51.7576 88.6889 58.3808 88.9575C58.5953 88.9663 58.811 88.9706 59.0278 88.9706H84.4844C84.701 88.9706 84.9167 88.9663 85.1315 88.9575C93.4078 88.6219 99.3569 81.6261 99.3717 73.8943C99.3522 71.5056 98.7587 69.1567 97.641 67.0458V67.0458Z" fill="#C1365B"/>
<path d="M60.292 22.74C61.133 28.1335 66.8775 38.672 66.8775 38.672C64.65 31.7746 63.2286 22.0828 63.2286 22.0828H63.043C62.0872 22.0833 61.1449 22.3084 60.292 22.74V22.74ZM82.6379 22.7351C82.6458 22.6839 82.6506 22.6397 82.6577 22.5903C81.8877 22.2552 81.0569 22.0824 80.2173 22.0828H79.7775C79.7734 22.0565 79.768 22.0315 79.7636 22.0054C79.7241 22.0531 79.7002 22.0828 79.7002 22.0828C79.7002 22.0828 78.279 31.7746 76.0515 38.672C76.0515 38.672 81.7993 28.1272 82.6379 22.7351ZM82.6577 54.604C81.8167 49.2105 76.0722 38.672 76.0722 38.672C78.2997 45.5694 79.7211 55.2612 79.7211 55.2612H79.9067C80.8625 55.2607 81.8048 55.0356 82.6577 54.604ZM60.3119 54.6089C60.3039 54.6601 60.2991 54.7043 60.292 54.7537C61.062 55.0888 61.8928 55.2616 62.7325 55.2612H63.1723C63.1763 55.2875 63.1818 55.3125 63.1861 55.3386C63.2256 55.2909 63.2495 55.2612 63.2495 55.2612C63.2495 55.2612 64.6708 45.5694 66.8982 38.672C66.8982 38.672 61.1504 49.2168 60.3119 54.6089Z" fill="#FF7D7D"/>
<path d="M71.7787 41.3092C71.6721 41.3092 71.5659 41.3092 71.4593 41.3088C67.7517 41.2957 64.0478 41.0711 60.3658 40.636C60.1918 40.6146 60.0237 40.5588 59.8714 40.4719C59.719 40.3851 59.5854 40.2688 59.4783 40.1299C59.3712 39.991 59.2927 39.8323 59.2473 39.6628C59.2019 39.4934 59.1906 39.3166 59.214 39.1427V39.1427C59.2604 38.7968 59.4413 38.4831 59.7175 38.2698C59.9937 38.0564 60.3428 37.9607 60.6891 38.0033C68.058 38.8742 75.5039 38.8741 82.8728 38.0031C83.2195 37.9605 83.569 38.0564 83.8455 38.2699C84.1219 38.4835 84.3031 38.7975 84.3496 39.1439V39.1439C84.373 39.3176 84.3617 39.4943 84.3163 39.6637C84.271 39.8331 84.1924 39.9918 84.0853 40.1306C83.9783 40.2694 83.8447 40.3856 83.6924 40.4724C83.5401 40.5592 83.3721 40.6149 83.1982 40.6363C79.4081 41.0836 75.5951 41.3083 71.7787 41.3092ZM67.9532 70.6852C68.945 71.2812 70.0781 71.6008 71.235 71.6111C73.107 71.6111 74.2005 70.6222 74.2005 69.1913C74.2005 67.8656 73.4431 67.1078 71.5291 66.3711C69.216 65.5509 67.7852 64.3512 67.7852 62.3518C67.7852 60.1427 69.6151 58.5011 72.3706 58.5011C73.4572 58.4645 74.5355 58.7033 75.5053 59.1953L74.9999 60.6898C74.1726 60.2443 73.2471 60.0127 72.3075 60.0161C70.3726 60.0161 69.6361 61.1737 69.6361 62.1416C69.6361 63.4674 70.4986 64.1195 72.4546 64.8772C74.8529 65.8031 76.0725 66.9607 76.0725 69.0436C76.0725 71.2322 74.4526 73.126 71.109 73.126C69.7412 73.126 68.2485 72.7267 67.4911 72.2212L67.9532 70.6852Z" fill="#3B0E2A"/>
<path d="M72.8031 56.0127H71.168V75.7167H72.8031V56.0127Z" fill="#3B0E2A"/>
<path d="M47.2474 21.7718C53.2569 21.7718 58.1286 16.898 58.1286 10.8859C58.1286 4.87377 53.2569 0 47.2474 0C41.2379 0 36.3662 4.87377 36.3662 10.8859C36.3662 16.898 41.2379 21.7718 47.2474 21.7718Z" fill="#FF7D7D"/>
<path d="M45.1262 14.0617C45.6917 14.4015 46.3378 14.5838 46.9975 14.5897C48.0651 14.5897 48.6891 14.0257 48.6891 13.2097C48.6891 12.4536 48.2572 12.0214 47.1656 11.6013C45.846 11.1335 45.0304 10.4493 45.0304 9.30899C45.0304 8.04915 46.074 7.11292 47.6455 7.11292C48.2651 7.09205 48.88 7.22823 49.4329 7.50879L49.1451 8.36111C48.6732 8.10714 48.1454 7.97508 47.6095 7.9769C46.5056 7.9769 46.086 8.63712 46.086 9.18913C46.086 9.94524 46.5779 10.3171 47.6934 10.7493C49.0609 11.2773 49.7567 11.9375 49.7567 13.1255C49.7567 14.3737 48.8329 15.4537 46.9256 15.4537C46.2049 15.4628 45.494 15.285 44.8623 14.9377L45.1262 14.0617Z" fill="#710A3C"/>
<path d="M47.8923 5.69336H46.96V16.9307H47.8923V5.69336Z" fill="#710A3C"/>
<path d="M40.7687 10.8857C40.7689 8.38084 41.6324 5.95261 43.2135 4.01033C44.7946 2.06804 46.9967 0.730475 49.4486 0.223077C47.8668 -0.102303 46.2325 -0.0713916 44.6642 0.313569C43.0959 0.698529 41.6329 1.42789 40.3813 2.44874C39.1297 3.46959 38.121 4.75633 37.4282 6.21563C36.7354 7.67493 36.376 9.27021 36.376 10.8857C36.376 12.5013 36.7354 14.0965 37.4282 15.5558C38.121 17.0151 39.1297 18.3019 40.3813 19.3227C41.6329 20.3436 43.0959 21.0729 44.6642 21.4579C46.2325 21.8429 47.8668 21.8738 49.4486 21.5484C46.9967 21.041 44.7946 19.7034 43.2135 17.7611C41.6324 15.8189 40.7689 13.3906 40.7687 10.8857Z" fill="#C1365B"/>
<path d="M47.1296 0.981934C46.6846 1.18537 46.254 1.41907 45.8409 1.68138H41.4362C41.6273 1.56014 41.8208 1.4459 42.0188 1.33631L42.725 0.981934H47.1296ZM44.2304 2.92406C43.9927 3.14556 43.762 3.3787 43.5453 3.62351H39.143C39.3597 3.38104 39.5881 3.14789 39.8258 2.92406H44.2304ZM41.8953 6.05993C41.7811 6.28841 41.6762 6.52156 41.5807 6.75937H37.1784C37.2739 6.52156 37.3788 6.28841 37.493 6.05993H41.8953ZM40.8839 9.31004C40.8489 9.54085 40.8233 9.774 40.8046 10.0095H36.4023C36.4209 9.774 36.4466 9.54085 36.4815 9.31004H40.8839ZM41.2008 13.9287H36.7985C36.7309 13.7002 36.6727 13.4671 36.6214 13.2293H41.0237C41.075 13.4671 41.1332 13.6979 41.2008 13.9287ZM43.0559 17.5659H38.6559C38.4788 17.3397 38.3133 17.1066 38.1548 16.8664H42.5572C42.7133 17.1066 42.8811 17.3397 43.0559 17.5659ZM42.2192 20.5432H46.6262C46.2251 20.3346 45.8375 20.101 45.4656 19.8437H41.0633L42.2192 20.5432Z" fill="#FF7D7D"/>
<path d="M31.7335 84.902H32.4636C32.2064 84.902 31.9516 84.8921 31.6982 84.877C31.7098 84.8855 31.7218 84.8935 31.7335 84.902Z" fill="#DDDDDD"/>
<path d="M103.503 89.6313H9.79102V90.9998H103.503V89.6313Z" fill="#710A3C"/>
<path d="M106.756 88.9521H103.354V90.3159H106.756V88.9521Z" fill="#222328"/>
<path d="M51.5506 30.1055H0.900401C0.403124 30.1055 0 30.5815 0 31.1688V70.779C0 71.3663 0.403124 71.8423 0.900401 71.8423H51.5506C52.0479 71.8423 52.451 71.3663 52.451 70.779V31.1688C52.451 30.5815 52.0479 30.1055 51.5506 30.1055Z" fill="#FF7D7D"/>
<path d="M34.3216 52.875C34.3216 57.3633 30.3731 61 25.5001 61C20.6271 61 16.6787 57.3633 16.6787 52.875C16.6787 48.8125 19.9146 45.4453 24.143 44.8477V43.5H22.9555C22.6756 43.5 22.4466 43.2891 22.4466 43.0312V41.4688C22.4466 41.2109 22.6756 41 22.9555 41H28.0448C28.3247 41 28.5537 41.2109 28.5537 41.4688V43.0312C28.5537 43.2891 28.3247 43.5 28.0448 43.5H26.8573V44.8477C28.4477 45.0742 29.8981 45.6914 31.0856 46.5898L32.2519 45.5156C32.4513 45.332 32.7736 45.332 32.9729 45.5156L34.1731 46.6211C34.3725 46.8047 34.3725 47.1016 34.1731 47.2852L32.9263 48.4336L32.9008 48.457C33.7999 49.7227 34.3216 51.2422 34.3216 52.875ZM26.8573 54.2812V48.3633C26.8573 48.1055 26.6283 47.8945 26.3484 47.8945H24.6519C24.372 47.8945 24.143 48.1055 24.143 48.3633V54.2812C24.143 54.5391 24.372 54.75 24.6519 54.75H26.3484C26.6283 54.75 26.8573 54.5391 26.8573 54.2812Z" fill="#3B0E2A"/>
</svg>
