<svg width="278" height="258" viewBox="0 0 278 258" fill="none" xmlns="http://www.w3.org/2000/svg">
<path d="M133.978 1.84357L133.985 1.83829L133.992 1.83275C134.816 1.19378 135.831 0.84668 136.875 0.84668C137.92 0.84668 138.934 1.19378 139.758 1.83275L139.766 1.83829L139.773 1.84357L241.817 75.2251C241.841 75.2465 241.914 75.3312 242.009 75.5518C242.104 75.7704 242.2 76.0721 242.296 76.4615C242.486 77.2389 242.657 78.3104 242.809 79.6437C243.112 82.3069 243.328 85.959 243.463 90.2702C243.732 98.8895 243.676 110.105 243.342 121.23C243.009 132.356 242.399 143.38 241.565 151.618C241.148 155.74 240.676 159.149 240.158 161.52C239.898 162.71 239.632 163.612 239.367 164.207C239.234 164.506 239.113 164.699 239.014 164.809C238.962 164.867 238.929 164.888 238.916 164.894H34.8345C34.8215 164.888 34.7891 164.867 34.737 164.809C34.6379 164.699 34.517 164.506 34.3836 164.207C34.1183 163.612 33.8523 162.71 33.5924 161.52C33.0743 159.149 32.6024 155.74 32.1852 151.618C31.3513 143.38 30.7419 132.356 30.4085 121.23C30.0752 110.105 30.0182 98.8895 30.2879 90.2702C30.4228 85.959 30.6391 82.307 30.9418 79.6438C31.0934 78.3105 31.2651 77.2389 31.4551 76.4615C31.5503 76.0722 31.6468 75.7704 31.7415 75.5519C31.8371 75.3313 31.9094 75.2466 31.9337 75.2252L133.978 1.84357ZM34.8411 164.897C34.8411 164.897 34.8403 164.897 34.8386 164.896C34.8402 164.897 34.8411 164.897 34.8411 164.897Z" fill="url(#paint0_linear_402_777)" stroke="white"/>
<path d="M38.5141 77.3573L38.5487 77.4016L38.5923 77.4371L127.039 149.521C127.659 150.334 127.994 151.327 127.994 152.348C127.994 153.37 127.659 154.362 127.039 155.175L38.5923 227.259L38.5487 227.295L38.5141 227.339C37.9137 228.108 37.0872 228.671 36.1497 228.949C35.2123 229.227 34.211 229.206 33.2859 228.89C32.3608 228.573 31.5583 227.977 30.9903 227.184C30.4223 226.392 30.1172 225.443 30.1172 224.469V80.2275C30.1172 79.254 30.4223 78.3047 30.9903 77.5121C31.5583 76.7194 32.3607 76.1231 33.2858 75.8066C34.211 75.4902 35.2123 75.4696 36.1497 75.7477C37.0872 76.0258 37.9137 76.5887 38.5141 77.3573ZM235.158 77.4371L235.202 77.4016L235.236 77.3573C235.837 76.5887 236.663 76.0258 237.601 75.7477C238.538 75.4696 239.54 75.4902 240.465 75.8066C241.39 76.1231 242.192 76.7194 242.76 77.5121C243.328 78.3047 243.633 79.254 243.633 80.2275V224.469C243.633 225.443 243.328 226.392 242.76 227.184C242.192 227.977 241.39 228.573 240.465 228.89C239.54 229.206 238.538 229.227 237.601 228.949C236.663 228.671 235.837 228.108 235.236 227.339L235.202 227.295L235.158 227.259L146.712 155.175C146.092 154.362 145.756 153.37 145.756 152.348C145.756 151.327 146.092 150.334 146.712 149.521L235.158 77.4371Z" fill="#3B0E2A" stroke="white"/>
<path d="M133.977 147.412L133.985 147.407L133.992 147.402C134.816 146.763 135.83 146.416 136.875 146.416C137.92 146.416 138.934 146.763 139.758 147.402L139.765 147.407L139.773 147.412L241.82 220.796C242.588 221.394 243.15 222.216 243.428 223.146C243.707 224.079 243.686 225.076 243.369 225.996C243.052 226.917 242.453 227.717 241.658 228.283C240.862 228.849 239.908 229.154 238.93 229.154H34.8199C33.8417 229.154 32.888 228.849 32.0922 228.283C31.2964 227.717 30.6983 226.917 30.381 225.996C30.0638 225.076 30.0431 224.079 30.3219 223.146C30.5999 222.216 31.1618 221.394 31.9298 220.797L133.977 147.412Z" fill="url(#paint1_linear_402_777)" stroke="white"/>
<path d="M276.992 150.892L249.194 173.589L194.259 218.439L194.174 218.508L194.126 218.606L178.853 249.664L178.853 249.665C178.719 249.937 178.498 250.156 178.223 250.287C177.951 250.417 177.644 250.452 177.35 250.388L177.274 250.367L177.274 250.367C176.991 250.289 176.742 250.121 176.564 249.89C176.388 249.661 176.29 249.382 176.285 249.094L177.247 219.67L177.247 219.67L177.581 209.395L275.46 148.683C275.753 148.516 276.098 148.464 276.428 148.538C276.76 148.612 277.051 148.808 277.244 149.086C277.438 149.363 277.519 149.703 277.472 150.037C277.426 150.37 277.256 150.674 276.995 150.889L276.992 150.892ZM276.992 150.892C276.992 150.892 276.993 150.891 276.993 150.891L276.992 150.892Z" fill="#C1365B" stroke="white"/>
<path d="M276.813 151.014L276.812 151.015L257.028 162.427L257.241 162.795L257.028 162.427L177.108 208.532L143.603 185.8C143.389 185.654 143.221 185.45 143.12 185.213C143.019 184.975 142.988 184.713 143.032 184.459C143.076 184.205 143.192 183.968 143.366 183.777C143.541 183.586 143.767 183.449 144.019 183.382C144.019 183.382 144.019 183.382 144.019 183.382L275.743 148.559L275.751 148.557L275.759 148.554L275.795 148.543L275.868 148.527L275.949 148.513L276.017 148.505L276.111 148.5L276.137 148.5L276.181 148.503L276.27 148.509L276.355 148.519C276.404 148.528 276.454 148.538 276.505 148.552C276.571 148.571 276.635 148.594 276.698 148.622L276.698 148.622L276.704 148.625C276.728 148.635 276.751 148.647 276.773 148.659L276.786 148.667L276.801 148.674C276.822 148.685 276.843 148.696 276.863 148.709C276.864 148.71 276.866 148.711 276.867 148.712L276.979 148.79L276.979 148.791L276.983 148.793L277.043 148.853L277.061 148.862L277.099 148.896L277.17 148.959C277.195 148.989 277.219 149.019 277.242 149.051L277.249 149.061L277.258 149.072C277.265 149.08 277.271 149.09 277.277 149.1L277.281 149.106L277.284 149.112C277.327 149.179 277.363 149.251 277.392 149.325L277.392 149.325L277.397 149.337C277.41 149.368 277.422 149.4 277.431 149.433L277.434 149.44L277.436 149.448C277.443 149.468 277.449 149.493 277.46 149.537L277.461 149.54C277.467 149.566 277.477 149.618 277.486 149.669C277.49 149.7 277.493 149.732 277.494 149.763L277.494 149.774L277.495 149.784C277.498 149.819 277.498 149.854 277.497 149.889C277.492 149.926 277.489 149.963 277.488 150.001C277.478 150.06 277.464 150.119 277.447 150.177L277.446 150.183L277.421 150.265C277.319 150.58 277.103 150.848 276.813 151.014ZM276.98 148.79C276.98 148.79 276.98 148.789 276.98 148.789L276.98 148.79ZM276.215 148.004V148.004V148.004Z" fill="#880C48" stroke="white"/>
<path d="M249.867 255.567L249.866 255.567C249.821 255.74 249.742 255.902 249.633 256.044C249.525 256.187 249.388 256.306 249.233 256.395C249.077 256.484 248.905 256.541 248.726 256.564C248.548 256.586 248.367 256.572 248.194 256.524L248.193 256.524C248.051 256.484 247.917 256.422 247.794 256.34C247.794 256.34 247.793 256.34 247.793 256.34L190.943 217.792L257.594 163.247L257.594 163.247L275.275 148.81L275.276 148.809C275.421 148.69 275.588 148.602 275.768 148.55L275.782 148.547C275.813 148.539 275.827 148.536 275.841 148.533C275.842 148.533 275.842 148.533 275.843 148.533L275.937 148.518L276.009 148.509L276.1 148.504L276.129 148.504L276.165 148.507L276.257 148.514L276.344 148.524C276.393 148.533 276.443 148.543 276.492 148.556C276.559 148.575 276.624 148.599 276.687 148.627L276.687 148.627L276.693 148.63C276.717 148.64 276.739 148.652 276.761 148.664L276.775 148.672L276.79 148.679C276.811 148.69 276.831 148.701 276.851 148.714C276.852 148.715 276.853 148.715 276.854 148.716L276.969 148.796L276.973 148.798C276.974 148.799 276.976 148.801 276.977 148.802L276.978 148.802L276.979 148.804L276.981 148.806L277.027 148.849L277.035 148.854L277.088 148.901L277.159 148.964C277.184 148.994 277.208 149.024 277.231 149.056L277.238 149.066L277.247 149.077C277.253 149.085 277.259 149.094 277.265 149.103L277.269 149.11L277.273 149.117C277.316 149.185 277.352 149.256 277.381 149.33L277.383 149.335C277.4 149.377 277.412 149.41 277.42 149.438L277.423 149.447L277.426 149.457C277.432 149.474 277.437 149.495 277.45 149.545C277.456 149.569 277.466 149.621 277.475 149.674C277.479 149.705 277.482 149.736 277.483 149.768L277.483 149.778L277.484 149.789C277.486 149.824 277.487 149.858 277.486 149.893C277.481 149.934 277.478 149.975 277.476 150.016C277.469 150.075 277.458 150.134 277.443 150.192L277.438 150.212L277.438 150.212L277.436 150.22L249.867 255.567Z" fill="#880C48" stroke="white"/>
<path d="M177.276 250.371L177.274 250.371C177.092 250.321 176.923 250.232 176.779 250.111L176.779 250.111L176.775 250.108C176.541 249.916 176.379 249.65 176.315 249.356C176.252 249.061 176.29 248.753 176.423 248.482L176.424 248.482L176.429 248.471L190.316 218.574L206.327 229.431L178.449 250.153C178.449 250.153 178.449 250.153 178.449 250.153C178.283 250.276 178.091 250.36 177.888 250.398C177.684 250.436 177.475 250.427 177.276 250.371Z" fill="#C1365B" stroke="white"/>
<path d="M189.17 221.033L190.313 218.573L206.327 229.431L203.057 231.861L189.17 221.033Z" fill="#CF375F" stroke="white"/>
<rect x="0.707107" y="70.0332" width="74" height="74" rx="4.5" transform="rotate(-45 0.707107 70.0332)" fill="#710A3C" stroke="white"/>
<path d="M37.7 87L48.65 69.3L37.55 52H44.9L52.75 64.2L59.95 52H67.15L56.2 69.6L67.4 87H60.05L52.1 74.65L44.9 87H37.7Z" fill="white"/>
<defs>
<linearGradient id="paint0_linear_402_777" x1="136.875" y1="0.34668" x2="136.875" y2="165.394" gradientUnits="userSpaceOnUse">
<stop stop-color="#3B0E2A"/>
<stop offset="1" stop-color="#710A3C"/>
</linearGradient>
<linearGradient id="paint1_linear_402_777" x1="136.875" y1="145.916" x2="136.875" y2="229.654" gradientUnits="userSpaceOnUse">
<stop stop-color="#3B0E2A"/>
<stop offset="1" stop-color="#710A3C"/>
</linearGradient>
</defs>
</svg>
