<svg width="278" height="258" viewBox="0 0 278 258" fill="none" xmlns="http://www.w3.org/2000/svg">
<path d="M238.93 165.394H34.8198C29.8762 165.394 27.7291 77.8525 31.6304 74.8271L133.685 1.43764C134.597 0.730577 135.719 0.34668 136.875 0.34668C138.03 0.34668 139.153 0.730577 140.064 1.43764L242.119 74.8271C246.021 77.8525 243.874 165.394 238.93 165.394Z" fill="#710A3C"/>
<path d="M29.6167 224.469V80.2275C29.6167 79.1494 29.9547 78.0982 30.5834 77.2208C31.2121 76.3434 32.1002 75.6836 33.1235 75.3336C34.1469 74.9835 35.2544 74.9607 36.2915 75.2684C37.3285 75.576 38.2431 76.1987 38.9077 77.0495L127.399 149.17C128.109 150.079 128.494 151.197 128.494 152.348C128.494 153.499 128.109 154.618 127.399 155.526L38.9077 227.647C38.2431 228.498 37.3285 229.121 36.2915 229.428C35.2545 229.736 34.1469 229.713 33.1236 229.363C32.1002 229.013 31.2121 228.353 30.5834 227.476C29.9547 226.598 29.6167 225.547 29.6167 224.469V224.469ZM244.133 224.469V80.2275C244.133 79.1494 243.795 78.0982 243.166 77.2208C242.538 76.3434 241.649 75.6836 240.626 75.3336C239.603 74.9835 238.495 74.9607 237.458 75.2684C236.421 75.576 235.507 76.1987 234.842 77.0495L146.351 149.17C145.641 150.079 145.256 151.197 145.256 152.348C145.256 153.499 145.641 154.618 146.351 155.526L234.842 227.647C235.506 228.498 236.421 229.121 237.458 229.428C238.495 229.736 239.603 229.713 240.626 229.363C241.649 229.013 242.538 228.353 243.166 227.476C243.795 226.598 244.133 225.547 244.133 224.469V224.469Z" fill="#C1365B"/>
<path d="M238.93 229.654H34.8199C33.7379 229.654 32.683 229.317 31.8024 228.69C30.9218 228.064 30.2596 227.179 29.9083 226.159C29.557 225.14 29.5341 224.036 29.8429 223.003C30.1516 221.969 30.7766 221.058 31.6304 220.396L133.685 147.006C134.597 146.299 135.72 145.916 136.875 145.916C138.03 145.916 139.153 146.299 140.064 147.006L242.119 220.396C242.973 221.058 243.598 221.969 243.907 223.003C244.216 224.036 244.193 225.14 243.842 226.159C243.49 227.179 242.828 228.064 241.947 228.69C241.067 229.317 240.012 229.654 238.93 229.654V229.654Z" fill="#DC3662"/>
<path d="M277.309 151.279L249.509 173.976L194.574 218.827L179.301 249.885C179.118 250.258 178.814 250.559 178.438 250.739C178.061 250.918 177.635 250.966 177.229 250.874L177.14 250.849C176.753 250.742 176.412 250.513 176.167 250.195C175.923 249.878 175.788 249.49 175.785 249.089L176.747 219.653L177.09 209.111L275.204 148.253C275.607 148.021 276.082 147.949 276.536 148.05C276.99 148.151 277.389 148.419 277.654 148.8C277.919 149.181 278.031 149.647 277.967 150.106C277.903 150.566 277.668 150.984 277.309 151.279L277.309 151.279Z" fill="#FF8F8F"/>
<path d="M277.927 150.318L277.919 150.346C277.789 150.811 277.481 151.207 277.062 151.448L257.278 162.86L177.086 209.122L143.322 186.214C143.029 186.014 142.799 185.734 142.66 185.408C142.521 185.082 142.479 184.724 142.539 184.375C142.599 184.026 142.758 183.701 142.998 183.439C143.237 183.178 143.547 182.99 143.89 182.899L275.615 148.076L275.669 148.059L275.77 148.037L275.878 148.018L275.976 148.007L276.098 148L276.201 148.001L276.215 148.004L276.316 148.011L276.425 148.024C276.496 148.036 276.566 148.051 276.636 148.069C276.728 148.095 276.817 148.128 276.904 148.167C276.944 148.184 276.983 148.204 277.021 148.225C277.063 148.246 277.103 148.269 277.142 148.295L277.265 148.38C277.29 148.397 277.314 148.417 277.336 148.438C277.347 148.443 277.356 148.451 277.363 148.461L277.432 148.523L277.449 148.528L277.509 148.588C277.559 148.643 277.606 148.7 277.649 148.76C277.67 148.787 277.69 148.815 277.707 148.845C277.767 148.939 277.817 149.039 277.858 149.143C277.878 149.191 277.896 149.24 277.911 149.29C277.925 149.333 277.936 149.377 277.946 149.421C277.957 149.465 277.97 149.535 277.98 149.593C277.987 149.644 277.992 149.695 277.994 149.746C277.998 149.808 277.999 149.871 277.995 149.933C277.99 149.971 277.987 150.01 277.986 150.048C277.973 150.139 277.953 150.229 277.927 150.318L277.927 150.318Z" fill="#FF7D7D"/>
<path d="M250.35 255.693C250.288 255.931 250.18 256.153 250.03 256.348C249.881 256.543 249.694 256.707 249.481 256.829C249.268 256.951 249.032 257.029 248.788 257.06C248.544 257.09 248.296 257.071 248.059 257.005C247.865 256.951 247.682 256.867 247.515 256.755L190.107 217.83L257.278 162.86L274.959 148.423C275.159 148.258 275.391 148.137 275.641 148.067C275.679 148.057 275.718 148.047 275.758 148.04L275.866 148.023L275.965 148.011L276.087 148.004L276.189 148.004L276.204 148.009L276.304 148.016L276.414 148.029C276.485 148.04 276.555 148.056 276.624 148.074C276.716 148.1 276.806 148.132 276.893 148.171C276.933 148.189 276.972 148.208 277.009 148.23C277.051 148.251 277.092 148.274 277.131 148.3L277.254 148.385C277.279 148.402 277.303 148.421 277.325 148.442C277.335 148.448 277.344 148.456 277.351 148.466L277.421 148.528L277.438 148.533L277.498 148.594C277.548 148.648 277.595 148.705 277.638 148.765C277.659 148.792 277.679 148.82 277.696 148.85C277.756 148.944 277.806 149.044 277.846 149.148C277.866 149.196 277.884 149.245 277.899 149.295C277.914 149.337 277.924 149.381 277.935 149.425C277.946 149.469 277.959 149.54 277.969 149.598C277.976 149.649 277.981 149.7 277.982 149.751C277.987 149.813 277.988 149.875 277.984 149.937C277.979 149.975 277.976 150.014 277.975 150.052C277.965 150.143 277.949 150.232 277.926 150.32L277.919 150.346L250.35 255.693Z" fill="#FF7D7D"/>
<path d="M207.19 229.412L178.747 250.555C178.52 250.723 178.257 250.838 177.979 250.889C177.701 250.941 177.415 250.929 177.142 250.853C176.89 250.784 176.657 250.662 176.457 250.494C176.136 250.23 175.914 249.866 175.826 249.461C175.739 249.056 175.791 248.633 175.975 248.261L190.11 217.831L207.19 229.412Z" fill="#C1365B"/>
<path d="M190.108 217.83L207.191 229.412L203.05 232.49L188.549 221.183L190.108 217.83Z" fill="#CF375F"/>
<rect y="70.0332" width="75" height="75" rx="5" transform="rotate(-45 0 70.0332)" fill="#FF7D7D"/>
<path d="M47.8246 85L30.8316 68.7903C30.5842 68.555 30.3836 68.2712 30.2414 67.955C30.0992 67.6387 30.0181 67.2963 30.0027 66.9474C29.9873 66.5984 30.038 66.2497 30.1519 65.9212C30.2657 65.5927 30.4405 65.2908 30.6661 65.0329C30.8918 64.7749 31.1639 64.566 31.467 64.4179C31.7701 64.2699 32.0982 64.1857 32.4325 64.1701C32.7668 64.1545 33.1008 64.2079 33.4153 64.3272C33.7298 64.4465 34.0187 64.6294 34.2655 64.8653L47.8146 77.79L71.8981 54.7001C72.3955 54.2233 73.0539 53.9724 73.7286 54.0024C74.4032 54.0325 75.0388 54.3411 75.4955 54.8604C75.9522 55.3797 76.1925 56.067 76.1638 56.7713C76.135 57.4756 75.8394 58.1392 75.3419 58.6159L47.8246 85Z" fill="#710A3C"/>
</svg>
