<svg width="100" height="52" viewBox="0 0 100 52" fill="none" xmlns="http://www.w3.org/2000/svg">
<rect x="0.71206" width="28.6431" height="28.6431" rx="4.5" transform="matrix(0.71206 -0.702118 0.71206 0.702118 53.041 30.5356)" stroke="#FF7D7D"/>
<rect x="0.71206" width="20.343" height="20.343" rx="4.5" transform="matrix(0.71206 -0.702118 0.71206 0.702118 4.68257 37.0703)" stroke="#FF7D7D"/>
<rect x="0.71206" width="20.343" height="20.343" rx="4.5" transform="matrix(0.71206 -0.702118 0.71206 0.702118 23.0908 15.976)" stroke="#FF7D7D"/>
<path d="M38.9727 39.0918V50.4086H48.2574V39.0918H38.9727ZM45.0288 43.826C45.0288 44.2213 44.8695 44.6004 44.586 44.88C44.3025 45.1595 43.918 45.3165 43.5171 45.3165C43.1162 45.3165 42.7317 45.1595 42.4482 44.88C42.1647 44.6004 42.0055 44.2213 42.0055 43.826V42.3354H45.0288V43.826Z" fill="#C1365B"/>
<path d="M38.9727 44.031H42.0214C42.0114 43.9631 42.006 43.8946 42.0055 43.826V42.3354H45.0288V43.826C45.0282 43.8946 45.0229 43.9631 45.0128 44.031H48.2574V39.0918H38.9727V44.031Z" fill="#710A3C"/>
<path d="M63.0757 15.4878H24.1546C23.0995 15.4878 22.2441 16.3312 22.2441 17.3716V40.452C22.2441 41.4924 23.0995 42.3358 24.1546 42.3358H63.0757C64.1308 42.3358 64.9861 41.4924 64.9861 40.452V17.3716C64.9861 16.3312 64.1308 15.4878 63.0757 15.4878Z" fill="#880C48"/>
<path d="M62.2685 17.2568H24.9623C24.5007 17.2568 24.1265 17.6258 24.1265 18.081V39.7426C24.1265 40.1978 24.5007 40.5668 24.9623 40.5668H62.2685C62.7302 40.5668 63.1044 40.1978 63.1044 39.7426V18.081C63.1044 17.6258 62.7302 17.2568 62.2685 17.2568Z" fill="#710A3C"/>
<path d="M62.4203 17.2568H24.8105C24.6291 17.2568 24.4551 17.3279 24.3268 17.4544C24.1985 17.5809 24.1265 17.7524 24.1265 17.9313V19.0606H63.1043V17.9313C63.1043 17.7524 63.0323 17.5809 62.904 17.4544C62.7757 17.3279 62.6017 17.2568 62.4203 17.2568Z" fill="#C1365B"/>
<path d="M84.3881 44.7114H69.7788V43.6808C69.7788 43.6183 69.804 43.5584 69.8488 43.5143C69.8935 43.4701 69.9543 43.4453 70.0176 43.4453H84.1492C84.2126 43.4453 84.2733 43.4701 84.3181 43.5143C84.3629 43.5584 84.3881 43.6183 84.3881 43.6808V44.7114Z" fill="#3B0E2A"/>
<path d="M69.7788 44.7111H84.3881V50.173C84.3881 50.2355 84.3629 50.2954 84.3181 50.3395C84.2733 50.3837 84.2126 50.4085 84.1492 50.4085H70.0176C69.9543 50.4085 69.8935 50.3837 69.8488 50.3395C69.804 50.2954 69.7788 50.2355 69.7788 50.173V44.7111ZM72.314 42.6821H81.8528C81.9162 42.6821 81.9769 42.7069 82.0217 42.7511C82.0665 42.7953 82.0916 42.8551 82.0916 42.9176V43.445H72.0752V42.9176C72.0752 42.8551 72.1004 42.7953 72.1452 42.7511C72.19 42.7069 72.2507 42.6821 72.314 42.6821Z" fill="#880C48"/>
<path d="M72.8782 34.3066H81.2893C81.3843 34.3066 81.4754 34.3439 81.5426 34.4101C81.6097 34.4763 81.6475 34.5662 81.6475 34.6598V42.6823H72.52V34.6598C72.52 34.5662 72.5578 34.4763 72.6249 34.4101C72.6921 34.3439 72.7832 34.3066 72.8782 34.3066Z" fill="#C1365B"/>
<path d="M82.6843 37.2768C84.198 37.2768 85.4252 36.0668 85.4252 34.5742C85.4252 33.0816 84.198 31.8716 82.6843 31.8716C81.1705 31.8716 79.9434 33.0816 79.9434 34.5742C79.9434 36.0668 81.1705 37.2768 82.6843 37.2768Z" fill="#FF7D7D"/>
<path d="M82.2785 35.7131L80.96 34.4818C80.9408 34.464 80.9253 34.4424 80.9142 34.4184C80.9032 34.3944 80.8969 34.3684 80.8957 34.3419C80.8945 34.3154 80.8985 34.2889 80.9073 34.2639C80.9161 34.239 80.9297 34.216 80.9472 34.1964C80.9647 34.1768 80.9858 34.161 81.0093 34.1497C81.0329 34.1385 81.0583 34.1321 81.0842 34.1309C81.1102 34.1297 81.1361 34.1338 81.1605 34.1428C81.1849 34.1519 81.2073 34.1658 81.2265 34.1837L82.2778 35.1655L84.1464 33.4116C84.185 33.3754 84.2361 33.3563 84.2885 33.3586C84.3408 33.3609 84.3901 33.3843 84.4256 33.4238C84.461 33.4632 84.4797 33.5154 84.4774 33.5689C84.4752 33.6224 84.4523 33.6728 84.4137 33.709L82.2785 35.7131Z" fill="#880C48"/>
<path d="M75.3882 29.9727H75.1494V33.1379H75.3882V29.9727Z" fill="#FF7D7D"/>
<path d="M77.2026 28.3496H76.9639V33.138H77.2026V28.3496Z" fill="#FF7D7D"/>
<path d="M79.0176 30.3784H78.7788V33.1379H79.0176V30.3784Z" fill="#FF7D7D"/>
<path d="M76.1004 38.876H74.4707V42.6824H76.1004V38.876Z" fill="#FF7D7D"/>
<path d="M37.8961 22.3521H29.0889C28.957 22.3521 28.8501 22.4575 28.8501 22.5875V28.3472C28.8501 28.4772 28.957 28.5826 29.0889 28.5826H37.8961C38.028 28.5826 38.1349 28.4772 38.1349 28.3472V22.5875C38.1349 22.4575 38.028 22.3521 37.8961 22.3521Z" fill="#C1365B"/>
<path d="M50.5792 23.1089H41.1226V23.4621H50.5792V23.1089Z" fill="#FF7D7D"/>
<path d="M55.3553 25.3496H41.1226V25.7028H55.3553V25.3496Z" fill="#FF7D7D"/>
<path d="M52.9672 27.5903H41.1226V27.9435H52.9672V27.5903Z" fill="#FF7D7D"/>
<path d="M35.145 33.8789H29.0889C28.957 33.8789 28.8501 33.9843 28.8501 34.1144V36.017C28.8501 36.147 28.957 36.2525 29.0889 36.2525H35.145C35.2769 36.2525 35.3838 36.147 35.3838 36.017V34.1144C35.3838 33.9843 35.2769 33.8789 35.145 33.8789Z" fill="#C1365B"/>
<path d="M46.4551 33.8789H40.399C40.2671 33.8789 40.1602 33.9843 40.1602 34.1144V36.017C40.1602 36.147 40.2671 36.2525 40.399 36.2525H46.4551C46.587 36.2525 46.6939 36.147 46.6939 36.017V34.1144C46.6939 33.9843 46.587 33.8789 46.4551 33.8789Z" fill="#C1365B"/>
<path d="M57.7646 33.8789H51.7085C51.5766 33.8789 51.4697 33.9843 51.4697 34.1144V36.017C51.4697 36.147 51.5766 36.2525 51.7085 36.2525H57.7646C57.8965 36.2525 58.0034 36.147 58.0034 36.017V34.1144C58.0034 33.9843 57.8965 33.8789 57.7646 33.8789Z" fill="#C1365B"/>
<path opacity="0.28" d="M35.0039 7.26318H17.6578C17.5259 7.26318 17.4189 7.36861 17.4189 7.49866V20.6127C17.4189 20.7427 17.5259 20.8481 17.6578 20.8481H35.0039C35.1358 20.8481 35.2427 20.7427 35.2427 20.6127V7.49866C35.2427 7.36861 35.1358 7.26318 35.0039 7.26318Z" fill="#710A3C"/>
<path d="M32.8086 5.10205H15.4624C15.3305 5.10205 15.2236 5.20748 15.2236 5.33752V18.4515C15.2236 18.5816 15.3305 18.687 15.4624 18.687H32.8086C32.9405 18.687 33.0474 18.5816 33.0474 18.4515V5.33752C33.0474 5.20748 32.9405 5.10205 32.8086 5.10205Z" fill="#3B0E2A"/>
<path d="M32.6582 18.945H15.312C15.2012 18.9448 15.0949 18.9014 15.0166 18.8241C14.9382 18.7469 14.8942 18.6421 14.894 18.5329V5.41891C14.8942 5.30966 14.9382 5.20493 15.0166 5.12768C15.0949 5.05043 15.2012 5.00697 15.312 5.00684H32.6582C32.769 5.00697 32.8752 5.05043 32.9535 5.12768C33.0319 5.20493 33.0759 5.30966 33.0761 5.41891V18.5329C33.0759 18.6421 33.0319 18.7469 32.9535 18.8241C32.8752 18.9014 32.769 18.9448 32.6582 18.945V18.945ZM15.312 5.36004C15.2961 5.36006 15.281 5.36627 15.2698 5.37731C15.2586 5.38834 15.2523 5.4033 15.2523 5.41891V18.5329C15.2523 18.5485 15.2586 18.5635 15.2698 18.5745C15.281 18.5855 15.2961 18.5917 15.312 18.5918H32.6582C32.674 18.5917 32.6892 18.5855 32.7003 18.5745C32.7115 18.5635 32.7178 18.5485 32.7179 18.5329V5.41891C32.7178 5.4033 32.7115 5.38834 32.7003 5.37731C32.6892 5.36627 32.674 5.36006 32.6582 5.36004H15.312Z" fill="#FF8F8F"/>
<path d="M21.6938 12.302V7.36816H29.6347V12.302H21.6938Z" stroke="#FF7D7D"/>
<path d="M90.7485 50.4087H9.85059V51.4683H90.7485V50.4087Z" fill="#3B0E2A"/>
<path d="M48.2574 47.5601H38.9727V49.4985H48.2574V47.5601Z" fill="#FF7D7D"/>
<path d="M50.407 50.4677H36.8237V49.118C36.8237 48.9618 36.8866 48.8121 36.9986 48.7017C37.1106 48.5913 37.2624 48.5293 37.4207 48.5293H49.81C49.9684 48.5293 50.1202 48.5913 50.2322 48.7017C50.3441 48.8121 50.407 48.9618 50.407 49.118V50.4677Z" fill="#C1365B"/>
<path d="M26.925 10.9888H18.4482C18.3161 10.9888 18.209 11.0934 18.209 11.2224V16.642C18.209 16.771 18.3161 16.8756 18.4482 16.8756H26.925C27.0571 16.8756 27.1642 16.771 27.1642 16.642V11.2224C27.1642 11.0934 27.0571 10.9888 26.925 10.9888Z" fill="#C1365B"/>
<rect x="20" y="12.166" width="5.37314" height="3.53208" rx="1" fill="#C1365B"/>
<path d="M22.3464 15.1096L21.2476 13.8783C21.2316 13.8605 21.2187 13.8389 21.2095 13.8149C21.2003 13.7909 21.195 13.7649 21.194 13.7383C21.193 13.7118 21.1963 13.6854 21.2037 13.6604C21.211 13.6354 21.2223 13.6125 21.2369 13.5929C21.2515 13.5733 21.2691 13.5575 21.2887 13.5462C21.3083 13.535 21.3295 13.5286 21.3511 13.5274C21.3727 13.5262 21.3943 13.5303 21.4147 13.5393C21.435 13.5484 21.4537 13.5623 21.4697 13.5802L22.3457 14.5619L23.903 12.8081C23.9351 12.7718 23.9777 12.7528 24.0213 12.7551C24.0649 12.7574 24.106 12.7808 24.1356 12.8202C24.1651 12.8597 24.1806 12.9119 24.1788 12.9654C24.1769 13.0189 24.1578 13.0693 24.1256 13.1055L22.3464 15.1096Z" fill="#FF7D7D"/>
</svg>
