<svg width="201" height="106" viewBox="0 0 201 106" fill="none" xmlns="http://www.w3.org/2000/svg">
<rect x="106.2" y="61.2266" width="60" height="60" rx="5" transform="rotate(-45 106.2 61.2266)" fill="url(#paint0_linear_398_520)"/>
<rect x="9" y="74.5469" width="43.2" height="43.2" rx="5" transform="rotate(-45 9 74.5469)" fill="url(#paint1_linear_398_520)"/>
<rect x="46" y="31.5469" width="43.2" height="43.2" rx="5" transform="rotate(-45 46 31.5469)" fill="url(#paint2_linear_398_520)"/>
<path d="M78.3354 79.687V102.756H96.9978V79.687H78.3354ZM90.5082 89.3375C90.5082 90.1433 90.1881 90.9161 89.6183 91.486C89.0485 92.0558 88.2757 92.3759 87.4698 92.3759C86.664 92.3759 85.8912 92.0558 85.3214 91.486C84.7515 90.9161 84.4314 90.1433 84.4314 89.3375V86.299H90.5082V89.3375Z" fill="#C1365B"/>
<path d="M78.3354 89.7553H84.4635C84.4432 89.6169 84.4325 89.4773 84.4314 89.3375V86.299H90.5083V89.3375C90.5072 89.4773 90.4965 89.617 90.4762 89.7553H96.9978V79.687H78.3354V89.7553Z" fill="#710A3C"/>
<path d="M126.782 31.5708H48.5509C46.4302 31.5708 44.7109 33.29 44.7109 35.4108V82.4594C44.7109 84.5802 46.4302 86.2994 48.5509 86.2994H126.782C128.903 86.2994 130.622 84.5802 130.622 82.4594V35.4108C130.622 33.29 128.903 31.5708 126.782 31.5708Z" fill="#880C48"/>
<path d="M125.16 35.1768H50.1741C49.2463 35.1768 48.4941 35.9289 48.4941 36.8568V81.0132C48.4941 81.941 49.2463 82.6932 50.1741 82.6932H125.16C126.088 82.6932 126.84 81.941 126.84 81.0132V36.8568C126.84 35.9289 126.088 35.1768 125.16 35.1768Z" fill="white"/>
<path d="M125.465 35.1768H49.869C49.5044 35.1768 49.1547 35.3216 48.8968 35.5795C48.639 35.8373 48.4941 36.187 48.4941 36.5517V38.8536H126.84V36.5517C126.84 36.187 126.695 35.8373 126.437 35.5795C126.179 35.3216 125.829 35.1768 125.465 35.1768Z" fill="#C1365B"/>
<path d="M169.62 91.1419H140.256V89.041C140.256 88.9137 140.306 88.7916 140.396 88.7016C140.486 88.6116 140.609 88.561 140.736 88.561H169.14C169.268 88.561 169.39 88.6116 169.48 88.7016C169.57 88.7916 169.62 88.9137 169.62 89.041V91.1419Z" fill="#3B0E2A"/>
<path d="M140.256 91.1419H169.62V102.276C169.62 102.403 169.57 102.525 169.48 102.615C169.39 102.705 169.268 102.756 169.14 102.756H140.736C140.609 102.756 140.486 102.705 140.396 102.615C140.306 102.525 140.256 102.403 140.256 102.276V91.1419ZM145.352 87.0059H164.525C164.652 87.0059 164.774 87.0564 164.864 87.1464C164.954 87.2365 165.005 87.3586 165.005 87.4859V88.561H144.872V87.4859C144.872 87.3586 144.922 87.2365 145.012 87.1464C145.102 87.0564 145.224 87.0059 145.352 87.0059Z" fill="#880C48"/>
<path d="M146.485 69.9326H163.391C163.582 69.9326 163.765 70.0085 163.9 70.1435C164.035 70.2785 164.111 70.4617 164.111 70.6526V87.0061H145.765V70.6526C145.765 70.4617 145.841 70.2785 145.976 70.1435C146.111 70.0085 146.294 69.9326 146.485 69.9326Z" fill="#C1365B"/>
<path d="M166.509 76.0184C169.552 76.0184 172.018 73.5519 172.018 70.5092C172.018 67.4666 169.552 65 166.509 65C163.467 65 161 67.4666 161 70.5092C161 73.5519 163.467 76.0184 166.509 76.0184Z" fill="#FF7D7D"/>
<path d="M151.531 61.0981H151.051V67.5503H151.531V61.0981Z" fill="#FF7D7D"/>
<path d="M155.178 57.7891H154.698V67.5501H155.178V57.7891Z" fill="#FF7D7D"/>
<path d="M158.826 61.9248H158.346V67.5499H158.826V61.9248Z" fill="#FF7D7D"/>
<path d="M152.962 79.2466H149.686V87.0058H152.962V79.2466Z" fill="#FF7D7D"/>
<path d="M76.1712 45.5635H58.4688C58.2037 45.5635 57.9888 45.7784 57.9888 46.0435V57.7843C57.9888 58.0494 58.2037 58.2643 58.4688 58.2643H76.1712C76.4363 58.2643 76.6512 58.0494 76.6512 57.7843V46.0435C76.6512 45.7784 76.4363 45.5635 76.1712 45.5635Z" fill="#C1365B"/>
<path d="M101.664 47.106H82.6562V47.8259H101.664V47.106Z" fill="#FF7D7D"/>
<path d="M111.264 51.6738H82.6562V52.3938H111.264V51.6738Z" fill="#FF7D7D"/>
<path d="M106.464 56.2412H82.6562V56.9612H106.464V56.2412Z" fill="#FF7D7D"/>
<path d="M70.6421 69.061H58.4693C58.2042 69.061 57.9893 69.2759 57.9893 69.541V73.4194C57.9893 73.6845 58.2042 73.8994 58.4693 73.8994H70.6421C70.9072 73.8994 71.1221 73.6845 71.1221 73.4194V69.541C71.1221 69.2759 70.9072 69.061 70.6421 69.061Z" fill="#C1365B"/>
<path d="M93.3744 69.061H81.2017C80.9366 69.061 80.7217 69.2759 80.7217 69.541V73.4194C80.7217 73.6845 80.9366 73.8994 81.2017 73.8994H93.3744C93.6395 73.8994 93.8544 73.6845 93.8544 73.4194V69.541C93.8544 69.2759 93.6395 69.061 93.3744 69.061Z" fill="#C1365B"/>
<path d="M116.107 69.061H103.934C103.669 69.061 103.454 69.2759 103.454 69.541V73.4194C103.454 73.6845 103.669 73.8994 103.934 73.8994H116.107C116.372 73.8994 116.587 73.6845 116.587 73.4194V69.541C116.587 69.2759 116.372 69.061 116.107 69.061Z" fill="#C1365B"/>
<path opacity="0.28" d="M70.358 14.8057H35.4922C35.2271 14.8057 35.0122 15.0206 35.0122 15.2857V42.0181C35.0122 42.2832 35.2271 42.4981 35.4922 42.4981H70.358C70.6231 42.4981 70.838 42.2832 70.838 42.0181V15.2857C70.838 15.0206 70.6231 14.8057 70.358 14.8057Z" fill="#710A3C"/>
<path d="M65.9459 10.3999H31.0801C30.815 10.3999 30.6001 10.6148 30.6001 10.8799V37.6123C30.6001 37.8774 30.815 38.0923 31.0801 38.0923H65.9459C66.211 38.0923 66.4259 37.8774 66.4259 37.6123V10.8799C66.4259 10.6148 66.211 10.3999 65.9459 10.3999Z" fill="#3B0E2A"/>
<path d="M65.6429 38.6184H30.777C30.5543 38.6181 30.3408 38.5295 30.1833 38.3721C30.0259 38.2146 29.9373 38.0011 29.937 37.7784V11.0461C29.9373 10.8234 30.0259 10.6099 30.1833 10.4524C30.3408 10.2949 30.5543 10.2063 30.777 10.2061H65.6429C65.8656 10.2063 66.0791 10.2949 66.2365 10.4524C66.394 10.6099 66.4826 10.8234 66.4829 11.0461V37.7784C66.4826 38.0011 66.394 38.2146 66.2365 38.3721C66.0791 38.5295 65.8656 38.6181 65.6429 38.6184V38.6184ZM30.777 10.9261C30.7452 10.9261 30.7147 10.9388 30.6922 10.9612C30.6697 10.9837 30.6571 11.0142 30.657 11.0461V37.7784C30.6571 37.8102 30.6697 37.8407 30.6922 37.8632C30.7147 37.8857 30.7452 37.8983 30.777 37.8984H65.6429C65.6747 37.8983 65.7052 37.8857 65.7277 37.8632C65.7502 37.8407 65.7628 37.8102 65.7629 37.7784V11.0461C65.7628 11.0142 65.7502 10.9837 65.7277 10.9612C65.7052 10.9388 65.6747 10.9261 65.6429 10.9261H30.777Z" fill="#710A3C"/>
<path d="M43.1001 25.596V14.5H60.0713V25.596H43.1001Z" stroke="#C1365B"/>
<path d="M182.405 102.756H19.7998V104.916H182.405V102.756Z" fill="#3B0E2A"/>
<path d="M96.9978 96.9487H78.3354V100.9H96.9978V96.9487Z" fill="#FF7D7D"/>
<path d="M101.318 102.876H74.0156V100.124C74.0156 99.806 74.142 99.5008 74.3671 99.2758C74.5921 99.0507 74.8974 98.9243 75.2156 98.9243H100.118C100.436 98.9243 100.742 99.0507 100.967 99.2758C101.192 99.5008 101.318 99.806 101.318 100.124V102.876Z" fill="#C1365B"/>
<path d="M54.1193 22H37.0809C36.8153 22 36.6001 22.2132 36.6001 22.4762V33.5238C36.6001 33.7868 36.8153 34 37.0809 34H54.1193C54.3848 34 54.6001 33.7868 54.6001 33.5238V22.4762C54.6001 22.2132 54.3848 22 54.1193 22Z" fill="#FF7D7D"/>
<path d="M43 30.952L45.064 27.976L43 25H44.092L45.76 27.46L47.44 25H48.52L46.456 27.976L48.52 30.952H47.44L45.76 28.492L44.092 30.952H43Z" fill="#710A3C"/>
<path d="M163.75 73.452L165.814 70.476L163.75 67.5H164.842L166.51 69.96L168.19 67.5H169.27L167.206 70.476L169.27 73.452H168.19L166.51 70.992L164.842 73.452H163.75Z" fill="#710A3C"/>
<defs>
<linearGradient id="paint0_linear_398_520" x1="136.2" y1="61.2266" x2="136.2" y2="121.227" gradientUnits="userSpaceOnUse">
<stop stop-color="#3B0E2A"/>
<stop offset="1" stop-color="#710A3C"/>
</linearGradient>
<linearGradient id="paint1_linear_398_520" x1="30.6" y1="74.5469" x2="30.6" y2="117.747" gradientUnits="userSpaceOnUse">
<stop stop-color="#3B0E2A"/>
<stop offset="1" stop-color="#710A3C"/>
</linearGradient>
<linearGradient id="paint2_linear_398_520" x1="67.6" y1="31.5469" x2="67.6" y2="74.7469" gradientUnits="userSpaceOnUse">
<stop stop-color="#3B0E2A"/>
<stop offset="1" stop-color="#710A3C"/>
</linearGradient>
</defs>
</svg>
