<svg width="201" height="106" viewBox="0 0 201 106" fill="none" xmlns="http://www.w3.org/2000/svg">
<rect x="106.2" y="61.2266" width="60" height="60" rx="5" transform="rotate(-45 106.2 61.2266)" fill="url(#paint0_linear_396_190)"/>
<rect x="9" y="74.5469" width="43.2" height="43.2" rx="5" transform="rotate(-45 9 74.5469)" fill="url(#paint1_linear_396_190)"/>
<rect x="46" y="31.5469" width="43.2" height="43.2" rx="5" transform="rotate(-45 46 31.5469)" fill="url(#paint2_linear_396_190)"/>
<path d="M78.3354 79.687V102.756H96.9978V79.687H78.3354ZM90.5082 89.3375C90.5082 90.1433 90.1881 90.9161 89.6183 91.486C89.0485 92.0558 88.2757 92.3759 87.4698 92.3759C86.664 92.3759 85.8912 92.0558 85.3214 91.486C84.7515 90.9161 84.4314 90.1433 84.4314 89.3375V86.299H90.5082V89.3375Z" fill="#C1365B"/>
<path d="M78.3354 89.7553H84.4635C84.4432 89.6169 84.4325 89.4773 84.4314 89.3375V86.299H90.5083V89.3375C90.5072 89.4773 90.4965 89.617 90.4762 89.7553H96.9978V79.687H78.3354V89.7553Z" fill="#710A3C"/>
<path d="M126.782 31.5708H48.5509C46.4302 31.5708 44.7109 33.29 44.7109 35.4108V82.4594C44.7109 84.5802 46.4302 86.2994 48.5509 86.2994H126.782C128.903 86.2994 130.622 84.5802 130.622 82.4594V35.4108C130.622 33.29 128.903 31.5708 126.782 31.5708Z" fill="#880C48"/>
<path d="M125.16 35.1768H50.1741C49.2463 35.1768 48.4941 35.9289 48.4941 36.8568V81.0132C48.4941 81.941 49.2463 82.6932 50.1741 82.6932H125.16C126.088 82.6932 126.84 81.941 126.84 81.0132V36.8568C126.84 35.9289 126.088 35.1768 125.16 35.1768Z" fill="white"/>
<path d="M125.465 35.1768H49.869C49.5044 35.1768 49.1547 35.3216 48.8968 35.5795C48.639 35.8373 48.4941 36.187 48.4941 36.5517V38.8536H126.84V36.5517C126.84 36.187 126.695 35.8373 126.437 35.5795C126.179 35.3216 125.829 35.1768 125.465 35.1768Z" fill="#C1365B"/>
<path d="M169.62 91.1419H140.256V89.041C140.256 88.9137 140.306 88.7916 140.396 88.7016C140.486 88.6116 140.609 88.561 140.736 88.561H169.14C169.268 88.561 169.39 88.6116 169.48 88.7016C169.57 88.7916 169.62 88.9137 169.62 89.041V91.1419Z" fill="#3B0E2A"/>
<path d="M140.256 91.1419H169.62V102.276C169.62 102.403 169.57 102.525 169.48 102.615C169.39 102.705 169.268 102.756 169.14 102.756H140.736C140.609 102.756 140.486 102.705 140.396 102.615C140.306 102.525 140.256 102.403 140.256 102.276V91.1419ZM145.352 87.0059H164.525C164.652 87.0059 164.774 87.0564 164.864 87.1464C164.954 87.2365 165.005 87.3586 165.005 87.4859V88.561H144.872V87.4859C144.872 87.3586 144.922 87.2365 145.012 87.1464C145.102 87.0564 145.224 87.0059 145.352 87.0059Z" fill="#880C48"/>
<path d="M146.485 69.9326H163.391C163.582 69.9326 163.765 70.0085 163.9 70.1435C164.035 70.2785 164.111 70.4617 164.111 70.6526V87.0061H145.765V70.6526C145.765 70.4617 145.841 70.2785 145.976 70.1435C146.111 70.0085 146.294 69.9326 146.485 69.9326Z" fill="#C1365B"/>
<path d="M166.196 75.9877C169.238 75.9877 171.705 73.5211 171.705 70.4784C171.705 67.4358 169.238 64.9692 166.196 64.9692C163.153 64.9692 160.687 67.4358 160.687 70.4784C160.687 73.5211 163.153 75.9877 166.196 75.9877Z" fill="#FF7D7D"/>
<path d="M165.38 72.8L162.73 70.2901C162.691 70.2537 162.66 70.2097 162.638 70.1608C162.616 70.1118 162.603 70.0588 162.601 70.0048C162.598 69.9507 162.606 69.8967 162.624 69.8459C162.642 69.795 162.669 69.7483 162.704 69.7083C162.739 69.6684 162.782 69.636 162.829 69.6131C162.876 69.5902 162.927 69.5771 162.979 69.5747C163.032 69.5723 163.084 69.5806 163.133 69.5991C163.182 69.6175 163.227 69.6458 163.265 69.6824L165.378 71.6836L169.134 68.1084C169.212 68.0346 169.315 67.9957 169.42 68.0004C169.525 68.005 169.624 68.0528 169.696 68.1332C169.767 68.2136 169.804 68.3201 169.8 68.4291C169.795 68.5382 169.749 68.6409 169.672 68.7147L165.38 72.8Z" fill="#880C48"/>
<path d="M151.531 61.0981H151.051V67.5503H151.531V61.0981Z" fill="#FF7D7D"/>
<path d="M155.178 57.7891H154.698V67.5501H155.178V57.7891Z" fill="#FF7D7D"/>
<path d="M158.826 61.9248H158.346V67.5499H158.826V61.9248Z" fill="#FF7D7D"/>
<path d="M152.962 79.2466H149.686V87.0058H152.962V79.2466Z" fill="#FF7D7D"/>
<path d="M76.1712 45.5635H58.4688C58.2037 45.5635 57.9888 45.7784 57.9888 46.0435V57.7843C57.9888 58.0494 58.2037 58.2643 58.4688 58.2643H76.1712C76.4363 58.2643 76.6512 58.0494 76.6512 57.7843V46.0435C76.6512 45.7784 76.4363 45.5635 76.1712 45.5635Z" fill="#C1365B"/>
<path d="M101.664 47.106H82.6562V47.8259H101.664V47.106Z" fill="#FF7D7D"/>
<path d="M111.264 51.6738H82.6562V52.3938H111.264V51.6738Z" fill="#FF7D7D"/>
<path d="M106.464 56.2412H82.6562V56.9612H106.464V56.2412Z" fill="#FF7D7D"/>
<path d="M70.6421 69.061H58.4693C58.2042 69.061 57.9893 69.2759 57.9893 69.541V73.4194C57.9893 73.6845 58.2042 73.8994 58.4693 73.8994H70.6421C70.9072 73.8994 71.1221 73.6845 71.1221 73.4194V69.541C71.1221 69.2759 70.9072 69.061 70.6421 69.061Z" fill="#C1365B"/>
<path d="M93.3744 69.061H81.2017C80.9366 69.061 80.7217 69.2759 80.7217 69.541V73.4194C80.7217 73.6845 80.9366 73.8994 81.2017 73.8994H93.3744C93.6395 73.8994 93.8544 73.6845 93.8544 73.4194V69.541C93.8544 69.2759 93.6395 69.061 93.3744 69.061Z" fill="#C1365B"/>
<path d="M116.107 69.061H103.934C103.669 69.061 103.454 69.2759 103.454 69.541V73.4194C103.454 73.6845 103.669 73.8994 103.934 73.8994H116.107C116.372 73.8994 116.587 73.6845 116.587 73.4194V69.541C116.587 69.2759 116.372 69.061 116.107 69.061Z" fill="#C1365B"/>
<path opacity="0.28" d="M70.358 14.8057H35.4922C35.2271 14.8057 35.0122 15.0206 35.0122 15.2857V42.0181C35.0122 42.2832 35.2271 42.4981 35.4922 42.4981H70.358C70.6231 42.4981 70.838 42.2832 70.838 42.0181V15.2857C70.838 15.0206 70.6231 14.8057 70.358 14.8057Z" fill="#710A3C"/>
<path d="M65.9459 10.3999H31.0801C30.815 10.3999 30.6001 10.6148 30.6001 10.8799V37.6123C30.6001 37.8774 30.815 38.0923 31.0801 38.0923H65.9459C66.211 38.0923 66.4259 37.8774 66.4259 37.6123V10.8799C66.4259 10.6148 66.211 10.3999 65.9459 10.3999Z" fill="#3B0E2A"/>
<path d="M65.6429 38.6184H30.777C30.5543 38.6181 30.3408 38.5295 30.1833 38.3721C30.0259 38.2146 29.9373 38.0011 29.937 37.7784V11.0461C29.9373 10.8234 30.0259 10.6099 30.1833 10.4524C30.3408 10.2949 30.5543 10.2063 30.777 10.2061H65.6429C65.8656 10.2063 66.0791 10.2949 66.2365 10.4524C66.394 10.6099 66.4826 10.8234 66.4829 11.0461V37.7784C66.4826 38.0011 66.394 38.2146 66.2365 38.3721C66.0791 38.5295 65.8656 38.6181 65.6429 38.6184V38.6184ZM30.777 10.9261C30.7452 10.9261 30.7147 10.9388 30.6922 10.9612C30.6697 10.9837 30.6571 11.0142 30.657 11.0461V37.7784C30.6571 37.8102 30.6697 37.8407 30.6922 37.8632C30.7147 37.8857 30.7452 37.8983 30.777 37.8984H65.6429C65.6747 37.8983 65.7052 37.8857 65.7277 37.8632C65.7502 37.8407 65.7628 37.8102 65.7629 37.7784V11.0461C65.7628 11.0142 65.7502 10.9837 65.7277 10.9612C65.7052 10.9388 65.6747 10.9261 65.6429 10.9261H30.777Z" fill="#710A3C"/>
<path d="M60.0913 14H43.0801C42.815 14 42.6001 14.2149 42.6001 14.48V25.616C42.6001 25.8811 42.815 26.096 43.0801 26.096H60.0913C60.3564 26.096 60.5713 25.8811 60.5713 25.616V14.48C60.5713 14.2149 60.3564 14 60.0913 14Z" fill="url(#paint3_linear_396_190)"/>
<path d="M182.405 102.756H19.7998V104.916H182.405V102.756Z" fill="#3B0E2A"/>
<path d="M96.9978 96.9487H78.3354V100.9H96.9978V96.9487Z" fill="#FF7D7D"/>
<path d="M101.318 102.876H74.0156V100.124C74.0156 99.806 74.142 99.5008 74.3671 99.2758C74.5921 99.0507 74.8974 98.9243 75.2156 98.9243H100.118C100.436 98.9243 100.742 99.0507 100.967 99.2758C101.192 99.5008 101.318 99.806 101.318 100.124V102.876Z" fill="#C1365B"/>
<path d="M47.2002 16.8999H56.0002C56.2763 16.8999 56.5002 17.1238 56.5002 17.3999V22.5999C56.5002 22.876 56.2763 23.0999 56.0002 23.0999H47.2002C46.9241 23.0999 46.7002 22.876 46.7002 22.5999V17.3999C46.7002 17.1238 46.9241 16.8999 47.2002 16.8999Z" stroke="#FF7D7D"/>
<path d="M54.1193 22.3999H37.0809C36.8153 22.3999 36.6001 22.6131 36.6001 22.8761V33.9237C36.6001 34.1867 36.8153 34.3999 37.0809 34.3999H54.1193C54.3848 34.3999 54.6001 34.1867 54.6001 33.9237V22.8761C54.6001 22.6131 54.3848 22.3999 54.1193 22.3999Z" fill="url(#paint4_linear_396_190)"/>
<rect x="40.2002" y="24.7998" width="10.8" height="7.20001" rx="1" fill="#C1365B"/>
<path d="M44.9167 30.8L42.7082 28.2901C42.676 28.2537 42.65 28.2097 42.6315 28.1608C42.613 28.1118 42.6024 28.0588 42.6004 28.0048C42.5984 27.9507 42.605 27.8967 42.6198 27.8459C42.6346 27.795 42.6573 27.7483 42.6867 27.7083C42.716 27.6684 42.7514 27.636 42.7908 27.6131C42.8302 27.5902 42.8728 27.5771 42.9162 27.5747C42.9597 27.5723 43.0031 27.5806 43.044 27.5991C43.0848 27.6175 43.1224 27.6458 43.1545 27.6824L44.9154 29.6836L48.0454 26.1084C48.1101 26.0346 48.1956 25.9957 48.2833 26.0004C48.371 26.005 48.4536 26.0528 48.5129 26.1332C48.5723 26.2136 48.6035 26.3201 48.5998 26.4291C48.5961 26.5382 48.5576 26.6409 48.493 26.7147L44.9167 30.8Z" fill="#FF7D7D"/>
<defs>
<linearGradient id="paint0_linear_396_190" x1="136.2" y1="61.2266" x2="136.2" y2="121.227" gradientUnits="userSpaceOnUse">
<stop stop-color="#3B0E2A"/>
<stop offset="1" stop-color="#710A3C"/>
</linearGradient>
<linearGradient id="paint1_linear_396_190" x1="30.6" y1="74.5469" x2="30.6" y2="117.747" gradientUnits="userSpaceOnUse">
<stop stop-color="#3B0E2A"/>
<stop offset="1" stop-color="#710A3C"/>
</linearGradient>
<linearGradient id="paint2_linear_396_190" x1="67.6" y1="31.5469" x2="67.6" y2="74.7469" gradientUnits="userSpaceOnUse">
<stop stop-color="#3B0E2A"/>
<stop offset="1" stop-color="#710A3C"/>
</linearGradient>
<linearGradient id="paint3_linear_396_190" x1="51.5857" y1="14" x2="51.5857" y2="26.096" gradientUnits="userSpaceOnUse">
<stop stop-color="#710A3C"/>
<stop offset="1" stop-color="#3B0E2A"/>
</linearGradient>
<linearGradient id="paint4_linear_396_190" x1="45.6001" y1="22.3999" x2="45.6001" y2="34.3999" gradientUnits="userSpaceOnUse">
<stop stop-color="#3B0E2A"/>
<stop offset="1" stop-color="#710A3C"/>
</linearGradient>
</defs>
</svg>
